<svg id="icon" xmlns="http://www.w3.org/2000/svg" width="52.538" height="53.363" viewBox="0 0 52.538 53.363">
  <path id="Tracé_373" data-name="Tracé 373" d="M212.8,35.564l-13.31,8.814a4.532,4.532,0,0,1-3.22.7,4.547,4.547,0,0,0-3.227.7l-1.781,1.18-9.975-14.7,2.447-10.573a11.031,11.031,0,0,0-1.55-8.581,2.638,2.638,0,0,1,4.036-3.351l1.585,1.536a16.95,16.95,0,0,1,4.09,6.27l.86,2.315,8.853-5.849a3.019,3.019,0,0,1,4.23.921,3.059,3.059,0,0,1-.948,4.147.033.033,0,0,0-.012.042.034.034,0,0,0,.043.017,2.991,2.991,0,0,1,1.079-.2,3.017,3.017,0,0,1,2.964,3.6,3.086,3.086,0,0,1-1.266,1.912.065.065,0,0,0-.017.09,0,0,0,0,0,0,0,.063.063,0,0,0,.085.017,3.1,3.1,0,0,1,.732-.086,3.182,3.182,0,0,1,1.7.493,2.966,2.966,0,0,1,.881.864,3.018,3.018,0,0,1-.851,4.183l-.1.068a.047.047,0,0,0-.015.059.028.028,0,0,0,.011.011.048.048,0,0,0,.06,0,2.956,2.956,0,0,1,2.561.33,3.065,3.065,0,0,1,.9.894A3.02,3.02,0,0,1,212.8,35.564Zm0,0" transform="translate(-162.443 -8.061)" fill="#fdd7bd"/>
  <path id="Tracé_374" data-name="Tracé 374" d="M32.844,235.933,24.738,241.3a23.333,23.333,0,0,1-14.175-18.338l9.408-6.23L25.7,212.94a1.432,1.432,0,0,1,1.986.4l11.181,16.882Zm5.615-3.718" transform="translate(-9.514 -190.533)" fill="#ff923d"/>
  <path id="Tracé_375" data-name="Tracé 375" d="M119.313,232.214l-5.615,3.718-12.874-19.2,5.727-3.792a1.432,1.432,0,0,1,1.986.4l11.181,16.882A1.434,1.434,0,0,1,119.313,232.214Zm0,0" transform="translate(-90.368 -190.533)" fill="#ff923d"/>
  <g id="Groupe_1218" data-name="Groupe 1218" transform="translate(38.942 10.88)">
    <path id="Tracé_376" data-name="Tracé 376" d="M380.392,104.871l-4.429,2.37a1.435,1.435,0,0,1-1.83-.412l3.492-2.259a.033.033,0,0,0,.043.017,2.991,2.991,0,0,1,1.079-.2A3.04,3.04,0,0,1,380.392,104.871Zm0,0" transform="translate(-374.133 -104.387)" fill="#fac5aa"/>
    <path id="Tracé_377" data-name="Tracé 377" d="M405.772,158.021l-4.332,2.317a1.434,1.434,0,0,1-1.83-.41l3.492-2.259.151-.071a.063.063,0,0,0,.085.017,3.1,3.1,0,0,1,.732-.086A3.177,3.177,0,0,1,405.772,158.021Zm0,0" transform="translate(-396.954 -151.989)" fill="#fac5aa"/>
    <path id="Tracé_378" data-name="Tracé 378" d="M434.618,210.992l-3.816,2.041a1.435,1.435,0,0,1-1.83-.412L432,210.664a.048.048,0,0,0,.06,0A2.956,2.956,0,0,1,434.618,210.992Zm0,0" transform="translate(-423.257 -199.447)" fill="#fac5aa"/>
  </g>
  <path id="Tracé_379" data-name="Tracé 379" d="M52.4,22.861a3.822,3.822,0,0,0-2.367-1.629,3.844,3.844,0,0,0-2.564-5.541,3.853,3.853,0,0,0-.2-3.916A3.819,3.819,0,0,0,44.9,10.145a3.848,3.848,0,0,0-5.532-5L35.537,7.685A23.941,23.941,0,0,0,29.069,5.5,17.787,17.787,0,0,0,26.6,2.509L25.015.973a3.468,3.468,0,0,0-5.305,4.4q.062.095.123.19A24.139,24.139,0,1,0,47.347,37.425a.83.83,0,1,0-1.561-.563,22.508,22.508,0,0,1-28.246,13.7l6.751-4.471h0L29.9,42.373h0a2.263,2.263,0,0,0,.638-3.136l-.074-.112,1.09-.722a3.7,3.7,0,0,1,2.634-.569A5.35,5.35,0,0,0,38,37.009l9.04-5.986a22.526,22.526,0,0,1-.306,2.33.829.829,0,0,0,.664.967.809.809,0,0,0,.152.014.83.83,0,0,0,.815-.679,24.267,24.267,0,0,0,.4-3.774l2.547-1.687A3.849,3.849,0,0,0,52.4,22.861ZM33.926,8.751,31.391,10.43l-.5-1.345a17.758,17.758,0,0,0-.712-1.649A22.273,22.273,0,0,1,33.926,8.751ZM7.651,14.5a22.48,22.48,0,0,1,12.975-7.4,10.251,10.251,0,0,1,.517,6.208l-2.023,8.74a2.259,2.259,0,0,0-2.9-.338l-5.73,3.794h0L2.228,30.985c-.045-.583-.069-1.17-.069-1.758A22.472,22.472,0,0,1,7.651,14.5Zm21.595,26.1a.6.6,0,0,1-.259.384h0l-4.928,3.263-9.146-13.64a.83.83,0,0,0-1.378.924l9.14,13.632-7.035,4.659A22.548,22.548,0,0,1,2.445,32.8l8.275-5.462.952,1.421a.83.83,0,0,0,1.379-.924L12.1,26.424,17.141,23.1a.6.6,0,0,1,.836.171L29.158,40.153A.6.6,0,0,1,29.246,40.606ZM51.334,25.422a2.174,2.174,0,0,1-.937,1.39L47.485,28.74l0,0L37.087,35.626a3.694,3.694,0,0,1-2.634.569,5.353,5.353,0,0,0-3.813.824l-1.09.722L20.394,23.914l2.367-10.225a11.922,11.922,0,0,0-.873-7.826.813.813,0,0,0-.035-.074,11.737,11.737,0,0,0-.759-1.328,1.809,1.809,0,0,1,2.767-2.3L25.445,3.7a16.212,16.212,0,0,1,3.891,5.962l.863,2.325,0,.012.007.016c.006.014.012.027.018.038a.818.818,0,0,0,.057.1.829.829,0,0,0,1.15.234l8.85-5.86a2.189,2.189,0,1,1,2.418,3.65l-.768.509h0L40.22,11.826l-.007,0-.027.02a.829.829,0,0,0,.95,1.359l1.715-1.136a2.189,2.189,0,0,1,2.416,3.652l-2.483,1.644a.83.83,0,1,0,.916,1.383l.384-.254,1.33-.881a2.189,2.189,0,0,1,2.418,3.651l-1.24.821-.02.013-1.223.81a.83.83,0,1,0,.916,1.384l.384-.254h0l1.33-.88a2.189,2.189,0,0,1,3.354,2.261Zm0,0" transform="translate(-0.5 0)" fill="#311b46"/>
</svg>
