<svg xmlns="http://www.w3.org/2000/svg" width="34.02" height="34.02" viewBox="0 0 34.02 34.02">
  <g id="Etat" transform="translate(-17.1 52.51)">
    <circle id="Ellipse_55" data-name="Ellipse 55" cx="8" cy="8" r="8" transform="translate(26.109 -43)" fill="#ff923d"/>
    <path id="Icon" d="M31.5,13.379l-3.769-.925a12.158,12.158,0,0,0-.793-1.926l1.926-3.209a.939.939,0,0,0-.132-1.152L26.053,3.486A.939.939,0,0,0,24.9,3.354L21.692,5.28a12.158,12.158,0,0,0-1.926-.793L18.86.717A.969.969,0,0,0,17.935,0H14.159a.969.969,0,0,0-.925.717l-.906,3.769A12.158,12.158,0,0,0,10.4,5.28L7.193,3.354a.939.939,0,0,0-1.152.132L3.36,6.167a.939.939,0,0,0-.132,1.152l1.926,3.209a12.158,12.158,0,0,0-.793,1.926l-3.644.925A.93.93,0,0,0,0,14.285v3.776a.93.93,0,0,0,.717.906l3.644.925a12.158,12.158,0,0,0,.793,1.926L3.228,25.027a.939.939,0,0,0,.132,1.152l2.681,2.681a.939.939,0,0,0,1.152.132L10.4,27.066a12.158,12.158,0,0,0,1.926.793l.906,3.644a.969.969,0,0,0,.925.717h3.776a.969.969,0,0,0,.925-.717l.906-3.644a12.158,12.158,0,0,0,1.926-.793L24.9,28.991a.939.939,0,0,0,1.152-.132l2.681-2.681a.939.939,0,0,0,.132-1.152L26.94,21.818a12.158,12.158,0,0,0,.793-1.926l3.769-.925a.93.93,0,0,0,.717-.906V14.285A.93.93,0,0,0,31.5,13.379ZM16.047,20.892a4.72,4.72,0,1,1,4.72-4.72A4.721,4.721,0,0,1,16.047,20.892Z" transform="translate(18 -51.61)" fill="#fff" stroke="#311b46" stroke-width="1.8"/>
  </g>
</svg>
