<svg xmlns="http://www.w3.org/2000/svg" width="29.588" height="37.483" viewBox="0 0 29.588 37.483">
  <g id="Icon" transform="translate(-423.694 -64.883)">
    <path id="Tracé_3674" data-name="Tracé 3674" d="M453.205,101.745c0,7.742-6.276,9.364-14.018,9.364s-14.019-1.622-14.019-9.364,6.277-16.781,14.019-16.781S453.205,94,453.205,101.745Z" transform="translate(-0.699 -9.52)" fill="none"/>
    <path id="Tracé_3675" data-name="Tracé 3675" d="M449.111,84.964a10.238,10.238,0,0,0-3.008.463c6.3,1.931,11.011,9.609,11.011,16.318s-4.715,8.822-11.011,9.266c.97.068,1.975.1,3.008.1,7.742,0,14.018-1.622,14.018-9.364S456.854,84.964,449.111,84.964Z" transform="translate(-10.623 -9.52)" fill="#ff923d"/>
    <path id="Tracé_3676" data-name="Tracé 3676" d="M438.488,111.187c-6.888,0-14.794-1.152-14.794-10.14a19.809,19.809,0,0,1,4.272-11.773c2.932-3.729,6.668-5.783,10.523-5.783s7.591,2.054,10.522,5.783a19.809,19.809,0,0,1,4.272,11.773C453.282,110.034,445.376,111.187,438.488,111.187Zm0-26.146c-7.336,0-13.243,8.756-13.243,16.005,0,6.02,3.96,8.589,13.243,8.589s13.243-2.569,13.243-8.589C451.731,93.8,445.824,85.041,438.488,85.041Z" transform="translate(0 -8.821)" fill="#311b46"/>
    <path id="Tracé_3677" data-name="Tracé 3677" d="M450.024,80.861h-8.391a2.458,2.458,0,0,1-2.455-2.455v-.522a2.457,2.457,0,0,1,2.455-2.454h8.391a2.457,2.457,0,0,1,2.454,2.454v.522A2.457,2.457,0,0,1,450.024,80.861Zm-8.391-3.879a.9.9,0,0,0-.9.9v.522a.9.9,0,0,0,.9.9h8.391a.9.9,0,0,0,.9-.9v-.522a.9.9,0,0,0-.9-.9Z" transform="translate(-7.341 -5.001)" fill="#0757a0"/>
    <path id="Rectangle_390" data-name="Rectangle 390" d="M2.715,0h7.869A2.715,2.715,0,0,1,13.3,2.715v0A2.715,2.715,0,0,1,10.584,5.43H2.715A2.715,2.715,0,0,1,0,2.715v0A2.715,2.715,0,0,1,2.715,0Z" transform="translate(431.838 70.431)" fill="#311b46"/>
    <path id="Tracé_3680" data-name="Tracé 3680" d="M1.164,0H9.033a1.164,1.164,0,1,1,0,2.328H1.164A1.164,1.164,0,0,1,0,1.164H0A1.164,1.164,0,0,1,1.164,0Z" transform="translate(433.389 71.982)" fill="#fff"/>
    <path id="Tracé_3678" data-name="Tracé 3678" d="M451.066,71.774h-9.025a.776.776,0,0,1-.744-.556l-.935-3.169a2.464,2.464,0,0,1,3.4-2.931l2.869,1.335,2.671-1.275a2.464,2.464,0,0,1,3.425,2.92l-.92,3.121A.776.776,0,0,1,451.066,71.774Zm-8.444-1.551h7.864l.2-.666.56-1.9a.913.913,0,0,0-1.269-1.081h0l-3,1.432a.777.777,0,0,1-.662,0l-3.2-1.489a.913.913,0,0,0-1.26,1.086Zm7.018-4.346h0Z" transform="translate(-7.853 0)" fill="#311b46"/>
    <g id="Groupe_1306" data-name="Groupe 1306" transform="translate(434.342 82.496)">
      <path id="Tracé_3679" data-name="Tracé 3679" d="M450.4,103.886a2.775,2.775,0,0,0-2.228-1c-1.094,0-2.1.317-2.1,1.239,0,.87,1.041,1.028,2.149,1.16,1.924.237,3.981.58,3.981,2.9,0,1.78-1.489,2.782-3.124,2.9V112.4h-1.674V111.15a3.921,3.921,0,0,1-3.468-2.254l1.556-.659a2.884,2.884,0,0,0,2.623,1.384c1.186,0,2.28-.408,2.28-1.437,0-.87-1.094-1.187-2.32-1.331-1.885-.211-3.731-.541-3.731-2.729,0-1.727,1.529-2.518,3.059-2.7v-1.147h1.674v1.147a3.313,3.313,0,0,1,2.742,1.807Z" transform="translate(-443.939 -100.274)" fill="#311b46"/>
    </g>
  </g>
</svg>
