<svg xmlns="http://www.w3.org/2000/svg" width="30.392" height="30.392" viewBox="0 0 30.392 30.392">
  <g id="icon" transform="translate(0.15 0.15)">
    <rect id="Rectangle_392" data-name="Rectangle 392" width="29" height="25" transform="translate(0.055 5.046)" fill="#fff"/>
    <rect id="Rectangle_391" data-name="Rectangle 391" width="29" height="7" transform="translate(0.055 5.046)" fill="#ff923d"/>
    <path id="Tracé_3671" data-name="Tracé 3671" d="M36.289,15.385V11H35.012v4.385H17.08V11H15.8v4.385H11V41.092H41.092V15.385ZM12.284,16.625H39.876V22.38H12.284ZM39.876,39.851H12.284V23.626H39.876Z" transform="translate(-11 -11)" fill="#311b46" stroke="#311b46" stroke-width="0.3"/>
    <rect id="Rectangle_384" data-name="Rectangle 384" width="2.69" height="1.308" transform="translate(5.441 16.876)" fill="#311b46" stroke="#311b46" stroke-width="0.3"/>
    <rect id="Rectangle_385" data-name="Rectangle 385" width="2.69" height="1.308" transform="translate(13.701 16.876)" fill="#311b46" stroke="#311b46" stroke-width="0.3"/>
    <rect id="Rectangle_386" data-name="Rectangle 386" width="2.69" height="1.308" transform="translate(21.961 16.876)" fill="#311b46" stroke="#311b46" stroke-width="0.3"/>
    <rect id="Rectangle_387" data-name="Rectangle 387" width="2.69" height="1.308" transform="translate(5.441 23.029)" fill="#311b46" stroke="#311b46" stroke-width="0.3"/>
    <rect id="Rectangle_388" data-name="Rectangle 388" width="2.69" height="1.308" transform="translate(13.701 23.029)" fill="#311b46" stroke="#311b46" stroke-width="0.3"/>
    <rect id="Rectangle_389" data-name="Rectangle 389" width="2.69" height="1.308" transform="translate(21.961 23.029)" fill="#311b46" stroke="#311b46" stroke-width="0.3"/>
  </g>
</svg>
