<svg xmlns="http://www.w3.org/2000/svg" width="26.919" height="25.236" viewBox="0 0 26.919 25.236">
  <g id="word" transform="translate(0 -15.996)">
    <path id="Tracé_8919" data-name="Tracé 8919" d="M268.618,98.511H256.841a.84.84,0,0,1-.841-.841V80.845a.842.842,0,0,1,.841-.841h11.777a.841.841,0,0,1,.841.841V97.669A.84.84,0,0,1,268.618,98.511Z" transform="translate(-242.541 -60.643)" fill="#dfe1e3"/>
    <g id="Groupe_2481" data-name="Groupe 2481" transform="translate(13.459 22.726)">
      <path id="Tracé_8920" data-name="Tracé 8920" d="M265.253,145.686h-8.412a.841.841,0,1,1,0-1.682h8.412a.841.841,0,1,1,0,1.682Z" transform="translate(-256 -144.004)" fill="#1976d2"/>
      <path id="Tracé_8921" data-name="Tracé 8921" d="M265.253,209.686h-8.412a.841.841,0,1,1,0-1.682h8.412a.841.841,0,1,1,0,1.682Z" transform="translate(-256 -204.639)" fill="#1976d2"/>
      <path id="Tracé_8922" data-name="Tracé 8922" d="M265.253,273.686h-8.412a.841.841,0,1,1,0-1.682h8.412a.841.841,0,1,1,0,1.682Z" transform="translate(-256 -265.274)" fill="#1976d2"/>
      <path id="Tracé_8923" data-name="Tracé 8923" d="M265.253,337.686h-8.412a.841.841,0,0,1,0-1.682h8.412a.841.841,0,1,1,0,1.682Z" transform="translate(-256 -325.91)" fill="#1976d2"/>
    </g>
    <path id="Tracé_8924" data-name="Tracé 8924" d="M14.837,16.191a.828.828,0,0,0-.691-.18L.686,18.535A.842.842,0,0,0,0,19.361V37.867a.84.84,0,0,0,.686.826l13.459,2.524a.8.8,0,0,0,.155.015.841.841,0,0,0,.841-.841V16.837A.836.836,0,0,0,14.837,16.191Z" transform="translate(0 0)" fill="#1565c0"/>
    <path id="Tracé_8925" data-name="Tracé 8925" d="M71.564,184.485a.842.842,0,0,1-.732.74.721.721,0,0,1-.1.007.844.844,0,0,1-.787-.545l-1.736-4.63-1.736,4.63a.841.841,0,0,1-1.62-.178l-.841-5.888a.841.841,0,0,1,1.666-.237l.375,2.631,1.368-3.649a.877.877,0,0,1,1.576,0L70.28,180.8l.453-4.075a.841.841,0,1,1,1.672.187Z" transform="translate(-60.633 -151.571)" fill="#fafafa"/>
  </g>
</svg>
