<svg xmlns="http://www.w3.org/2000/svg" width="17.895" height="17.894" viewBox="0 0 17.895 17.894">
  <g id="PEncil" transform="translate(-19.038 -20.053)">
    <path id="Tracé_3587" data-name="Tracé 3587" d="M8,0A8,8,0,1,1,0,8,8,8,0,0,1,8,0Z" transform="translate(20 21)" fill="#fceaed"/>
    <g id="pencil-2" data-name="pencil" transform="translate(19.038 20.053)" style="isolation: isolate">
      <g id="Groupe_44" data-name="Groupe 44">
        <path id="Tracé_3586" data-name="Tracé 3586" d="M27.269,15.627,26.086,16.81l-2.958-2.962,1.183-1.183a.653.653,0,0,1,.9,0l2.056,2.06A.639.639,0,0,1,27.269,15.627Zm-9.886,9.9-2.958-2.962L22.072,14.9l2.958,2.962ZM13.741,23.99l2.213,2.217-3.082.869.869-3.086ZM28.324,13.669l-2.056-2.06a2.174,2.174,0,0,0-3.009,0L12.839,22.036a.717.717,0,0,0-.19.325l-1.57,5.591a.76.76,0,0,0,.19.73.916.916,0,0,0,.73.19L17.587,27.3a.717.717,0,0,0,.325-.19L28.324,16.682a2.136,2.136,0,0,0,0-3.013Z" transform="translate(-11.052 -10.992)" fill="#0b0b0b"/>
      </g>
    </g>
  </g>
</svg>
