<svg width="18" height="20" viewBox="0 0 18 20" fill="none" xmlns="http://www.w3.org/2000/svg">
<path d="M6 11.06H2C0.895625 11.06 0 11.9691 0 13.0899V17.1498C0 18.2707 0.895625 19.1797 2 19.1797H6C7.10437 19.1797 8 18.2707 8 17.1498V13.0899C8 11.9691 7.10437 11.06 6 11.06ZM16 11.06H12C10.8956 11.06 10 11.9691 10 13.0899V17.1498C10 18.2707 10.8956 19.1797 12 19.1797H16C17.1044 19.1797 18 18.2707 18 17.1498V13.0899C18 11.9691 17.1044 11.06 16 11.06ZM6 0.179688H2C0.895625 0.179688 0 1.08871 0 2.2096V6.26943C0 7.39032 0.895625 8.29935 2 8.29935H6C7.10437 8.29935 8 7.39032 8 6.26943V2.2096C8 1.08871 7.10437 0.179688 6 0.179688ZM16 0.179688H12C10.8956 0.179688 10 1.08871 10 2.2096V6.26943C10 7.39032 10.8956 8.29935 12 8.29935H16C17.1044 8.29935 18 7.39032 18 6.26943V2.2096C18 1.08871 17.1044 0.179688 16 0.179688Z" fill="#1F1D1C"/>
</svg>
