<svg width="22" height="23" viewBox="0 0 22 23" fill="none" xmlns="http://www.w3.org/2000/svg">
<g clip-path="url(#clip0_423_195)">
<path d="M21.5111 9.81514L18.9369 9.18374C18.7949 8.73091 18.6143 8.29109 18.3972 7.86911L19.7118 5.67807C19.787 5.55571 19.819 5.41165 19.8025 5.26898C19.7861 5.1263 19.7222 4.99328 19.6212 4.89124L17.7863 3.05637C17.6842 2.95532 17.5512 2.89145 17.4086 2.87501C17.2659 2.85857 17.1218 2.89051 16.9995 2.96571L14.8117 4.28465C14.3897 4.06752 13.9499 3.88697 13.497 3.74499L12.8775 1.1697C12.8401 1.03035 12.7581 0.907046 12.6441 0.818582C12.5302 0.730118 12.3904 0.681343 12.2461 0.679688L9.66865 0.679688C9.52436 0.681343 9.38458 0.730118 9.27059 0.818582C9.1566 0.907046 9.07465 1.03035 9.03724 1.1697L8.41878 3.74391C7.96595 3.88589 7.52613 4.06644 7.10416 4.28357L4.91096 2.97003C4.7886 2.89483 4.64454 2.86289 4.50186 2.87933C4.35919 2.89577 4.22617 2.95963 4.12412 3.06069L2.28926 4.89555C2.1882 4.9976 2.12434 5.13062 2.1079 5.2733C2.09146 5.41597 2.1234 5.56003 2.1986 5.68239L3.5197 7.86803C3.30257 8.29001 3.12202 8.72983 2.98003 9.18266L0.490017 9.81514C0.350617 9.84797 0.226384 9.9269 0.137447 10.0391C0.0485094 10.1514 7.82726e-05 10.2904 4.23686e-07 10.4336V13.0121C-0.000165068 13.1555 0.0481547 13.2948 0.137112 13.4072C0.226068 13.5197 0.350437 13.5988 0.490017 13.6317L2.97787 14.2631C3.11986 14.7159 3.30041 15.1557 3.51754 15.5777L2.20291 17.7687C2.12771 17.8911 2.09577 18.0352 2.11221 18.1778C2.12865 18.3205 2.19252 18.4535 2.29358 18.5556L4.12844 20.3904C4.23049 20.4915 4.36351 20.5554 4.50618 20.5718C4.64886 20.5882 4.79292 20.5563 4.91527 20.4811L7.10631 19.1665C7.52829 19.3836 7.96811 19.5641 8.42094 19.7061L9.0394 22.194C9.07681 22.3333 9.15876 22.4566 9.27275 22.5451C9.38674 22.6336 9.52652 22.6824 9.6708 22.684H12.2493C12.3936 22.6824 12.5334 22.6336 12.6474 22.5451C12.7614 22.4566 12.8433 22.3333 12.8807 22.194L13.4992 19.7061C13.952 19.5641 14.3918 19.3836 14.8138 19.1665L17.0049 20.4811C17.1272 20.5563 17.2713 20.5882 17.4139 20.5718C17.5566 20.5554 17.6896 20.4915 17.7917 20.3904L19.6266 18.5556C19.7276 18.4535 19.7915 18.3205 19.8079 18.1778C19.8244 18.0352 19.7924 17.8911 19.7172 17.7687L18.395 15.5745C18.6122 15.1525 18.7927 14.7127 18.9347 14.2598L21.5111 13.6317C21.6505 13.5988 21.7747 13.5199 21.8636 13.4077C21.9526 13.2954 22.001 13.1564 22.0011 13.0132V10.4336C22.001 10.2904 21.9526 10.1514 21.8636 10.0391C21.7747 9.9269 21.6505 9.84797 21.5111 9.81514ZM10.9574 14.9452C10.3199 14.9452 9.69683 14.7562 9.16683 14.4021C8.63683 14.0479 8.22374 13.5446 7.97981 12.9557C7.73588 12.3668 7.67206 11.7187 7.79641 11.0936C7.92077 10.4684 8.22772 9.89413 8.67844 9.4434C9.12917 8.99267 9.70343 8.68572 10.3286 8.56137C10.9538 8.43701 11.6018 8.50083 12.1907 8.74477C12.7796 8.9887 13.283 9.40178 13.6371 9.93178C13.9912 10.4618 14.1802 11.0849 14.1802 11.7223C14.18 12.577 13.8403 13.3966 13.236 14.0009C12.6316 14.6053 11.812 14.9449 10.9574 14.9452Z" fill="#1F1D1C"/>
</g>
<defs>
<clipPath id="clip0_423_195">
<rect width="22" height="22" fill="white" transform="translate(0 0.679688)"/>
</clipPath>
</defs>
</svg>
