<svg xmlns="http://www.w3.org/2000/svg" width="18.104" height="19.966" viewBox="0 0 18.104 19.966">
  <g id="clip" transform="translate(-11.8 -6.25)">
    <path id="Tracé_3681" data-name="Tracé 3681" d="M20.146,15.166a.7.7,0,0,0-.986-.986l-3.69,3.69a3.294,3.294,0,0,0,4.659,4.659L28.461,14.2a4.6,4.6,0,0,0-6.512-6.5l-8.314,8.314A5.915,5.915,0,1,0,22,24.382l3.69-3.69a.7.7,0,1,0-.986-.986l-3.69,3.69A4.521,4.521,0,1,1,14.62,17l8.314-8.314A3.163,3.163,0,0,1,25.2,7.753a3.2,3.2,0,0,1,2.261.935,3.163,3.163,0,0,1,.935,2.261,3.2,3.2,0,0,1-.935,2.261l-8.331,8.331a1.919,1.919,0,0,1-2.686,0,1.888,1.888,0,0,1,0-2.686l3.707-3.69Z" fill="#b7b5b9" stroke="#b7b5b9" stroke-width="0.2"/>
  </g>
</svg>
