<svg xmlns="http://www.w3.org/2000/svg" width="22.36" height="25.555" viewBox="0 0 22.36 25.555">
  <g id="pdf" transform="translate(-19.329)">
    <path id="Tracé_8891" data-name="Tracé 8891" d="M20.926,0H34.5l7.193,7.165V23.958a1.6,1.6,0,0,1-1.6,1.6H20.926a1.6,1.6,0,0,1-1.6-1.6V1.6A1.6,1.6,0,0,1,20.926,0Z" transform="translate(0)" fill="#e2574c"/>
    <path id="Tracé_8892" data-name="Tracé 8892" d="M210.121,7.364h-5.567a1.6,1.6,0,0,1-1.6-1.6V.193Z" transform="translate(-168.455 -0.177)" fill="#b53629"/>
    <path id="Tracé_8893" data-name="Tracé 8893" d="M99.626,136.491a.541.541,0,0,0,0-1.071H97.851a.554.554,0,0,0-.54.6v4.362c0,.389.221.6.521.6s.52-.216.52-.6v-1.2h1.074a.5.5,0,0,0,.5-.543.5.5,0,0,0-.5-.528H98.351v-1.627Zm-6-1.071h-1.3a.574.574,0,0,0-.6.6v4.37a.572.572,0,0,0,.618.585h1.363a2.528,2.528,0,0,0,2.678-2.7A2.594,2.594,0,0,0,93.626,135.42Zm.062,4.478H92.9v-3.4h.714c1.08,0,1.55.725,1.55,1.725C95.16,139.158,94.7,139.9,93.689,139.9Zm-4.758-4.478H87.645a.541.541,0,0,0-.567.6v4.362a.548.548,0,1,0,1.09,0v-1.274h.807a1.761,1.761,0,0,0,1.817-1.839A1.782,1.782,0,0,0,88.931,135.42Zm-.021,2.67h-.741v-1.646h.741a.827.827,0,0,1,0,1.646Z" transform="translate(-63.072 -124.625)" fill="#fff"/>
  </g>
</svg>
