<svg width="105" height="82" viewBox="0 0 105 82" fill="none" xmlns="http://www.w3.org/2000/svg">
<path d="M80.7529 62.7109L81.9536 65.2687L84.6386 65.6814L82.6957 67.6712L83.1543 70.4824L80.7529 69.1544L78.3515 70.4824L78.81 67.6712L76.8672 65.6814L79.5522 65.2687L80.7529 62.7109Z" fill="#F8830D"/>
<path d="M9.32519 38.5312L11.9339 43.8662L17.7676 44.7269L13.5464 48.8773L14.5426 54.7406L9.32519 51.9709L4.1078 54.7406L5.104 48.8773L0.882812 44.7269L6.71649 43.8662L9.32519 38.5312Z" fill="#F8830D"/>
<path d="M95.6768 9.17188L98.2854 14.5068L104.119 15.3676L99.8979 19.5179L100.894 25.3812L95.6768 22.6115L90.4594 25.3812L91.4556 19.5179L87.2344 15.3676L93.0681 14.5068L95.6768 9.17188Z" fill="#F8830D"/>
<path d="M22.9221 17.7969L23.8612 19.5752L25.9613 19.8621L24.4417 21.2456L24.8003 23.2L22.9221 22.2767L21.0438 23.2L21.4024 21.2456L19.8828 19.8621L21.9829 19.5752L22.9221 17.7969Z" fill="#F8830D"/>
<path d="M28.9689 62.7109L29.9081 64.4893L32.0082 64.7762L30.4886 66.1596L30.8472 68.1141L28.9689 67.1908L27.0907 68.1141L27.4493 66.1596L25.9297 64.7762L28.0298 64.4893L28.9689 62.7109Z" fill="#FFB367"/>
<path d="M51.5477 0L53.4623 4.07863L57.7438 4.73669L54.6458 7.90968L55.3769 12.3923L51.5477 10.2748L47.7185 12.3923L48.4496 7.90968L45.3516 4.73669L49.6331 4.07863L51.5477 0Z" fill="#FF8C18"/>
<path d="M76.2173 29.432H71.2523V26.9494C71.2512 25.6329 70.7278 24.3707 69.7969 23.4398C68.866 22.5089 67.6037 21.9854 66.2872 21.9844H36.4994C35.1829 21.9854 33.9206 22.5089 32.9897 23.4398C32.0588 24.3707 31.5354 25.6329 31.5343 26.9494V29.432H26.5666C25.2501 29.433 23.9879 29.9565 23.057 30.8874C22.1261 31.8183 21.6026 33.0806 21.6016 34.3971V41.8447C21.6037 44.4781 22.6504 47.0032 24.512 48.8659C26.3737 50.7285 28.8982 51.7766 31.5317 51.7801H32.3306C33.366 55.5793 35.4849 58.9949 38.429 61.61C41.373 64.2251 45.0147 65.9265 48.9095 66.5065V76.6002H36.4994V81.5652H66.2951V76.6002H53.8745V66.4986C57.8196 66.0111 61.5263 64.346 64.5109 61.7204C67.4956 59.0949 69.6197 55.6308 70.6063 51.7801H71.2523C73.8848 51.7766 76.4086 50.7293 78.2701 48.8677C80.1316 47.0062 81.1789 44.4825 81.1824 41.8499V34.3971C81.1814 33.0806 80.6579 31.8183 79.727 30.8874C78.7961 29.9565 77.5338 29.433 76.2173 29.432ZM31.5317 46.8097C30.2152 46.8087 28.9529 46.2852 28.022 45.3543C27.0911 44.4234 26.5677 43.1612 26.5666 41.8447V34.3971H31.5317V46.8097ZM76.2173 41.8447C76.2163 43.1612 75.6929 44.4234 74.7619 45.3543C73.831 46.2852 72.5688 46.8087 71.2523 46.8097V34.3971H76.2173V41.8447Z" fill="#FF8C18"/>
<path d="M51.3907 34.2109L53.9254 39.3265L59.5938 40.1519L55.4922 44.1315L56.4602 49.7538L51.3907 47.0979L46.3211 49.7538L47.2891 44.1315L43.1875 40.1519L48.8559 39.3265L51.3907 34.2109Z" fill="white"/>
</svg>
