<svg width="42" height="82" viewBox="0 0 42 82" fill="none" xmlns="http://www.w3.org/2000/svg">
<path d="M40.2133 18.3911C39.8565 19.3208 39.238 20.3998 38.5889 20.6681C37.8531 20.9723 37.5461 21.4021 37.5461 21.4021L36.9519 21.0678L36.2422 20.6681C36.2422 20.6681 36.2589 20.5918 36.2937 20.4673C36.3278 20.3435 36.3812 20.171 36.4531 19.9798C36.4531 19.9798 36.6709 19.7087 36.5375 19.3679C36.4041 19.0277 36.4308 18.5018 36.6584 18.1808C36.8861 17.8603 37.1057 17.0705 37.2428 17.094C37.5747 17.1492 37.0797 18.2348 37.2217 18.4362C37.3501 18.6183 37.5108 18.5558 37.5405 18.542C37.5424 18.5408 37.5443 18.5402 37.5461 18.539C38.4773 18.1423 39.6065 16.0038 40.1065 16.2923C40.2932 16.4005 40.3653 17.9951 40.2133 18.3911Z" fill="#FFB27D"/>
<path d="M36.9917 19.6843L38.158 20.4786C38.2405 20.5347 38.3552 20.5152 38.4131 20.4354L41.401 16.3157C41.4589 16.2359 41.4389 16.1247 41.3565 16.0685L40.1902 15.2743C40.1078 15.2182 39.993 15.2376 39.9351 15.3174L36.9472 19.4371C36.8893 19.517 36.9093 19.6282 36.9917 19.6843Z" fill="#380A17"/>
<path d="M38.0591 20.411L38.7428 20.8766C38.8055 20.9193 38.8929 20.9045 38.9369 20.8438L41.9752 16.6547C42.0192 16.594 42.004 16.5093 41.9413 16.4666L41.2575 16.001C41.1948 15.9583 41.1075 15.9731 41.0634 16.0338L38.0252 20.2229C37.9811 20.2836 37.9964 20.3683 38.0591 20.411Z" fill="#380A17"/>
<path d="M20.2532 13.7734C20.2532 13.7734 26.1882 23.8042 28.3414 25.6499L36.2364 19.9464C36.2364 19.9464 37.382 20.2868 37.8836 21.4012C37.8836 21.4012 33.0894 30.8659 28.369 31.2672C23.6486 31.6685 17.0234 19.9227 17.0234 19.9227L20.2532 13.7734Z" fill="#380A17"/>
<path d="M6.82534 81.9943H3.39616C2.9644 81.7671 2.57981 81.2471 2.45822 80.4717C2.29072 79.4012 1.05252 78.8175 0.784548 77.9417C0.517186 77.0665 1.88938 75.8343 1.88938 75.8343L2.1189 75.5475L2.35772 75.25L4.63371 75.7693C4.63371 75.7693 4.69018 76.2947 4.72427 76.9637C4.7491 77.4464 4.76211 78.0042 4.73422 78.4935C4.66723 79.6609 5.07105 80.9183 6.14176 81.1456C6.93332 81.3133 6.89792 81.7683 6.82534 81.9943Z" fill="#404969"/>
<path d="M26.7289 81.9953H18.8866C18.5094 81.5493 18.6484 79.9035 18.7055 79.3661C18.7173 79.2579 18.7253 79.1948 18.7253 79.1948C18.7253 79.1948 21.4033 77.1192 21.7712 78.7085C21.7823 78.7584 21.796 78.8071 21.8108 78.8551C22.2742 80.3417 24.353 81.0173 25.5533 81.2054C26.3337 81.3281 26.6222 81.7212 26.7289 81.9953Z" fill="#404969"/>
<path d="M25.2289 39.5794C25.2289 39.5794 24.8223 44.4956 24.3443 50.405C23.6947 58.4324 22.9136 68.2929 22.8363 70.1609C22.7027 73.4045 22.1666 78.593 22.1666 78.593C22.1666 78.593 20.8955 79.8257 18.3512 79.3062C18.3512 79.3062 16.0841 71.8995 15.4365 64.0627C15.4265 63.9343 15.4164 63.8048 15.4064 63.6755C14.8039 55.6976 13.8672 38.8984 13.8672 38.8984L25.2289 39.5794Z" fill="#F8830D"/>
<path d="M25.2289 39.5794C25.2289 39.5794 24.8223 44.4956 24.3443 50.405L15.4365 64.0627C15.4265 63.9343 15.4164 63.8048 15.4064 63.6755C14.8039 55.6976 13.8672 38.8984 13.8672 38.8984L25.2289 39.5794Z" fill="#EB8412"/>
<path d="M23.377 40.1637C23.377 40.1637 16.0476 57.968 11.2282 66.3349C6.40878 74.702 4.90273 77.037 4.90273 77.037C4.90273 77.037 2.14163 75.9668 1.89062 75.2371C1.89062 75.2371 3.73355 59.0842 6.96102 55.1465C8.78471 52.9216 10.927 46.2444 11.0274 43.9094C11.1278 41.5744 11.68 36.9531 11.68 36.9531L23.377 40.1637Z" fill="#F8830D"/>
<path d="M21.5543 14.2139C18.6902 15.0896 13.7344 12.7261 13.7344 12.7261C13.7344 12.7261 16.3751 10.8056 16.2368 6.8125L18.4514 8.54186L19.9557 9.71643C19.9557 9.71643 19.9495 10.4089 19.7851 11.6225C19.7417 11.9417 19.6877 12.2975 19.6195 12.6864C20.849 13.3404 21.5543 14.2139 21.5543 14.2139Z" fill="#FFB27D"/>
<path d="M19.9548 9.71625C19.9548 9.71625 19.9486 10.4087 19.7842 11.6223C18.1174 11.3452 16.2266 8.73466 16.2266 8.73466C17.0752 8.4972 17.8184 8.45454 18.4504 8.54169L19.9548 9.71625Z" fill="#ED975D"/>
<path d="M20.8307 9.64657C20.8307 9.64657 16.0998 10.4082 15.6557 7.54604C15.2116 4.68391 14.3019 2.85461 17.3037 2.24734C20.3055 1.64007 21.0631 2.64651 21.4512 3.56691C21.8392 4.48726 22.0499 9.3747 20.8307 9.64657Z" fill="#FFB27D"/>
<path d="M25.5461 39.99C25.4599 40.0594 25.3598 40.1012 25.245 40.1012C24.1695 40.087 21.033 40.6659 18.3792 40.4019C16.1419 40.1936 14.1617 39.5515 12.0352 38.6278C11.7528 38.5051 11.1028 38.169 11.1174 37.8632C11.127 37.5283 11.1613 37.0425 11.2044 36.4308C11.3549 34.3039 11.6172 30.6456 11.3615 26.4251C11.3155 25.6392 11.2914 24.8597 11.2884 24.0921C11.2665 18.372 12.4371 13.3409 14.7891 11.6381C14.99 11.4986 16.2234 12.0827 17.3567 12.6244C18.4037 13.1249 19.4508 13.1801 20.4401 12.9862L21.4294 13.8337C22.6343 14.9177 23.9539 16.391 24.5275 18.6284C25.0156 20.5322 25.302 23.9655 25.4599 27.5232C25.5315 29.1354 25.5892 30.7617 25.6038 32.3044V32.3597C25.6177 32.5127 25.6177 32.6797 25.6177 32.8327C25.6754 36.7933 25.6177 39.9341 25.5461 39.99Z" fill="#380A17"/>
<path d="M11.2031 36.4292C11.3536 34.3023 11.616 30.6439 11.3602 26.4234C11.3142 25.6376 11.2901 24.858 11.2872 24.0905C12.267 21.7874 13.0678 20.1172 13.0678 20.1172H15.5375C15.5375 20.1172 17.3481 32.1011 11.2031 36.4292Z" fill="#46232D"/>
<path d="M6.56516 36.846C6.56516 36.846 6.01197 37.5601 5.99003 37.8453C5.84137 39.7789 6.75313 40.0464 4.39244 41.1204C4.39244 41.1204 3.38462 41.4928 3.36749 40.7349C3.35036 39.9769 4.0669 39.9643 3.93585 38.9029C3.78474 37.6786 3.79995 37.6673 4.62922 37.0279L5.17833 36.1484L6.56516 36.846Z" fill="#FFB27D"/>
<path d="M5.16013 37.3948C6.04942 37.5628 7.01349 37.4948 7.01349 37.4948C7.01349 37.4948 9.65373 29.5915 9.99354 28.8696C10.3334 28.1477 17.8359 19.6026 17.8359 19.6026L14.7105 12.0234C14.7105 12.0234 6.59568 25.158 5.7717 27.0035C4.41011 30.0533 3.9375 36.8911 3.9375 36.8911C3.9375 36.8911 4.46161 37.2629 5.16013 37.3948Z" fill="#380A17"/>
<path d="M15.6511 7.27232C15.6511 7.27232 16.1365 7.19365 16.0582 6.54572C15.9799 5.89775 15.9809 5.05081 16.5246 5.20865C17.0683 5.36649 17.0953 5.7883 17.3187 5.542C17.5422 5.29566 17.5462 4.25791 19.1639 4.18565C20.7816 4.11342 21.439 4.65902 22.1913 4.33855C22.9436 4.01805 22.9833 2.91472 22.9833 2.91472C22.9833 2.91472 22.7693 3.30868 22.4462 3.434C22.4462 3.434 23.7012 1.77062 22.2481 0.629993C20.7951 -0.510592 19.3135 0.236112 18.4725 0.285463C16.6197 0.394111 15.4229 0.50186 14.8177 1.68156C14.2125 2.86122 14.4622 6.13679 15.6511 7.27232Z" fill="#380A17"/>
<path d="M5.69609 37.6953C5.69609 37.6953 6.22877 38.2334 6.26237 38.4572C6.3703 39.1757 6.61792 39.4861 6.4938 39.5642C6.23586 39.7267 5.89438 39.1947 5.73132 38.7174C5.56826 38.24 5.69609 37.6953 5.69609 37.6953Z" fill="#FFB27D"/>
</svg>
