<svg width="51" height="74" viewBox="0 0 51 74" fill="none" xmlns="http://www.w3.org/2000/svg">
<g clip-path="url(#clip0_861_296)">
<path d="M1.23438 50.5046C1.23438 50.5046 2.46824 71.9419 24.2666 73.5909C46.065 75.24 50.3836 54.0088 50.5892 52.1536C50.7949 50.2985 50.5892 24.9447 27.1457 23.9141C3.49647 23.9141 1.02873 44.1146 1.44002 49.6801L1.23438 50.5046Z" fill="#F5CA8E"/>
<path d="M1.23828 50.9106C1.23828 50.9106 2.88344 51.3229 3.91166 51.3229C4.93989 51.3229 6.17376 51.1167 6.17376 50.7045C6.17376 50.2922 6.58505 39.3674 6.58505 39.3674C6.58505 39.3674 7.20199 37.5123 8.23021 37.1C9.25844 36.6878 9.46408 36.8939 9.46408 36.8939L10.9036 34.0081C10.9036 34.0081 17.6899 37.7184 23.448 37.9245C29.206 38.1307 35.581 37.3062 40.9278 34.4204L41.956 36.2755C41.956 36.2755 44.2181 35.6571 45.2463 38.1307C46.2746 40.6042 45.2463 49.4677 45.452 50.0861C45.6576 50.7045 46.0689 51.1167 47.7141 51.1167C49.3592 51.1167 50.3875 50.9106 50.3875 50.9106C50.3875 50.9106 50.7988 37.3062 41.7504 30.5039C32.702 23.7017 21.5971 20.8159 9.46408 30.5039C-1.22946 38.5429 1.23828 50.9106 1.23828 50.9106Z" fill="#807B78"/>
<path d="M19.9491 20.6146C19.9491 20.6146 18.9208 21.233 18.0983 20.6146C17.4813 19.9962 18.0983 18.9656 18.0983 18.9656C18.0983 18.9656 16.4531 20.2024 15.8362 19.3778C15.2192 18.5533 16.2475 16.9043 16.2475 16.9043C16.2475 16.9043 14.191 17.1104 13.7797 15.8737C13.3684 14.6369 14.3966 13.8124 14.3966 13.8124C14.3966 13.8124 13.3684 13.194 13.5741 11.9572C13.7797 10.5143 15.0136 10.5143 15.0136 10.5143C15.0136 10.5143 13.9854 9.27757 14.6023 8.0408C15.2192 6.80403 16.6587 7.21629 16.6587 7.21629C16.6587 7.21629 15.4249 5.97952 16.4531 4.74275C17.4813 3.50598 18.7152 4.12437 18.7152 4.12437C18.7152 4.12437 18.5096 2.26922 20.1547 2.06309C21.7999 1.85696 21.7999 2.68147 21.7999 2.68147C21.7999 2.68147 21.3886 1.03245 22.6225 0.826319C23.8563 0.620191 24.4733 1.65083 24.4733 1.65083C24.4733 1.65083 24.8846 0.414062 26.3241 0.414062C27.7636 0.414062 28.1749 1.85696 28.1749 1.85696C28.1749 1.85696 28.5862 0.207934 30.437 0.826319C32.2878 1.4447 31.2596 3.09373 31.2596 3.09373C31.2596 3.09373 32.2878 2.47534 33.316 3.29986C34.3442 4.12437 33.9329 5.15501 33.9329 5.15501C33.9329 5.15501 35.3725 4.53662 36.195 5.77339C36.812 7.21629 35.7837 8.24693 35.7837 8.24693C35.7837 8.24693 36.812 7.83467 37.0176 9.4837C37.2233 11.1327 36.4007 11.3389 36.4007 11.3389C36.4007 11.3389 37.6346 11.9572 37.4289 12.7817C37.0176 13.6063 36.195 14.2246 36.195 14.2246C36.195 14.2246 36.6063 15.2553 36.195 16.4921C35.7837 17.7288 34.9612 17.5227 34.9612 17.5227C34.9612 17.5227 35.7837 17.935 35.1668 18.7595C34.5499 19.584 33.1104 19.7901 33.1104 19.7901C33.1104 19.7901 33.316 20.4085 32.6991 21.0269C32.2878 21.6453 31.2596 21.0269 31.2596 21.0269L25.9128 21.4391L21.7999 21.0269L19.9491 20.6146Z" fill="#807B78"/>
<path d="M20.1562 20.8203L20.3619 22.6755L20.1562 24.3245C20.1562 24.3245 22.4183 24.9429 25.0917 24.9429C27.7651 24.9429 31.6724 24.3245 31.6724 24.3245V22.8816L31.4667 21.4387C31.4667 21.4387 28.1764 21.851 26.12 21.851C24.0635 21.851 20.1562 20.8203 20.1562 20.8203Z" fill="#A2DCE8"/>
<path d="M31.875 44.7299C31.875 44.7299 31.875 43.0809 32.9032 42.8748C33.9315 42.6687 34.5484 42.8748 34.5484 42.8748C34.5484 42.8748 36.1935 41.2258 37.2218 41.4319C38.25 41.638 38.6613 42.4625 38.6613 42.4625C38.6613 42.4625 39.0726 42.0503 39.8952 42.2564C40.5121 42.4625 42.1573 44.1116 42.9798 44.3177C43.8024 44.7299 45.0363 44.9361 45.0363 44.9361C45.0363 44.9361 43.5968 45.3483 42.7742 45.3483C41.9516 45.3483 31.875 44.9361 31.875 44.9361V44.7299Z" fill="#807B78"/>
<path d="M20.5675 44.5268C20.5675 44.5268 20.5675 42.8778 19.5393 42.6717C18.5111 42.4655 17.8942 42.6717 17.8942 42.6717C17.8942 42.6717 16.249 41.0226 15.2208 41.2288C14.1925 41.4349 13.7813 42.2594 13.7813 42.2594C13.7813 42.2594 13.37 41.8472 12.5474 42.0533C11.7248 42.2594 10.2853 43.9084 9.4627 44.1146C8.64012 44.5268 7.40625 44.7329 7.40625 44.7329C7.40625 44.7329 8.84577 45.3513 9.66835 45.3513C10.4909 45.3513 20.5675 44.9391 20.5675 44.9391V44.5268Z" fill="#807B78"/>
<path d="M40.3115 48.441C40.3115 48.441 40.3115 50.0901 39.2833 50.0901C38.255 50.0901 37.8438 48.8533 37.8438 48.441C37.8438 48.0288 40.3115 48.441 40.3115 48.441Z" fill="#807B78"/>
<path d="M12.3438 48.441C12.3438 48.441 12.3438 50.0901 13.372 50.0901C14.4002 50.0901 14.8115 48.8533 14.8115 48.441C14.8115 48.0288 12.3438 48.441 12.3438 48.441Z" fill="#807B78"/>
<path d="M14.6041 8.44951C14.6041 8.24338 14.6041 8.24338 14.8097 8.03726C15.0154 7.83113 15.221 7.625 15.4267 7.625C15.6323 7.625 15.838 7.625 15.838 7.83113C16.0436 8.24338 15.838 8.24338 15.838 8.44951C15.838 8.65564 15.6323 8.65564 15.6323 8.65564L15.4267 8.86177C15.4267 9.0679 15.4267 9.0679 15.4267 9.27403V9.48015C15.4267 9.68628 15.221 9.89241 14.8097 9.89241C14.3984 9.89241 14.3984 9.48015 14.3984 9.27403C14.3984 9.0679 14.3984 8.86177 14.3984 8.65564C14.3984 8.65564 14.6041 8.65564 14.6041 8.44951Z" fill="white"/>
<path d="M16.4533 5.35576C16.4533 5.14963 16.6589 5.14963 16.6589 4.94351C16.8646 4.73738 17.0702 4.53125 17.2759 4.53125C17.4815 4.53125 17.4815 4.53125 17.6872 4.73738C17.8928 5.14963 17.6872 5.14963 17.6872 5.35576C17.6872 5.56189 17.4815 5.56189 17.2759 5.76802C17.0702 5.76802 17.0702 5.97415 17.0702 6.18027C17.0702 6.3864 17.0702 6.3864 16.8646 6.59253C16.8646 6.59253 16.8646 6.79866 16.6589 6.79866C16.8646 6.79866 16.4533 7.00479 16.2476 6.79866C16.042 6.59253 16.2476 6.18028 16.2476 5.97415C16.2476 5.76802 16.2476 5.56189 16.4533 5.35576Z" fill="white"/>
<path d="M19.3333 2.47476C19.3333 2.26863 19.539 2.26863 19.7446 2.26863C19.7446 2.0625 19.9503 2.0625 20.1559 2.0625C20.3616 2.0625 20.5672 2.0625 20.5672 2.26863C20.5672 2.68088 20.5672 2.68088 20.3616 2.88701C20.3616 3.09314 20.1559 3.09314 19.9503 3.09314C19.7446 3.09314 19.7446 3.29927 19.7446 3.29927C19.7446 3.5054 19.539 3.5054 19.539 3.71152C19.539 3.71152 19.539 3.91765 19.3333 3.91765C19.1277 3.91765 18.922 3.91765 18.7164 3.71152C18.5108 3.5054 18.7164 3.29927 18.7164 3.09314C18.922 2.88701 19.1277 2.68088 19.3333 2.47476C19.1277 2.47476 19.1277 2.47476 19.3333 2.47476Z" fill="white"/>
<path d="M13.3672 11.5446C13.3672 11.3385 13.3672 11.1324 13.5728 11.1324C13.7785 10.9262 13.7785 10.7201 14.1898 10.514C14.1898 10.3078 14.1898 10.3078 14.3954 10.514C14.6011 10.9262 14.6011 10.9262 14.3954 11.1324C14.3954 11.3385 14.3954 11.3385 14.1898 11.5446C14.1898 11.5446 13.9841 11.7507 14.1898 11.9569C14.1898 12.163 14.1898 12.163 14.1898 12.3691C14.3954 12.3691 14.3954 12.3691 14.3954 12.3691C14.3954 12.5753 14.1898 12.7814 13.9841 12.7814C13.5728 12.7814 13.5728 12.3691 13.3672 12.163C13.3672 11.9569 13.3672 11.7507 13.3672 11.5446Z" fill="white"/>
<path d="M13.5703 11.7477C13.5703 11.5416 13.5703 11.5416 13.5703 11.3355C13.5703 11.1294 13.776 10.9232 13.9816 10.7171C14.1872 10.511 14.1872 10.511 14.3929 10.7171C14.8042 10.9232 14.5985 10.9232 14.5985 11.1294C14.5985 11.3355 14.5985 11.3355 14.3929 11.5416C14.3929 11.7477 14.3929 11.7477 14.3929 11.9539C14.3929 12.16 14.3929 12.16 14.3929 12.3661V12.5722C14.3929 12.7784 14.1872 12.9845 13.776 12.9845C13.776 12.9845 13.776 12.5722 13.5703 12.3661C13.5703 12.16 13.5703 11.9539 13.5703 11.7477Z" fill="white"/>
<path d="M13.5703 15.0446C13.5703 14.8385 13.5703 14.8385 13.5703 14.6324C13.5703 14.4262 13.776 14.2201 13.776 14.014C13.9816 13.8078 13.9816 13.8078 14.1872 14.014C14.8042 14.2201 14.5985 14.2201 14.5985 14.4262C14.5985 14.6324 14.5985 14.6324 14.5985 14.8385C14.5985 15.0446 14.5985 15.0446 14.5985 15.2507C14.5985 15.4569 14.8042 15.4569 14.8042 15.663V15.8691C14.8042 16.0753 14.5985 16.2814 14.3929 16.2814C13.9816 16.2814 13.9816 16.0753 13.776 15.8691C13.5703 15.663 13.776 15.4569 13.5703 15.4569C13.5703 15.2507 13.5703 15.2507 13.5703 15.0446Z" fill="white"/>
<path d="M15.63 19.1691C15.4244 19.1691 15.4244 18.963 15.2188 18.7569C15.2188 18.5507 15.2187 18.5507 15.4244 18.3446C15.4244 18.3446 15.4244 18.1385 15.63 18.1385C15.8357 18.1385 15.8357 17.9324 16.0413 18.1385C16.4526 18.1385 16.4526 18.3446 16.4526 18.5507H16.6583C16.6583 18.5507 16.6583 18.5507 16.8639 18.5507C17.0696 18.7569 17.2752 18.7569 17.0696 19.1691C17.0696 19.5814 16.6583 19.5814 16.4526 19.5814H16.247C16.0413 19.5814 16.0413 19.5814 16.0413 19.3753C15.8357 19.3753 15.63 19.3753 15.63 19.1691Z" fill="white"/>
<path d="M18.0963 20.1974C17.8906 19.9912 17.8906 19.9912 17.8906 19.7851C17.8906 19.579 17.8906 19.579 18.0963 19.3729C18.5076 19.1667 18.5076 19.3729 18.7132 19.3729C18.9189 19.3729 18.9189 19.579 18.9189 19.579C18.9189 19.579 18.9189 19.7851 19.1245 19.7851C19.3301 19.7851 19.3301 19.9912 19.3301 19.9912C19.3301 19.9912 19.3301 19.9912 19.3301 20.1974C19.3301 20.4035 19.1245 20.6096 18.9189 20.6096C18.5076 20.6096 18.5076 20.6096 18.3019 20.4035C18.3019 20.4035 18.3019 20.4035 18.0963 20.1974C18.0963 20.4035 18.0963 20.1974 18.0963 20.1974Z" fill="white"/>
<path d="M21.8017 22.6773C21.8017 22.8834 21.8017 23.0895 21.8017 23.0895C21.8017 23.2957 21.596 23.7079 21.596 23.7079C21.3904 23.914 21.3904 23.914 21.1847 23.7079C20.7734 23.5018 20.9791 23.2957 20.9791 23.2957C20.9791 23.0895 20.9791 22.8834 20.9791 22.6773C20.9791 22.4711 20.9791 22.4711 20.9791 22.265C20.9791 22.0589 20.7734 22.0589 20.7734 21.8528V21.6466C20.7734 21.4405 20.9791 21.2344 21.1847 21.2344C21.596 21.2344 21.596 21.6466 21.8017 21.8528C21.8017 22.0589 21.8017 22.265 22.0073 22.4711C21.8017 22.6773 21.8017 22.6773 21.8017 22.6773Z" fill="white"/>
<path d="M21.3851 22.6731C21.3851 22.8792 21.3851 22.8792 21.3851 22.6731C21.3851 22.8792 21.3851 23.0853 21.3851 23.0853C21.3851 23.0853 21.1794 23.2915 20.9738 23.2915C20.5625 23.2915 20.5625 23.2915 20.5625 23.0853C20.5625 22.8792 20.5625 22.8792 20.5625 22.6731V22.4669V22.2608C20.5625 22.2608 20.5625 22.0547 20.7681 22.0547C20.9738 22.0547 21.1794 22.0547 21.3851 22.0547C21.5907 22.0547 21.5907 22.2608 21.5907 22.4669C21.3851 22.4669 21.3851 22.6731 21.3851 22.6731Z" fill="white"/>
<path d="M6.5795 32.7774C7.60773 31.5406 8.63595 30.3038 10.0755 29.2732C11.9263 27.6242 14.1884 26.3874 16.4505 25.5629C18.5069 24.9445 19.3295 24.7384 19.5351 24.9445C20.1521 25.3567 18.0956 25.5629 15.6279 26.7996C13.1601 28.0364 10.8981 29.6854 8.8416 31.5406C7.40208 33.1896 6.16821 35.0448 5.13999 37.106C4.11176 39.1673 3.28918 41.6409 2.87789 44.1144C2.67224 45.3512 2.4666 46.7941 2.4666 47.8247C2.4666 49.0615 2.4666 49.6799 2.26095 49.886C2.26095 49.886 1.84966 49.4737 1.84966 48.237C1.43837 45.5573 2.05531 42.6715 2.87789 39.7857C3.49483 37.9306 4.31741 36.2815 5.34563 34.6325C5.75692 34.0141 6.16821 33.3957 6.5795 32.7774Z" fill="white"/>
<path d="M6.79133 62.2481C7.40827 63.0726 8.0252 63.691 8.64214 64.5155C9.67036 65.5461 10.6986 66.7829 11.9325 67.6074C12.3438 68.0197 12.755 68.2258 12.9607 68.6381C13.1663 68.8442 13.372 69.0503 13.372 69.2565C13.372 69.6687 12.3438 69.0503 10.9042 68.0197C9.46472 66.989 8.23085 65.5462 6.99698 64.1033C6.1744 62.8665 5.35181 61.6297 4.52923 60.3929C3.70665 59.1562 3.08972 57.5072 2.47278 56.0643C2.26714 55.652 2.26714 55.2397 2.06149 54.8275C2.06149 54.2091 2.06149 53.7968 2.06149 53.5907C1.85585 51.9417 2.06149 51.9417 2.67843 53.1785C3.29536 54.6214 3.70665 56.4765 4.52923 57.9194C5.14617 58.95 5.55746 59.9807 6.1744 61.0113C6.38004 61.4236 6.58569 61.8358 6.79133 62.2481Z" fill="white"/>
<path d="M10.9005 43.2854C11.1061 43.0793 11.1061 43.0793 11.3117 42.8732C11.5174 42.6671 11.723 42.4609 12.1343 42.4609C12.34 42.4609 12.5456 42.4609 12.7513 42.6671C12.9569 42.8732 12.7513 43.0793 12.5456 43.2854C12.34 43.4916 11.9287 43.6977 11.723 43.9038C11.5174 44.11 11.3117 44.11 11.1061 44.3161C10.9005 44.5222 10.6948 44.7283 10.2835 44.9345C10.0779 44.9345 10.0779 45.1406 9.87223 45.1406C9.46094 45.1406 9.46094 44.9345 9.46094 44.7283C9.46094 44.3161 9.87223 44.3161 10.0779 43.9038C10.2835 43.6977 10.6948 43.6977 10.9005 43.2854C10.9005 43.4916 10.9005 43.4916 10.9005 43.2854Z" fill="white"/>
<path d="M13.3669 48.8498C13.5726 49.0559 13.5726 49.0559 13.5726 49.0559C13.5726 49.0559 13.5726 49.262 13.3669 49.4681C12.9556 49.6743 12.9556 49.6743 12.9556 49.6743C12.9556 49.6743 12.75 49.6743 12.75 49.4681V49.262C12.75 49.262 12.75 49.262 12.75 49.0559C12.75 49.0559 12.75 49.0559 12.75 48.8498C12.75 48.6436 12.9556 48.6436 13.3669 48.4375C13.1613 48.6436 13.1613 48.6436 13.3669 48.8498Z" fill="white"/>
<path d="M8.84073 47.205V47.4111C8.84073 47.6172 8.84073 47.6172 8.63508 47.8233C8.42944 47.8233 8.42944 48.0295 8.22379 47.8233C7.8125 47.8233 7.8125 47.6172 7.8125 47.4111C7.8125 47.205 7.8125 46.9988 8.01815 46.9988C8.01815 46.7927 8.22379 46.7927 8.22379 46.5866C8.22379 46.3805 8.22379 46.3805 8.42944 46.1743C8.42944 46.1743 8.42944 45.9682 8.63508 45.9682C8.84073 45.7621 9.04637 45.9682 9.25202 46.1743C9.45766 46.3805 9.25202 46.5866 9.25202 46.7927C8.84073 46.7927 8.84073 46.7927 8.84073 47.205C8.84073 46.9988 8.84073 46.9988 8.84073 47.205Z" fill="white"/>
<path d="M15.6298 62.4603C15.6298 62.6665 15.6298 62.6665 15.4241 62.6665C15.4241 62.6665 15.2185 62.6665 15.0129 62.8726C14.6016 62.8726 14.6016 62.8726 14.6016 62.6665C14.6016 62.4603 14.6016 62.2542 14.8072 62.0481C14.8072 61.8419 15.0129 61.8419 15.0129 61.6358C15.0129 61.4297 15.2185 61.4297 15.4241 61.4297H15.6298C15.8354 61.6358 15.8354 61.8419 15.8354 62.0481C15.8354 62.2542 15.6298 62.2542 15.6298 62.4603C15.6298 62.2542 15.6298 62.2542 15.6298 62.4603Z" fill="white"/>
<path d="M24.8876 56.6839L25.0932 56.89C25.0932 57.0961 25.2989 57.0961 25.2989 57.3023C25.2989 57.5084 25.2989 57.5084 25.0932 57.7145C24.682 57.9207 24.682 57.9207 24.4763 57.7145C24.2707 57.5084 24.2707 57.5084 24.2707 57.3023C24.2707 57.0961 24.2707 57.0961 24.065 56.89C23.8594 56.6839 23.8594 56.6839 23.8594 56.4778V56.2716C23.8594 56.0655 24.065 55.8594 24.4763 55.8594C24.682 55.8594 24.682 56.0655 24.8876 56.2716C24.682 56.2716 24.682 56.4778 24.8876 56.6839C24.682 56.6839 24.682 56.6839 24.8876 56.6839Z" fill="white"/>
<path d="M38.6663 49.2668C38.872 49.2668 38.872 49.2668 38.6663 49.2668C38.6663 49.4729 38.6663 49.4729 38.6663 49.4729C38.6663 49.4729 38.6663 49.6791 38.4607 49.8852C38.255 50.0913 38.0494 50.0913 38.0494 50.0913C37.8438 50.0913 37.8438 49.8852 37.8438 49.6791C37.8438 49.4729 37.8438 49.4729 37.8438 49.2668C37.8438 49.0607 37.8438 49.0607 37.8438 48.8546C37.8438 48.8546 37.8438 48.6484 38.0494 48.6484C38.255 48.6484 38.4607 48.8546 38.6663 48.8546C38.872 49.0607 38.6663 49.0607 38.6663 49.2668Z" fill="white"/>
<path d="M32.2862 47.8191C32.4919 48.0253 32.4919 48.2314 32.4919 48.2314C32.4919 48.4375 32.4919 48.4375 32.4919 48.6437C32.2862 49.0559 32.2862 49.0559 31.8749 48.8498C31.6693 48.8498 31.4636 48.4375 31.258 48.2314C31.258 48.0253 31.0523 47.8191 31.0523 47.613C30.8467 47.4069 31.0523 47.2008 31.0523 46.9946C31.0523 46.7885 31.0523 46.7885 31.258 46.7885C31.4636 46.5824 31.6693 46.7885 31.8749 46.9946C32.0806 47.2008 31.8749 47.2008 32.0806 47.4069C32.2862 47.4069 32.0806 47.613 32.2862 47.8191C32.2862 47.613 32.2862 47.613 32.2862 47.8191Z" fill="white"/>
<path d="M33.1064 44.1118C32.9007 44.3179 32.9007 44.3179 32.9007 44.524C32.9007 44.524 32.6951 44.7302 32.4894 44.7302C32.0781 44.7302 32.0781 44.524 32.0781 44.3179C32.0781 44.1118 32.2838 43.9056 32.2838 43.6995C32.4894 43.4934 32.4894 43.4934 32.6951 43.2873C32.9007 43.0811 33.1064 43.0811 33.312 42.875C33.5176 42.875 33.5176 42.875 33.7233 42.875C33.9289 43.0811 33.9289 43.2873 33.9289 43.4934C33.9289 43.6995 33.7233 43.6995 33.7233 43.9056C33.312 43.9056 33.1064 43.9056 33.1064 44.1118C33.1064 43.9056 33.1064 43.9056 33.1064 44.1118Z" fill="white"/>
<path d="M46.8876 45.7598C46.8876 45.9659 46.8876 46.172 46.8876 46.3781C46.8876 46.5843 46.8876 46.9965 46.682 47.2026C46.682 47.4088 46.4763 47.6149 46.2707 47.6149C45.8594 47.6149 45.8594 47.4088 45.8594 46.9965C45.8594 46.5843 45.8594 46.3781 45.8594 45.9659C45.8594 45.7597 46.065 45.3475 45.8594 45.1414C45.8594 44.9352 45.8594 44.523 45.8594 44.3169C45.8594 44.1107 45.8594 43.9046 46.065 43.9046C46.2707 43.6985 46.4763 43.6985 46.682 43.9046C46.8876 44.3169 46.682 44.523 46.8876 44.9352C46.8876 45.1414 46.8876 45.3475 46.8876 45.5536C46.682 45.5536 46.8876 45.5536 46.8876 45.7598Z" fill="white"/>
<path d="M38.2475 45.1445C38.8644 45.1445 39.2757 45.1445 39.8926 45.1445C40.7152 45.1445 41.5378 45.1445 42.3604 45.3506C42.9773 45.5567 43.3886 45.5567 43.3886 45.7629C43.5943 46.1751 42.7717 46.1751 41.9491 46.1751C40.9209 46.1751 40.0983 46.1751 39.0701 45.969C38.2475 45.969 37.4249 45.7629 36.6023 45.7629C35.7797 45.7629 34.9572 45.7629 33.9289 45.5567C33.5176 45.5567 33.1064 45.5567 32.6951 45.3506C31.8725 45.1445 31.8725 44.9384 32.6951 44.7322C33.5176 44.5261 34.5459 44.7322 35.5741 44.7322C36.191 44.7322 36.808 44.9384 37.4249 44.7322C37.6305 45.1445 37.8362 45.1445 38.2475 45.1445Z" fill="#B99B6E"/>
<path d="M43.5985 45.1406H43.8042C44.0098 45.1406 44.0098 45.1406 44.2155 45.1406C44.4211 45.1406 44.4211 45.3468 44.4211 45.5529C44.4211 45.9651 44.4211 45.9651 44.2155 45.9651C44.0098 45.9651 44.0098 45.9651 43.8042 45.9651C43.5985 45.9651 43.5985 45.9651 43.3929 45.9651C43.1872 45.9651 43.1872 45.9651 42.9816 45.9651H42.776C42.5703 45.759 42.5703 45.5529 42.5703 45.3468C42.5703 45.1406 42.776 45.1406 42.9816 45.1406C43.3929 45.1406 43.3929 45.3468 43.5985 45.1406Z" fill="#B99B6E"/>
<path d="M16.0441 62.6593C16.0441 62.4531 16.0441 62.4531 16.0441 62.6593C16.2497 62.4531 16.2497 62.4531 16.2497 62.4531C16.2497 62.4531 16.4554 62.4531 16.661 62.6593C16.8667 62.8654 16.8667 63.0715 16.8667 63.0715C16.8667 63.0715 16.8667 63.2776 16.661 63.2776C16.661 63.2776 16.4554 63.2776 16.4554 63.4838C16.4554 63.4838 16.4554 63.4838 16.2497 63.6899C16.2497 63.6899 16.2497 63.6899 16.0441 63.6899C15.8385 63.6899 15.6328 63.4838 15.6328 63.2776C15.8385 62.8654 15.8385 62.8654 16.0441 62.6593Z" fill="#B99B6E"/>
<path d="M35.9892 62.0481C35.9892 62.0481 36.1948 62.0481 35.9892 62.0481C36.1948 62.2542 36.1948 62.2542 36.1948 62.2542C36.1948 62.2542 36.1948 62.4603 35.9892 62.6665C35.7835 63.0787 35.7835 62.8726 35.5779 62.8726C35.3722 62.8726 35.3722 62.8726 35.3722 62.6665C35.3722 62.6665 35.3722 62.4603 35.1666 62.4603C35.1666 62.4603 34.9609 62.4603 34.9609 62.2542C34.9609 62.2542 34.9609 62.2542 34.9609 62.0481C34.9609 61.8419 35.1666 61.6358 35.3722 61.4297C35.7835 61.8419 35.7835 61.8419 35.9892 62.0481Z" fill="#B99B6E"/>
<path d="M26.7312 65.1328C27.3482 65.1328 27.9651 65.1328 28.7877 65.1328C29.8159 65.1328 30.8441 65.1328 31.6667 65.1328C32.4893 65.1328 32.9006 65.3389 32.9006 65.5451C33.1062 65.9573 32.2836 65.9573 31.2554 66.1634C30.0216 66.1634 28.9933 66.3696 27.7595 66.3696C26.7312 66.3696 25.9086 66.3696 24.8804 66.3696C23.8522 66.3696 22.824 66.3696 21.7957 66.3696C21.1788 66.3696 20.7675 66.3696 20.1506 66.3696C19.1224 66.1635 19.1224 65.9573 19.9449 65.7512C20.9732 65.5451 22.207 65.5451 23.2353 65.5451C24.0578 65.5451 24.6748 65.5451 25.4974 65.5451C26.1143 65.1328 26.3199 65.1328 26.7312 65.1328Z" fill="#B99B6E"/>
<path d="M3.91129 51.3233C4.11694 51.3233 4.32258 51.3233 4.52823 51.1172C4.73387 51.1172 5.14516 51.1172 5.35081 51.1172C5.55645 51.1172 5.7621 51.1172 5.7621 51.3233C5.96774 51.7356 5.7621 51.7356 5.35081 51.9417C4.93952 52.1478 4.52823 52.1478 4.32258 52.1478C3.91129 52.1478 3.70565 52.1478 3.5 52.1478C3.08871 52.1478 2.88306 52.1478 2.47177 52.1478C2.26613 52.1478 2.06048 52.1478 2.06048 51.9417C1.85484 51.7356 1.85484 51.5294 2.06048 51.3233C2.47177 51.1172 2.67742 51.3233 3.08871 51.3233C3.29435 51.3233 3.5 51.3233 3.70565 51.3233H3.91129Z" fill="#B99B6E"/>
<path d="M2.67213 52.9766H2.87777C3.08342 52.9766 3.08342 52.9766 3.28906 52.9766C3.49471 52.9766 3.49471 53.1827 3.49471 53.1827C3.49471 53.3888 3.49471 53.3888 3.28906 53.5949C3.08342 53.5949 3.08342 53.5949 2.87777 53.5949C2.67213 53.5949 2.67213 53.5949 2.46648 53.5949C2.26084 53.5949 2.26084 53.5949 2.05519 53.5949H1.84955C1.6439 53.3888 1.6439 53.3888 1.84955 53.1827C2.05519 52.9766 2.05519 52.9766 2.26084 52.9766C2.26084 52.9766 2.46648 52.9766 2.67213 52.9766C2.46648 52.9766 2.67213 52.9766 2.67213 52.9766Z" fill="#B99B6E"/>
<path d="M2.88306 54.2109H3.08871C3.29435 54.2109 3.29435 54.2109 3.5 54.2109C3.70565 54.2109 3.70564 54.2109 3.70564 54.4171C3.70564 54.6232 3.70565 54.8293 3.5 54.8293C3.29435 54.8293 3.08871 54.8293 3.08871 54.8293C2.88306 54.8293 2.88306 54.8293 2.67742 54.8293C2.47177 54.8293 2.47177 54.8293 2.26613 54.8293H2.06048C1.85484 54.8293 1.85484 54.6232 2.06048 54.4171C2.26613 54.2109 2.26613 54.2109 2.47177 54.2109C2.47177 54.2109 2.67742 54.2109 2.88306 54.2109Z" fill="#B99B6E"/>
<path d="M2.87727 53.5938H3.08291C3.28856 53.5938 3.28856 53.5938 3.4942 53.5938L3.69985 53.7999C3.69985 54.006 3.69985 54.006 3.4942 54.2121C3.28856 54.2121 3.28856 54.2121 3.08291 54.2121C2.87727 54.2121 2.87727 54.2121 2.67162 54.2121C2.46598 54.2121 2.46598 54.2121 2.26033 54.2121H2.05469C2.05469 54.006 2.05469 53.7999 2.05469 53.7999C2.26033 53.5938 2.26033 53.5938 2.46598 53.5938C2.46598 53.5938 2.67162 53.5938 2.87727 53.5938C2.67162 53.5938 2.67162 53.5938 2.87727 53.5938Z" fill="#B99B6E"/>
<path d="M3.90852 54.2103C3.90852 54.2103 3.90852 54.4165 3.90852 54.6226C3.90852 54.8287 3.90852 55.0348 3.90852 55.0348C3.90852 55.241 3.90852 55.241 3.70287 55.241C3.49723 55.241 3.29158 55.241 3.29158 55.0348C3.29158 54.8287 3.08594 54.6226 3.08594 54.4165C3.08594 54.2103 3.08594 54.2103 3.08594 54.0042C3.08594 53.7981 3.08594 53.5919 3.08594 53.5919V53.3858C3.08594 53.1797 3.29158 53.1797 3.49723 53.1797C3.70287 53.3858 3.70287 53.5919 3.70287 53.5919C3.90852 54.0042 3.70287 54.0042 3.90852 54.2103Z" fill="#B99B6E"/>
<path d="M2.88256 54.8281C3.08821 54.8281 3.08821 54.8281 2.88256 54.8281C3.08821 54.8281 3.08821 54.8281 3.29385 54.8281V55.0343C3.29385 55.2404 3.29385 55.2404 3.08821 55.4465H2.88256H2.67692H2.47127C2.47127 55.4465 2.47127 55.4465 2.26562 55.4465C2.26562 55.2404 2.26562 55.0343 2.26562 55.0343C2.26562 54.8281 2.47127 55.0343 2.47127 54.8281C2.67692 54.8281 2.88256 54.8281 2.88256 54.8281Z" fill="#B99B6E"/>
<path d="M3.08619 55.2422C3.29183 55.2422 3.49748 55.2422 3.49748 55.2422C3.49748 55.2422 3.70312 55.2422 3.70312 55.4483C3.70312 55.6544 3.70313 55.8606 3.49748 55.8606C3.29183 55.8606 3.29183 55.8606 3.08619 55.8606H2.88054C2.88054 55.8606 2.6749 55.8606 2.46925 55.8606H2.26361C2.05796 55.6544 2.05796 55.6544 2.26361 55.4483C2.26361 55.2422 2.46925 55.2422 2.6749 55.2422C2.88054 55.2422 2.88054 55.2422 3.08619 55.2422C2.88054 55.2422 3.08619 55.2422 3.08619 55.2422Z" fill="#B99B6E"/>
<path d="M3.70035 55.0391C3.906 55.0391 3.906 55.0391 3.70035 55.0391C3.906 55.0391 3.906 55.0391 3.70035 55.0391C3.906 55.2452 3.906 55.2452 3.70035 55.4513C3.49471 55.6574 3.49471 55.6574 3.49471 55.6574C3.49471 55.6574 3.49471 55.6574 3.28906 55.6574C3.28906 55.4513 3.49471 55.4513 3.49471 55.2452C3.70035 55.0391 3.70035 55.0391 3.70035 55.0391Z" fill="#B99B6E"/>
<path d="M4.11694 54.2147C4.11694 54.4208 4.11694 54.4208 4.11694 54.6269C4.11694 54.8331 4.11694 55.0392 4.11694 55.2453C4.11694 55.4514 4.11694 55.4514 3.91129 55.4514C3.70565 55.4514 3.5 55.2453 3.5 55.0392C3.5 54.8331 3.5 54.6269 3.5 54.4208C3.5 54.2147 3.5 54.0086 3.5 53.8024C3.5 53.5963 3.5 53.3902 3.5 53.184C3.5 52.9779 3.5 52.9779 3.5 52.7718C3.5 52.5657 3.70565 52.5657 3.91129 52.7718C4.11694 53.184 4.11694 53.3902 4.11694 53.5963C4.11694 53.8024 4.11694 53.8024 4.11694 54.2147C4.11694 54.0085 4.11694 54.2147 4.11694 54.2147Z" fill="#B99B6E"/>
<path d="M26.1144 57.0998C26.1144 57.0998 26.1144 56.8936 26.3201 56.8936C26.5257 56.6875 26.5257 56.6875 26.7314 56.6875C26.937 56.6875 26.937 56.6875 27.1426 56.8936C27.5539 57.0998 27.3483 57.3059 27.3483 57.512C27.3483 57.7181 27.1426 57.7181 26.937 57.9243C26.937 57.7181 26.7314 57.7181 26.7314 57.9243C26.7314 58.1304 26.5257 58.1304 26.3201 58.3365L26.1144 58.5427C25.9088 58.5427 25.7031 58.3365 25.7031 58.1304C25.7031 57.9243 25.9088 57.7181 25.9088 57.512C25.9088 57.3059 26.1144 57.3059 26.1144 57.0998Z" fill="#B99B6E"/>
<path d="M14.599 45.1406C15.216 45.1406 15.6273 45.1406 16.2442 45.1406C17.0668 45.1406 17.8894 45.1406 18.7119 45.1406C19.3289 45.1406 19.7402 45.3468 19.7402 45.5529C19.9458 45.9651 19.1232 45.9651 18.3006 46.1713C17.2724 46.3774 16.4498 46.3774 15.4216 46.3774C14.599 46.3774 13.9821 46.3774 13.1595 46.3774C12.3369 46.3774 11.5144 46.3774 10.6918 46.3774C10.2805 46.3774 9.86919 46.3774 9.4579 46.3774C8.63532 46.1713 8.63532 45.9651 9.25226 45.759C10.0748 45.5529 11.1031 45.5529 11.9256 45.5529C12.5426 45.5529 13.1595 45.5529 13.7765 45.5529C13.9821 45.1406 14.3934 45.1406 14.599 45.1406Z" fill="#B99B6E"/>
<path d="M31.6696 37.3095C32.6979 37.1033 33.5204 36.8972 34.5487 36.6911C35.9882 36.2788 37.4277 35.6605 38.8672 35.2482C39.4841 35.0421 39.8954 34.8359 40.1011 34.8359C40.3067 34.8359 40.5124 34.8359 40.718 34.8359C41.1293 35.0421 40.1011 35.6605 38.4559 36.485C36.8108 37.3095 35.1656 37.9279 33.3148 38.134C31.8753 38.5462 30.4358 38.5462 28.9962 38.7524C27.5567 38.9585 25.7059 38.9585 24.2664 38.7524C23.4438 38.7524 22.6212 38.5462 21.7987 38.3401C20.1535 37.9279 20.3591 37.5156 21.7987 37.7217C23.4438 37.7217 25.089 37.9279 26.9398 37.9279C28.1737 37.9279 29.2019 37.9279 30.4358 37.7217C30.6414 37.5156 31.2583 37.5156 31.6696 37.3095Z" fill="#B99B6E"/>
<path d="M7.81401 37.512C8.01966 37.3059 8.01966 37.0998 8.43095 37.0998C8.84224 36.8936 9.04788 36.6875 9.45917 36.6875C9.87046 36.6875 9.87046 36.6875 9.87046 37.0998C9.87046 37.512 9.66482 37.512 9.45917 37.7181C9.25353 37.9243 8.84224 37.9243 8.63659 38.1304C8.43095 38.1304 8.2253 38.3365 8.2253 38.5427C8.2253 38.7488 8.01966 38.9549 7.81401 39.3672C7.81401 39.5733 7.81401 39.5733 7.60837 39.7794C7.40272 39.9855 7.19708 40.1917 6.99143 39.7794C6.78579 39.3672 6.99143 38.9549 7.19708 38.5427C7.19708 38.3365 7.60837 38.1304 7.60837 37.9243C7.60837 37.7181 7.81401 37.512 7.81401 37.512Z" fill="#B99B6E"/>
<path d="M17.6847 20.8221C17.4791 20.616 17.2734 20.2037 17.2734 19.7915C17.2734 19.3792 17.4791 18.7608 17.8904 18.5547C18.3017 18.5547 18.5073 18.5547 18.5073 18.7608C18.713 19.1731 18.5073 19.1731 18.5073 19.3792C18.5073 19.5853 18.3017 19.7915 18.3017 19.9976C18.3017 20.2037 18.3017 20.4098 18.5073 20.4098C18.713 20.4098 18.9186 20.4098 19.1242 20.4098C19.3299 20.4098 19.3299 20.4098 19.5355 20.2037C19.7412 20.2037 20.1525 19.9976 20.1525 20.616C20.1525 20.8221 19.9468 21.0282 19.7412 21.2344C19.5355 21.4405 19.3299 21.4405 18.9186 21.4405C18.5073 21.4405 18.3017 21.2344 17.8904 21.0282C17.8904 21.0282 17.6847 21.0282 17.6847 20.8221Z" fill="#231F20"/>
<path d="M15.2188 18.9641C15.2188 18.5518 15.2188 18.3457 15.2188 17.9334C15.4244 17.315 15.63 16.9028 16.0413 16.4905C16.4526 16.2844 16.6583 16.2844 16.8639 16.4905C17.0696 16.6967 16.8639 16.9028 16.6583 17.315C16.4526 17.7273 16.247 18.1396 16.247 18.5518C16.247 18.7579 16.247 18.9641 16.247 18.9641C16.6583 18.9641 17.0696 18.9641 17.2752 18.7579C17.4808 18.7579 17.6865 18.5518 17.8921 18.5518C18.3034 18.5518 18.7147 18.7579 18.5091 19.1702C18.3034 19.3763 18.0978 19.5825 17.6865 19.7886C17.4808 19.9947 17.0696 19.9947 16.8639 19.9947C16.6583 19.9947 16.4526 19.9947 16.247 19.9947C16.247 19.9947 16.247 19.9947 16.0413 19.9947H15.8357H15.63H15.4244C15.4244 19.7886 15.4244 19.7886 15.2188 19.5825C15.2187 19.1702 15.2188 19.1702 15.2188 18.9641Z" fill="#231F20"/>
<path d="M13.3652 15.8684C13.1595 15.4562 13.1595 15.0439 13.3652 14.8378C13.5708 14.2194 13.9821 13.601 14.3934 13.601C14.8047 13.3949 15.0103 13.601 15.0103 13.8071C15.0103 14.2194 14.8047 14.2194 14.599 14.4255C14.3934 14.6316 14.3934 15.0439 14.1878 15.25C14.1878 15.4562 14.1878 15.8684 14.3934 15.8684C14.599 16.0745 15.0103 16.0745 15.216 16.0745C15.4216 16.0745 15.6273 16.0745 15.6273 16.0745C15.8329 16.0745 16.0386 16.0745 16.0386 16.0745C16.0386 16.0745 16.2442 16.2807 16.0386 16.4868C16.0386 16.8991 15.8329 17.1052 15.4216 17.1052C15.0103 17.1052 14.8047 17.1052 14.599 16.8991C14.1878 16.8991 13.7765 16.6929 13.5708 16.2807C13.3652 16.0745 13.3652 15.8684 13.3652 15.8684Z" fill="#231F20"/>
<path d="M13.1588 11.5445C13.1588 11.1322 13.3644 10.9261 13.5701 10.7199C13.7757 10.3077 14.3926 10.1016 14.8039 10.1016C15.2152 10.1016 15.4209 10.3077 15.4209 10.5138C15.4209 10.9261 15.2152 10.9261 15.0096 10.9261C14.5983 11.1322 14.3926 11.3383 14.187 11.5445C13.9814 11.7506 13.9814 11.9567 13.9814 12.369C14.187 12.5751 14.187 12.7812 14.3926 12.9874C14.3926 12.9874 14.5983 13.1935 14.8039 13.1935C15.0096 13.3996 15.2152 13.6057 14.5983 13.8119C14.3926 13.8119 13.9814 13.8119 13.7757 13.6057C13.5701 13.6057 13.3644 13.3996 13.3644 12.9874C13.1588 12.7812 13.1588 12.369 12.9531 11.9567C12.9531 11.9567 12.9531 11.7506 13.1588 11.5445Z" fill="#231F20"/>
<path d="M15.8352 6.59973C15.6295 6.39361 15.6295 6.18748 15.6295 6.18748C15.6295 5.98135 15.6295 5.56909 15.8352 5.15684C16.0408 4.74458 16.2465 4.33232 16.6578 3.92007C17.0691 3.71394 17.4803 3.50781 17.8916 3.50781C18.7142 3.50781 18.9199 3.71394 18.9199 4.1262C18.9199 4.53845 18.3029 4.33232 17.686 4.53845C17.0691 4.74458 16.6578 5.36297 16.6578 5.98135V6.18748V6.39361C16.6578 6.59973 16.8634 6.59973 16.8634 6.80586L17.4803 7.63037L17.8916 8.04263L18.0973 8.24876L18.3029 8.45489C17.8916 8.24876 17.4803 8.04263 17.0691 8.04263C16.8634 7.8365 16.6578 7.8365 16.4521 7.8365C16.2465 7.8365 16.2465 7.8365 16.0408 7.63037H15.8352C15.8352 7.63037 15.8352 7.63037 15.6295 7.63037H15.4239C15.2182 7.63037 15.2182 7.8365 15.0126 7.8365C15.0126 8.24876 15.0126 8.45489 14.807 8.66102C14.807 8.86714 14.807 9.2794 15.0126 9.48553C15.2182 9.69166 15.2182 9.89778 15.2182 10.1039C15.2182 10.1039 15.0126 10.31 14.6013 10.1039C14.19 9.89778 13.9844 9.2794 13.9844 8.66102C13.9844 8.04263 14.19 7.42425 14.6013 7.21812C14.807 7.01199 15.2182 6.80586 15.8352 6.59973C15.8352 6.59973 15.8352 6.80586 15.8352 6.59973C15.8352 6.80586 15.8352 6.80586 15.8352 6.59973C15.8352 6.80586 15.8352 6.59973 15.8352 6.59973Z" fill="#231F20"/>
<path d="M35.782 4.94707C36.1933 5.1532 36.3989 5.35933 36.6046 5.77159C36.8102 6.18384 36.8102 6.5961 36.8102 6.80223C36.8102 7.21448 36.8102 7.62674 36.6046 7.83287C36.6046 7.83287 36.6046 7.83287 36.6046 8.039C36.8102 8.24512 37.2215 8.45125 37.4272 8.86351C37.8385 9.48189 37.8385 10.5125 37.2215 11.1309C37.2215 11.1309 37.2215 11.1309 37.4272 11.337L37.6328 11.5432C37.8385 11.9554 38.0441 12.3677 37.8385 12.7799C37.8385 13.1922 37.6328 13.6045 37.4272 14.0167C37.2215 14.0167 37.0159 14.2228 36.8102 14.429C36.8102 14.6351 36.8102 14.8412 36.8102 15.0474C36.8102 15.4596 36.8102 15.8719 36.6046 16.2841C36.3989 16.6964 36.1933 17.1086 35.9876 17.3148C35.782 17.5209 35.5764 17.5209 35.5764 17.727V17.9331C35.5764 18.1393 35.5764 18.3454 35.5764 18.5515C35.5764 18.9638 35.3707 19.376 35.1651 19.7883C34.7538 20.2006 34.3425 20.4067 33.9312 20.4067H33.7256C33.7256 20.4067 33.7256 20.4067 33.7256 20.6128C33.7256 20.8189 33.5199 21.0251 33.5199 21.2312C33.3143 21.4373 32.903 21.6435 32.6973 21.6435C32.286 21.6435 31.8747 21.4373 31.8747 21.2312C31.8747 21.0251 32.0804 21.0251 32.286 21.2312C32.4917 21.2312 32.6973 21.2312 32.903 21.0251L33.1086 20.8189C33.1086 20.8189 33.1086 20.8189 33.1086 20.6128V20.4067C33.1086 20.2006 32.903 19.7883 32.6973 19.5822C32.903 19.5822 33.1086 19.7883 33.5199 19.7883C33.7256 19.7883 33.7256 19.7883 33.9312 19.9944H34.1368C34.3425 19.9944 34.5481 19.7883 34.7538 19.7883C34.7538 18.9638 34.9594 18.5515 34.7538 17.9331C34.5481 17.727 34.5481 17.5209 34.3425 17.1086L34.7538 16.9025L35.1651 16.6964C35.3707 16.6964 35.3707 16.4902 35.3707 16.4902C35.5764 16.2841 35.5764 16.078 35.782 15.8719C35.782 15.6657 35.9876 15.2535 35.782 15.0474C35.782 14.8412 35.782 14.8412 35.782 14.6351L35.5764 14.2228L35.3707 13.8106L35.782 13.6045C35.9876 13.6045 36.1933 13.3983 36.1933 13.3983L36.3989 13.1922C36.6046 12.9861 36.6046 12.7799 36.6046 12.5738C36.6046 12.3677 36.6046 12.1616 36.3989 11.9554C36.3989 11.9554 36.3989 11.9554 36.3989 11.7493C36.3989 11.7493 36.3989 11.7493 36.1933 11.5432C35.9877 11.337 35.5764 11.1309 35.1651 11.1309C35.3707 10.9248 35.782 10.7187 35.9876 10.5125C35.9876 10.5125 35.9876 10.5125 35.9876 10.3064C35.9876 10.1003 36.1933 9.89415 35.9876 9.68802C35.9876 9.48189 35.782 9.27577 35.5764 9.06964C35.5764 9.06964 35.5764 9.06964 35.3707 8.86351H35.1651C34.7538 8.86351 34.3425 8.86351 33.7256 8.65738C33.5199 8.65738 33.5199 8.65738 33.3143 8.65738C33.7256 8.45125 34.5481 7.83287 34.7538 7.62674C34.9594 7.42061 34.9594 7.42061 34.9594 7.21448V7.00836C34.9594 6.5961 34.9594 6.38997 34.7538 6.18384C34.5481 5.97772 34.3425 5.77159 33.9312 5.77159H33.7256H33.5199C33.5199 5.77159 33.5199 5.77159 33.3143 5.77159C32.903 5.97772 32.286 6.38997 31.8747 6.5961C32.0804 6.18384 32.0804 5.77159 32.286 5.35933C32.286 5.1532 32.286 5.1532 32.286 5.1532C32.286 5.1532 32.286 5.1532 32.286 4.94707V4.74095C32.286 4.53482 32.0804 4.12256 31.8747 4.12256C31.6691 3.91643 31.4635 3.91643 31.0522 3.71031H30.8465C30.8465 3.71031 30.8465 3.71031 30.6409 3.71031H30.4352C30.0239 3.91643 29.407 4.12256 28.9957 4.32869C29.2014 3.91643 29.6126 3.09192 29.6126 2.67967C29.6126 2.47354 29.6126 2.47354 29.6126 2.26741V2.06128C29.407 1.85515 29.2014 1.4429 28.9957 1.4429C28.7901 1.23677 28.3788 1.23677 28.1731 1.4429C28.1731 1.4429 27.9675 1.4429 27.9675 1.64902C28.7901 1.85515 28.5844 2.06128 28.3788 2.47354L27.9675 3.29805C27.7618 2.88579 27.5562 2.26741 27.5562 1.85515C27.5562 1.64902 27.3506 1.64902 27.3506 1.64902C27.3506 1.64902 27.3506 1.64902 27.3506 1.4429L27.1449 1.23677C26.9393 1.03064 26.528 0.824512 26.3223 0.824512C26.1167 0.824512 25.7054 0.824512 25.4997 1.03064C25.4997 1.03064 25.2941 1.03064 25.2941 1.23677C25.2941 1.23677 25.2941 1.23677 25.0885 1.4429C24.8828 1.85515 24.6772 2.26741 24.4715 2.67967C24.2659 2.26741 24.0602 1.64902 23.8546 1.4429C23.8546 1.4429 23.8546 1.4429 23.6489 1.4429H23.4433C23.2377 1.4429 23.032 1.4429 22.8264 1.64902C22.6207 1.85515 22.4151 1.85515 22.4151 2.06128V2.26741V2.47354C22.4151 2.47354 22.4151 2.47354 22.4151 2.67967C22.4151 2.88579 22.4151 2.88579 22.4151 3.09192C22.4151 3.50418 22.6207 4.12256 22.6207 4.53482C22.4151 4.12256 22.0038 3.91643 21.7981 3.50418C21.5925 3.09192 21.1812 2.88579 20.9756 2.88579C20.7699 2.88579 20.5643 2.67967 20.3586 2.67967C19.536 2.67967 19.3304 3.29805 19.1247 3.71031C18.7135 3.71031 18.7135 3.91643 18.7135 4.12256C18.7135 4.12256 18.5078 3.91643 18.5078 3.50418C18.5078 3.29805 18.5078 3.09192 18.7135 2.67967C18.9191 2.47354 19.1247 2.06128 19.536 1.85515C19.9473 1.64902 20.3586 1.64902 20.7699 1.64902H20.9756H21.1812C21.1812 1.64902 21.1812 1.64902 21.1812 1.4429C21.1812 1.23677 21.1812 1.23677 21.3868 1.23677C21.5925 0.824513 22.0038 0.412256 22.4151 0.412256C22.8264 0.206128 23.4433 0.206128 23.8546 0.412256C24.0602 0.412256 24.0602 0.412256 24.0602 0.618384C24.0602 0.618384 24.0602 0.618384 24.2659 0.618384C24.2659 0.618384 24.2659 0.618384 24.4715 0.412256L24.6772 0.206128C25.2941 0.206128 25.911 0 26.3223 0C26.9393 0 27.3506 0.206128 27.7618 0.618384L27.9675 0.824512L28.1731 1.03064C28.1731 1.03064 28.1731 1.03064 28.3788 1.03064L28.5844 0.824512C28.7901 0.618384 28.9957 0.618384 29.2014 0.412256C29.6127 0.206128 30.2296 0.412256 30.8465 0.618384C31.2578 0.824512 31.6691 1.4429 31.6691 1.85515C31.6691 2.06128 31.6691 2.06128 31.6691 2.26741V2.47354C31.6691 2.47354 31.6691 2.47354 31.8747 2.47354C31.8747 2.47354 32.0804 2.47354 32.286 2.47354C32.4917 2.47354 32.6973 2.47354 32.6973 2.47354C33.3143 2.67967 33.9312 3.09192 34.1368 3.71031C34.1368 3.91643 34.3425 3.91643 34.3425 4.12256V4.32869H34.5481C34.9594 4.74095 35.3707 4.74095 35.782 4.94707Z" fill="#231F20"/>
<path d="M26.3256 21.0246C26.9425 21.0246 27.3538 21.0246 27.9708 21.0246C28.7933 21.0246 29.6159 21.0246 30.6442 20.8185C31.4667 20.8185 31.6724 20.8185 31.878 21.0246C32.0837 21.4369 31.4667 21.643 30.4385 21.643C29.4103 21.8491 28.3821 21.8491 27.3538 21.8491C26.5312 21.8491 25.7087 21.8491 24.8861 21.8491C24.0635 21.8491 23.0353 21.643 22.2127 21.4369C21.8014 21.4369 21.1845 21.2308 20.7732 21.0246C19.9506 20.6124 19.9506 20.4062 20.7732 20.4062C21.8014 20.4062 22.624 20.6124 23.6522 20.6124C24.2692 20.6124 24.8861 20.8185 25.7087 20.8185C25.7087 21.0246 26.12 21.0246 26.3256 21.0246Z" fill="#231F20"/>
<path d="M20.7704 22.4688C20.7704 22.6749 20.7704 22.881 20.7704 22.881C20.7704 23.0872 20.7704 23.4994 20.5648 23.7055C20.3591 23.9117 20.3591 23.9117 20.1535 23.9117C19.7422 23.9117 19.7422 23.7055 19.7422 23.4994C19.7422 23.2933 19.7422 23.0872 19.7422 22.6749C19.7422 22.4688 19.7422 22.2627 19.7422 22.0565C19.7422 21.8504 19.7422 21.6443 19.7422 21.4381C19.7422 21.232 19.7422 21.232 19.7422 21.0259C19.7422 20.8198 20.1535 20.6136 20.3591 20.8198C20.7704 21.0259 20.5648 21.4381 20.7704 21.6443C20.7704 21.8504 20.7704 22.0565 20.7704 22.2627C20.7704 22.4688 20.7704 22.4688 20.7704 22.4688Z" fill="#231F20"/>
<path d="M32.2913 22.6756C32.2913 22.8817 32.2913 22.8817 32.2913 23.0879C32.2913 23.294 32.2913 23.5001 32.2913 23.7063C32.2913 23.9124 32.0857 23.9124 31.88 24.1185C31.4687 24.1185 31.4688 23.9124 31.4688 23.7063C31.4688 23.5001 31.4688 23.294 31.4688 22.8817C31.4688 22.6756 31.4688 22.4695 31.4688 22.2634C31.4688 22.0572 31.4688 21.8511 31.4688 21.645C31.4688 21.4388 31.4688 21.4388 31.4688 21.2327C31.6744 21.0266 31.88 21.0266 32.0857 21.2327C32.2913 21.4388 32.2913 21.645 32.2913 22.0572C32.2913 22.0572 32.0857 22.2634 32.2913 22.6756C32.2913 22.4695 32.2913 22.4695 32.2913 22.6756Z" fill="#231F20"/>
<path d="M26.3231 24.1154C26.94 24.1154 27.3513 24.1154 27.9682 23.9093C28.7908 23.9093 29.6134 23.7031 30.436 23.7031C31.0529 23.7031 31.4642 23.7031 31.6699 23.9093C31.8755 24.3215 31.2586 24.5276 30.2303 24.7338C29.2021 24.9399 28.1739 25.146 27.3513 25.146C26.5287 25.146 25.7062 25.146 24.8836 25.146C24.061 25.146 23.0328 25.146 22.2102 24.9399C21.7989 24.9399 21.182 24.7338 20.9763 24.5276C20.1537 24.1154 20.1537 23.9093 20.9763 23.9093C21.7989 23.9093 22.8271 24.1154 23.8553 24.1154C24.4723 24.1154 25.0892 24.3215 25.7061 24.1154C25.9118 24.1154 26.1174 24.1154 26.3231 24.1154Z" fill="#231F20"/>
<path d="M1.84854 46.1691C1.84854 47.612 1.84854 48.8488 2.05418 50.0856C2.05418 50.2917 2.05418 50.4978 2.05418 50.4978C2.05418 50.4978 2.25983 50.4978 2.46547 50.4978C2.67112 50.4978 2.87676 50.4978 2.87676 50.4978C3.69935 50.4978 4.31628 50.7039 4.93322 50.4978C5.13886 50.4978 5.34451 50.2917 5.55015 50.2917C5.55015 50.2917 5.7558 50.0856 5.7558 49.8794C5.7558 49.4672 5.7558 49.0549 5.7558 48.4365C5.7558 47.4059 5.7558 46.1691 5.7558 45.1385C5.7558 44.1078 5.7558 43.0772 5.96144 41.8404C5.96144 40.8098 5.96144 39.7791 6.16709 38.7485C6.37273 38.1301 6.57838 37.5117 6.98967 37.0995C7.40096 36.6872 7.81225 36.4811 8.22354 36.275C8.63483 36.0688 9.04612 36.0688 9.45741 36.275C9.8687 36.275 10.0743 36.4811 10.0743 36.6872L10.4856 37.0995L10.28 37.3056C10.0743 37.0995 9.8687 37.0995 9.66305 37.0995C9.45741 36.8934 9.66306 36.8934 10.28 36.8934L10.0743 37.5117C9.8687 37.3056 9.66306 37.0995 9.25176 37.0995C8.84047 37.0995 8.42918 37.3056 8.01789 37.7179C7.6066 38.1301 7.40096 38.5424 7.19531 39.1608C6.98967 39.7791 6.98967 40.3975 6.98967 41.222C6.98967 43.6956 6.98967 46.1691 6.78402 48.6427C6.78402 49.261 6.98967 49.8794 6.57838 50.7039C6.57838 50.9101 6.37273 51.1162 6.16709 51.3223L5.96144 51.5285C6.16709 51.5285 5.96144 51.5285 5.96144 51.5285C5.55015 51.7346 5.34451 51.7346 4.93322 51.7346C4.31628 51.7346 3.69935 51.7346 3.08241 51.7346C2.87676 51.7346 2.46547 51.7346 2.05418 51.5285C1.84854 51.5285 1.64289 51.3223 1.43725 51.1162C1.2316 50.9101 1.2316 50.7039 1.02596 50.4978C1.02596 50.2917 1.02596 49.8794 0.820312 49.6733C0.820312 49.4672 0.820312 49.261 0.820312 48.8488C0.820312 48.2304 0.820312 47.8181 0.820312 47.4059C0.820312 46.3752 0.820312 45.3446 1.02596 44.314C1.2316 42.2527 1.84854 40.1914 2.67112 38.3363C3.4937 36.275 4.72757 34.4198 6.16709 32.7708C6.98967 31.9463 7.6066 31.1218 8.63483 30.2973C9.45741 29.4727 10.28 28.8544 11.3082 28.236C12.3364 27.6176 13.3647 26.9992 14.3929 26.3808C15.4211 25.7624 16.4493 25.3502 17.4776 24.9379C19.534 24.1134 20.7679 23.9073 20.7679 24.1134C20.9735 24.3195 19.9453 24.5257 18.0945 25.3502C16.0381 26.1747 13.9816 27.4115 12.1308 28.8544C11.1026 29.4727 10.28 30.2973 9.25176 31.1218C8.42918 31.9463 7.6066 32.7708 6.78402 33.8014C4.72757 36.275 3.28805 39.1608 2.46547 42.2527C2.05418 43.6956 1.84854 44.9323 1.84854 46.1691Z" fill="#231F20"/>
<path d="M46.8919 34.6303C47.9201 36.0732 48.7427 37.5161 49.3596 39.3712C50.3879 41.8447 51.0048 44.7305 51.0048 47.2041C51.0048 49.4715 50.7991 50.296 50.5935 50.7083C50.1822 51.1205 50.3879 48.8531 49.9766 46.1734C49.5653 43.0815 48.7427 40.1957 47.3032 37.7222C46.275 35.4548 44.8354 33.5996 42.9846 31.7445C41.1338 29.8893 38.8717 28.2403 36.404 27.2096C35.1701 26.5913 33.7306 25.9729 32.7024 25.5606C30.2346 24.3239 30.2346 24.1177 32.7024 24.7361C35.3758 25.5606 38.2548 26.7974 40.7225 28.6525C42.3677 29.8893 43.8072 31.3322 45.2467 32.9812C45.8637 33.3935 46.4806 34.0119 46.8919 34.6303Z" fill="#231F20"/>
<path d="M9.86983 35.0415C9.86983 34.8353 9.86983 34.6292 10.0755 34.6292C10.2811 34.4231 10.2811 34.2169 10.4868 34.0108C10.6924 33.8047 10.6924 33.8047 11.1037 33.8047C11.515 34.0108 11.515 34.2169 11.3093 34.4231C11.3093 34.8353 11.1037 35.0415 10.8981 35.2476C10.6924 35.4537 10.6924 35.6598 10.4868 35.866C10.4868 36.0721 10.2811 36.2782 10.0755 36.6905C10.0755 36.8966 9.86983 36.8966 9.86983 37.1027C9.66418 37.3089 9.45854 37.1027 9.25289 36.8966C9.04725 36.4844 9.45854 36.2782 9.45854 36.0721C9.45854 35.866 9.66418 35.6598 9.66418 35.4537C9.86983 35.2476 9.86983 35.2476 9.86983 35.0415Z" fill="#231F20"/>
<path d="M27.1472 37.3068C28.5867 37.3068 30.0262 37.1007 31.6714 36.6884C33.9335 36.2762 36.1956 35.6578 38.0464 34.8333C39.8972 34.2149 40.5141 33.8026 40.9254 33.8026C41.5423 34.0087 39.8972 35.0394 37.4294 36.07C34.9617 37.1007 32.2883 37.7191 29.6149 38.1313C27.3528 38.3374 25.2964 38.3374 23.0343 38.1313C20.7722 37.9252 18.3044 37.3068 16.0423 36.4823C14.8085 36.07 13.5746 35.4516 12.752 34.8333C11.7238 34.2149 11.3125 33.8026 11.3125 33.5965C11.3125 33.3904 11.9294 33.5965 12.752 34.0087C15.0141 34.8333 17.4819 35.8639 19.9496 36.4823C21.5948 36.8945 23.4456 37.1007 25.0907 37.1007C25.7077 37.3068 26.5302 37.3068 27.1472 37.3068Z" fill="#231F20"/>
<path d="M41.9501 35.0379C41.9501 35.0379 42.1557 35.244 42.1557 35.4502C42.1557 35.6563 42.3614 35.8624 42.3614 36.0685C42.3614 36.2747 42.3614 36.2747 42.1557 36.4808C41.7445 36.6869 41.7445 36.4808 41.5388 36.2747C41.3332 36.0685 41.3332 35.8624 41.3332 35.6563C41.3332 35.4502 41.3332 35.244 41.1275 35.244C40.9219 35.0379 40.9219 34.8318 40.9219 34.6256C40.9219 34.6256 40.9219 34.4195 40.9219 34.2134C40.9219 34.0073 41.1275 33.8011 41.5388 34.0073C41.9501 34.0073 41.7445 34.4195 41.9501 34.4195C41.7445 34.4195 41.7445 34.6256 41.9501 35.0379C41.9501 34.8318 41.9501 34.8318 41.9501 35.0379Z" fill="#231F20"/>
<path d="M46.4745 42.2584C46.4745 43.0829 46.4745 43.9074 46.4745 44.938C46.4745 46.1748 46.2689 47.6177 46.2689 48.8545C46.0633 49.8851 46.0633 50.2974 45.652 50.5035C45.035 50.5035 45.2407 49.4728 45.2407 48.0299C45.2407 46.587 45.2407 45.1441 45.4463 43.4951C45.4463 42.2584 45.4463 41.0216 45.4463 39.7848C45.4463 39.1664 45.2407 38.548 45.035 37.9297C44.8294 37.3113 44.6237 36.899 44.0068 36.4868C43.8012 36.2806 43.5955 36.2806 43.1842 36.0745C42.9786 36.0745 42.5673 36.0745 42.3616 36.0745C41.7447 36.2806 41.5391 36.4868 41.5391 36.4868V36.2806C41.5391 36.0745 41.7447 35.8684 41.9504 35.6623C42.3616 35.4561 42.7729 35.25 43.1842 35.25C43.5955 35.25 44.0068 35.4561 44.4181 35.6623C45.2407 36.0745 45.652 36.899 45.8576 37.7235C46.2689 38.7542 46.0633 39.7848 46.2689 40.8155C46.2689 41.64 46.2689 41.8461 46.4745 42.2584Z" fill="#231F20"/>
<path d="M48.1218 50.2947C48.3274 50.2947 48.5331 50.2947 48.7387 50.2947C49.15 50.2947 49.5613 50.2947 49.7669 50.2947C49.9726 50.2947 50.1782 50.5009 50.1782 50.707C50.3839 51.1193 49.9726 51.1192 49.5613 51.3254C49.15 51.3254 48.7387 51.3254 48.3274 51.3254C47.9161 51.3254 47.7105 51.3254 47.2992 51.3254C46.8879 51.3254 46.4766 51.3254 46.0653 51.1192C45.8597 51.1192 45.654 51.1193 45.4484 50.9131C45.0371 50.707 45.2428 50.5009 45.4484 50.2947C45.8597 50.0886 46.271 50.2947 46.6823 50.2947C46.8879 50.2947 47.2992 50.5009 47.5048 50.2947C47.9161 50.2947 47.9161 50.2947 48.1218 50.2947Z" fill="#231F20"/>
<path d="M28.7939 72.9724C30.439 72.7662 32.2898 72.354 33.935 71.7356C35.5802 71.1172 37.2253 70.4988 38.8705 69.4682C41.1326 68.0253 43.189 66.1701 44.8342 64.1088C46.4793 62.0476 47.9189 59.574 48.7414 57.3066C48.9471 56.6882 49.1527 56.276 49.3584 55.8637C49.564 55.4515 49.564 55.0392 49.7697 54.627C49.9753 54.2147 49.9753 53.8024 49.9753 53.5963C49.9753 53.1841 50.181 52.9779 50.181 52.7718C50.3866 52.1534 50.3866 51.7412 50.3866 51.535C50.3866 51.1228 50.5923 50.9166 50.5923 50.9166C50.7979 50.7105 50.7979 50.7105 50.7979 51.1228C50.7979 51.535 50.7979 52.1534 50.5923 53.1841C50.3866 55.0392 49.7697 57.7189 48.3302 60.3985C45.4511 66.3763 40.31 70.9111 34.1406 73.1785C31.6729 74.003 28.9995 74.4153 26.3261 74.6214C25.0922 74.6214 23.6527 74.6214 22.4189 74.4153C21.185 74.2091 19.7455 74.003 18.306 73.5907C15.6326 72.9724 12.9592 71.5295 10.6971 69.8804C8.43499 68.0253 6.37854 65.964 4.73337 63.4905C3.08821 61.0169 1.85434 57.925 1.23741 55.4515C0.620471 52.5657 0.620471 51.1228 0.826116 50.9166C0.826116 50.9166 1.03176 51.1228 1.03176 51.7412C1.03176 51.9473 1.23741 52.3595 1.23741 52.9779C1.85434 52.9779 1.85434 53.5963 2.05999 54.2147C2.88257 56.8944 4.11644 59.7802 5.7616 62.2537C7.40676 64.9334 9.66886 67.2008 12.3422 68.8498C15.8382 71.1172 19.7455 72.7662 23.8584 72.9724C25.7092 73.1785 27.3543 73.1785 28.7939 72.9724Z" fill="#231F20"/>
<path d="M2.46749 52.5625C2.67313 52.5625 2.87878 52.5625 3.08442 52.5625C3.49571 52.5625 3.70136 52.5625 4.11265 52.5625C4.31829 52.5625 4.52394 52.5625 4.52394 52.7686C4.72958 52.9748 4.31829 53.1809 3.907 53.1809C3.49571 53.387 3.08442 53.387 2.67313 53.387C2.26184 53.387 2.0562 53.387 1.64491 53.387C1.23362 53.387 1.02797 53.387 0.616682 53.1809C0.411037 53.1809 0.205391 52.9748 0.205391 52.9748C-0.000253759 52.7686 -0.000253759 52.5625 0.411037 52.5625C0.822327 52.5625 1.02797 52.7686 1.43926 52.7686C1.64491 52.7686 1.85055 52.9748 2.26184 52.9748C2.26184 52.5625 2.26184 52.5625 2.46749 52.5625Z" fill="#231F20"/>
<path d="M2.67465 54.2109C2.88029 54.2109 3.08594 54.2109 3.29158 54.2109C3.70287 54.2109 4.11416 54.2109 4.31981 54.2109C4.52545 54.2109 4.7311 54.2109 4.93674 54.4171C5.14239 54.6232 4.7311 54.8293 4.31981 54.8293C3.90852 55.0355 3.49723 55.0355 3.08594 55.0355C2.67465 55.0355 2.469 55.0355 2.05771 55.0355C1.64642 55.0355 1.23513 55.0355 0.823841 54.8293C0.618196 54.8293 0.41255 54.8293 0.206905 54.6232C-0.204385 54.4171 -0.204385 54.2109 0.206905 54.2109C0.618196 54.2109 1.02949 54.2109 1.44078 54.2109C1.64642 54.2109 2.05771 54.2109 2.26336 54.2109C2.469 54.2109 2.67465 54.2109 2.67465 54.2109Z" fill="#231F20"/>
<path d="M2.87708 55.8594C3.08272 55.8594 3.28837 55.8594 3.49401 55.8594C3.9053 55.8594 4.11095 55.8594 4.52224 55.8594C4.72788 55.8594 4.93353 55.8594 5.13917 56.0655C5.34482 56.2716 4.93353 56.4778 4.52224 56.4778C4.11095 56.6839 3.69966 56.6839 3.28837 56.6839C2.87708 56.6839 2.67143 56.6839 2.26014 56.6839C1.84885 56.6839 1.43756 56.6839 1.02627 56.4778C0.820624 56.4778 0.614979 56.2716 0.409334 56.2716C-0.00195673 56.0655 0.203688 55.8594 0.409334 55.8594C0.820624 55.8594 1.23191 55.8594 1.6432 55.8594C1.84885 55.8594 2.26014 55.8594 2.46579 55.8594C2.67143 55.8594 2.87708 55.8594 2.87708 55.8594Z" fill="#231F20"/>
<path d="M15.0102 44.7266C15.6271 44.7266 16.0384 44.7266 16.861 44.7266C17.6836 44.7266 18.7118 44.7266 19.5344 44.7266C20.357 44.7266 20.5626 44.9327 20.7683 45.1388C20.9739 45.5511 20.1513 45.5511 19.1231 45.7572C18.0949 45.7572 17.0667 45.7572 16.0384 45.7572C15.2159 45.7572 14.3933 45.7572 13.5707 45.7572C12.7481 45.7572 11.7199 45.7572 10.6917 45.7572C10.2804 45.7572 9.66344 45.7572 9.25215 45.7572C8.22392 45.5511 8.22392 45.3449 9.0465 45.1388C10.0747 44.9327 11.103 44.9327 12.1312 44.9327C12.7481 44.9327 13.5707 44.9327 14.1876 44.9327C14.3933 44.7266 14.8046 44.7266 15.0102 44.7266Z" fill="#231F20"/>
<path d="M18.5096 43.2885C18.3039 43.2885 18.3039 43.2885 18.3039 43.4946C18.3039 43.4946 18.3039 43.4946 18.3039 43.7007C18.3039 43.7007 18.3039 43.4946 18.5096 43.2885C18.3039 43.4946 18.3039 43.2885 18.5096 43.2885C18.3039 43.0823 18.5096 43.0823 18.5096 42.8762C18.5096 42.8762 18.7152 42.8762 18.9209 42.8762C19.1265 42.8762 19.1265 43.0823 19.1265 43.2885C19.1265 43.4946 19.1265 43.9068 18.9209 44.113C18.7152 44.3191 18.3039 44.5252 18.0983 44.5252C17.8926 44.5252 17.4813 44.3191 17.2757 44.113C17.0701 43.4946 17.0701 42.8762 17.4813 42.6701C17.8926 42.4639 18.0983 42.2578 18.5096 42.2578C18.9209 42.2578 19.1265 42.2578 19.5378 42.2578C20.1547 42.4639 20.7717 43.0823 20.9773 43.7007C21.183 44.113 21.183 44.5252 20.9773 44.7314C20.9773 45.1436 20.7717 45.3497 20.566 45.3497C20.3604 45.3497 20.3604 45.1436 20.3604 44.9375C20.3604 44.7313 20.1547 44.5252 20.1547 44.3191C20.1547 44.113 19.9491 43.9068 19.7434 43.7007C19.5378 43.4946 19.1265 43.2885 18.9209 43.2885C18.7152 43.2885 18.5096 43.2885 18.5096 43.2885Z" fill="#231F20"/>
<path d="M14.3979 42.2584C14.3979 42.4645 14.3979 42.6706 14.3979 42.8767C14.6036 43.0829 14.8092 42.8767 14.8092 42.8767C14.8092 42.6706 14.8092 42.6706 14.6036 42.2584V42.0522C14.6036 42.0522 14.8092 42.0522 15.0149 42.0522C15.4262 42.0522 15.8374 42.4645 15.6318 43.0829C15.6318 43.4951 15.4262 43.7013 15.0149 43.9074C14.8092 44.1135 14.3979 44.1135 14.1923 44.1135C13.5754 43.9074 13.1641 43.4951 13.1641 42.8767C13.1641 42.4645 13.3697 42.0522 13.5754 41.64C13.781 41.4338 14.1923 41.0216 14.3979 41.0216C15.2205 40.6093 16.0431 40.8155 16.66 41.2277C17.0713 41.4338 17.277 41.64 17.4826 42.0522C17.8939 42.6706 17.6883 42.8767 17.0713 42.6706C16.4544 42.4645 16.0431 42.0522 15.4262 42.0522C15.0149 42.0522 14.6036 42.0522 14.3979 42.2584C14.3979 42.2584 14.6036 42.0522 14.3979 42.2584Z" fill="#231F20"/>
<path d="M10.0741 44.7265C9.6628 44.9327 9.25151 45.1388 8.84022 45.3449C8.63458 45.3449 8.22329 45.5511 7.812 45.5511L8.01764 44.7265C8.22329 44.9327 8.42893 44.9327 8.63458 45.1388C9.04587 45.3449 9.25151 45.3449 9.25151 45.5511C9.25151 45.7572 9.25151 45.9633 9.04587 45.9633C8.84022 45.9633 8.42893 45.9633 8.01764 45.9633C7.812 45.9633 7.60635 45.7572 7.40071 45.5511L6.57812 44.9327L7.60635 44.7265C8.01764 44.5204 8.63458 44.5204 9.04587 44.3143C9.6628 44.1082 10.0741 43.902 10.4854 43.4898C10.691 43.2836 10.8967 43.0775 11.1023 42.8714C11.308 42.6653 11.7193 42.4591 11.9249 42.253C12.3362 42.0469 12.7475 42.0469 13.1588 42.0469C13.5701 42.253 13.5701 42.4591 13.5701 42.4591C13.5701 42.4591 13.3644 42.4591 13.1588 42.6653C12.9531 42.6653 12.7475 42.8714 12.3362 42.8714C12.3362 42.8714 11.9249 43.0775 11.7193 43.2836C11.308 43.6959 10.8967 43.902 10.4854 44.1082C10.4854 44.5204 10.2797 44.5204 10.0741 44.7265Z" fill="#231F20"/>
<path d="M13.9846 48.8533C13.3677 48.8533 12.7507 48.8533 11.9282 48.8533C10.8999 48.8533 9.87172 48.8533 8.84349 48.6472C8.02091 48.6472 7.60962 48.4411 7.60962 48.235C7.40397 47.8227 8.22655 47.8227 9.46042 47.8227C10.6943 47.8227 11.9282 47.8227 12.9564 47.8227C13.9846 47.8227 14.8072 47.8227 15.8354 47.8227C16.2467 47.8227 16.8637 47.8227 17.4806 47.8227C18.0975 47.8227 18.5088 47.8227 18.9201 47.8227C19.1257 47.8227 19.3314 47.8227 19.537 47.6166C19.7427 47.6166 19.7427 47.4104 19.9483 47.2043C20.154 46.7921 20.154 46.5859 20.154 46.5859H20.3596C20.5653 46.5859 20.5653 46.9982 20.5653 47.2043C20.5653 47.6166 20.3596 47.8227 20.154 48.235C19.9483 48.4411 19.537 48.6472 19.1257 48.6472C18.5088 48.6472 17.8919 48.6472 17.2749 48.6472C16.4524 48.6472 15.6298 48.6472 15.0128 48.6472C14.6016 48.8533 14.1903 48.8533 13.9846 48.8533Z" fill="#231F20"/>
<path d="M13.3692 50.7044C12.9579 50.7044 12.7523 50.4982 12.5466 50.2921C12.1353 50.086 11.9297 49.6737 11.9297 49.0553C11.9297 48.6431 12.1353 48.4369 12.341 48.6431C12.7523 48.6431 12.7523 48.8492 12.7523 49.0553C12.9579 49.2615 12.9579 49.4676 13.1636 49.4676C13.3692 49.4676 13.5748 49.6737 13.5748 49.4676C13.7805 49.2615 13.9861 49.2615 13.9861 49.0553C13.9861 48.8492 13.9861 48.8492 14.1918 48.6431C14.3974 48.4369 14.6031 48.2308 14.8087 48.4369C15.0144 48.6431 15.0144 48.8492 14.8087 49.2615C14.8087 49.4676 14.6031 49.6737 14.3974 49.8798C14.1918 50.086 13.7805 50.2921 13.5748 50.4982C13.5748 50.7044 13.5748 50.7044 13.3692 50.7044Z" fill="#231F20"/>
<path d="M14.8115 52.1474C14.4002 52.3535 13.989 52.3535 13.372 52.3535C12.7551 52.3535 11.9325 52.5596 11.3156 52.3535C10.6986 52.3535 10.493 52.1474 10.493 51.9412C10.2873 51.529 10.9043 51.529 11.7269 51.3228C12.3438 51.529 13.1664 51.529 13.989 51.3228C14.6059 51.3228 15.2228 51.1167 15.8398 50.9106C16.4567 50.7045 17.2793 50.4983 17.8962 50.2922C18.3075 50.0861 18.7188 50.0861 18.9244 50.0861C19.747 49.8799 19.747 50.2922 19.3357 50.7045C18.7188 51.1167 17.8962 51.3228 17.0736 51.7351C16.4567 51.9412 16.0454 51.9412 15.4285 52.1474C15.2228 52.1474 15.0172 52.1474 14.8115 52.1474Z" fill="#231F20"/>
<path d="M25.7077 57.0963C25.7077 57.0963 25.7077 56.8902 25.7077 57.0963C26.119 56.684 26.3246 56.4779 26.5302 56.2718C26.7359 56.0657 26.9415 56.0657 27.1472 56.2718C27.5585 56.4779 27.3528 56.684 27.1472 57.0963C27.1472 57.3024 26.9415 57.5086 26.7359 57.5086L26.5302 57.7147C26.5302 57.9208 26.3246 57.9208 26.3246 58.1269C26.119 58.3331 25.9133 58.5392 25.7077 58.7453C25.502 58.5392 25.2964 58.3331 25.0907 58.1269L24.8851 57.9208C24.8851 57.9208 24.8851 57.9208 24.6794 57.7147L24.4738 57.5086C24.4738 57.3024 24.2681 57.3024 24.2681 57.0963C24.0625 56.8902 24.0625 56.684 24.0625 56.684C24.0625 56.2718 24.2681 56.0657 24.4738 56.2718C24.8851 56.4779 25.0907 56.8902 25.2964 57.0963C25.502 56.8902 25.502 56.8902 25.7077 57.0963Z" fill="#231F20"/>
<path d="M26.7344 64.7229C27.557 64.7229 28.3796 64.7229 29.4078 64.7229C30.0248 64.7229 30.8473 64.7229 31.4643 64.7229C32.0812 64.7229 32.6982 64.7229 33.3151 64.5168C33.7264 64.3107 34.1377 64.3107 34.3433 64.1046C34.549 63.8984 34.7546 63.8984 34.7546 63.8984C34.9602 63.8984 34.9602 64.1046 34.7546 64.5168C34.549 64.9291 33.7264 65.3413 32.9038 65.5475C32.0812 65.7536 31.2586 65.7536 30.4361 65.7536C29.6135 65.7536 28.9965 65.7536 28.174 65.7536C26.9401 65.7536 25.7062 65.7536 24.2667 65.7536C22.8272 65.7536 21.5933 65.7536 20.1538 65.7536C19.3312 65.7536 18.5086 65.5475 17.8917 65.3413C17.2748 64.9291 16.8635 64.7229 17.0691 64.5168C17.0691 64.3107 17.4804 64.5168 18.0973 64.7229C18.7143 64.9291 19.5369 64.9291 20.1538 64.9291C20.9764 64.9291 21.799 64.9291 22.4159 64.9291C23.4441 64.9291 24.4723 64.9291 25.5006 64.9291C25.9119 64.7229 26.3232 64.7229 26.7344 64.7229Z" fill="#231F20"/>
<path d="M36.4005 61.8398C36.6061 61.8398 36.6061 62.0459 36.6061 62.0459C36.6061 62.2521 36.8117 62.4582 36.8117 62.6643C36.8117 62.8704 36.8117 62.8704 36.4005 63.0766C35.9892 63.2827 35.9892 63.0766 35.7835 63.0766C35.5779 63.0766 35.5779 62.8704 35.5779 62.6643C35.5779 62.4582 35.5779 62.4582 35.3722 62.4582C35.1666 62.4582 35.1666 62.2521 35.1666 62.2521C35.1666 62.2521 34.9609 62.2521 34.9609 62.0459C34.9609 61.8398 34.9609 61.6337 35.1666 61.4276C35.3722 61.2214 35.5779 61.4276 35.7835 61.4276C35.9892 61.6337 36.1948 61.6337 36.4005 61.8398C36.1948 61.8398 36.4005 61.8398 36.4005 61.8398Z" fill="#231F20"/>
<path d="M16.4501 63.0727C16.4501 63.0727 16.4501 63.2788 16.4501 63.0727C16.4501 63.2788 16.4501 63.2788 16.2445 63.485C16.2445 63.485 16.0388 63.485 15.8332 63.485C15.4219 63.485 15.4219 63.2788 15.4219 63.0727C15.4219 62.8666 15.6275 62.6604 15.6275 62.4543C15.8332 62.2482 15.8332 62.2482 16.0388 62.0421C16.0388 61.8359 16.2445 61.8359 16.4501 61.8359H16.6557C16.8614 62.0421 16.8614 62.2482 16.8614 62.4543C16.8614 62.8666 16.6557 62.8666 16.4501 63.0727C16.6557 63.0727 16.4501 62.8666 16.4501 63.0727Z" fill="#231F20"/>
<path d="M37.4304 45.7572C36.8135 45.7572 36.4022 45.7572 35.5796 45.7572C34.757 45.7572 33.7288 45.7572 32.9062 45.5511C32.0836 45.5511 31.878 45.3449 31.6723 45.1388C31.4667 44.7266 32.2893 44.7266 33.3175 44.7266C34.3457 44.7266 35.374 44.7266 36.4022 44.7266C37.2248 44.7266 38.0473 44.9327 38.8699 44.7266C39.6925 44.7266 40.7207 44.7266 41.749 44.7266C42.1603 44.7266 42.7772 44.7266 43.1885 44.9327C44.2167 45.1388 44.2167 45.3449 43.1885 45.5511C42.1603 45.7572 41.132 45.5511 40.1038 45.7572C39.4869 45.7572 38.6643 45.7572 38.0473 45.7572C38.0473 45.7572 37.6361 45.7572 37.4304 45.7572Z" fill="#231F20"/>
<path d="M34.1401 42.256C34.3458 42.256 34.5514 42.4621 34.7571 42.4621C34.9627 42.6683 35.1683 42.8744 35.1683 43.2866C35.1683 43.4928 35.1683 43.6989 34.9627 43.905C34.7571 44.1112 34.5514 44.3173 34.3458 44.3173C34.1401 44.3173 33.9345 44.3173 33.5232 44.1112C33.3175 43.905 33.1119 43.6989 33.1119 43.4928C33.1119 43.0805 33.3175 42.8744 33.5232 42.6683C33.7288 42.6683 33.7288 42.6683 33.9345 42.6683C33.9345 42.8744 33.9345 42.8744 34.1401 43.0805V42.8744C33.9345 42.6683 33.5232 42.6683 33.1119 42.8744C32.7006 43.0805 32.495 43.2867 32.2893 43.6989C32.2893 43.905 32.0837 44.1112 32.0837 44.3173C32.0837 44.5234 31.878 44.7295 31.878 44.7295C31.878 44.7295 31.6724 44.7295 31.4667 44.5234C31.2611 44.3173 31.2611 43.905 31.4667 43.4928C31.6724 43.0805 31.878 42.8744 32.0837 42.4621C32.495 42.0499 32.9062 42.0499 33.5232 41.8438C33.7288 42.256 33.9345 42.256 34.1401 42.256Z" fill="#231F20"/>
<path d="M38.8659 41.8461C39.0716 42.2584 39.0716 43.0829 38.6603 43.4952C38.4547 43.7013 38.249 43.7013 38.0434 43.9074C37.8377 43.9074 37.4264 43.9074 37.2208 43.9074C37.0151 43.7013 36.8095 43.7013 36.6038 43.289C36.3982 43.0829 36.3982 42.6707 36.6038 42.4645C36.8095 42.0523 37.0151 41.8461 37.2208 41.8461C37.4264 41.8461 37.4264 41.8461 37.6321 42.0523C37.6321 42.2584 37.6321 42.2584 37.6321 42.4645V42.6707H37.8377L38.0434 42.4645C38.0434 42.2584 37.8377 41.8461 37.4264 41.64C37.0151 41.64 36.3982 41.64 35.9869 41.8461C35.7813 42.0523 35.5756 42.0523 35.1643 42.2584C34.5474 42.4645 34.3417 42.4645 34.753 41.8461C34.9587 41.2278 35.7813 40.8155 36.6038 40.6094C37.2208 40.6094 37.8377 40.8155 38.249 41.0216C38.6603 41.4339 38.8659 41.64 38.8659 41.8461Z" fill="#231F20"/>
<path d="M42.9801 43.7003C43.3914 43.9064 43.597 43.9064 44.0083 44.1125C44.214 44.3186 44.6253 44.3186 44.8309 44.5248L45.8591 44.7309L45.0365 45.3493C44.8309 45.5554 44.4196 45.7615 44.0083 45.7615C43.3914 45.7615 43.1857 45.5554 43.1857 45.3493C43.1857 44.937 43.597 45.1431 44.0083 44.7309C44.214 44.7309 44.214 44.5248 44.4196 44.5248L44.6253 45.3493C44.0083 45.1431 43.597 44.937 42.9801 44.7309C42.3632 44.5248 41.9519 44.1125 41.3349 43.7003C40.718 43.288 40.3067 42.8757 39.8954 42.4635C39.6898 42.2574 39.4841 42.2574 39.2785 42.2574C39.0728 42.2574 38.8672 42.2574 38.8672 42.0512C38.8672 42.0512 38.8672 41.8451 39.0728 41.639C39.4841 41.4328 39.8954 41.4328 40.3067 41.639C40.718 41.8451 40.9236 42.0512 41.3349 42.2574C41.7462 42.4635 41.9519 42.8757 42.3632 43.0819C42.5688 43.7002 42.7744 43.7003 42.9801 43.7003Z" fill="#231F20"/>
<path d="M38.4582 47.8179C39.0751 47.8179 39.692 47.8179 40.5146 47.8179C41.5428 47.8179 42.5711 47.8179 43.5993 47.8179C44.4219 47.8179 44.8332 48.024 44.8332 48.2302C45.0388 48.6424 44.2162 48.6424 42.9824 48.6424C41.7485 48.6424 40.5146 48.6424 39.4864 48.6424C38.4582 48.6424 37.6356 48.6424 36.6074 48.6424C36.1961 48.6424 35.5791 48.6424 34.9622 48.6424C34.3453 48.6424 33.934 48.6424 33.317 48.6424C32.9057 48.6424 32.7001 48.4363 32.2888 48.2302C31.8775 48.024 31.6719 47.6118 31.6719 47.4056C31.6719 46.9934 31.6719 46.7873 31.6719 46.5811C31.8775 46.375 31.8775 46.375 31.8775 46.375C32.0832 46.375 31.8775 46.7873 32.0832 46.9934C32.2888 47.4056 32.7001 47.6118 33.1114 47.6118C33.5227 47.6118 34.1396 47.6118 34.7566 47.6118C35.5791 47.6118 36.4017 47.6118 37.0187 47.6118C37.8412 48.024 38.2525 48.024 38.4582 47.8179Z" fill="#231F20"/>
<path d="M38.8692 50.7044C38.4579 50.7044 38.2523 50.4982 38.0466 50.2921C37.6353 50.086 37.4297 49.6737 37.4297 49.0553C37.4297 48.6431 37.6353 48.4369 37.841 48.6431C38.2523 48.6431 38.2523 48.8492 38.2523 49.0553C38.4579 49.2615 38.4579 49.4676 38.6636 49.4676C38.8692 49.4676 39.0748 49.6737 39.0748 49.4676C39.2805 49.2615 39.4861 49.2615 39.4861 49.0553C39.4861 48.8492 39.4861 48.8492 39.6918 48.6431C39.8974 48.4369 40.1031 48.2308 40.3087 48.4369C40.5144 48.6431 40.5144 48.8492 40.3087 49.2615C40.3087 49.4676 40.1031 49.6737 39.8974 49.8798C39.6918 50.086 39.2805 50.2921 39.0748 50.4982C39.2805 50.7044 39.0748 50.7044 38.8692 50.7044Z" fill="#231F20"/>
<path d="M37.839 51.3245C38.2502 51.3245 38.6615 51.5306 39.2785 51.5306C39.8954 51.7368 40.718 51.7368 41.3349 51.9429C41.9519 52.149 42.1575 52.149 42.1575 52.3552C42.3631 52.7674 41.7462 52.7674 40.9236 52.7674C40.101 52.7674 39.2785 52.5613 38.4559 52.5613C37.839 52.3552 37.222 52.149 36.3994 52.149C35.7825 51.9429 34.9599 51.7368 34.343 51.5306C33.9317 51.3245 33.5204 51.3245 33.3148 51.1184C32.6978 50.7061 32.6978 50.5 33.5204 50.5C34.343 50.5 34.9599 50.9123 35.7825 51.1184C36.1938 51.3245 36.8107 51.5306 37.222 51.5306C37.4277 51.1184 37.6333 51.1184 37.839 51.3245Z" fill="#231F20"/>
<path d="M7.20011 64.1023C7.40575 63.8962 7.6114 63.69 8.02269 63.4839C8.43398 63.2778 8.84527 62.8655 9.25656 62.8655C9.66785 62.6594 9.8735 62.6594 10.0791 62.8655C10.2848 63.0717 10.0791 63.4839 9.66785 63.69C9.25656 64.1023 8.84527 64.3084 8.22833 64.7207C7.81704 64.9268 7.40575 65.1329 6.99446 65.5452C6.58317 65.7513 6.17188 65.9575 5.76059 66.1636C5.55495 66.3697 5.3493 66.3697 5.14366 66.5758C4.52672 66.782 4.52672 66.5758 4.73237 65.9575C4.93801 65.5452 5.55495 65.3391 5.96624 64.9268C6.17188 64.7207 6.58317 64.5146 6.99446 64.3084C6.99446 64.3084 6.99446 64.1023 7.20011 64.1023Z" fill="#231F20"/>
<path d="M8.84554 66.782C9.05119 66.5759 9.25683 66.3697 9.46248 66.1636C9.66812 65.9575 10.0794 65.7513 10.2851 65.5452C10.4907 65.3391 10.6964 65.3391 10.902 65.5452C11.3133 65.7513 10.902 65.9575 10.6964 66.3697C10.4907 66.782 10.0794 66.9881 9.66812 67.1942C9.46248 67.4004 9.05119 67.6065 8.84554 67.8126C8.6399 68.0188 8.22861 68.431 8.02296 68.6371C7.81732 68.8433 7.61167 68.8433 7.40603 69.0494C6.99474 69.2555 6.78909 69.0494 6.99474 68.6371C7.20038 68.2249 7.61167 68.0188 7.81732 67.6065C8.02296 67.4004 8.22861 67.1942 8.43425 66.9881C8.84554 66.9881 8.84554 66.782 8.84554 66.782Z" fill="#231F20"/>
<path d="M11.5149 68.6444C11.7205 68.4382 11.9262 68.2321 12.1318 68.026C12.3375 67.8199 12.7488 67.4076 13.1601 67.2015C13.3657 66.9953 13.5714 66.9953 13.777 67.2015C14.1883 67.4076 13.777 67.6137 13.5714 68.026C13.3657 68.4382 12.9544 68.6444 12.5431 69.0566C12.3375 69.2628 11.9262 69.4689 11.7205 69.8811C11.5149 70.2934 11.1036 70.4995 10.898 70.7057C10.4867 70.7057 10.281 70.9118 10.281 71.1179C9.86974 71.324 9.66409 71.1179 9.86974 70.7057C9.86974 70.0873 10.281 69.8811 10.4867 69.4689C10.6923 69.2628 10.898 69.0566 11.1036 68.8505C11.3093 68.8505 11.3093 68.6444 11.5149 68.6444Z" fill="#231F20"/>
<path d="M45.0391 66.7876C44.8334 66.5814 44.6278 66.3753 44.4221 66.1692C44.2165 65.963 43.8052 65.5508 43.5995 65.1385C43.3939 64.9324 43.3939 64.7263 43.5995 64.5201C43.8052 64.1079 44.0108 64.5201 44.4221 64.7263C44.8334 64.9324 45.2447 65.3447 45.4504 65.7569C45.656 65.963 45.8616 66.3753 46.2729 66.5814C46.6842 66.7876 46.8899 67.1998 47.3012 67.4059C47.5068 67.6121 47.7125 67.8182 47.7125 68.0243C47.9181 68.4366 47.7124 68.6427 47.3012 68.4366C46.8899 68.2305 46.4786 67.8182 46.0673 67.6121C45.8616 67.4059 45.656 67.1998 45.4504 66.9937C45.2447 66.7876 45.0391 66.7876 45.0391 66.7876Z" fill="#231F20"/>
<path d="M41.5436 68.2281C41.338 68.0219 41.1323 67.8158 40.9267 67.6097C40.5154 67.1974 40.3097 66.9913 40.1041 66.579C39.8984 66.1668 39.8984 66.1668 39.8984 65.7545C40.1041 65.3423 40.5154 65.7545 40.721 65.9606C41.1323 66.3729 41.5436 66.7852 41.9549 67.1974C42.1605 67.6097 42.5718 67.8158 42.7775 68.2281C43.1888 68.4342 43.3944 68.8464 43.8057 69.2587C44.0113 69.4648 44.217 69.671 44.217 69.8771C44.4226 70.2893 44.217 70.4955 43.8057 70.2893C43.1888 70.0832 42.9831 69.671 42.5718 69.2587C42.3662 69.0526 42.1605 68.6403 41.7492 68.4342C41.7492 68.4342 41.5436 68.4342 41.5436 68.2281Z" fill="#231F20"/>
<path d="M39.0754 69.6749C38.8697 69.4688 38.8697 69.4688 38.8697 69.2626C38.6641 69.0565 38.6641 68.8504 38.6641 68.4381C38.6641 68.232 38.6641 68.0259 38.8697 67.8198C39.281 67.6136 39.281 67.8198 39.4866 68.0259C39.6923 68.232 39.8979 68.6443 39.8979 68.8504C39.8979 69.0565 40.1036 69.2627 40.3092 69.4688C40.5149 69.6749 40.5149 69.881 40.7205 70.2933C40.7205 70.4994 40.9262 70.4994 40.9262 70.7055C40.9262 71.1178 40.7205 71.1178 40.3092 71.1178C39.8979 70.9117 39.8979 70.7055 39.6923 70.2933C39.4866 70.0872 39.4866 69.881 39.4866 69.6749C39.0754 69.881 39.0754 69.881 39.0754 69.6749Z" fill="#231F20"/>
<path d="M44.2177 38.3384C44.4234 38.5445 44.4234 38.5445 44.4234 38.9567C44.4234 39.1629 44.629 39.5751 44.4234 39.7813C44.4234 39.9874 44.2177 40.1935 44.0121 39.9874C43.6008 39.9874 43.6008 39.7813 43.6008 39.5751C43.6008 39.369 43.3952 39.1629 43.3952 38.9567C43.3952 38.7506 43.1895 38.5445 43.1895 38.5445C42.9839 38.5445 42.9839 38.3384 42.7782 38.1322L42.5726 37.9261C42.3669 37.72 42.3669 37.5138 42.7782 37.3077C43.1895 37.1016 43.3952 37.5138 43.8064 37.5138C43.6008 37.72 43.8064 37.9261 44.2177 38.3384C44.0121 38.1322 44.0121 38.3384 44.2177 38.3384Z" fill="white"/>
<path d="M27.355 35.6636C27.9719 35.6636 28.5888 35.4575 29.2058 35.4575C30.234 35.2514 31.2622 35.0452 32.0848 35.0452C32.9074 34.8391 33.3187 34.8391 33.5243 35.0452C33.73 35.4575 33.113 35.6636 31.8791 36.0759C30.6453 36.4881 29.617 36.6942 28.3832 36.6942C27.355 36.6942 26.5324 36.6942 25.5041 36.6942C24.4759 36.6942 23.4477 36.4881 22.4195 36.282C21.8025 36.0759 21.3912 36.0759 20.7743 35.8697C19.7461 35.4575 19.9517 35.2514 20.7743 35.2514C21.8025 35.2514 23.0364 35.6636 24.0646 35.6636C24.8872 35.6636 25.5041 35.8697 26.3267 35.8697C26.738 35.8697 27.1493 35.8697 27.355 35.6636Z" fill="white"/>
<path d="M20.5625 22.2608C20.7681 22.0547 20.7681 22.0547 20.9738 22.0547C21.1794 22.2608 21.3851 22.0547 21.3851 22.0547C21.5907 22.0547 21.5907 22.0547 21.7964 22.0547C22.002 22.0547 22.2077 22.0547 22.4133 22.0547C22.619 22.0547 22.8246 22.0547 22.8246 22.2608C22.8246 22.2608 23.0302 22.2608 23.0302 22.4669V22.6731C23.0302 22.6731 23.0302 22.6731 22.8246 22.6731H22.619C22.4133 22.6731 22.2077 22.6731 22.002 22.6731C22.002 22.6731 22.002 22.6731 21.7964 22.6731C21.5907 22.6731 21.1794 22.6731 20.9738 22.6731C20.9738 22.6731 20.7681 22.8792 20.5625 22.6731C20.5625 22.8792 20.5625 22.6731 20.5625 22.2608C20.5625 22.4669 20.5625 22.4669 20.5625 22.2608Z" fill="#231F20"/>
<path d="M29.6172 22.8837C29.6172 22.6776 29.6172 22.6776 29.6172 22.8837C29.6172 22.6776 29.8228 22.6776 29.8228 22.6776C30.0285 22.6776 30.0285 22.6776 30.2341 22.6776H30.4398C30.6454 22.6776 30.6454 22.6776 30.8511 22.6776C31.0567 22.6776 31.0567 22.6776 31.2623 22.6776C31.2623 22.6776 31.2623 22.4714 31.468 22.6776V22.8837H31.2623C31.0567 22.8837 31.0567 22.8837 30.8511 22.8837C30.6454 23.0898 30.4398 22.8837 30.2341 23.0898L30.0285 23.2959C29.8228 23.2959 29.6172 23.0898 29.6172 22.8837Z" fill="#231F20"/>
<path d="M21.3848 5.97778C21.3848 6.18391 21.1792 6.18391 21.1792 6.18391C20.9735 6.18391 20.9735 6.39004 20.7679 6.59617C20.7679 6.59617 20.7679 6.8023 20.5622 7.00843C20.5622 7.21455 20.5622 7.42068 20.5622 7.42068C20.5622 7.62681 20.7679 7.83294 20.7679 7.83294C20.7679 7.83294 20.9735 7.83294 20.7679 8.03907C20.7679 8.24519 20.5622 8.24519 20.5622 8.24519C20.5622 8.24519 20.5622 8.24519 20.3566 8.03907L20.151 7.83294C19.9453 7.62681 19.9453 7.42068 19.9453 7.00843V6.8023C19.9453 6.39004 20.3566 5.97778 20.7679 5.77166C20.9735 5.77166 20.9735 5.3594 21.1792 5.56553C21.1792 5.56553 21.3848 5.56553 21.3848 5.97778Z" fill="#231F20"/>
<path d="M17.4821 10.5108C17.4821 10.7169 17.4821 10.7169 17.4821 10.5108C17.4821 10.7169 17.4821 10.7169 17.4821 10.9231C17.2765 10.9231 17.4821 11.3353 17.2765 11.3353C17.2765 11.5415 17.2765 11.5415 17.2765 11.5415C17.2765 11.7476 17.4821 11.7476 17.4821 11.9537C17.6878 11.9537 17.6878 12.1598 17.8934 12.1598C17.8934 12.1598 18.099 12.1598 18.099 12.366V12.5721H17.8934C17.6878 12.5721 17.6878 12.5721 17.4821 12.5721C17.2765 12.5721 17.0708 12.366 17.0708 12.1598C17.0708 12.1598 17.0708 12.1598 16.8652 11.9537C16.6595 11.5415 16.6595 11.1292 16.8652 10.7169C16.8652 10.5108 16.8652 10.3047 17.0708 10.3047C17.0708 10.3047 17.2765 10.3047 17.4821 10.5108Z" fill="#231F20"/>
<path d="M22.623 17.1102C22.8286 16.9041 23.0343 17.1102 23.0343 17.1102C23.2399 17.3164 23.4456 17.1102 23.6512 17.3164C23.8569 17.3164 23.8569 17.3164 24.0625 17.3164C24.2681 17.3164 24.4738 17.3164 24.6794 17.1102C24.8851 17.1102 25.0907 16.9041 25.0907 16.9041C25.0907 16.9041 25.0907 16.698 25.2964 16.9041L25.502 17.1102C25.502 17.1102 25.502 17.1102 25.2964 17.3164L25.0907 17.5225C24.8851 17.7286 24.6794 17.7286 24.4738 17.9348H24.2681C23.8569 18.1409 23.4456 17.9348 23.0343 17.9348C22.8286 17.9348 22.623 17.9348 22.623 17.7286C22.4173 17.5225 22.4173 17.5225 22.623 17.1102C22.4173 17.3164 22.623 17.3164 22.623 17.1102Z" fill="#231F20"/>
<path d="M31.4632 16.899C31.4632 16.6929 31.4632 16.6929 31.4632 16.899C31.6688 16.6929 31.8745 16.6929 31.8745 16.899C32.0801 17.1052 32.2858 16.899 32.4914 16.899C32.4914 16.6929 32.6971 16.4868 32.9027 16.4868C32.9027 16.4868 33.1084 16.2806 33.314 16.0745C33.5197 15.8684 33.5197 15.6623 33.7253 15.4561C33.7253 15.4561 33.7253 15.25 33.9309 15.25C33.9309 15.25 34.1366 15.25 34.1366 15.4561V15.6623C34.1366 15.8684 34.1366 15.8684 34.1366 16.0745C34.1366 16.2806 33.9309 16.4868 33.7253 16.6929C33.7253 16.6929 33.7253 16.899 33.5197 16.899C33.1084 17.3113 32.6971 17.3113 32.2858 17.3113C32.0801 17.3113 31.8745 17.5174 31.6688 17.3113C31.2576 17.3113 31.2576 17.1052 31.4632 16.899Z" fill="#231F20"/>
<path d="M31.6719 8.44832C31.8775 8.24219 32.0832 8.24219 32.2888 8.24219C32.4945 8.24219 32.9057 8.24219 33.1114 8.44832C33.317 8.65444 33.5227 8.65444 33.7283 8.86057C33.934 9.0667 33.934 9.47896 33.934 9.89121C33.934 10.3035 33.7283 10.5096 33.5227 10.7157C33.5227 10.7157 33.5227 10.9219 33.317 10.9219L33.1114 10.7157C33.1114 10.7157 33.1114 10.7157 33.317 10.5096C33.317 10.3035 33.317 10.3035 33.317 10.0973C33.317 9.89121 33.317 9.68508 33.317 9.47896C33.317 9.47896 33.317 9.47896 33.1114 9.27283C32.9057 9.0667 32.7001 8.86057 32.2888 8.86057C32.0832 8.86057 32.0832 9.0667 31.8775 9.0667C31.8775 8.86057 31.8775 8.86057 31.6719 8.44832C31.6719 8.65444 31.6719 8.44832 31.6719 8.44832Z" fill="#231F20"/>
<path d="M26.1172 4.94651C26.1172 4.74038 26.3228 4.53425 26.5285 4.53425C26.7341 4.53425 26.9398 4.32812 27.3511 4.32812C27.5567 4.32812 27.7623 4.32812 27.968 4.32812C28.1736 4.53425 28.5849 4.74038 28.5849 4.94651C28.7906 5.15264 28.7906 5.56489 28.7906 5.77102C28.7906 5.77102 28.7906 5.97715 28.5849 5.97715L28.3793 5.77102V5.56489C28.3793 5.35877 28.3793 5.35877 28.1736 5.35877C27.968 5.15264 27.968 4.94651 27.7623 4.94651C27.7623 4.94651 27.7623 4.94651 27.5567 4.94651C27.3511 4.94651 26.9398 4.74038 26.7341 4.94651C26.5285 4.94651 26.7341 5.15264 26.5285 5.15264C26.5285 5.15264 26.3228 5.15264 26.1172 4.94651Z" fill="#231F20"/>
<path d="M23.2371 11.9531C23.4427 11.9531 23.4427 11.9531 23.2371 11.9531C23.4427 12.1593 23.4427 12.1593 23.4427 12.3654C23.4427 12.5715 23.6484 12.5715 23.6484 12.7776C23.6484 12.9838 23.854 12.9838 23.854 12.9838C24.0596 12.9838 24.0596 12.9838 24.2653 12.9838C24.4709 12.9838 24.4709 12.9838 24.6766 12.7776C24.6766 12.7776 24.6766 12.5715 24.8822 12.7776L25.0879 12.9838C25.0879 12.9838 25.0879 12.9838 24.8822 13.1899L24.6766 13.396C24.4709 13.6021 24.0596 13.6021 23.854 13.6021H23.6484C23.4427 13.6021 23.2371 13.396 23.0314 13.1899C22.8258 12.9838 22.8258 12.7776 22.8258 12.5715C22.8258 12.3654 22.6201 12.1593 22.8258 11.9531C22.8258 11.9531 23.0314 11.9531 23.2371 11.9531Z" fill="#231F20"/>
<path d="M33.5181 26.3812C33.5181 26.175 33.5181 26.175 33.5181 26.3812C33.9294 26.175 34.3407 26.3812 34.5464 26.5873C35.1633 26.7934 35.5746 26.9995 36.1915 27.2057C36.6028 27.4118 37.0141 27.6179 37.4254 27.8241C38.0423 28.0302 38.4536 28.4424 39.0706 28.8547C39.4819 29.267 40.0988 29.6792 40.3044 30.0915C40.5101 30.2976 40.7157 30.2976 40.7157 30.7098C40.7157 30.7098 40.5101 30.7098 40.3044 30.7098C40.0988 30.7098 40.0988 30.5037 39.8931 30.5037C39.6875 30.2976 39.4819 30.0915 39.0706 29.8853C38.4536 29.4731 38.0423 29.0608 37.4254 28.8547C37.2198 28.8547 37.2198 28.6486 37.0141 28.6486C36.1915 28.2363 35.369 27.8241 34.3407 27.4118C33.9294 27.2057 33.5181 27.4118 33.3125 27.2057C33.5181 26.7934 33.5181 26.5873 33.5181 26.3812Z" fill="#231F20"/>
<path d="M30.6386 43.6998C30.433 43.6998 30.433 43.6998 30.6386 43.6998C30.433 43.4936 30.6386 43.2875 30.6386 43.2875C30.8443 43.0814 30.8443 42.8753 31.0499 42.6691C31.2555 42.463 31.2555 42.463 31.4612 42.2569C31.6668 42.0507 31.8725 41.8446 32.2838 41.8446C32.4894 41.8446 32.9007 41.6385 33.1064 41.6385C33.1064 41.6385 33.312 41.4324 33.312 41.6385V41.8446H33.1064C32.9007 41.8446 32.9007 41.8446 32.6951 42.0507C32.4894 42.2569 32.2838 42.2569 32.0781 42.463C32.0781 42.463 32.0781 42.463 32.0781 42.6691C31.8725 42.8753 31.4612 43.0814 31.4612 43.4936C31.4612 43.6998 31.4612 43.9059 31.4612 43.9059C31.0499 43.9059 30.8443 43.9059 30.6386 43.6998C30.6386 43.9059 30.6386 43.6998 30.6386 43.6998Z" fill="#231F20"/>
<path d="M18.9219 41.8467C19.1275 41.6406 19.3332 41.6406 19.3332 41.6406C19.5388 41.8468 19.9501 41.6406 20.1557 41.8467C20.3614 41.8467 20.567 42.0529 20.7727 42.0529C20.9783 42.259 21.184 42.4651 21.3896 42.6713C21.5953 42.8774 21.8009 43.0835 21.8009 43.4958C21.8009 43.4958 22.0066 43.7019 21.8009 43.908H21.5953V43.7019C21.5953 43.4958 21.3896 43.4958 21.3896 43.4958C21.184 43.2896 21.184 43.0835 20.9783 42.8774H20.7727C20.3614 42.6713 20.1557 42.4651 19.7445 42.4651C19.5388 42.4651 19.5388 42.6713 19.3332 42.4651C19.1275 42.259 18.9219 42.259 18.9219 41.8467Z" fill="#231F20"/>
<path d="M23.4453 67.6076C23.4453 67.4014 23.4453 67.4014 23.4453 67.6076C23.651 67.4014 23.8566 67.1953 24.0622 67.4014C24.4735 67.4014 24.6792 67.1953 24.8848 67.1953C25.0905 67.1953 25.2961 67.1953 25.5018 67.1953C25.9131 67.1953 26.1187 67.1953 26.53 67.4014C26.9413 67.4014 27.1469 67.6076 27.3526 67.8137C27.3526 67.8137 27.5582 67.8137 27.5582 68.0198L27.3526 68.226H27.1469C26.9413 68.226 26.7356 68.226 26.7356 68.226C26.3243 68.226 26.1187 68.0198 25.7074 68.0198H25.5018C25.0905 68.0198 24.4735 68.0198 24.0622 68.226C23.8566 68.226 23.8566 68.4321 23.651 68.4321C23.651 68.0198 23.651 67.8137 23.4453 67.6076Z" fill="#231F20"/>
<path d="M48.3269 57.7188C48.5325 58.131 48.3269 58.3371 48.1212 58.3371C47.9156 58.5433 47.9156 58.9555 47.7099 59.3678C47.5043 59.5739 47.5043 59.78 47.2986 59.9862C47.093 60.3984 46.8874 60.6045 46.6817 61.0168C46.4761 61.2229 46.2704 61.6352 45.8591 61.8413C45.8591 61.8413 45.6535 62.0474 45.4478 62.0474L45.2422 61.8413L45.4478 61.6352C45.6535 61.4291 45.6535 61.2229 45.6535 61.2229C45.8591 60.8107 46.0648 60.6045 46.2704 60.1923V59.9862C46.4761 59.3678 46.8873 58.9555 47.093 58.5433C47.093 58.3371 47.093 58.131 47.2986 57.9249C47.7099 57.7188 47.9156 57.7188 48.3269 57.7188C48.1212 57.7188 48.1212 57.7188 48.3269 57.7188Z" fill="#231F20"/>
</g>
<defs>
<clipPath id="clip0_861_296">
<rect width="51" height="74" fill="white"/>
</clipPath>
</defs>
</svg>
