<svg width="15" height="21" viewBox="0 0 15 21" fill="none" xmlns="http://www.w3.org/2000/svg">
<path d="M7.5 0C4.91667 0 2.5 1.91994 2.5 4.95494V8.77167C2.5 8.99268 2.58776 9.20458 2.74404 9.36086C2.90032 9.51714 3.11232 9.605 3.33333 9.605C3.55435 9.605 3.76635 9.51714 3.92263 9.36086C4.07891 9.20458 4.16667 8.99268 4.16667 8.77167V4.95494C4.16667 2.7516 5.67333 1.66667 7.5 1.66667C9.50333 1.66667 10.8333 2.8666 10.8333 4.95494V8.76658C10.8333 8.98759 10.9211 9.1996 11.0774 9.35588C11.2337 9.51216 11.4457 9.59991 11.6667 9.59991C11.8877 9.59991 12.0997 9.51216 12.256 9.35588C12.4122 9.1996 12.5 8.98759 12.5 8.76658V4.95494C12.5 2.0716 10.265 0 7.5 0Z" fill="url(#paint0_linear_1509_326)"/>
<path d="M7.5 20.4141C11.6421 20.4141 15 17.0562 15 12.9141C15 8.77193 11.6421 5.41406 7.5 5.41406C3.35786 5.41406 0 8.77193 0 12.9141C0 17.0562 3.35786 20.4141 7.5 20.4141Z" fill="#F8830D"/>
<path d="M7.5026 10.4157C6.57927 10.4157 5.83594 11.1591 5.83594 12.0824C5.83594 12.5441 6.0193 12.9624 6.32096 13.2641C6.42096 13.3641 6.54767 13.4257 6.671 13.4974V16.2474C6.671 16.4684 6.75876 16.6804 6.91504 16.8367C7.07132 16.9929 7.28332 17.0807 7.50433 17.0807C7.72535 17.0807 7.93725 16.9929 8.09353 16.8367C8.24981 16.6804 8.33767 16.4684 8.33767 16.2474V13.4941C8.456 13.4241 8.58266 13.3607 8.68099 13.2641C8.91573 13.0312 9.07592 12.7339 9.14119 12.4098C9.20647 12.0857 9.17383 11.7495 9.04751 11.4439C8.92118 11.1384 8.70686 10.8773 8.43176 10.6939C8.15667 10.5106 7.83322 10.4148 7.5026 10.4157Z" fill="white"/>
<defs>
<linearGradient id="paint0_linear_1509_326" x1="2.5" y1="4.80833" x2="12.5" y2="4.80833" gradientUnits="userSpaceOnUse">
<stop stop-color="#485960"/>
<stop offset="1" stop-color="#323E42"/>
</linearGradient>
</defs>
</svg>
