<svg width="60" height="92" viewBox="0 0 60 92" fill="none" xmlns="http://www.w3.org/2000/svg">
<path d="M1.44772 76.5474C2.42196 74.3521 4.29294 72.5202 6.54039 71.6186C8.88139 70.6794 11.5693 71.0213 14.0351 70.7068C16.1766 70.4335 17.7217 69.4864 19.0004 67.8026C20.2256 66.1892 21.3241 64.4023 23.3273 63.656C24.9102 63.0663 26.7098 63.2298 28.283 63.8443C31.1818 64.9766 33.3713 67.3842 35.2153 69.7827C36.8988 71.9726 38.272 74.3705 41.3861 74.4488C44.5021 74.527 47.4686 72.7662 50.6061 73.2327C54.7527 73.8494 58.206 77.2691 58.9296 81.3403C59.6078 85.1558 57.906 88.8564 54.9823 91.0308H4.72907C1.04507 87.1591 -0.888092 81.8107 1.44772 76.5474Z" fill="#FBECDD"/>
<path d="M48.1836 63.677C47.3111 64.5751 46.92 66.0883 47.4011 67.4834C47.8669 68.8342 48.8881 69.9531 50.115 70.6725C51.1022 71.2512 52.3898 71.5705 53.3607 70.9644C54.0862 70.5115 54.4624 69.623 54.4833 68.7635C54.5042 67.9039 54.2173 67.0663 53.8626 66.2842C53.3627 65.1819 52.6899 64.1129 51.6876 63.4425C50.306 62.5185 49.0224 62.8136 48.1836 63.677Z" fill="#FBECDD"/>
<path d="M30.9357 85.9128H31.7049V73.7266L20.0234 74.9992L20.4639 91.4691H30.9357V85.9128Z" fill="#380A17"/>
<path d="M32.488 85.9128H31.7188V73.7266L43.4002 74.9992L42.9598 91.4691H32.488V85.9128Z" fill="#380A17"/>
<path d="M31.7111 30.7656L18.4141 35.8969L20.0296 75.0156C20.0296 75.0156 24.8761 76.7973 31.7111 76.7973C38.546 76.7973 43.3925 75.0156 43.3925 75.0156L45.0081 35.8969L31.7111 30.7656Z" fill="#F8830D"/>
<path d="M31.7 30.7656L27.0547 32.5582V33.0184C27.0547 35.6194 29.1137 37.7279 31.6535 37.7279H31.7464C34.2863 37.7279 36.3453 35.6194 36.3453 33.0184V32.5582L31.7 30.7656Z" fill="white"/>
<path d="M20.7196 42.4586C20.7196 42.4586 25.9701 57.6999 32.1526 61.6132C38.335 65.5265 36.8847 60.4679 29.874 52.4504C22.8633 44.4329 19.5087 39.282 20.7196 42.4586Z" fill="#C86B0D"/>
<path d="M27.8077 15.5577C27.0391 18.2386 27.4573 21.1475 27.4573 21.1475L28.3238 21.8604L31.7007 15.099L35.0776 21.8604L35.9441 21.1475C35.9441 21.1475 36.3622 18.2386 35.5937 15.5577C34.4518 11.5745 28.9496 11.5745 27.8077 15.5577Z" fill="#380A17"/>
<path d="M29.3203 39.3594L36.0537 59.3728L42.8831 58.2335L29.3203 39.3594Z" fill="#380A17"/>
<path d="M34.0915 13.3239C33.9859 13.2466 33.8772 13.175 33.7656 13.1094V15.6482H34.0915V13.3239Z" fill="#EF7D6E"/>
<path d="M31.685 35.9021H31.7571C33.7275 35.9021 35.3249 34.2663 35.3249 32.2484V25.4922H28.1172V32.2484C28.1172 34.2663 29.7146 35.9021 31.685 35.9021Z" fill="#EBAE71"/>
<path d="M35.947 23.624C36.703 23.624 37.3159 22.9963 37.3159 22.2221C37.3159 21.4479 36.703 20.8203 35.947 20.8203C35.191 20.8203 34.5781 21.4479 34.5781 22.2221C34.5781 22.9963 35.191 23.624 35.947 23.624Z" fill="#F8C591"/>
<path d="M35.9411 20.8203L35.9405 20.8204C35.7817 21.0492 35.6875 21.3283 35.6875 21.6304C35.6875 22.4046 36.3004 23.0322 37.0564 23.0322L37.057 23.0322C37.2158 22.8033 37.31 22.5242 37.31 22.2221C37.31 21.4479 36.6971 20.8203 35.9411 20.8203Z" fill="#F8C591"/>
<path d="M27.5017 23.624C28.2577 23.624 28.8706 22.9963 28.8706 22.2221C28.8706 21.4479 28.2577 20.8203 27.5017 20.8203C26.7457 20.8203 26.1328 21.4479 26.1328 22.2221C26.1328 22.9963 26.7457 23.624 27.5017 23.624Z" fill="#F8C591"/>
<path d="M27.5017 20.8203C27.5019 20.8203 27.5021 20.8204 27.5023 20.8204C27.6611 21.0492 27.7553 21.3283 27.7553 21.6304C27.7553 22.4046 27.1424 23.0322 26.3864 23.0322C26.3862 23.0322 26.386 23.0322 26.3858 23.0322C26.227 22.8033 26.1328 22.5242 26.1328 22.2221C26.1328 21.4479 26.7457 20.8203 27.5017 20.8203Z" fill="#F8C591"/>
<path d="M31.7571 14.0625H31.7211H31.685C29.7145 14.0625 28.1172 15.6983 28.1172 17.7162V25.4928C28.1172 26.6689 28.6191 27.7864 29.4913 28.5518L30.0212 29.0168C30.9994 29.8753 32.4427 29.8753 33.4209 29.0168L33.9508 28.5518C34.823 27.7864 35.3249 26.6689 35.3249 25.4928V17.7162C35.3249 15.6983 33.7275 14.0625 31.7571 14.0625Z" fill="#F8C591"/>
<path d="M35.2626 20.7372C35.2626 22.0416 34.3597 23.696 33.8305 23.696C33.3455 22.4571 31.8026 22.5146 31.7211 22.5185C31.6395 22.5146 30.0966 22.4571 29.6117 23.696C29.0824 23.696 28.1795 22.0416 28.1795 20.7372C28.1795 20.6003 28.1565 20.5241 28.1172 20.4922V25.4857C28.1172 26.6618 28.6202 27.7793 29.4942 28.5447L30.0253 29.0098C30.5071 29.4317 31.1015 29.6439 31.6977 29.6511V29.6529C31.7055 29.6529 31.7133 29.652 31.7211 29.652C31.7288 29.652 31.7366 29.6529 31.7444 29.6529V29.6511C32.3406 29.6439 32.935 29.4317 33.4168 29.0098L33.9479 28.5447C34.8219 27.7793 35.3249 26.6618 35.3249 25.4857V20.4922C35.2856 20.5241 35.2626 20.6003 35.2626 20.7372Z" fill="#380A17"/>
<path d="M31.6827 24.0191C32.1374 24.0191 32.506 23.8767 32.506 23.701C32.506 23.5253 32.1374 23.3828 31.6827 23.3828C31.228 23.3828 30.8594 23.5253 30.8594 23.701C30.8594 23.8767 31.228 24.0191 31.6827 24.0191Z" fill="white"/>
<path d="M39.2812 59.5388C39.2812 59.6431 39.2856 59.7463 39.292 59.849C40.7791 61.0545 42.9098 61.2782 44.6555 60.1987L44.7404 60.1462C46.2524 59.2113 47.0702 57.5411 47.0141 55.8479C46.1958 55.1436 45.1406 54.7188 43.988 54.7188C41.3885 54.7188 39.2812 56.8768 39.2812 59.5388Z" fill="#C65552"/>
<path d="M45.005 35.8984L37.3047 55.8528L46.3926 58.4007L49.4879 44.8907C50.2764 41.4491 48.744 37.8405 45.6811 36.2101C45.4564 36.0906 45.2305 35.9855 45.005 35.8984Z" fill="#F8830D"/>
<path d="M40.2109 48.3087L47.3623 54.1481L49.0096 46.958C46.7404 45.1517 43.8301 44.0455 42.0696 43.4922L40.2109 48.3087Z" fill="#FBECDD"/>
<path d="M41.1739 45.8203L37.3047 55.847L46.3926 58.3949L48.4527 49.4029C46.4638 47.5385 43.224 46.3964 41.1739 45.8203Z" fill="#F8C591"/>
<path d="M18.4235 35.8984C18.4235 35.8984 15.6895 35.9984 14.3225 44.2451C12.9556 52.4919 12.1875 58.9789 12.1875 58.9789L19.6096 64.6182L18.4235 35.8984Z" fill="#F8C591"/>
<path d="M19.0039 50.1689L18.4146 35.8984C18.4146 35.8984 15.6806 35.9984 14.3136 44.2451C14.0061 46.1004 13.6923 48.152 13.3906 50.2177L19.0039 50.1689Z" fill="#F8830D"/>
<path d="M12.181 58.9891L11.6597 63.1767C11.3083 65.9996 13.6808 68.3884 16.431 67.9807L47.0189 63.4466C47.0189 63.4466 47.0194 57.1767 33.7575 58.4109L12.181 58.9891Z" fill="#F8C591"/>
<path d="M35.2656 58.2989C36.5138 60.3146 39.7209 63.7395 47.0171 63.4453C47.0171 63.4453 47.0153 57.6629 35.2656 58.2989Z" fill="#F8C591"/>
<path opacity="0.48" d="M12.6149 63.2344C12.281 63.2344 11.9555 63.271 11.6414 63.3392C11.4059 66.0856 13.7356 68.3693 16.4292 67.97L17.2795 67.844C17.1912 65.283 15.1373 63.2344 12.6149 63.2344Z" fill="#F8C591"/>
<path d="M13.3906 50.2263L19.0039 50.1775L18.9092 47.8828L13.7077 48.0936C13.6011 48.798 13.4951 49.511 13.3906 50.2263Z" fill="#FBECDD"/>
<path d="M18.6347 41.0078L19.3686 58.7777H18.3281L18.6347 41.0078Z" fill="#380A17"/>
<path d="M43.8596 63.8906L19.8117 69.5291L19.7266 67.4679L43.8596 63.8906Z" fill="#380A17"/>
<path d="M29.3556 14.896C29.3556 14.896 26.448 14.4452 26.6769 11.2656H31.7092C32.8466 11.2656 33.7686 12.2099 33.7686 13.3747V14.896H29.3556Z" fill="#380A17"/>
<path opacity="0.37" d="M28.1856 11.2656H26.6769C26.448 14.4452 29.3556 14.896 29.3556 14.896H30.8643C30.8643 14.896 27.9567 14.4452 28.1856 11.2656Z" fill="white"/>
<path d="M28.1165 34.1094L18.3281 37.4484" stroke="#380A17" stroke-width="0.96313" stroke-miterlimit="10"/>
<path d="M36.1328 34.4922L44.4923 37.2528" stroke="#380A17" stroke-width="0.96313" stroke-miterlimit="10"/>
<path d="M28.347 24.8906C28.347 24.8906 30.1811 27.0868 31.3423 26.5436C32.5035 26.0004 33.4221 25.2513 33.4221 25.2513L32.1394 29.1239L28.2266 26.3399L28.347 24.8906Z" fill="#4F0F23"/>
<path d="M32.2835 26.999L32.9957 25.652C33.2035 25.259 33.6725 25.0972 34.0702 25.2813L34.0823 25.2868C34.3801 25.4248 34.5716 25.7285 34.5716 26.0633V32.4133L46.3983 53.6461C47.6651 55.9203 46.9297 58.8141 44.7412 60.1674L44.6563 60.2199C42.2653 61.6984 39.1504 60.7346 37.959 58.1476L26.4006 33.05C25.888 31.9371 25.8984 30.6457 26.4287 29.5415L27.3402 27.644L26.2048 25.6139C25.9665 25.1877 26.0574 24.6482 26.4214 24.3285L26.4346 24.3169C26.8196 23.9788 27.3909 23.9896 27.7634 24.3421L30.832 27.2455C31.2785 27.668 31.994 27.5465 32.2835 26.999Z" fill="#F8C591"/>
<path d="M16.74 23.5893C16.74 23.1508 16.3291 22.9245 15.8226 22.9245C15.2337 22.9245 14.6859 23.292 14.3985 23.8862L11.9609 22.6272C12.6594 21.2694 14.0423 20.3359 16.2333 20.3359C18.3832 20.3359 19.9854 21.2694 19.9854 23.0375C19.9854 25.2016 17.7944 25.5833 17.7944 26.6725H14.9736C14.9736 24.9612 16.74 24.4518 16.74 23.5893ZM14.5764 28.9073C14.5764 27.9597 15.3159 27.2384 16.384 27.2384C17.452 27.2384 18.1914 27.9597 18.1914 28.9073C18.1914 29.8407 17.452 30.6047 16.384 30.6047C15.3159 30.6047 14.5764 29.8407 14.5764 28.9073Z" fill="#F8830D"/>
<path d="M55.7901 38.4919C55.7901 38.1097 55.4273 37.9124 54.98 37.9124C54.4601 37.9124 53.9764 38.2328 53.7226 38.7507L51.5703 37.6534C52.187 36.4699 53.4081 35.6562 55.3427 35.6562C57.241 35.6562 58.6557 36.4699 58.6557 38.0109C58.6557 39.8972 56.7211 40.2299 56.7211 41.1792H54.2304C54.2304 39.6877 55.7901 39.2437 55.7901 38.4919ZM53.8797 43.1271C53.8797 42.3012 54.5326 41.6725 55.4758 41.6725C56.4187 41.6725 57.0717 42.3012 57.0717 43.1271C57.0717 43.9407 56.4187 44.6066 55.4758 44.6066C54.5326 44.6066 53.8797 43.9407 53.8797 43.1271Z" fill="#F8830D"/>
<path d="M45.5768 5.43277C45.5768 4.70054 44.8818 4.32262 44.0249 4.32262C43.0286 4.32262 42.102 4.9364 41.6157 5.92861L37.4922 3.82625C38.6738 1.55881 41.0132 0 44.7196 0C48.3566 0 51.067 1.55881 51.067 4.51131C51.067 8.12528 47.3606 8.76265 47.3606 10.5814H42.5886C42.5886 7.72379 45.5768 6.87312 45.5768 5.43277ZM41.9167 14.3133C41.9167 12.731 43.1677 11.5265 44.9746 11.5265C46.7812 11.5265 48.0322 12.731 48.0322 14.3133C48.0322 15.8722 46.7812 17.1479 44.9746 17.1479C43.1677 17.1479 41.9167 15.8722 41.9167 14.3133Z" fill="#F8830D"/>
</svg>
