<svg xmlns="http://www.w3.org/2000/svg" width="148.043" height="147.859" viewBox="0 0 148.043 147.859">
  <g id="Illustration" transform="translate(-99.591 -104.815)">
    <g id="Groupe_1264" data-name="Groupe 1264" transform="translate(99.591 104.815)">
      <g id="Groupe_1244" data-name="Groupe 1244" transform="translate(25.529 20.136)">
        <g id="Groupe_1242" data-name="Groupe 1242" transform="translate(3.87 19.435)">
          <rect id="Rectangle_345" data-name="Rectangle 345" width="0.83" height="1.609" rx="0.415" fill="#abc4c8"/>
          <rect id="Rectangle_346" data-name="Rectangle 346" width="0.83" height="1.609" rx="0.415" transform="translate(0 1.875)" fill="#abc4c8"/>
          <rect id="Rectangle_347" data-name="Rectangle 347" width="0.83" height="1.61" rx="0.415" transform="translate(0 3.725)" fill="#abc4c8"/>
          <rect id="Rectangle_348" data-name="Rectangle 348" width="0.83" height="1.609" rx="0.415" transform="translate(0 5.575)" fill="#abc4c8"/>
          <rect id="Rectangle_349" data-name="Rectangle 349" width="0.83" height="1.609" rx="0.415" transform="translate(0 7.424)" fill="#abc4c8"/>
          <rect id="Rectangle_350" data-name="Rectangle 350" width="0.83" height="1.609" rx="0.415" transform="translate(0 9.274)" fill="#abc4c8"/>
          <rect id="Rectangle_351" data-name="Rectangle 351" width="0.83" height="1.609" rx="0.415" transform="translate(0 11.123)" fill="#abc4c8"/>
          <rect id="Rectangle_352" data-name="Rectangle 352" width="0.83" height="1.61" rx="0.415" transform="translate(0 12.973)" fill="#abc4c8"/>
        </g>
        <path id="Tracé_500" data-name="Tracé 500" d="M158.858,214.1a.419.419,0,0,1,.37.28l1.014,3.2a.2.2,0,0,1-.191.281h-2.937a.2.2,0,0,1-.192-.281l1.014-3.2a.42.42,0,0,1,.37-.28Z" transform="translate(-154.296 -180.58)" fill="#fff" fill-rule="evenodd"/>
        <rect id="Rectangle_353" data-name="Rectangle 353" width="2.043" height="100.481" rx="0.966" transform="translate(11.65 21.393)" fill="#7a9297"/>
        <rect id="Rectangle_354" data-name="Rectangle 354" width="5.633" height="11.066" rx="2.664" transform="translate(9.855 12.765)" fill="#7a9297"/>
        <path id="Rectangle_355" data-name="Rectangle 355" d="M2.663,0h.306A2.664,2.664,0,0,1,5.633,2.664V5.786A2.664,2.664,0,0,1,2.969,8.45H2.664A2.664,2.664,0,0,1,0,5.786V2.663A2.663,2.663,0,0,1,2.663,0Z" transform="translate(9.855 117.648)" fill="#7a9297"/>
        <path id="Tracé_501" data-name="Tracé 501" d="M176.022,401.67H164.541a1.128,1.128,0,0,1-1.125-1.126h0a1.128,1.128,0,0,1,1.125-1.125h11.481a1.129,1.129,0,0,1,1.125,1.125h0A1.129,1.129,0,0,1,176.022,401.67Z" transform="translate(-157.61 -274.918)" fill="#7a9297" fill-rule="evenodd"/>
        <path id="Tracé_502" data-name="Tracé 502" d="M164.261,145.829h5.305a2.21,2.21,0,0,1,1.948,1.479l5.346,16.892a1.048,1.048,0,0,1-1.011,1.479H152.673a1.048,1.048,0,0,1-1.011-1.479l5.347-16.892a2.21,2.21,0,0,1,1.948-1.479Z" transform="translate(-151.589 -145.829)" fill="#fff" fill-rule="evenodd"/>
        <path id="Tracé_503" data-name="Tracé 503" d="M174.742,168.192l.61,1.927H153.611l.61-1.927Zm.979,3.093,1.22,3.854H152.022l1.22-3.854Z" transform="translate(-151.809 -157.213)" fill="#c8dee1" fill-rule="evenodd"/>
        <g id="Groupe_1243" data-name="Groupe 1243" transform="translate(4.053 20.944)">
          <circle id="Ellipse_17" data-name="Ellipse 17" cx="0.233" cy="0.233" r="0.233" fill="#7a9297"/>
          <path id="Tracé_504" data-name="Tracé 504" d="M160.076,192.722a.232.232,0,1,0-.232-.233A.233.233,0,0,0,160.076,192.722Z" transform="translate(-159.844 -190.407)" fill="#7a9297" fill-rule="evenodd"/>
          <path id="Tracé_505" data-name="Tracé 505" d="M160.076,196.489a.233.233,0,1,0-.232-.233A.233.233,0,0,0,160.076,196.489Z" transform="translate(-159.844 -192.325)" fill="#7a9297" fill-rule="evenodd"/>
          <path id="Tracé_506" data-name="Tracé 506" d="M160.076,200.257a.232.232,0,1,0-.232-.233A.233.233,0,0,0,160.076,200.257Z" transform="translate(-159.844 -194.243)" fill="#7a9297" fill-rule="evenodd"/>
          <circle id="Ellipse_18" data-name="Ellipse 18" cx="0.233" cy="0.233" r="0.233" transform="translate(0 7.399)" fill="#7a9297"/>
          <circle id="Ellipse_19" data-name="Ellipse 19" cx="0.233" cy="0.233" r="0.233" transform="translate(0 9.248)" fill="#7a9297"/>
          <circle id="Ellipse_20" data-name="Ellipse 20" cx="0.233" cy="0.233" r="0.233" transform="translate(0 11.098)" fill="#7a9297"/>
        </g>
      </g>
      <g id="Groupe_1249" data-name="Groupe 1249" transform="translate(51.689 5.608)">
        <g id="Groupe_1247" data-name="Groupe 1247">
          <path id="Tracé_507" data-name="Tracé 507" d="M258.51,239.989h5.637c2.513,0,4.232-.83,6.383-4.557L275.4,227s1.854-3.044,6.608-3.044h14.261c1.833,0,5.432.272,6.655,3.192s5.94,14.383,5.94,14.383l-9,.693-8.624,14.668s-11.884.951-14.261.68-11.409-.815-11.409-.815Z" transform="translate(-232.177 -171.071)" fill="#fe943e" fill-rule="evenodd"/>
          <path id="Tracé_508" data-name="Tracé 508" d="M281.81,179.071a7.51,7.51,0,0,0-3.275,2.084c-.866.928-10.339,18.871-11.076,20.074a7.777,7.777,0,0,0,.021,6.5c1.143,2.106,7.847,14,7.847,14l2.555-3.807s-5.372-11.881-5.607-12.481a1.866,1.866,0,0,1,.35-2.068c.67-.9,7.315-8.9,7.315-8.9S284.731,183.081,281.81,179.071Z" transform="translate(-236.376 -148.223)" fill="#141a33" fill-rule="evenodd"/>
          <path id="Rectangle_356" data-name="Rectangle 356" d="M.73,0h0a.731.731,0,0,1,.731.731V48.294a.731.731,0,0,1-.731.731h0A.731.731,0,0,1,0,48.294V.73A.73.73,0,0,1,.73,0Z" transform="translate(50.792 90.198)" fill="#00000f"/>
          <path id="Rectangle_357" data-name="Rectangle 357" d="M2.734,0h0A2.734,2.734,0,0,1,5.469,2.734V3.2A2.734,2.734,0,0,1,2.735,5.933h0A2.734,2.734,0,0,1,0,3.2V2.734A2.734,2.734,0,0,1,2.734,0Z" transform="translate(48.789 88.831)" fill="#141a33"/>
          <path id="Rectangle_358" data-name="Rectangle 358" d="M1.462,0H3.1A1.463,1.463,0,0,1,4.565,1.463v0A1.463,1.463,0,0,1,3.1,2.925H1.463A1.463,1.463,0,0,1,0,1.463v0A1.462,1.462,0,0,1,1.462,0Z" transform="translate(49.241 136.298)" fill="#141a33"/>
          <path id="Rectangle_359" data-name="Rectangle 359" d="M2.245,0H13.914A2.245,2.245,0,0,1,16.16,2.245v0a2.245,2.245,0,0,1-2.245,2.245H2.245A2.245,2.245,0,0,1,0,2.245v0A2.245,2.245,0,0,1,2.245,0Z" transform="translate(43.443 137.76)" fill="#030822"/>
          <path id="Tracé_509" data-name="Tracé 509" d="M309.44,297.733h0a1.415,1.415,0,0,0-1.411-1.411h-17.7a1.415,1.415,0,0,0-1.411,1.411h0a1.415,1.415,0,0,0,1.411,1.411h17.7A1.415,1.415,0,0,0,309.44,297.733Z" transform="translate(-247.657 -207.909)" fill="#030822" fill-rule="evenodd"/>
          <path id="Tracé_510" data-name="Tracé 510" d="M309.328,297.187h0a.8.8,0,0,0-.8-.8H282.045a.8.8,0,0,0-.8.8h0a.8.8,0,0,0,.8.8h26.488A.8.8,0,0,0,309.328,297.187Z" transform="translate(-243.752 -207.945)" fill="#00000f" fill-rule="evenodd"/>
          <path id="Tracé_511" data-name="Tracé 511" d="M298.571,291.717h17.95a1.567,1.567,0,0,1,1.562,1.563h0a1.567,1.567,0,0,1-1.562,1.563h-17.95a1.567,1.567,0,0,1-1.562-1.563h0A1.567,1.567,0,0,1,298.571,291.717Z" transform="translate(-251.775 -205.565)" fill="#fe943e" fill-rule="evenodd"/>
          <path id="Tracé_512" data-name="Tracé 512" d="M277.744,291.717h15.3a1.567,1.567,0,0,1,1.563,1.563h0a1.567,1.567,0,0,1-1.563,1.563h-15.3a1.567,1.567,0,0,1-1.562-1.563h0A1.567,1.567,0,0,1,277.744,291.717Z" transform="translate(-241.173 -205.565)" fill="#fe943e" fill-rule="evenodd"/>
          <path id="Tracé_513" data-name="Tracé 513" d="M337.37,227.147c1.027,2.454,4.524,10.943,5.614,13.589h1.449a1.283,1.283,0,0,1,1.187.794s-4.718-11.463-5.94-14.383-4.822-3.192-6.655-3.192h-2.309C332.548,223.955,336.147,224.227,337.37,227.147Z" transform="translate(-268.933 -171.071)" fill="#fe943e" fill-rule="evenodd"/>
          <path id="Tracé_514" data-name="Tracé 514" d="M244.314,259.18a1.283,1.283,0,1,1,0-2.567h6.927a1.284,1.284,0,0,1,1.2.828l6.96,15.4h23.421l8.392-14.832a1.277,1.277,0,0,1,1.113-.648v0h7.47a1.283,1.283,0,1,1,0,2.566h-6.726l-8.342,14.744a1.284,1.284,0,0,1-1.163.739H258.576a1.282,1.282,0,0,1-1.168-.756l-6.992-15.473Z" transform="translate(-224.298 -187.695)" fill="#fe943e" fill-rule="evenodd"/>
          <g id="Groupe_1246" data-name="Groupe 1246" transform="translate(0 60.858)">
            <path id="Tracé_515" data-name="Tracé 515" d="M246.555,315.476s-8.123-38.386-8.535-42.721c-.395-4.159-2.684-10.136,23.753-14.252,1.112-.173,1.98-1.3,3.2-1.466,0,0,21.06,1.02,23.377,1.956s-3.759,8.859-23.482,10.731-14.674,8.526-14.674,8.526.713,35.271,1.183,37.128S248.472,318.189,246.555,315.476Z" transform="translate(-221.635 -248.769)" fill="#00000f" fill-rule="evenodd"/>
            <path id="Tracé_516" data-name="Tracé 516" d="M256.9,246.358c-.9.4-2.439,3.874-3.56,4.288-4.421,1.634-10.066,3.363-12.739,5.174-2.853,1.933-4.03,4.758-4.9,7.01-1.143,2.956-14.564,33.85-15.345,35.148s1.571,3.376,2.5,3.848,2.207-1.266,2.207-1.266,16.914-28.953,21.82-36.1l20.938.025s6.721-1.08,10.373-5.816c3.933-5.1.688-17.533-1.043-17.7-3.285-.315-13.471-1.91-18.737.665C255.225,243.2,258.352,246.371,256.9,246.358Z" transform="translate(-212.676 -240.196)" fill="#030822" fill-rule="evenodd"/>
            <path id="Tracé_517" data-name="Tracé 517" d="M256.9,246.358c-.9.4-2.438,3.874-3.559,4.288-.358.133-.725.266-1.1.4,0,0,10.888-2.42,14.133,1.185s2.884,8.94-7.426,9.3-11.906.361-13.379,0-12.564,21.989-15.46,25.162c-1.116,1.223-2.835.709-4.527-.383-2.683,6.123-4.923,11.16-5.229,11.668-.782,1.3,1.571,3.376,2.5,3.849s2.207-1.266,2.207-1.266,16.914-28.953,21.82-36.1l20.939.025s6.721-1.08,10.373-5.816c3.933-5.1.688-17.533-1.044-17.7-3.285-.315-13.471-1.911-18.737.665C255.224,243.2,258.352,246.371,256.9,246.358Z" transform="translate(-212.676 -240.196)" fill="#00000f" fill-rule="evenodd"/>
            <g id="Groupe_1245" data-name="Groupe 1245" transform="translate(0 53.599)">
              <path id="Rectangle_360" data-name="Rectangle 360" d="M1.152,0h1.6A1.152,1.152,0,0,1,3.907,1.152v2.6A1.151,1.151,0,0,1,2.756,4.9h-1.6A1.152,1.152,0,0,1,0,3.753v-2.6A1.152,1.152,0,0,1,1.152,0Z" transform="matrix(0.457, -0.89, 0.89, 0.457, 3.8, 6.703)" fill="#d84743"/>
              <path id="Tracé_518" data-name="Tracé 518" d="M223.762,371.547a3.145,3.145,0,0,0,.136.438,8.6,8.6,0,0,1-.609,1.322c-.195.454-.615.762-1.087.52l-2.852-1.464,1.7-2.21,1.639-.4Z" transform="translate(-212.242 -359.748)" fill="#f2dddc" fill-rule="evenodd"/>
              <rect id="Rectangle_361" data-name="Rectangle 361" width="7.359" height="4.904" rx="1.446" transform="translate(5.102 6.547) rotate(-62.828)" fill="#fe943e"/>
              <path id="Tracé_519" data-name="Tracé 519" d="M215.149,360.51c.319-.242.763.274,1.2-.29,1.513-1.953,3.344-6.171,3.1-6.3l-1.609-.826c-.188-.1.06.154-.9.267-.77-.4-2.3,1.881-3.73,2.8-.8.519-.82.44-1.186.252l-.439-.226c-.282-.145-1.1-.243.083-1.1a10.618,10.618,0,0,0,2.505-2.229,2.415,2.415,0,0,0-.09-1.678c-.137-.249-.859-.156-1.055-.083a.944.944,0,0,0-.531.533l-.864,1.683c-.2.39-3.59,1.676-4.081,2.631l-.531,1.035a1.046,1.046,0,0,0-.109.587,1.656,1.656,0,0,1-.013.346l7.206,3.7A2.657,2.657,0,0,0,215.149,360.51Z" transform="translate(-205.906 -350.21)" fill="#fe943e" fill-rule="evenodd"/>
              <path id="Tracé_520" data-name="Tracé 520" d="M217.454,364.409l1.564-3.047c.245-.478-.06-1.07.281-1.734l1.06-2.065c.12-.232-.237-.906-.416-1l-1.6-.828s.219.978.223,1.082a19.186,19.186,0,0,1-1.034,2.016c-.338.659-.013,1.381-.106,1.562l-.537,1.046a1.692,1.692,0,0,1-2.482.44c-1.366-.8-.792-1.4-2.615-2.338L209,358.112a.948.948,0,0,1-.542-.543,1.82,1.82,0,0,0-.874.778l-.531,1.035a.914.914,0,0,0-.073.606,1.53,1.53,0,0,1,.019.361l7.808,4.008a2.045,2.045,0,0,1,.178-.789l.083-.383a1.016,1.016,0,0,1,.833.124l1.081.555a2.788,2.788,0,0,1,.467.559Z" transform="translate(-205.935 -352.61)" fill="#fe943e" fill-rule="evenodd"/>
              <path id="Tracé_521" data-name="Tracé 521" d="M214.007,367.573s.317.464.368.558a8.588,8.588,0,0,1-.609,1.322,1.819,1.819,0,0,1-.842.482.82.82,0,0,1-.478-.082l-6.515-3.344-.833-.428a.4.4,0,0,1-.181-.535l.5-.982c.088-.172.463-.207.463-.207a1.552,1.552,0,0,0,1.316.584,2.177,2.177,0,0,1,2.115.515C209.949,366.109,211.892,368.54,214.007,367.573Z" transform="translate(-204.874 -356.999)" fill="#fff" fill-rule="evenodd"/>
              <path id="Tracé_522" data-name="Tracé 522" d="M216.046,369.9s.317.464.368.558a8.594,8.594,0,0,1-.609,1.322,1.819,1.819,0,0,1-.842.482.82.82,0,0,1-.478-.082l-4.812-2.47c-.416-.41-.792-.778-.792-.778l4.568,2.345c.6.305,1.023.264,1.129.056l.451-.878a.407.407,0,0,0-.029-.331A2.406,2.406,0,0,0,216.046,369.9Z" transform="translate(-206.913 -359.33)" fill="#f2dddc" fill-rule="evenodd"/>
              <path id="Tracé_523" data-name="Tracé 523" d="M209.369,368.472a8.425,8.425,0,0,0,1.4,1.587l-4.84-2.485-.833-.428a.4.4,0,0,1-.181-.535l.083-.162a1.453,1.453,0,0,0,1.316.584A3.012,3.012,0,0,1,209.369,368.472Z" transform="translate(-204.874 -358.063)" fill="#00000f" fill-rule="evenodd"/>
              <path id="Tracé_524" data-name="Tracé 524" d="M215.046,355.875c-.066-.069-.041-.162.056-.208a.273.273,0,0,1,.3.041l1.021,1.059,1.74.359c.113.023.179.106.147.185a.232.232,0,0,1-.263.1l-1.25-.257.733.761c.066.069.041.162-.055.208a.274.274,0,0,1-.3-.041l-1.021-1.059-1.741-.359c-.113-.024-.179-.107-.147-.186a.233.233,0,0,1,.263-.1l1.25.258-.733-.76Zm5.528-1.1-1.741-.358-1.021-1.058a.272.272,0,0,0-.3-.041c-.1.046-.122.139-.055.208l.733.76-1.25-.257a.233.233,0,0,0-.263.1c-.032.079.034.162.147.186l1.741.358,1.021,1.06a.276.276,0,0,0,.3.041c.1-.046.122-.139.055-.208l-.733-.76,1.25.257a.233.233,0,0,0,.262-.1c.032-.079-.033-.163-.146-.186Zm-1.207,1.175-1.741-.358-1.021-1.059a.275.275,0,0,0-.3-.041c-.1.046-.122.14-.056.208l.733.761-1.25-.257a.233.233,0,0,0-.263.1c-.032.079.034.163.147.186l1.741.358,1.021,1.059a.273.273,0,0,0,.3.041c.1-.046.122-.139.055-.208l-.734-.76,1.25.257a.234.234,0,0,0,.263-.1C219.545,356.058,219.48,355.975,219.367,355.951Z" transform="translate(-209.651 -351.366)" fill="#fff" fill-rule="evenodd"/>
            </g>
          </g>
          <path id="Tracé_525" data-name="Tracé 525" d="M309.948,161.035l-.027,1.907s.135,4.057.15,4.5.223.586.76.938c.724,1.118-1.055,6-2.429,6.214s-7.76-.192-8.218-.529c-.321-.236,2.815-4.513,2.608-5.207a1.738,1.738,0,0,0,.734-.343c1.316-1.165,1.052-4.3.041-5.4C302.811,162.288,309.948,161.035,309.948,161.035Z" transform="translate(-253.379 -139.042)" fill="#f5ac83" fill-rule="evenodd"/>
          <path id="Tracé_526" data-name="Tracé 526" d="M295.106,191.024c1.136-.668,1.815-.143,3.111,1.055s2.483,1.063,3.186,1.321,1.055,11.515-3.426,13.3a2.436,2.436,0,0,1-3.415-1.318C293.319,202.993,292.155,192.76,295.106,191.024Z" transform="translate(-249.863 -154.158)" fill="#f6f5f4" fill-rule="evenodd"/>
          <path id="Tracé_527" data-name="Tracé 527" d="M313.812,214.092c-.533,1.215-2.369,2.222-4.565,2.979-3.269-1.278-8.822.679-13,.48-4.753-.226-6.7-1.313-6.7-1.313l-.307.217a1.347,1.347,0,0,1-.334-.332h0c-.542-.83-.275-2.068-.063-3.172.382-1.982,2.041-.6,1.322-9.964s-3.2-25.347,6.842-26.536c0,0-.1.229-.255.65l.419.016s-.9,2.851.987,3.78,3.942-.393,4.834-1.485a.57.57,0,0,1,.452-.227c.624-.807,1.313-1.622,2.076-2.449a27.581,27.581,0,0,1,5.527,1.9c1.71.75,3.564,2.328,3.9,4.037.477,2.425-1.96,10.66-3.637,15.96C308.5,207.506,315.37,210.544,313.812,214.092Z" transform="translate(-247.484 -146.889)" fill="#cfc9d0" fill-rule="evenodd"/>
          <path id="Tracé_528" data-name="Tracé 528" d="M302.066,188.9s-4.595,17.5-5.274,20.984a2.668,2.668,0,0,0,.368,1.612c.492.878,2.077,3.8,2.326,4.137s.431.09.747-.2,2.354-2.422,2.694-2.83a1.751,1.751,0,0,0,.332-1.313c-.1-4.866-.507-9.313-.258-14.574.134-2.843.344-5.561.615-7.394l1.437-1.415-.622-1.256a3.378,3.378,0,0,0-1.754-.385,1.538,1.538,0,0,0-1.268.781Z" transform="translate(-251.658 -151.879)" fill="#9e9ba5" fill-rule="evenodd"/>
          <path id="Tracé_529" data-name="Tracé 529" d="M291.9,217.887a9.634,9.634,0,0,1-2.361-.77l-.307.218A1.348,1.348,0,0,1,288.9,217h0c-.542-.83-.275-2.068-.063-3.172.382-1.982,2.041-.6,1.322-9.964-.643-8.378-2.7-22.041,4.061-25.687,1.493,1.029,2.412,2.749,2.4,5.433l-.116.61a6.444,6.444,0,0,0-.506.6c-.045.1-1.121,12.541-1.121,12.541Z" transform="translate(-247.484 -147.769)" fill="#9e9ba5" fill-rule="evenodd"/>
          <path id="Tracé_530" data-name="Tracé 530" d="M301.237,190.49s-4.6,17.5-5.274,20.984a2.671,2.671,0,0,0,.368,1.612c.492.878,2.077,3.8,2.326,4.137s.431.09.747-.2,2.355-2.422,2.694-2.83a1.753,1.753,0,0,0,.332-1.313c-.1-4.866-.507-9.313-.259-14.574.134-2.843.345-5.561.616-7.394l-.385-1.533S301.26,189.923,301.237,190.49Z" transform="translate(-251.235 -153.468)" fill="#fe943e" fill-rule="evenodd"/>
          <path id="Tracé_531" data-name="Tracé 531" d="M302.986,217.464c.318-.294,2.355-2.422,2.694-2.83a1.753,1.753,0,0,0,.332-1.313c-.1-4.866-.507-9.313-.259-14.574.134-2.843.345-5.561.616-7.394l-.277-1.1-.609.3-.2.311a1.985,1.985,0,0,1,.391.513c.135.28-.785,9.539-.985,11.714s-.476,10.594-.442,11.137A17.367,17.367,0,0,1,302.986,217.464Z" transform="translate(-254.817 -153.913)" fill="#fe943e" fill-rule="evenodd"/>
          <path id="Tracé_532" data-name="Tracé 532" d="M298.95,209.59c-1.26,4.91-2.639,10.386-2.987,12.174a2.671,2.671,0,0,0,.368,1.612c.146.262.391.705.668,1.208l1.625-11.23S298.766,211.7,298.95,209.59Z" transform="translate(-251.235 -163.758)" fill="#fe943e" fill-rule="evenodd"/>
          <path id="Tracé_533" data-name="Tracé 533" d="M305.383,187.045l.656,1.856a1.464,1.464,0,0,1,1.55.419l1.438-1.415-.623-1.256a3.376,3.376,0,0,0-1.754-.385A1.537,1.537,0,0,0,305.383,187.045Z" transform="translate(-256.038 -151.879)" fill="#fe943e" fill-rule="evenodd"/>
          <path id="Tracé_534" data-name="Tracé 534" d="M307.958,188.881a1.368,1.368,0,0,1,.683.439l1.437-1.415-.623-1.256a3.376,3.376,0,0,0-1.754-.385,1.85,1.85,0,0,0-.214.03l-.039.085a10.837,10.837,0,0,1,.993.738c.22.22-.484,1.763-.484,1.763Z" transform="translate(-257.089 -151.879)" fill="#fe943e" fill-rule="evenodd"/>
          <path id="Tracé_535" data-name="Tracé 535" d="M316.626,175.815a4.4,4.4,0,0,1,.794.62,1,1,0,0,1-.005.822c-.191.5-4.951,6.455-4.951,6.455s-.158.213-.371-.022-2.053-2.948-2.053-2.948L316,175.648C316.182,175.452,316.459,175.709,316.626,175.815Z" transform="translate(-258.408 -146.444)" fill="#fff" fill-rule="evenodd"/>
          <path id="Tracé_536" data-name="Tracé 536" d="M305.149,176.053s-.007,0-.022-.007a1.9,1.9,0,0,0-1.526.313c-.85.812-.139,5.77.112,6.615a.032.032,0,0,1,0,.011.373.373,0,0,0,.475.073,23.3,23.3,0,0,0,1.719-2.257C305.686,180.385,304.012,178.287,305.149,176.053Z" transform="translate(-254.924 -146.658)" fill="#fff" fill-rule="evenodd"/>
          <path id="Tracé_537" data-name="Tracé 537" d="M316.478,176.647s-6.73,14.292-7.476,21.016,4.8,20.735,5.161,21.5,7.363,4.083,10.609,4.1c0,0,.517-.016.642-.163s.611-.7.781-.917a1.266,1.266,0,0,0,.158-1.143c-.147-.543-3.407-17.566-3.814-19.785s2.58-13.944,3.034-16.117S326.656,178.987,316.478,176.647Z" transform="translate(-257.845 -146.989)" fill="#141a33" fill-rule="evenodd"/>
          <path id="Tracé_538" data-name="Tracé 538" d="M314.854,184.009c-2.042,4.689-5.342,12.809-5.851,17.4a12.15,12.15,0,0,0-.068,1.268,12.482,12.482,0,0,1,2.89-4.468c1.233-1.244,3.039-2.873,4.1-3.756,1.63-1.358,3.667-2.671,3.4-4.165s-1.268-5.976-1.268-5.976Z" transform="translate(-257.846 -150.736)" fill="#3f4154" fill-rule="evenodd"/>
          <path id="Tracé_539" data-name="Tracé 539" d="M318.128,275.16h4.563l7.524-14,8.959.368-8.8,15.455a1.285,1.285,0,0,1-1.163.739H318.128Z" transform="translate(-262.525 -190.012)" fill="#fe943e" fill-rule="evenodd"/>
          <path id="Tracé_540" data-name="Tracé 540" d="M316.811,273.618h3.569l8.392-14.832a1.277,1.277,0,0,1,1.112-.648v0h7.47a1.283,1.283,0,1,1,0,2.566h-6.726l-8.342,14.744a1.284,1.284,0,0,1-1.163.739h-4.314Z" transform="translate(-261.855 -188.47)" fill="#fe943e" fill-rule="evenodd"/>
          <path id="Tracé_541" data-name="Tracé 541" d="M294.624,176.734s-1.344,17.486-1.706,19.569-3.377,18.616-3.635,19.856-3.722,1.573-3.722,1.573,1.97-16.359,1.993-16.811.068-12.609.068-14.1,1.732-6.95,2.014-7.538S291.827,177.276,294.624,176.734Z" transform="translate(-245.947 -147.033)" fill="#141a33" fill-rule="evenodd"/>
          <path id="Tracé_542" data-name="Tracé 542" d="M299.639,184.92c-.425,5.337-1.1,13.5-1.338,14.885-.068.392-.23,1.295-.45,2.511,0,0-1.845-13.813-1.709-14.311s2.264-4.392,2.264-4.392Z" transform="translate(-251.33 -150.535)" fill="#3f4154" fill-rule="evenodd"/>
          <path id="Tracé_543" data-name="Tracé 543" d="M301.364,176.734s-.219,2.854-.5,6.393c-.967-1.271-2.186-2.952-2.047-3.174.226-.361,1.824-3.047,1.829-3.056C300.875,176.837,301.117,176.782,301.364,176.734Z" transform="translate(-252.688 -147.033)" fill="#575a6d" fill-rule="evenodd"/>
          <path id="Tracé_544" data-name="Tracé 544" d="M322.262,177.2c.005.023,1.034,4.428,1.057,4.767.018.266-5.017,2.927-7.192,4.063,1.963-5.032,4.013-9.386,4.013-9.386C320.908,176.823,321.613,177.009,322.262,177.2Z" transform="translate(-261.507 -146.989)" fill="#575a6d" fill-rule="evenodd"/>
          <path id="Tracé_545" data-name="Tracé 545" d="M335.742,181.7a7.506,7.506,0,0,1,2.813,2.675c.671,1.077,8.359,21.39,8.851,22.711a7.773,7.773,0,0,1-1.272,6.374c-.619.75-2.451,2.908-4.406,5.206-1.732,2.035-4.826,1.9-7.232,2.049,1.723-2.424,7.084-9.969,7.374-10.424a1.865,1.865,0,0,0,.055-2.1c-.483-1.015-7.054-11.606-7.054-11.606S332.1,185.069,335.742,181.7Z" transform="translate(-270.536 -149.559)" fill="#141a33" fill-rule="evenodd"/>
          <path id="Tracé_546" data-name="Tracé 546" d="M348.327,238.833a7.331,7.331,0,0,1-1.438,3.709c-.667.807-2.737,3.244-4.855,5.733-.293.343-2.123,2.106-3.769,2.106-.1,0-2.8-.676-2.92-.717l1.555-2.188c1.547-.077,5.206-.28,5.384-.512.226-.295,4.21-4.573,5-5.682A6.953,6.953,0,0,0,348.327,238.833Z" transform="translate(-271.289 -178.644)" fill="#030822" fill-rule="evenodd"/>
          <path id="Tracé_547" data-name="Tracé 547" d="M337.735,210.074v0h0l-.28-5.163c2.254,3.706,5.591,9.961,6.291,11.443a12.092,12.092,0,0,1,1.431,4.786c0,.427-.35.184-.564.31s-1.606,1.653-1.606,1.653c.382-.544.636-.908.692-1a1.865,1.865,0,0,0,.055-2.1C343.39,219.245,339.606,213.1,337.735,210.074Z" transform="translate(-272.363 -161.375)" fill="#030822" fill-rule="evenodd"/>
          <path id="Tracé_548" data-name="Tracé 548" d="M321.627,234.316l.06.035c.441.1,4.313,3.013,7.687,3.054l1.907-4.293a4.267,4.267,0,0,1,.1-4.974c-.983-5.1-2.15-11.22-2.384-12.49-.212-1.157.5-4.9,1.293-8.528l-.9-2.211s-1.889,8.142-2.111,8.761-3.35.046-3.735.023,2.693,1.155,3.26,1.426,1.584,10.526,1.539,11.386S321.968,234.006,321.627,234.316Z" transform="translate(-264.307 -161.375)" fill="#030822" fill-rule="evenodd"/>
          <path id="Tracé_549" data-name="Tracé 549" d="M294.148,178.452a18.088,18.088,0,0,0-4.306,8.819.128.128,0,0,1-.039.07,28.417,28.417,0,0,1,.924-3.914,17.809,17.809,0,0,1,2.814-4.671Q293.826,178.6,294.148,178.452Z" transform="translate(-248.107 -147.908)" fill="#030822" fill-rule="evenodd"/>
          <path id="Tracé_550" data-name="Tracé 550" d="M337.605,195.928a.128.128,0,1,1-.256.005c0-.03-.2-8.817,1.9-11.556.053.053.105.108.158.164C337.41,187.134,337.6,195.9,337.605,195.928Z" transform="translate(-272.307 -150.924)" fill="#030822" fill-rule="evenodd"/>
          <path id="Rectangle_362" data-name="Rectangle 362" d="M1.653,0h3.2A1.652,1.652,0,0,1,6.5,1.652v0A1.653,1.653,0,0,1,4.852,3.3h-3.2A1.652,1.652,0,0,1,0,1.653v0A1.653,1.653,0,0,1,1.653,0Z" transform="translate(60.724 68.142)" fill="#f08a71"/>
          <path id="Tracé_551" data-name="Tracé 551" d="M293.454,134.731a4.542,4.542,0,0,0-.448,1.773c.011.851,1.8,1.2,2.417,1.2s17.184.613,17.184.613a.625.625,0,0,0,.514-.591c0-.5-2.841-6.693-2.841-6.693Z" transform="translate(-249.737 -123.77)" fill="#2a0d09" fill-rule="evenodd"/>
          <path id="Tracé_552" data-name="Tracé 552" d="M292.847,147.658a2.638,2.638,0,1,1-2.637,2.638A2.638,2.638,0,0,1,292.847,147.658Z" transform="translate(-248.314 -132.232)" fill="#f5ac83" fill-rule="evenodd"/>
          <path id="Tracé_553" data-name="Tracé 553" d="M329.655,147.658a2.638,2.638,0,1,1-2.637,2.638A2.638,2.638,0,0,1,329.655,147.658Z" transform="translate(-267.051 -132.232)" fill="#f5ac83" fill-rule="evenodd"/>
          <path id="Tracé_554" data-name="Tracé 554" d="M303.389,120.487h0a9.061,9.061,0,0,1,9.035,9.036v8.211a9.062,9.062,0,0,1-9.035,9.036h0a9.063,9.063,0,0,1-9.035-9.036v-8.211A9.062,9.062,0,0,1,303.389,120.487Z" transform="translate(-250.423 -118.401)" fill="#f5ac83" fill-rule="evenodd"/>
          <path id="Tracé_556" data-name="Tracé 556" d="M329.02,135.549v2.78c0,1.091.2,1.414.744,1.811,0,0-.335,1.055.273,1.3a.953.953,0,0,1,.869-.939v-7.172a3.673,3.673,0,0,1-1.953,1.6A2.913,2.913,0,0,1,329.02,135.549Z" transform="translate(-268.036 -124.939)" fill="#4f3a38" fill-rule="evenodd"/>
          <path id="Tracé_557" data-name="Tracé 557" d="M312.07,130.2a7.423,7.423,0,0,0-2.061-1.686h0l-.039-.02c-.083-.048-.167-.093-.252-.138a5.3,5.3,0,0,1-2.132-2.1c-.754.518-3.839.439-5,.389l-.395-.019h-.052c-5.163-.2-10.16,1.046-10.184,2.355-4.473-9.4,6.713-18.46,16.661-8.184C313.876,121.039,313.411,126.437,312.07,130.2Z" transform="translate(-248.686 -116.238)" fill="#4f3a38" fill-rule="evenodd"/>
          <path id="Tracé_558" data-name="Tracé 558" d="M290.962,127.554a8.442,8.442,0,0,1,1.479-4.408,13.254,13.254,0,0,0,14.742-.391q.468.395.935.844C306.012,125.828,300.494,130.143,290.962,127.554Z" transform="translate(-248.697 -119.555)" fill="#6a514f" fill-rule="evenodd"/>
          <path id="Tracé_559" data-name="Tracé 559" d="M322.192,136.433a7.423,7.423,0,0,0-2.061-1.686h0l-.039-.02c-.083-.048-.167-.093-.252-.138a5.3,5.3,0,0,1-2.132-2.1c-.754.518-3.839.439-5,.389l-.395-.019h-.052c-.482-.019-.961-.026-1.436-.02,6.646-.257,9.817-2.616,11.259-4.343C323.634,130.407,323.126,133.817,322.192,136.433Z" transform="translate(-258.808 -122.475)" fill="#2a0d09" fill-rule="evenodd"/>
          <path id="Tracé_562" data-name="Tracé 562" d="M296.19,146.39a.278.278,0,0,1-.273-.485,3.451,3.451,0,0,1,3.132-.143.278.278,0,1,1-.263.491A2.878,2.878,0,0,0,296.19,146.39Z" transform="translate(-251.147 -131.1)" fill="#00000f" fill-rule="evenodd"/>
          <path id="Tracé_563" data-name="Tracé 563" d="M316.442,145.319a.278.278,0,0,0,.224-.509,3.449,3.449,0,0,0-3.131.163.278.278,0,0,0,.309.463A2.879,2.879,0,0,1,316.442,145.319Z" transform="translate(-260.124 -130.624)" fill="#00000f" fill-rule="evenodd"/>
          <path id="Rectangle_363" data-name="Rectangle 363" d="M.776,0h0a.776.776,0,0,1,.776.776V1.789a.776.776,0,0,1-.776.776h0A.776.776,0,0,1,0,1.789V.776A.776.776,0,0,1,.776,0Z" transform="translate(54.382 15.977)" fill="#00000f"/>
          <rect id="Rectangle_364" data-name="Rectangle 364" width="1.553" height="2.565" rx="0.776" transform="translate(45.724 16.444)" fill="#00000f"/>
        </g>
        <g id="Groupe_1248" data-name="Groupe 1248" transform="translate(48.308 21.093)">
          <path id="Tracé_564" data-name="Tracé 564" d="M307.523,159.546a2.13,2.13,0,0,1-4.253.258h0a.369.369,0,0,1,.345-.389l3.512-.214a.369.369,0,0,1,.39.345Z" transform="translate(-303.27 -159.2)" fill="#00000f" fill-rule="evenodd"/>
          <path id="Tracé_565" data-name="Tracé 565" d="M307.984,162.786a2.13,2.13,0,0,1-2.449.3,1.327,1.327,0,0,1,1.169-.858A1.343,1.343,0,0,1,307.984,162.786Z" transform="translate(-304.423 -160.737)" fill="#d84743" fill-rule="evenodd"/>
          <path id="Tracé_566" data-name="Tracé 566" d="M303.885,159.441l3.3-.2a.747.747,0,0,1-.312.836,9.39,9.39,0,0,1-2.865.021A1.265,1.265,0,0,1,303.885,159.441Z" transform="translate(-303.583 -159.221)" fill="#fff" fill-rule="evenodd"/>
        </g>
      </g>
      <g id="Groupe_1250" data-name="Groupe 1250" transform="translate(0 78.326)">
        <path id="Tracé_567" data-name="Tracé 567" d="M150.844,271.446l5.073,63.967h-2.251l-6.816-60.955H108.658l-6.816,60.955H99.591l5.073-63.967Z" transform="translate(-99.591 -267.964)" fill="#3f4154" fill-rule="evenodd"/>
        <path id="Tracé_568" data-name="Tracé 568" d="M337.66,271.446l5.073,63.967h-2.251l-6.816-60.955H295.475l-6.816,60.955h-2.251l5.073-63.967Z" transform="translate(-194.689 -267.964)" fill="#3f4154" fill-rule="evenodd"/>
        <path id="Tracé_569" data-name="Tracé 569" d="M225.987,264.353H104.828a1.948,1.948,0,0,0-1.943,1.942h0a1.948,1.948,0,0,0,1.943,1.942H225.987a1.948,1.948,0,0,0,1.942-1.942h0A1.948,1.948,0,0,0,225.987,264.353Z" transform="translate(-101.268 -264.353)" fill="#f1a272" fill-rule="evenodd"/>
        <path id="Tracé_570" data-name="Tracé 570" d="M340.812,264.353h-51.26a1.948,1.948,0,0,0-1.942,1.942h0a1.948,1.948,0,0,0,1.942,1.942h51.26a1.948,1.948,0,0,0,1.942-1.942h0A1.948,1.948,0,0,0,340.812,264.353Z" transform="translate(-195.301 -264.353)" fill="#c37744" fill-rule="evenodd"/>
      </g>
      <path id="Tracé_571" data-name="Tracé 571" d="M239.186,104.815h17.443a2.31,2.31,0,0,1,2.3,2.3v16.25a.257.257,0,0,1-.439.182l-3.925-3.925H239.186a2.31,2.31,0,0,1-2.3-2.3v-10.2A2.31,2.31,0,0,1,239.186,104.815Z" transform="translate(-169.478 -104.815)" fill="#fe943e" fill-rule="evenodd"/>
      <g id="Groupe_1251" data-name="Groupe 1251" transform="translate(72.166 5.354)">
        <path id="Tracé_572" data-name="Tracé 572" d="M248.006,118.568a1.424,1.424,0,1,0-1.424-1.424A1.427,1.427,0,0,0,248.006,118.568Z" transform="translate(-246.582 -115.721)" fill="#fff" fill-rule="evenodd"/>
        <path id="Tracé_573" data-name="Tracé 573" d="M257.862,118.568a1.424,1.424,0,1,0-1.423-1.424A1.426,1.426,0,0,0,257.862,118.568Z" transform="translate(-251.6 -115.721)" fill="#fff" fill-rule="evenodd"/>
        <path id="Tracé_574" data-name="Tracé 574" d="M267.719,118.568a1.424,1.424,0,1,0-1.423-1.424A1.426,1.426,0,0,0,267.719,118.568Z" transform="translate(-256.617 -115.721)" fill="#fff" fill-rule="evenodd"/>
      </g>
      <g id="Groupe_1257" data-name="Groupe 1257" transform="translate(5.993 44.96)">
        <g id="Groupe_1255" data-name="Groupe 1255">
          <g id="Groupe_1252" data-name="Groupe 1252" transform="translate(10.091 11.257)">
            <path id="Tracé_575" data-name="Tracé 575" d="M138.979,219.606c2.969-1.283,3.44,2.035,2.121,4.653-.893,1.771-4.109,6.306-6.275,10.163h-2.472C133.2,228.586,135.91,220.932,138.979,219.606Z" transform="translate(-132.353 -219.321)" fill="#fe943e" fill-rule="evenodd"/>
            <path id="Tracé_576" data-name="Tracé 576" d="M134.151,235.756A52.829,52.829,0,0,1,141.133,222a.131.131,0,0,1,.182-.03.129.129,0,0,1,.03.18,52.687,52.687,0,0,0-6.926,13.61Z" transform="translate(-133.268 -220.655)" fill="#610419" fill-rule="evenodd"/>
          </g>
          <g id="Groupe_1253" data-name="Groupe 1253" transform="translate(5.767)">
            <path id="Tracé_577" data-name="Tracé 577" d="M128.222,197.45c-2.994-2.935-5.039.786-4.622,4.524.4,3.545,3.852,15.709,3.439,20.824h1.179C130.9,216.243,132.054,201.207,128.222,197.45Z" transform="translate(-123.546 -196.393)" fill="#fe943e" fill-rule="evenodd"/>
            <path id="Tracé_578" data-name="Tracé 578" d="M130.262,224.456c2.489-10.337-1.508-24.634-1.521-24.683a.174.174,0,0,0-.206-.122.16.16,0,0,0-.116.2c.013.049,4.015,14.362,1.5,24.6Z" transform="translate(-126.023 -198.049)" fill="#d84743" fill-rule="evenodd"/>
          </g>
          <g id="Groupe_1254" data-name="Groupe 1254" transform="translate(0 7.191)">
            <path id="Tracé_579" data-name="Tracé 579" d="M114.872,211.4c-3.139-1.5-3.741,2.028-2.407,4.882,1.105,2.366,5.818,9.313,7.691,13.816l1.556-.053C121.539,223.735,118.577,213.165,114.872,211.4Z" transform="translate(-111.799 -211.039)" fill="#c8dee1" fill-rule="evenodd"/>
            <path id="Tracé_580" data-name="Tracé 580" d="M122.659,231.481c-1.426-8.489-7.606-17.556-7.628-17.589a.141.141,0,0,0-.194-.04.136.136,0,0,0-.037.191c.022.033,6.162,9.041,7.583,17.448Z" transform="translate(-113.314 -212.46)" fill="#7a9297" fill-rule="evenodd"/>
          </g>
        </g>
        <g id="Groupe_1256" data-name="Groupe 1256" transform="translate(5.485 25.098)">
          <path id="Rectangle_365" data-name="Rectangle 365" d="M1.022,0H9.215a1.023,1.023,0,0,1,1.023,1.023V2.261A1.023,1.023,0,0,1,9.215,3.284H1.023A1.023,1.023,0,0,1,0,2.261V1.022A1.022,1.022,0,0,1,1.022,0Z" fill="#2c3049"/>
          <path id="Tracé_581" data-name="Tracé 581" d="M131.642,251.29h-6.066l-1.584,1.429,1.294,4.984h6.646l1.294-4.984Z" transform="translate(-123.491 -249.436)" fill="#2c3049" fill-rule="evenodd"/>
          <path id="Tracé_582" data-name="Tracé 582" d="M123.993,254.2l.266,1.025h8.7l.266-1.025Z" transform="translate(-123.491 -250.918)" fill="#141a33" fill-rule="evenodd"/>
        </g>
      </g>
      <g id="Groupe_1258" data-name="Groupe 1258" transform="translate(18.534 74.616)">
        <path id="Tracé_583" data-name="Tracé 583" d="M179.527,256.8H167.119a1.855,1.855,0,0,0,0,3.71h12.408a1.855,1.855,0,0,0,0-3.71Z" transform="translate(-151.557 -256.797)" fill="#3b3a3a" fill-rule="evenodd"/>
        <path id="Tracé_584" data-name="Tracé 584" d="M137.783,257.237h15.868a1.643,1.643,0,0,1,1.638,1.638h0a1.643,1.643,0,0,1-1.638,1.639H137.783Z" transform="translate(-137.567 -257.021)" fill="#fff" fill-rule="evenodd"/>
        <path id="Tracé_585" data-name="Tracé 585" d="M137.559,256.8a.216.216,0,1,0,0,.432h15.868a1.423,1.423,0,0,1,0,2.846H137.559a.216.216,0,1,0,0,.432h15.868a1.855,1.855,0,0,0,0-3.71Z" transform="translate(-137.343 -256.797)" fill="#242525" fill-rule="evenodd"/>
        <path id="Tracé_586" data-name="Tracé 586" d="M191.228,258.651a1.86,1.86,0,0,0-1.855-1.854h1.613a1.855,1.855,0,0,1,0,3.71h-1.613a1.861,1.861,0,0,0,1.855-1.855Z" transform="translate(-163.829 -256.797)" fill="#242525" fill-rule="evenodd"/>
        <path id="Tracé_587" data-name="Tracé 587" d="M186.468,258.651a1.86,1.86,0,0,0-1.855-1.854h1.613a1.855,1.855,0,0,1,0,3.71h-1.613a1.861,1.861,0,0,0,1.855-1.855Z" transform="translate(-161.406 -256.797)" fill="#242525" fill-rule="evenodd"/>
      </g>
      <g id="Groupe_1259" data-name="Groupe 1259" transform="translate(20.389 71.369)">
        <path id="Tracé_588" data-name="Tracé 588" d="M142.744,250.182h10.865a1.624,1.624,0,0,1,0,3.248H142.744a1.624,1.624,0,0,1,0-3.248Z" transform="translate(-141.12 -250.182)" fill="#c8dee1" fill-rule="evenodd"/>
        <path id="Tracé_589" data-name="Tracé 589" d="M178.037,250.567H164.142A1.439,1.439,0,0,0,162.707,252h0a1.439,1.439,0,0,0,1.435,1.435h13.894Z" transform="translate(-152.109 -250.378)" fill="#fff" fill-rule="evenodd"/>
        <path id="Tracé_590" data-name="Tracé 590" d="M177.841,250.182a.189.189,0,1,1,0,.378H163.946a1.246,1.246,0,0,0,0,2.491h13.894a.189.189,0,0,1,0,.379H163.946a1.624,1.624,0,0,1,0-3.248Z" transform="translate(-151.913 -250.182)" fill="#7a9297" fill-rule="evenodd"/>
        <path id="Tracé_591" data-name="Tracé 591" d="M143.982,251.806a1.628,1.628,0,0,1,1.624-1.624h-1.412a1.624,1.624,0,0,0,0,3.248h1.412a1.628,1.628,0,0,1-1.624-1.624Z" transform="translate(-141.858 -250.182)" fill="#7a9297" fill-rule="evenodd"/>
        <path id="Tracé_592" data-name="Tracé 592" d="M148.151,251.806a1.627,1.627,0,0,1,1.624-1.624h-1.412a1.624,1.624,0,0,0,0,3.248h1.412a1.628,1.628,0,0,1-1.624-1.624Z" transform="translate(-143.98 -250.182)" fill="#7a9297" fill-rule="evenodd"/>
      </g>
      <g id="Groupe_1260" data-name="Groupe 1260" transform="translate(43.271 52.442)">
        <path id="Tracé_593" data-name="Tracé 593" d="M197.187,261.788h38.94a1.241,1.241,0,0,0,1.237-1.237h0a1.24,1.24,0,0,0-1.237-1.236h-38.94a1.24,1.24,0,0,0-1.237,1.236h0A1.241,1.241,0,0,0,197.187,261.788Z" transform="translate(-191.913 -235.905)" fill="#141a33" fill-rule="evenodd"/>
        <path id="Tracé_594" data-name="Tracé 594" d="M197.382,263.144h38.94a.686.686,0,1,0,0-1.166h-38.94a.686.686,0,1,0,0,1.166Z" transform="translate(-192.108 -237.26)" fill="#030822" fill-rule="evenodd"/>
        <path id="Tracé_595" data-name="Tracé 595" d="M192.04,235.042h31.146a1.4,1.4,0,0,0,1.419-1.618l-2.483-20.174a1.889,1.889,0,0,0-1.818-1.618H189.159a1.405,1.405,0,0,0-1.419,1.618l2.483,20.174A1.889,1.889,0,0,0,192.04,235.042Z" transform="translate(-187.727 -211.632)" fill="#030822" fill-rule="evenodd"/>
        <path id="Tracé_596" data-name="Tracé 596" d="M192.04,235.042h30.227a1.4,1.4,0,0,0,1.419-1.618L221.2,213.25a1.889,1.889,0,0,0-1.817-1.618H189.159a1.405,1.405,0,0,0-1.419,1.618l2.483,20.174A1.889,1.889,0,0,0,192.04,235.042Z" transform="translate(-187.727 -211.632)" fill="#2c3049" fill-rule="evenodd"/>
        <path id="Tracé_597" data-name="Tracé 597" d="M195.874,235.042h3.11l24.551-20.609-.146-1.183a1.81,1.81,0,0,0-.426-.948l-27.09,22.74Zm23.557-23.41-26.782,22.481a1.751,1.751,0,0,1-.24-.689l-.386-3.137,22.224-18.655Z" transform="translate(-189.914 -211.632)" fill="#3a3f57" fill-rule="evenodd"/>
        <path id="Tracé_598" data-name="Tracé 598" d="M262.088,261.788h7.077a1.241,1.241,0,0,0,1.237-1.237h0a1.24,1.24,0,0,0-1.237-1.236h-7.077a1.24,1.24,0,0,0-1.237,1.236h0A1.24,1.24,0,0,0,262.088,261.788Z" transform="translate(-224.951 -235.905)" fill="#2c3049" fill-rule="evenodd"/>
        <rect id="Rectangle_366" data-name="Rectangle 366" width="33.64" height="1.236" rx="0.618" transform="translate(4.037 22.791)" fill="#00000f"/>
        <path id="Tracé_599" data-name="Tracé 599" d="M220.151,229.14a3.527,3.527,0,0,1,3.428,3.109,2.756,2.756,0,0,1-2.791,3.11,3.527,3.527,0,0,1-3.428-3.11A2.755,2.755,0,0,1,220.151,229.14Z" transform="translate(-202.804 -220.544)" fill="#242942" fill-rule="evenodd"/>
      </g>
      <g id="Groupe_1261" data-name="Groupe 1261" transform="translate(110.159 74.616)">
        <path id="Tracé_600" data-name="Tracé 600" d="M366.151,256.8H353.744a1.855,1.855,0,0,0,0,3.71h12.407a1.855,1.855,0,0,0,0-3.71Z" transform="translate(-338.181 -256.797)" fill="#3b3a3a" fill-rule="evenodd"/>
        <path id="Tracé_601" data-name="Tracé 601" d="M324.408,257.237h15.867a1.643,1.643,0,0,1,1.638,1.638h0a1.643,1.643,0,0,1-1.638,1.639H324.408Z" transform="translate(-324.192 -257.021)" fill="#fff" fill-rule="evenodd"/>
        <path id="Tracé_602" data-name="Tracé 602" d="M324.184,256.8a.216.216,0,0,0,0,.432h15.867a1.423,1.423,0,0,1,0,2.846H324.184a.216.216,0,0,0,0,.432h15.867a1.855,1.855,0,0,0,0-3.71Z" transform="translate(-323.968 -256.797)" fill="#242525" fill-rule="evenodd"/>
        <path id="Tracé_603" data-name="Tracé 603" d="M377.852,258.651A1.859,1.859,0,0,0,376,256.8h1.613a1.855,1.855,0,0,1,0,3.71H376a1.86,1.86,0,0,0,1.854-1.855Z" transform="translate(-350.454 -256.797)" fill="#242525" fill-rule="evenodd"/>
        <path id="Tracé_604" data-name="Tracé 604" d="M373.092,258.651a1.86,1.86,0,0,0-1.855-1.854h1.613a1.855,1.855,0,0,1,0,3.71h-1.613a1.861,1.861,0,0,0,1.855-1.855Z" transform="translate(-348.03 -256.797)" fill="#242525" fill-rule="evenodd"/>
      </g>
      <g id="Groupe_1262" data-name="Groupe 1262" transform="translate(112.013 71.369)">
        <path id="Tracé_605" data-name="Tracé 605" d="M329.369,250.182h10.865a1.624,1.624,0,0,1,0,3.248H329.369a1.624,1.624,0,0,1,0-3.248Z" transform="translate(-327.745 -250.182)" fill="#c8dee1" fill-rule="evenodd"/>
        <path id="Tracé_606" data-name="Tracé 606" d="M364.661,250.567H350.767A1.439,1.439,0,0,0,349.332,252h0a1.439,1.439,0,0,0,1.435,1.435h13.894Z" transform="translate(-338.734 -250.378)" fill="#fff" fill-rule="evenodd"/>
        <path id="Tracé_607" data-name="Tracé 607" d="M364.464,250.182a.189.189,0,0,1,0,.378H350.57a1.246,1.246,0,0,0,0,2.491h13.895a.189.189,0,0,1,0,.379H350.57a1.624,1.624,0,0,1,0-3.248Z" transform="translate(-338.537 -250.182)" fill="#7a9297" fill-rule="evenodd"/>
        <path id="Tracé_608" data-name="Tracé 608" d="M330.606,251.806a1.628,1.628,0,0,1,1.625-1.624h-1.413a1.624,1.624,0,0,0,0,3.248h1.413a1.628,1.628,0,0,1-1.625-1.624Z" transform="translate(-328.483 -250.182)" fill="#7a9297" fill-rule="evenodd"/>
        <path id="Tracé_609" data-name="Tracé 609" d="M334.775,251.806a1.628,1.628,0,0,1,1.624-1.624h-1.413a1.624,1.624,0,0,0,0,3.248H336.4a1.629,1.629,0,0,1-1.624-1.624Z" transform="translate(-330.605 -250.182)" fill="#7a9297" fill-rule="evenodd"/>
      </g>
      <g id="Groupe_1263" data-name="Groupe 1263" transform="translate(116.206 68.12)">
        <path id="Tracé_610" data-name="Tracé 610" d="M361.9,243.566h-8.08a1.624,1.624,0,0,0,0,3.248h8.08a1.624,1.624,0,0,0,0-3.248Z" transform="translate(-344.383 -243.566)" fill="#e9695b" fill-rule="evenodd"/>
        <path id="Tracé_611" data-name="Tracé 611" d="M336.671,243.951h9.7a1.439,1.439,0,0,1,1.435,1.435h0a1.439,1.439,0,0,1-1.435,1.435h-9.7Z" transform="translate(-336.482 -243.762)" fill="#fff" fill-rule="evenodd"/>
        <path id="Tracé_612" data-name="Tracé 612" d="M336.475,243.566a.189.189,0,0,0,0,.378h9.7a1.246,1.246,0,0,1,0,2.492h-9.7a.189.189,0,0,0,0,.379h9.7a1.624,1.624,0,0,0,0-3.248Z" transform="translate(-336.286 -243.566)" fill="#f08a71" fill-rule="evenodd"/>
        <path id="Tracé_613" data-name="Tracé 613" d="M369.257,245.19a1.627,1.627,0,0,0-1.624-1.624h1.412a1.624,1.624,0,0,1,0,3.248h-1.412a1.628,1.628,0,0,0,1.624-1.624Z" transform="translate(-352.243 -243.566)" fill="#f08a71" fill-rule="evenodd"/>
        <path id="Tracé_614" data-name="Tracé 614" d="M365.089,245.19a1.628,1.628,0,0,0-1.624-1.624h1.413a1.624,1.624,0,0,1,0,3.248h-1.413a1.628,1.628,0,0,0,1.624-1.624Z" transform="translate(-350.121 -243.566)" fill="#f08a71" fill-rule="evenodd"/>
      </g>
    </g>
    <g id="Groupe_1265" data-name="Groupe 1265" transform="translate(173.956 236.342)">
      <path id="Rectangle_367" data-name="Rectangle 367" d="M1.58,0h2.2A1.581,1.581,0,0,1,5.361,1.581v4.2a1.58,1.58,0,0,1-1.58,1.58H1.58A1.58,1.58,0,0,1,0,5.779V1.58A1.58,1.58,0,0,1,1.58,0Z" transform="translate(2.347)" fill="#fe943e"/>
      <path id="Tracé_615" data-name="Tracé 615" d="M260.227,382.811v-3.425c0-.537-.436-.924-.436-1.67v-2.322c0-.262-.4-.61-.584-.7a3.71,3.71,0,0,0-2.117.646s-.47.2-.47,1.293v2.9c0,.617-.529.766-.941.766h-.493c-.317,0-.787-.08-.787-.925v-3.223a2.418,2.418,0,0,0-.846-1.452c-.235-.159-.835.254-.976.408a.942.942,0,0,0-.23.716v3.918c0,.437-.988,1.1-.988,2.178v1.164a1.05,1.05,0,0,0,.171.571,1.654,1.654,0,0,1,.146.313h8.1A1.443,1.443,0,0,0,260.227,382.811Z" transform="translate(-251.212 -373.709)" fill="#fe943e" fill-rule="evenodd"/>
      <path id="Tracé_616" data-name="Tracé 616" d="M260.227,382.817v-3.425c0-.537-.436-.925-.436-1.67V375.4c0-.262-.4-.61-.584-.7a2.631,2.631,0,0,0-1.227.21h0a4.568,4.568,0,0,1,.676.644c.068.152,0,1.524,0,2.265s.5,1.235.5,1.438v1.176a1.492,1.492,0,0,1-1.614,1.525c-1.271-.087-1.082-.886-2.73-.886h-2.524a.675.675,0,0,1-.586-.236,2.091,2.091,0,0,0-.34,1.091v1.164a1.05,1.05,0,0,0,.171.572,1.654,1.654,0,0,1,.146.313h8.1A1.443,1.443,0,0,0,260.227,382.817Z" transform="translate(-251.212 -373.715)" fill="#fe943e" fill-rule="evenodd"/>
      <path id="Tracé_617" data-name="Tracé 617" d="M260.074,391.254s.494.269.582.328a8.534,8.534,0,0,1,.061,1.454,1.816,1.816,0,0,1-.529.813.819.819,0,0,1-.462.146h-8.26a.4.4,0,0,1-.406-.394v-1.1c0-.194.318-.4.318-.4a1.55,1.55,0,0,0,1.437-.082,2.179,2.179,0,0,1,2.116-.507C255.795,391.8,258.633,393.08,260.074,391.254Z" transform="translate(-251.06 -382.152)" fill="#fff" fill-rule="evenodd"/>
      <path id="Tracé_618" data-name="Tracé 618" d="M262.352,391.254s.494.269.582.328a8.537,8.537,0,0,1,.061,1.454,1.816,1.816,0,0,1-.529.813A.819.819,0,0,1,262,394h-5.41c-.557-.176-1.06-.33-1.06-.33h5.134c.67,0,1.031-.233,1.031-.465v-.988a.4.4,0,0,0-.178-.281A2.414,2.414,0,0,0,262.352,391.254Z" transform="translate(-253.337 -382.152)" fill="#f2dddc" fill-rule="evenodd"/>
      <path id="Tracé_619" data-name="Tracé 619" d="M255.872,394.8a8.418,8.418,0,0,0,1.971.772h-6.377a.4.4,0,0,1-.406-.394V395a1.452,1.452,0,0,0,1.437-.082A3.012,3.012,0,0,1,255.872,394.8Z" transform="translate(-251.06 -383.729)" fill="#00000f" fill-rule="evenodd"/>
      <path id="Tracé_620" data-name="Tracé 620" d="M256.292,376.906a.159.159,0,0,1-.117-.21.206.206,0,0,1,.249-.1l3.237.992a.158.158,0,0,1,.116.211.2.2,0,0,1-.248.1Z" transform="translate(-253.658 -374.686)" fill="#fff" fill-rule="evenodd"/>
      <path id="Tracé_621" data-name="Tracé 621" d="M256.292,380.157a.159.159,0,0,1-.117-.21.206.206,0,0,1,.249-.1l3.237.992a.159.159,0,0,1,.116.211.205.205,0,0,1-.248.1Z" transform="translate(-253.658 -376.341)" fill="#fff" fill-rule="evenodd"/>
      <path id="Tracé_622" data-name="Tracé 622" d="M256.292,383.408a.159.159,0,0,1-.117-.21.206.206,0,0,1,.249-.1l3.237.992a.159.159,0,0,1,.116.211.205.205,0,0,1-.248.1Z" transform="translate(-253.658 -377.996)" fill="#fff" fill-rule="evenodd"/>
      <path id="Tracé_623" data-name="Tracé 623" d="M259.529,376.6a.2.2,0,0,1,.248.1.158.158,0,0,1-.116.21l-3.237.992a.206.206,0,0,1-.249-.1.159.159,0,0,1,.117-.211Z" transform="translate(-253.658 -374.686)" fill="#fff" fill-rule="evenodd"/>
      <path id="Tracé_624" data-name="Tracé 624" d="M259.529,379.848a.2.2,0,0,1,.248.1.158.158,0,0,1-.116.21l-3.237.993a.207.207,0,0,1-.249-.1.159.159,0,0,1,.117-.211Z" transform="translate(-253.658 -376.341)" fill="#fff" fill-rule="evenodd"/>
      <path id="Tracé_625" data-name="Tracé 625" d="M259.529,383.1a.2.2,0,0,1,.248.1.158.158,0,0,1-.116.21l-3.237.993a.207.207,0,0,1-.249-.1.16.16,0,0,1,.117-.211Z" transform="translate(-253.658 -377.996)" fill="#fff" fill-rule="evenodd"/>
    </g>
  </g>
</svg>
