<svg width="53" height="36" viewBox="0 0 53 36" fill="none" xmlns="http://www.w3.org/2000/svg">
<g filter="url(#filter0_d_1002_345)">
<path d="M47.4187 27.4963H4.76183C4.55871 27.4947 4.36455 27.4194 4.2218 27.287C4.07905 27.1545 3.99931 26.9757 4.00003 26.7895V1.2105C3.99915 1.118 4.01815 1.02624 4.05596 0.940476C4.09377 0.854709 4.14963 0.776604 4.22037 0.710628C4.29112 0.644652 4.37534 0.592098 4.46825 0.555957C4.56115 0.519817 4.66091 0.500802 4.76183 0.5H47.42C47.521 0.500802 47.6207 0.519817 47.7136 0.555957C47.8065 0.592098 47.8908 0.644652 47.9615 0.710628C48.0322 0.776604 48.0881 0.854709 48.1259 0.940476C48.1637 1.02624 48.1827 1.118 48.1818 1.2105V26.7895C48.1826 26.9759 48.1026 27.1549 47.9596 27.2874C47.8166 27.4199 47.6221 27.495 47.4187 27.4963Z" fill="#41479B"/>
<path d="M48.1818 1.2105C48.1827 1.118 48.1637 1.02624 48.1259 0.940476C48.0881 0.854709 48.0322 0.776604 47.9615 0.710628C47.8908 0.644652 47.8065 0.592098 47.7136 0.555957C47.6207 0.519817 47.521 0.500802 47.42 0.5H44.0113L29.8986 9.11919V0.5H22.2806V9.11919L8.16919 0.5H4.76183C4.66091 0.500802 4.56115 0.519817 4.46825 0.555957C4.37534 0.592098 4.29112 0.644652 4.22037 0.710628C4.14963 0.776604 4.09377 0.854709 4.05596 0.940476C4.01815 1.02624 3.99915 1.118 4.00003 1.2105V3.05115L16.1072 10.4494H4.00003V17.5531H16.1072L4.00003 24.9488V26.7895C3.99915 26.882 4.01815 26.9738 4.05596 27.0595C4.09377 27.1453 4.14963 27.2234 4.22037 27.2894C4.29112 27.3553 4.37534 27.4079 4.46825 27.444C4.56115 27.4802 4.66091 27.4992 4.76183 27.5H8.17053L22.2819 18.8771V27.5H29.8999V18.8771L44.0113 27.5H47.42C47.521 27.4992 47.6207 27.4802 47.7136 27.444C47.8065 27.4079 47.8908 27.3553 47.9615 27.2894C48.0322 27.2234 48.0881 27.1453 48.1259 27.0595C48.1637 26.9738 48.1827 26.882 48.1818 26.7895V24.9488L36.0747 17.5506H48.1818V10.4457H36.0733L48.1818 3.04747V1.2105Z" fill="#F5F5F5"/>
<path d="M48.1818 11.8667H28.3763V0.5H23.8055V11.8667H4V16.1296H23.8055V27.4963H28.3763V16.1296H48.1818V11.8667Z" fill="#FF4B55"/>
<path d="M19.4429 17.7224L4.02344 26.8963C4.04781 27.0601 4.13558 27.2104 4.27073 27.3198C4.40589 27.4293 4.57945 27.4906 4.7598 27.4926H5.80945L22.2384 17.7188H19.4402L19.4429 17.7224Z" fill="#FF4B55"/>
<path d="M33.8841 17.7266H31.0859L47.4908 27.487C47.677 27.4711 47.8502 27.3924 47.9766 27.2661C48.1031 27.1398 48.1737 26.9749 48.1749 26.8035V26.2292L33.8841 17.7266Z" fill="#FF4B55"/>
<path d="M4 1.97166L17.9601 10.2767H20.7583L4.44316 0.570312C4.31147 0.625563 4.19977 0.714187 4.12125 0.825729C4.04272 0.93727 4.00065 1.06707 4 1.19982V1.97166Z" fill="#FF4B55"/>
<path d="M32.6966 10.2739L48.1536 1.07797C48.1251 0.917633 48.0357 0.771674 47.9012 0.665905C47.7667 0.560137 47.5958 0.501372 47.4185 0.5H46.3274L29.8984 10.2739H32.6966Z" fill="#FF4B55"/>
</g>
<defs>
<filter id="filter0_d_1002_345" x="0" y="0.5" width="52.1797" height="35" filterUnits="userSpaceOnUse" color-interpolation-filters="sRGB">
<feFlood flood-opacity="0" result="BackgroundImageFix"/>
<feColorMatrix in="SourceAlpha" type="matrix" values="0 0 0 0 0 0 0 0 0 0 0 0 0 0 0 0 0 0 127 0" result="hardAlpha"/>
<feOffset dy="4"/>
<feGaussianBlur stdDeviation="2"/>
<feComposite in2="hardAlpha" operator="out"/>
<feColorMatrix type="matrix" values="0 0 0 0 0 0 0 0 0 0 0 0 0 0 0 0 0 0 0.25 0"/>
<feBlend mode="normal" in2="BackgroundImageFix" result="effect1_dropShadow_1002_345"/>
<feBlend mode="normal" in="SourceGraphic" in2="effect1_dropShadow_1002_345" result="shape"/>
</filter>
</defs>
</svg>
