<svg width="45" height="28" viewBox="0 0 45 28" fill="none" xmlns="http://www.w3.org/2000/svg">
<path d="M44.1818 11.8667H24.3763V0.5H19.8055V11.8667H0V16.1296H19.8055V27.4963H24.3763V16.1296H44.1818V11.8667Z" fill="#FF4B55"/>
<path d="M15.4429 17.7224L0.0234375 26.8963C0.0478149 27.0601 0.135575 27.2104 0.270733 27.3198C0.40589 27.4293 0.579451 27.4906 0.759801 27.4926H1.80945L18.2384 17.7188H15.4402L15.4429 17.7224Z" fill="#FF4B55"/>
<path d="M29.8841 17.7266H27.0859L43.4908 27.487C43.677 27.4711 43.8502 27.3924 43.9766 27.2661C44.1031 27.1398 44.1737 26.9749 44.1749 26.8035V26.2292L29.8841 17.7266Z" fill="#FF4B55"/>
<path d="M0 1.97166L13.9601 10.2767H16.7583L0.443157 0.570312C0.311466 0.625563 0.199768 0.714187 0.121245 0.825729C0.0427224 0.93727 0.000652331 1.06707 0 1.19982L0 1.97166Z" fill="#FF4B55"/>
<path d="M28.6966 10.2739L44.1536 1.07797C44.1251 0.917633 44.0357 0.771674 43.9012 0.665905C43.7667 0.560137 43.5958 0.501372 43.4185 0.5H42.3274L25.8984 10.2739H28.6966Z" fill="#FF4B55"/>
</svg>
