<svg width="121" height="103" viewBox="0 0 121 103" fill="none" xmlns="http://www.w3.org/2000/svg">
<path d="M27.361 17.944C24.372 15.0438 16.5084 7.57539 16.3223 6.95953C16.1257 6.30924 16.7135 2.65544 16.6916 1.50261C16.6256 -1.97517 13.8838 4.14836 13.8838 4.14836C13.8239 4.25124 13.7418 4.33933 13.6434 4.40617C13.5451 4.47301 13.433 4.51688 13.3154 4.53456C13.1979 4.55223 13.0779 4.54326 12.9643 4.5083C12.8507 4.47333 12.7464 4.41327 12.659 4.33254C11.0499 2.86382 9.38499 1.45971 7.6644 0.120201C7.56883 0.0469277 7.45297 0.00509147 7.33272 0.000435682C7.21248 -0.0042201 7.09374 0.0285322 6.99281 0.0941971C6.89189 0.159862 6.81372 0.25522 6.76904 0.367177C6.72437 0.479135 6.71538 0.602203 6.7433 0.719486C6.89335 1.22913 7.12632 1.71046 7.43283 2.14407L9.486 5.26162C9.486 5.26162 5.62998 2.3945 3.5401 1.2147C3.34857 1.08072 3.12085 1.0084 2.88726 1.00736C2.68665 1.05517 2.51219 1.17868 2.40021 1.35217C2.28823 1.52567 2.24737 1.73575 2.28615 1.93868C2.38023 2.343 2.58047 2.71478 2.86612 3.01553C4.28566 4.7991 5.70519 6.58265 7.12472 8.36615C5.56071 7.51087 3.99665 6.6556 2.43254 5.80036C2.07581 5.56008 1.6586 5.42564 1.22896 5.41251C0.802428 5.44131 0.371047 5.82073 0.454739 6.24081C0.533013 6.48258 0.689212 6.69146 0.898809 6.83463L6.19987 11.3639C4.70915 11.0081 3.21842 10.6522 1.72769 10.2965C1.0802 10.1419 0.163491 10.14 0.0112241 10.7892C-0.331947 12.2527 7.28688 14.1188 10.1325 16.2213C11.4565 17.1996 22.1805 27.8036 26.2314 31.0754" fill="#FDD39D"/>
<path d="M27.3624 17.9408L26.2328 31.0722C24.4418 29.6257 21.3466 26.746 18.3359 23.8985C18.7794 22.7719 19.2145 21.597 19.6171 20.3906C20.3766 18.0231 21.6009 15.8318 23.218 13.9453C24.8308 15.5024 26.367 16.9751 27.3624 17.9408Z" fill="#E9B77A"/>
<path d="M92.6484 17.944C95.6375 15.0438 103.501 7.57536 103.687 6.95953C103.884 6.30924 103.296 2.65544 103.318 1.50261C103.384 -1.97517 106.126 4.14836 106.126 4.14836C106.186 4.25124 106.268 4.33933 106.366 4.40617C106.464 4.47301 106.577 4.51688 106.694 4.53456C106.812 4.55223 106.932 4.54326 107.045 4.5083C107.159 4.47333 107.263 4.41327 107.35 4.33254C108.96 2.86382 110.624 1.45971 112.345 0.120201C112.441 0.0469277 112.557 0.00509147 112.677 0.000435682C112.797 -0.0042201 112.916 0.0285322 113.017 0.0941971C113.118 0.159862 113.196 0.25522 113.24 0.367177C113.285 0.479135 113.294 0.602203 113.266 0.719486C113.116 1.22913 112.883 1.71046 112.577 2.14407L110.523 5.26162C110.523 5.26162 114.379 2.3945 116.469 1.2147C116.661 1.08072 116.889 1.0084 117.122 1.00736C117.323 1.05517 117.497 1.17868 117.609 1.35217C117.721 1.52567 117.762 1.73575 117.723 1.93868C117.629 2.343 117.429 2.71478 117.143 3.01553C115.724 4.7991 114.304 6.58265 112.885 8.36615C114.449 7.51087 116.013 6.6556 117.577 5.80036C117.934 5.56008 118.351 5.42564 118.781 5.41251C119.207 5.44131 119.638 5.82073 119.555 6.24081C119.476 6.48258 119.32 6.69146 119.111 6.83463L113.81 11.3639C115.3 11.0081 116.791 10.6522 118.282 10.2965C118.929 10.1419 119.846 10.14 119.998 10.7892C120.341 12.2527 112.723 14.1188 109.877 16.2213C108.553 17.1996 97.829 27.8036 93.778 31.0754" fill="#FDD39D"/>
<path d="M92.6484 17.9408L93.778 31.0722C95.569 29.6257 98.6642 26.746 101.675 23.8985C101.231 22.7719 100.796 21.597 100.394 20.3906C99.6342 18.0231 98.4099 15.8318 96.7928 13.9453C95.18 15.5024 93.6438 16.9751 92.6484 17.9408Z" fill="#E9B77A"/>
<path d="M62.7181 87.9766H73.2226L73.2308 88.0171C73.4586 89.1834 73.9361 90.2862 74.6306 91.2497C75.325 92.2131 76.2197 93.0141 77.253 93.5975C81.3455 95.8836 88.3277 99.3233 93.8552 99.6884H61.0859V89.6119C61.0859 89.3972 61.1282 89.1845 61.2102 88.9861C61.2922 88.7877 61.4124 88.6074 61.564 88.4556C61.7156 88.3037 61.8955 88.1832 62.0935 88.1011C62.2915 88.0189 62.5038 87.9766 62.7181 87.9766Z" fill="#F49D1A"/>
<path d="M79.0929 87.9766L85.6964 91.5609H91.4507C92.5159 91.5609 93.5707 91.7711 94.5548 92.1795C95.5389 92.588 96.4332 93.1866 97.1864 93.9413C97.9396 94.696 98.5371 95.592 98.9447 96.5781C99.3524 97.5642 99.5622 98.621 99.5622 99.6883H61.0859V89.6119C61.0859 89.3972 61.1282 89.1845 61.2102 88.9861C61.2922 88.7877 61.4124 88.6074 61.564 88.4556C61.7156 88.3037 61.8955 88.1832 62.0935 88.101C62.2915 88.0189 62.5038 87.9766 62.7181 87.9766H79.0929Z" fill="#F9BC40"/>
<path d="M78.1028 53.9219H63.6719V84.3847H78.1028V53.9219Z" fill="#FDD39D"/>
<path d="M63.7022 82.7109H78.0567C78.3279 82.7109 78.588 82.8189 78.7797 83.011C78.9715 83.2031 79.0792 83.4637 79.0792 83.7355V87.9822H62.6797V83.7355C62.6797 83.4637 62.7874 83.2031 62.9792 83.011C63.1709 82.8189 63.431 82.7109 63.7022 82.7109Z" fill="#F8830D"/>
<path d="M97.9503 102.164H62.3393C61.9345 102.164 61.5463 102.003 61.2601 101.716C60.9738 101.429 60.813 101.04 60.813 100.635V99.6792H99.4766V100.635C99.4766 101.04 99.3158 101.429 99.0295 101.716C98.7433 102.003 98.3551 102.164 97.9503 102.164Z" fill="#E2780D"/>
<path d="M85.6875 91.5625H91.4417C92.5069 91.5625 93.5617 91.7727 94.5459 92.1811C95.53 92.5896 96.4242 93.1882 97.1775 93.9429C97.9307 94.6977 98.5282 95.5936 98.9358 96.5797C99.3435 97.5658 99.5533 98.6227 99.5533 99.69H85.6875V91.5625Z" fill="#E42E21"/>
<path d="M85.6875 91.5625H91.4417C92.5069 91.5625 93.5617 91.7727 94.5459 92.1811C95.53 92.5896 96.4242 93.1882 97.1775 93.9429C97.9307 94.6977 98.5282 95.5936 98.9358 96.5797C99.3435 97.5658 99.5533 98.6227 99.5533 99.69H85.6875V91.5625Z" fill="#F8830D"/>
<path d="M71.5313 102.164H62.3544C61.9496 102.164 61.5614 102.003 61.2752 101.717C60.9889 101.43 60.8281 101.041 60.8281 100.635V99.6797H72.9464C72.5436 100.545 72.0703 101.377 71.5313 102.164Z" fill="#4481D1"/>
<path d="M95.6552 102.164H62.3544C61.9496 102.164 61.5614 102.003 61.2752 101.717C60.9889 101.43 60.8281 101.041 60.8281 100.635V99.6797H93.8559C94.4802 99.7252 95.107 99.7252 95.7313 99.6797C95.8756 100.504 95.8497 101.35 95.6552 102.164Z" fill="#4481D1"/>
<path d="M93.8463 99.6745H85.6875V97.6172C88.2925 98.6977 91.0411 99.3908 93.8463 99.6745Z" fill="#C71B21"/>
<path d="M97.7398 97.7061C97.6394 97.7062 97.5407 97.6799 97.4537 97.6298C97.3666 97.5797 97.2943 97.5075 97.2439 97.4205C97.2226 97.3843 95.092 93.7698 92.0335 93.5518C91.9584 93.5467 91.885 93.5267 91.8175 93.4932C91.7501 93.4596 91.69 93.413 91.6405 93.356C91.5911 93.2991 91.5534 93.233 91.5295 93.1614C91.5056 93.0898 91.4961 93.0143 91.5014 92.939C91.5068 92.8637 91.5269 92.7902 91.5606 92.7228C91.5944 92.6553 91.6411 92.5952 91.6981 92.5459C91.755 92.4965 91.8212 92.4589 91.8927 92.4352C91.9642 92.4115 92.0396 92.4022 92.1147 92.4078C95.7828 92.6692 98.1363 96.6753 98.2347 96.8459C98.2849 96.933 98.3113 97.0318 98.3113 97.1324C98.3114 97.233 98.285 97.3319 98.2349 97.419C98.1847 97.5062 98.1126 97.5786 98.0257 97.629C97.9388 97.6794 97.8402 97.7059 97.7398 97.7061Z" fill="white"/>
<path d="M60.8281 100.635V99.6797H96.2376C96.3809 100.507 96.3395 101.355 96.1163 102.164H62.3544C61.9496 102.164 61.5614 102.003 61.2752 101.717C60.9889 101.43 60.8281 101.041 60.8281 100.635Z" fill="#E2780D"/>
<path d="M62.7181 87.9766H67.3191C67.0082 89.0946 67.0454 90.2811 67.4257 91.3774C67.9616 92.7944 68.9029 94.0215 70.1318 94.9047C76.1804 99.5139 84.759 93.043 92.9474 97.532C94.0144 98.1191 94.9999 98.8441 95.8786 99.6883H61.0859V89.6119C61.0859 89.1782 61.2579 88.7623 61.564 88.4556C61.8701 88.1489 62.2852 87.9766 62.7181 87.9766Z" fill="#E2780D"/>
<path d="M92.9385 97.5341C94.0055 98.1212 94.991 98.8462 95.8696 99.6904H85.6875V95.8598C88.2089 95.7746 90.7086 96.3518 92.9385 97.5341Z" fill="#E2780D"/>
<path d="M69.1159 72.3121C68.1877 75.5978 69.9124 76.4645 69.0571 81.6057C68.8988 82.5445 68.6829 83.4725 68.4107 84.3846H63.6719V55.3505C64.4834 54.7907 65.3479 54.3122 66.2529 53.9219H78.1029V63.5907C71.8114 66.5834 69.8023 69.8824 69.1159 72.3121Z" fill="#E9B77A"/>
<path d="M62.9316 83.0817C62.9461 83.0645 62.9537 83.042 62.9693 83.0258C63.1537 82.8375 63.4032 82.7273 63.6664 82.7182C63.679 82.7177 63.6895 82.7109 63.7022 82.7109H68.8383C68.3481 84.9503 67.6498 86.5298 67.3054 87.9822H62.6797V83.7355C62.6799 83.6008 62.7068 83.4674 62.7587 83.3432C62.8024 83.2475 62.8607 83.1593 62.9316 83.0817Z" fill="#E2780D"/>
<path d="M56.4886 87.9766H45.9841L45.976 88.0171C45.7482 89.1834 45.2706 90.2862 44.5762 91.2497C43.8818 92.2131 42.9871 93.0141 41.9538 93.5975C37.8613 95.8836 30.879 99.3233 25.3516 99.6884H58.1208V89.6119C58.1208 89.3972 58.0786 89.1845 57.9966 88.9861C57.9145 88.7877 57.7943 88.6074 57.6427 88.4556C57.4912 88.3037 57.3113 88.1832 57.1132 88.1011C56.9152 88.0189 56.703 87.9766 56.4886 87.9766Z" fill="#F49D1A"/>
<path d="M40.1021 87.9766L33.4986 91.5609H27.7443C26.6791 91.5609 25.6243 91.7711 24.6402 92.1795C23.6561 92.588 22.7618 93.1866 22.0086 93.9413C21.2554 94.696 20.6579 95.592 20.2503 96.5781C19.8426 97.5642 19.6328 98.621 19.6328 99.6883H58.1091V89.6119C58.1091 89.1782 57.9371 88.7622 57.631 88.4556C57.3249 88.1489 56.9098 87.9766 56.4769 87.9766H40.1021Z" fill="#F9BC40"/>
<path d="M55.5169 53.9219H41.0859V84.3847H55.5169V53.9219Z" fill="#FDD39D"/>
<path d="M56.4844 87.9766H40.0849V83.7298C40.0849 83.4581 40.1926 83.1975 40.3844 83.0054C40.5761 82.8132 40.8362 82.7053 41.1074 82.7053H55.4619C55.7331 82.7053 55.9931 82.8132 56.1849 83.0054C56.3766 83.1975 56.4844 83.4581 56.4844 83.7298V87.9766Z" fill="#F8830D"/>
<path d="M19.7109 99.6797H58.3745V100.635C58.3745 101.041 58.2137 101.43 57.9274 101.717C57.6412 102.003 57.253 102.165 56.8482 102.165H21.2372C20.8324 102.165 20.4442 102.003 20.158 101.717C19.8717 101.43 19.7109 101.041 19.7109 100.635V99.6797Z" fill="#E2780D"/>
<path d="M33.4986 91.5625H27.7444C26.6792 91.5625 25.6244 91.7727 24.6402 92.1811C23.6561 92.5896 22.7619 93.1882 22.0086 93.9429C21.2554 94.6977 20.6579 95.5936 20.2503 96.5797C19.8426 97.5658 19.6328 98.6227 19.6328 99.69H33.4986V91.5625Z" fill="#E42E21"/>
<path d="M33.4986 91.5625H27.7444C26.6792 91.5625 25.6244 91.7727 24.6402 92.1811C23.6561 92.5896 22.7619 93.1882 22.0086 93.9429C21.2554 94.6977 20.6579 95.5936 20.2503 96.5797C19.8426 97.5658 19.6328 98.6227 19.6328 99.69H33.4986V91.5625Z" fill="#F8830D"/>
<path d="M47.673 102.164H56.8499C57.2547 102.164 57.6429 102.003 57.9291 101.717C58.2153 101.43 58.3761 101.041 58.3761 100.635V99.6797H46.2578C46.6607 100.545 47.134 101.377 47.673 102.164Z" fill="#4481D1"/>
<path d="M23.5352 102.164H56.836C57.2408 102.164 57.629 102.003 57.9152 101.717C58.2014 101.43 58.3622 101.041 58.3622 100.635V99.6797H25.3345C24.7102 99.7252 24.0834 99.7252 23.4591 99.6797C23.3148 100.504 23.3407 101.35 23.5352 102.164Z" fill="#4481D1"/>
<path d="M25.3516 99.6745H33.5103V97.6172C30.9053 98.6977 28.1567 99.3908 25.3516 99.6745Z" fill="#C71B21"/>
<path d="M21.4387 97.7058C21.3383 97.7057 21.2397 97.6791 21.1528 97.6287C21.0659 97.5783 20.9938 97.5059 20.9437 97.4187C20.8935 97.3316 20.8672 97.2328 20.8672 97.1322C20.8672 97.0316 20.8937 96.9327 20.9439 96.8456C21.0422 96.675 23.3961 92.6689 27.0641 92.4076C27.2153 92.3973 27.3643 92.4474 27.4786 92.5471C27.5928 92.6467 27.663 92.7876 27.6738 92.939C27.6845 93.0904 27.635 93.2398 27.5359 93.3547C27.4369 93.4695 27.2964 93.5403 27.1454 93.5515C24.0865 93.7696 21.9559 97.384 21.9347 97.4206C21.8842 97.5075 21.8118 97.5796 21.7247 97.6296C21.6377 97.6797 21.5391 97.706 21.4387 97.7058Z" fill="white"/>
<path d="M58.3759 100.635V99.6797H22.9664C22.8231 100.507 22.8645 101.355 23.0876 102.164H56.8496C57.2544 102.164 57.6426 102.003 57.9289 101.717C58.2151 101.43 58.3759 101.041 58.3759 100.635Z" fill="#E2780D"/>
<path d="M56.4885 87.9766H51.8876C52.1984 89.0946 52.1613 90.2811 51.781 91.3774C51.2451 92.7944 50.3038 94.0215 49.0749 94.9047C43.0263 99.5139 34.4476 93.043 26.2593 97.532C25.1922 98.1191 24.2068 98.8441 23.3281 99.6883H58.1207V89.6119C58.1207 89.3972 58.0785 89.1845 57.9965 88.9861C57.9145 88.7877 57.7942 88.6074 57.6427 88.4556C57.4911 88.3037 57.3112 88.1832 57.1131 88.101C56.9151 88.0189 56.7029 87.9766 56.4885 87.9766Z" fill="#E2780D"/>
<path d="M26.2593 97.5341C25.1922 98.1212 24.2068 98.8462 23.3281 99.6904H33.5103V95.8598C30.9889 95.7746 28.4891 96.3518 26.2593 97.5341Z" fill="#E2780D"/>
<path d="M50.0729 72.3121C51.0011 75.5978 49.2765 76.4645 50.1317 81.6057C50.29 82.5445 50.5059 83.4725 50.7781 84.3846H55.5169V55.3505C54.7054 54.7907 53.8409 54.3122 52.9359 53.9219H41.0859V63.5907C47.3775 66.5834 49.3865 69.8824 50.0729 72.3121Z" fill="#E9B77A"/>
<path d="M56.2582 83.0817C56.2437 83.0645 56.2362 83.042 56.2206 83.0258C56.0362 82.8375 55.7866 82.7273 55.5234 82.7182C55.5109 82.7177 55.5003 82.7109 55.4876 82.7109H50.3516C50.8417 84.9503 51.54 86.5298 51.8845 87.9822H56.5101V83.7355C56.5099 83.6008 56.4831 83.4674 56.4311 83.3432C56.3874 83.2475 56.3291 83.1593 56.2582 83.0817Z" fill="#E2780D"/>
<path d="M59.8704 69.0456C67.7883 64.9718 75.6055 60.887 79.8205 57.5794C87.9272 51.218 92.4938 47.6347 95.4776 40.8794C96.637 38.2546 99.8201 30.7491 97.2455 21.9021C96.5684 19.5755 94.3954 12.1087 86.8916 7.98535C79.3937 3.8653 71.8799 5.99934 69.7192 6.72019C65.9171 8.00938 62.5204 10.2783 59.8704 13.299C57.2203 10.2783 53.8237 8.00938 50.0215 6.72019C47.8608 5.99934 40.347 3.8653 32.8491 7.98535C25.3453 12.1087 23.1723 19.5755 22.4953 21.9021C19.9206 30.7491 23.1037 38.2546 24.2631 40.8794C27.247 47.6347 31.8134 51.218 39.9202 57.5794C44.1353 60.887 51.9525 64.9718 59.8704 69.0456Z" fill="#F8830D"/>
<path d="M97.2587 21.91C96.3927 18.6975 94.9018 15.6881 92.8716 13.0547C94.5667 21.1066 91.7371 27.7858 90.6574 30.2303C87.6734 36.9856 83.107 40.5689 75.0002 46.9303C74.7895 47.0957 74.5699 47.263 74.3414 47.4322C68.7507 51.554 61.9913 53.7772 55.0502 53.7772C48.1091 53.7773 41.3498 51.5541 35.759 47.4323C35.5306 47.2631 35.311 47.0958 35.1 46.9303C29.2241 42.3195 25.2141 39.1638 22.3125 35.2062C22.793 37.156 23.4504 39.0576 24.2764 40.8874C27.2602 47.6427 31.8268 51.226 39.9335 57.5874C44.1485 60.895 51.9658 64.9798 59.8837 69.0536C67.8016 64.9798 75.6188 60.895 79.8338 57.5874C87.9405 51.226 92.507 47.6427 95.491 40.8874C96.6503 38.2626 99.8335 30.757 97.2587 21.91Z" fill="#F8830D"/>
<path d="M25.4091 20.6094C24.5053 20.6106 23.6078 20.7598 22.752 21.051C22.6503 21.3789 22.5621 21.6759 22.4943 21.9091C21.1194 26.806 21.2065 31.9993 22.7447 36.8472C23.8884 37.2349 25.1025 37.3685 26.3029 37.2389C27.5033 37.1094 28.6612 36.7196 29.6962 36.0968C30.7313 35.474 31.6186 34.633 32.2968 33.6322C32.975 32.6313 33.4277 31.4946 33.6236 30.301C33.8195 29.1073 33.7538 27.8852 33.4311 26.7195C33.1084 25.5538 32.5365 24.4724 31.7549 23.5503C30.9734 22.6282 30.001 21.8876 28.9052 21.3798C27.8094 20.8719 26.6165 20.609 25.4091 20.6094Z" fill="#E3780B"/>
<path d="M96.9009 37.2372C98.5519 32.2772 98.6815 26.9352 97.2731 21.9006C97.179 21.5774 97.052 21.1472 96.8899 20.6484C94.845 20.8662 92.953 21.8345 91.5784 23.367C90.2038 24.8994 89.4439 26.8874 89.4453 28.9478C89.4467 31.0082 90.2092 32.9952 91.5858 34.5258C92.9624 36.0564 94.8557 37.0223 96.9009 37.2372Z" fill="#E3780B"/>
<path d="M98.2126 28.0216C98.2016 27.6633 98.1824 27.3007 98.1549 26.9338C98.1463 26.8193 98.139 26.7056 98.1288 26.5903C98.0884 26.1348 98.0366 25.6739 97.9682 25.2068C97.957 25.1295 97.9416 25.0508 97.9294 24.9733C97.867 24.5725 97.793 24.1679 97.7074 23.7594C97.6805 23.6297 97.6532 23.4999 97.6239 23.3695C97.5145 22.8839 97.3946 22.3951 97.2507 21.9005L97.2468 21.8875C97.1563 21.5766 97.0346 21.1665 96.8821 20.6946L96.8668 20.6484C95.5155 20.7926 94.2204 21.2683 93.0962 22.0332C92.6569 24.8614 91.8337 27.6161 90.6494 30.2208C90.4156 30.75 90.1682 31.254 89.9141 31.7472C90.4414 33.2264 91.3748 34.5264 92.6068 35.4976C93.8389 36.4688 95.3196 37.0718 96.8785 37.2372L96.8789 37.2358C96.9246 37.092 96.9693 36.9405 97.0144 36.7911C97.0602 36.6393 97.1055 36.4851 97.1502 36.3276C97.1917 36.1814 97.2331 36.0343 97.2735 35.8833C97.3454 35.6142 97.4155 35.3389 97.4826 35.0553C97.5116 34.9331 97.5385 34.8068 97.5664 34.682C97.621 34.4372 97.6732 34.1878 97.7231 33.9337C97.7488 33.8014 97.7738 33.6678 97.7982 33.5329C97.8517 33.2357 97.9011 32.9326 97.9465 32.6235C97.9571 32.5511 97.9698 32.4814 97.9798 32.4084C98.0312 32.0341 98.0737 31.6491 98.1106 31.2589C98.122 31.1391 98.1315 31.0175 98.1411 30.8962C98.1676 30.5695 98.188 30.2377 98.2024 29.901C98.2064 29.8067 98.2125 29.7141 98.2157 29.6191C98.2289 29.1989 98.2314 28.7716 98.2231 28.3369C98.2212 28.2327 98.216 28.1266 98.2126 28.0216Z" fill="#E3780B"/>
<path d="M54.1379 12.4444C54.394 11.906 54.0571 11.2097 53.3855 10.889C52.7139 10.5683 51.9619 10.7447 51.7058 11.283C51.4498 11.8214 51.7866 12.5178 52.4582 12.8385C53.1299 13.1592 53.8819 12.9827 54.1379 12.4444Z" fill="white"/>
<path d="M52.7596 62.0362C53.0774 61.532 52.8251 60.8006 52.1961 60.4025C51.567 60.0045 50.7995 60.0906 50.4817 60.5948C50.1639 61.0991 50.4162 61.8305 51.0452 62.2285C51.6743 62.6265 52.4418 62.5404 52.7596 62.0362Z" fill="white"/>
<path d="M29.2855 17.9724C29.1556 17.9722 29.0279 17.9387 28.9144 17.8752C28.801 17.8116 28.7056 17.7202 28.6373 17.6094C28.5691 17.4986 28.5301 17.3722 28.5242 17.2422C28.5183 17.1121 28.5457 16.9827 28.6036 16.8661C28.6681 16.7373 35.1811 4.06159 48.6551 9.61934C48.7479 9.65751 48.8323 9.71362 48.9034 9.78448C48.9745 9.85534 49.031 9.93955 49.0697 10.0323C49.1083 10.1251 49.1283 10.2245 49.1285 10.325C49.1288 10.4255 49.1092 10.5251 49.071 10.618C49.0328 10.711 48.9767 10.7954 48.9059 10.8666C48.8351 10.9378 48.751 10.9943 48.6584 11.0329C48.5658 11.0715 48.4665 11.0915 48.3662 11.0916C48.2659 11.0917 48.1665 11.072 48.0738 11.0336C35.9271 6.01909 30.2059 17.0778 29.9685 17.5509C29.9048 17.6776 29.8072 17.7842 29.6866 17.8586C29.566 17.933 29.4272 17.9724 29.2855 17.9724Z" fill="white"/>
<path d="M47.9814 59.6413C47.8519 59.6412 47.7246 59.6081 47.6114 59.5449C33.8364 51.877 28.8186 42.629 28.6118 42.2388C28.5175 42.0599 28.4978 41.8508 28.557 41.6574C28.6163 41.4639 28.7497 41.3019 28.9279 41.2068C29.1062 41.1117 29.3149 41.0914 29.5081 41.1502C29.7014 41.209 29.8635 41.3422 29.9589 41.5205C30.0081 41.6124 35.0012 50.7759 48.3529 58.2083C48.5007 58.2906 48.617 58.4198 48.6836 58.5756C48.7502 58.7313 48.7632 58.9048 48.7207 59.0688C48.6782 59.2328 48.5825 59.378 48.4487 59.4816C48.3149 59.5852 48.1505 59.6414 47.9814 59.6412L47.9814 59.6413Z" fill="white"/>
<path d="M79.9048 54.6572C72.4715 51.2885 54.0198 52.9491 45.5703 53.9432C46.2801 49.791 49.9106 44.9159 49.9106 44.5629C49.9106 44.2099 46.6929 39.4453 46.6929 39.4453C54.9488 40.0177 71.5681 41.0158 78.5917 40.3311C78.5917 40.3311 76.394 45.2689 74.9847 47.0929L79.9048 54.6572Z" fill="white"/>
<path d="M79.9245 54.6602C77.1999 53.6791 74.3457 53.1064 71.4542 52.9608C68.5823 52.7426 65.6977 52.7246 62.8181 52.7948C59.9376 52.8653 57.0607 53.0513 54.1886 53.2813C51.3164 53.5136 48.4497 53.805 45.5886 54.1555L45.2734 54.1937L45.3291 53.8814C45.5978 52.5137 46.034 51.1844 46.6277 49.9237C47.2102 48.6719 47.8605 47.4529 48.5756 46.2722C48.9166 45.6892 49.3163 45.0783 49.6047 44.5363C49.6118 44.5306 49.6167 44.5616 49.5966 44.5219L49.4892 44.314L49.2357 43.8805L48.6949 43.0156C47.957 41.8675 47.1949 40.7286 46.4251 39.5988L46.0649 39.0703L46.7053 39.1112C52.0145 39.4505 57.3281 39.713 62.6402 39.9384C65.2965 40.0436 67.9535 40.1202 70.6088 40.1497C73.262 40.1911 75.9225 40.2029 78.5522 39.9978L79.0896 39.9559L78.8676 40.4366C78.3278 41.6056 77.7696 42.7588 77.1635 43.8933C76.5784 45.0477 75.9038 46.1544 75.146 47.2032L75.1562 46.953C75.9782 48.2526 76.7919 49.568 77.5716 50.8622C78.356 52.1561 79.1324 53.4169 79.9245 54.6602ZM79.8666 54.6104C79.0187 53.3323 78.1551 52.0718 77.2994 50.8442C76.4391 49.617 75.6127 48.4109 74.7948 47.189L74.7129 47.0667L74.8049 46.9386C75.5143 45.8909 76.1413 44.7895 76.6804 43.6444C77.241 42.5019 77.7848 41.3451 78.2973 40.1818L78.6126 40.6205C75.938 40.8744 73.2688 40.9062 70.6018 40.91C67.935 40.8876 65.2716 40.8027 62.6099 40.6977C57.2858 40.4961 51.9726 40.1246 46.6622 39.7356L46.9424 39.2481C47.7012 40.3929 48.4551 41.5374 49.1879 42.702L49.7287 43.5849L49.9896 44.0412C50.0327 44.1173 50.0737 44.2082 50.1152 44.2912C50.1456 44.363 50.1674 44.4382 50.1801 44.5152C50.1768 44.6006 50.1573 44.6846 50.1226 44.7627C49.7636 45.4285 49.3976 45.9575 49.0432 46.555C48.3274 47.7125 47.6752 48.9083 47.0894 50.137C46.5024 51.3536 46.067 52.6379 45.7931 53.961L45.5337 53.687C51.2728 53.0502 57.0359 52.5922 62.8123 52.5059C65.6995 52.4709 68.5911 52.5244 71.4694 52.7787C72.1897 52.8337 72.9079 52.9099 73.6228 53.0175L74.6967 53.162L75.7613 53.3677C77.1746 53.6151 78.553 54.0324 79.8666 54.6104Z" fill="#333333"/>
<path d="M53.0193 38.1978C58.4039 37.9809 62.6072 33.7728 62.4077 28.7989C62.2081 23.8249 57.6812 19.9685 52.2966 20.1854C46.912 20.4023 42.7087 24.6103 42.9082 29.5843C43.1078 34.5583 47.6347 38.4147 53.0193 38.1978Z" fill="white"/>
<path d="M70.9145 38.3124C75.0008 38.3124 78.3135 34.631 78.3135 30.0898C78.3135 25.5486 75.0008 21.8672 70.9145 21.8672C66.8282 21.8672 63.5156 25.5486 63.5156 30.0898C63.5156 34.631 66.8282 38.3124 70.9145 38.3124Z" fill="white"/>
<path d="M66.0938 47.0376C67.6155 47.1794 69.1427 47.2593 70.6639 47.2654C71.4242 47.2665 72.1833 47.2406 72.932 47.1761C73.6561 47.1369 74.3698 46.9852 75.0475 46.7266L75.3436 47.4318C74.5712 47.6647 73.7666 47.7719 72.9604 47.7493C72.1831 47.7513 71.4133 47.7127 70.6475 47.6477C69.1169 47.5134 67.5994 47.3058 66.0938 47.0376Z" fill="#333333"/>
<path d="M43.4766 20.2003C45.3224 18.8496 47.3041 17.6961 49.3894 16.7584C50.437 16.2831 51.5171 15.8828 52.6213 15.5607C53.7477 15.1892 54.9476 15.0993 56.1165 15.2987L56.133 15.3026L56.138 15.3049C56.4841 15.4654 56.796 15.6915 57.0565 15.9706C57.3194 16.2383 57.4802 16.5899 57.511 16.9642C57.3822 16.6447 57.1781 16.3611 56.9161 16.1378C56.6542 15.9145 56.3422 15.758 56.0068 15.6817L56.028 15.6878C54.9345 15.6601 53.846 15.846 52.8234 16.2351C51.7663 16.5904 50.726 17.0098 49.6868 17.4409C47.6175 18.3302 45.5682 19.2852 43.4766 20.2003Z" fill="#333333"/>
<path d="M68.0938 18.7423C69.2147 18.6575 70.3411 18.8024 71.4043 19.1681C72.4713 19.5166 73.4949 19.9864 74.4551 20.5682C75.4113 21.1457 76.3133 21.809 77.1498 22.5499C77.5663 22.919 77.956 23.318 78.3498 23.7078C78.7106 24.1337 79.0869 24.54 79.427 24.979L76.7784 23.0163C75.8814 22.3981 75.0022 21.7613 74.0641 21.2242C73.1425 20.662 72.185 20.1612 71.1977 19.7252C70.2044 19.2784 69.1628 18.9486 68.0938 18.7423Z" fill="#333333"/>
<path d="M52.5794 38.5912C50.0892 38.6092 47.6741 37.737 45.7679 36.1312C44.7978 35.334 44.0071 34.34 43.4477 33.2147C42.8884 32.0893 42.5732 30.8581 42.5228 29.6019C42.4724 28.3458 42.688 27.0932 43.1553 25.9265C43.6227 24.7598 44.3312 23.7054 45.2343 22.8327C47.1301 20.9897 49.6376 19.9119 52.2769 19.8056C54.9162 19.6992 57.5019 20.5718 59.5393 22.2563C60.5094 23.0535 61.3001 24.0475 61.8595 25.1728C62.4188 26.2981 62.734 27.5294 62.7844 28.7855C62.8348 30.0417 62.6192 31.2943 62.1519 32.461C61.6845 33.6277 60.976 34.6821 60.0728 35.5548C58.1895 37.4164 55.6745 38.4974 53.0303 38.5819C52.8798 38.5879 52.7295 38.591 52.5794 38.5912ZM52.7274 20.5609C52.5876 20.5609 52.4479 20.5638 52.3074 20.5694C49.8549 20.6466 47.5216 21.648 45.7739 23.3737C44.9453 24.1716 44.295 25.1366 43.866 26.2049C43.437 27.2732 43.239 28.4205 43.2851 29.5711C43.3313 30.7216 43.6205 31.8493 44.1336 32.8797C44.6468 33.9101 45.3722 34.8196 46.262 35.5484C48.1532 37.1087 50.5516 37.9166 52.9994 37.818C55.4473 37.7194 57.7732 36.7212 59.5333 35.0138C60.3571 34.2122 61.0042 33.2467 61.4329 32.1793C61.8615 31.1119 62.0622 29.9663 62.022 28.8165C61.9699 27.6671 61.6781 26.5413 61.1654 25.5118C60.6527 24.4823 59.9304 23.5718 59.0451 22.8391C57.2767 21.3509 55.0367 20.5431 52.7273 20.5609H52.7274Z" fill="#333333"/>
<path d="M53.3693 35.2168C55.899 35.2168 57.9496 33.1028 57.9496 30.4951C57.9496 27.8874 55.899 25.7734 53.3693 25.7734C50.8397 25.7734 48.7891 27.8874 48.7891 30.4951C48.7891 33.1028 50.8397 35.2168 53.3693 35.2168Z" fill="#333333"/>
<path d="M70.9213 38.7019C66.631 38.7019 63.1406 34.8418 63.1406 30.0969C63.1406 25.3523 66.631 21.4922 70.9213 21.4922C75.2113 21.4922 78.7016 25.3523 78.7016 30.0969C78.7016 34.8418 75.2113 38.7019 70.9213 38.7019ZM70.9213 22.2568C67.0517 22.2568 63.9038 25.7738 63.9038 30.0969C63.9038 34.4199 67.0517 37.9373 70.9213 37.9373C74.7906 37.9373 77.9385 34.4199 77.9385 30.0969C77.9385 25.7738 74.7906 22.2568 70.9213 22.2568Z" fill="#333333"/>
<path d="M69.3523 34.1305C71.0225 34.1305 72.3764 32.7739 72.3764 31.1004C72.3764 29.4269 71.0225 28.0703 69.3523 28.0703C67.6821 28.0703 66.3281 29.4269 66.3281 31.1004C66.3281 32.7739 67.6821 34.1305 69.3523 34.1305Z" fill="#333333"/>
<path d="M54.608 29.1896C55.289 29.1896 55.841 28.6365 55.841 27.9542C55.841 27.2719 55.289 26.7188 54.608 26.7188C53.927 26.7188 53.375 27.2719 53.375 27.9542C53.375 28.6365 53.927 29.1896 54.608 29.1896Z" fill="white"/>
<path d="M69.6861 30.8604C70.2333 30.8604 70.6769 30.416 70.6769 29.8677C70.6769 29.3195 70.2333 28.875 69.6861 28.875C69.1389 28.875 68.6953 29.3195 68.6953 29.8677C68.6953 30.416 69.1389 30.8604 69.6861 30.8604Z" fill="white"/>
<path d="M41.8359 39.0782C45.1583 39.0193 48.4674 39.0788 51.7734 39.1716C55.0798 39.2527 58.3804 39.3988 61.6802 39.5248L71.5708 39.9504C73.218 40.0054 74.8656 40.0716 76.5116 40.0822C77.3346 40.0949 78.1583 40.0917 78.9783 40.0559C79.8016 40.0581 80.6212 39.9469 81.4142 39.7254C80.6647 40.104 79.8586 40.3578 79.0276 40.477C78.2054 40.6401 77.3764 40.7344 76.5479 40.8322C74.889 40.9987 73.2274 41.0963 71.5667 41.1438C68.2447 41.2518 64.9276 41.1764 61.6155 41.0518C58.3048 40.8948 54.9983 40.6831 51.7005 40.3581C48.4027 40.0405 45.1103 39.6503 41.8359 39.0782Z" fill="#333333"/>
<path d="M41.2031 54.49C44.4695 53.7358 47.7734 53.1553 51.101 52.7508C54.4252 52.3244 57.7703 52.0626 61.126 51.9364C64.4904 51.8069 67.8598 51.9121 71.2096 52.2513C72.0478 52.3455 72.8853 52.4744 73.719 52.5988C74.5494 52.7716 75.3808 52.9248 76.2007 53.1372C77.8484 53.5377 79.4169 54.2139 80.8401 55.1372C79.3053 54.5087 77.6951 54.0836 76.0504 53.8728C75.2354 53.752 74.4096 53.6792 73.5917 53.593C72.7638 53.5539 71.944 53.4692 71.1172 53.4411C67.8122 53.313 64.4946 53.3451 61.1763 53.464C57.8566 53.5585 54.5355 53.7531 51.2087 53.9347L46.2146 54.2278C44.5476 54.3187 42.8843 54.4467 41.2031 54.49Z" fill="#333333"/>
<path d="M58.409 46.0832C56.8969 46.2291 55.3747 46.2368 53.8611 46.1064C52.3002 46.0195 50.7759 45.5987 49.3906 44.8725L49.811 44.2344C51.0577 45.0159 52.4552 45.5248 53.9118 45.7275C55.397 45.9823 56.9023 46.1014 58.409 46.0832Z" fill="#333333"/>
</svg>
