<svg width="40" height="24" viewBox="0 0 40 24" fill="none" xmlns="http://www.w3.org/2000/svg">
<path d="M13.0909 23.9994H0.676767C0.505291 24.0071 0.337815 23.9449 0.210983 23.8266C0.0841505 23.7082 0.00829004 23.5432 0 23.3678L0 0.632237C0.00829004 0.456763 0.0841505 0.291792 0.210983 0.173424C0.337815 0.0550561 0.505291 -0.0070653 0.676767 0.000640003H13.0909V23.9994Z" fill="#41479B"/>
<path d="M26.1768 0H13.0859V23.9987H26.1768V0Z" fill="#F5F5F5"/>
<path d="M38.6016 23.9994H26.1875V0.000640003H38.6016C38.7731 -0.0070653 38.9406 0.0550561 39.0674 0.173424C39.1943 0.291792 39.2701 0.456763 39.2784 0.632237V23.3678C39.2701 23.5432 39.1943 23.7082 39.0674 23.8266C38.9406 23.9449 38.7731 24.0071 38.6016 23.9994V23.9994Z" fill="#FF4B55"/>
</svg>
