<svg width="75" height="129" viewBox="0 0 75 129" fill="none" xmlns="http://www.w3.org/2000/svg">
<path d="M5.31801 118.008V119.708C5.31801 119.708 -0.401225 123.594 0.0205488 126.023C0.442265 128.452 4.83047 128.087 7.02454 126.023C9.21867 123.958 9.82812 121.53 9.82812 121.53L9.21867 118.008H5.31801V118.008Z" fill="#F8830D"/>
<path opacity="0.23" d="M7.02454 125.028C8.71383 123.438 9.46169 121.637 9.71735 120.891L9.82812 121.531C9.82812 121.531 9.21867 123.959 7.02454 126.024C4.83047 128.088 0.442267 128.453 0.0205517 126.024C-0.0233545 125.771 0.0024004 125.502 0.0780897 125.224C0.706 127.426 4.89416 127.032 7.02454 125.028Z" fill="#FF7F50"/>
<path d="M24.7535 119.187L25.2116 120.638C25.2116 120.638 30.9308 124.524 30.509 126.953C30.0873 129.381 25.6991 129.017 23.505 126.953C21.3109 124.888 20.7014 122.459 20.7014 122.459L21.3109 118.938L24.7535 119.187Z" fill="#F8830D"/>
<path opacity="0.23" d="M23.5527 125.965C21.8634 124.376 21.1156 122.575 20.8599 121.828L20.7491 122.468C20.7491 122.468 21.3586 124.897 23.5527 126.961C25.7468 129.026 30.135 129.39 30.5567 126.961C30.6006 126.709 30.5749 126.44 30.4992 126.161C29.8713 128.363 25.6831 127.97 23.5527 125.965Z" fill="#FF7F50"/>
<path d="M31.1886 38.3029C31.1886 38.3029 31.5019 43.1266 36.3033 43.4528C40.1413 43.7135 39.5865 31.2614 39.2094 26.2545C39.072 24.4299 38.561 22.6417 37.6111 21.0757C37.4359 20.7869 37.2474 20.5078 37.0474 20.2542C35.847 18.7321 33.9154 19.8536 33.8608 20.832C33.8063 21.8104 34.9392 22.1447 34.9392 22.1447C34.9392 22.1447 32.8114 18.3396 31.7201 19.1006C30.6289 19.8616 34.3391 23.5579 34.3391 23.5579C34.3391 23.5579 32.4719 21.6413 32.3486 23.0546C32.2254 24.4678 34.0346 24.6451 35.3326 26.4932C36.6306 28.3414 35.3307 37.5821 35.3307 37.5821L34.0117 34.7555L31.1886 38.3029Z" fill="#FFC7AB"/>
<g opacity="0.21">
<path opacity="0.21" d="M32.179 37.0625C32.3039 37.9876 33.0673 41.7201 37.2709 42.0056C37.7074 42.0353 38.0845 41.8934 38.4141 41.6239C37.9334 42.8035 37.2549 43.5145 36.3084 43.4502C31.5071 43.1241 31.1938 38.3004 31.1938 38.3004L32.179 37.0625Z" fill="#FFC7AB"/>
</g>
<path d="M29.0155 61.7466C29.0155 61.7466 29.1085 109.043 24.8711 119.54H21.2063C21.2063 119.54 17.1979 83.7211 16.8543 75.6201C16.8543 75.6201 11.1801 116.916 9.37898 118.855H5.28733C5.28733 118.855 3.68398 74.0228 5.28733 61.0156L29.0155 61.7466Z" fill="#380A17"/>
<g opacity="0.23">
<path opacity="0.23" d="M17.6791 69.5234C18.0227 77.6244 23.7031 119.533 23.7031 119.533H21.2035C21.2035 119.533 17.5563 85.4198 16.8515 75.6129C16.8515 71.5894 17.6791 69.5234 17.6791 69.5234Z" fill="#404969"/>
<path opacity="0.23" d="M5.2894 61L7.78008 61.0767C6.19216 74.1145 7.78906 118.84 7.78906 118.84H5.2894C5.2894 118.84 3.68605 74.0072 5.2894 61Z" fill="#404969"/>
</g>
<path d="M30.5892 39.1552L35.3359 35.0783C35.3359 35.0783 32.3897 24.4786 24.8603 25.9463L13.7298 25.8069C13.7298 25.8069 6.52785 24.4786 4.0726 31.3277C1.61736 38.1767 6.36417 42.2535 6.36417 42.2535L4.23627 63.1268L29.2797 61.9853C29.2797 61.9853 29.7708 43.232 30.5892 39.1552Z" fill="#BDE4F4"/>
<path d="M30.5892 39.1552L35.3359 35.0783C35.3359 35.0783 32.3897 24.4786 24.8603 25.9463L13.7298 25.8069C13.7298 25.8069 6.52785 24.4786 4.0726 31.3277C1.61736 38.1767 6.36417 42.2535 6.36417 42.2535L4.23627 63.1268L29.2797 61.9853C29.2797 61.9853 29.7708 43.232 30.5892 39.1552Z" fill="#F8830D"/>
<path opacity="0.41" d="M29.3594 59.6049C29.3131 61.0771 29.289 61.9961 29.289 61.9961L4.24563 63.1376L6.01578 45.7734C8.50988 49.3349 14.9583 56.1206 29.3594 59.6049Z" fill="#F8830D"/>
<path d="M14.667 20.3149C14.667 20.3149 15.1271 23.6638 14.1148 25.7027C13.1025 27.7414 15.1271 29.9705 18.3481 29.8187C21.5691 29.6668 21.9832 25.9077 21.9832 25.9077C21.9832 25.9077 21.0169 25.3576 21.109 24.2574C21.109 24.2574 26.8148 25.541 27.2749 21.6902C27.735 17.8394 27.2749 17.5643 27.2749 17.5643H29.0234C29.0234 17.5643 27.3939 11.7764 26.8148 9.40432C25.1582 2.61962 17.3376 0.327408 12.0901 6.74547C7.19787 12.7289 14.667 20.3149 14.667 20.3149Z" fill="#FFC7AB"/>
<g opacity="0.21">
<path opacity="0.21" d="M14.6645 20.319C14.6645 20.319 7.1955 12.733 12.0878 6.74945C14.5033 3.79504 17.4634 2.69028 20.1172 3.01594C17.9765 3.27169 15.7641 4.44782 13.8823 6.74945C8.99006 12.733 16.4591 20.319 16.4591 20.319C16.4591 20.319 16.9192 23.6678 15.9069 25.7067C15.0321 27.4684 16.4275 29.3689 18.9005 29.7557C18.7252 29.7899 18.541 29.8135 18.3456 29.8227C15.1246 29.9745 13.1 27.7455 14.1124 25.7067C15.1246 23.6678 14.6645 20.319 14.6645 20.319Z" fill="#FFC7AB"/>
</g>
<path d="M35.3071 86.0941L48.6206 92.482L57.7048 76.9992C57.2166 76.9949 56.2747 76.7435 54.8822 76.247C53.488 75.7494 52.3205 75.2267 51.378 74.6779C49.2336 73.429 47.7175 71.7946 46.8324 69.7738C45.9463 67.7546 46.0366 65.8324 47.1073 64.0073C48.1169 62.2867 49.5302 61.1673 51.3423 60.6505C53.1568 60.133 55.1095 60.4819 57.2023 61.7006C59.2436 62.8894 60.452 64.418 60.8332 66.2809C61.2141 68.1481 61.0675 70.0741 60.3936 72.0592L72.3415 73.7711C73.8246 70.6465 74.4019 67.3303 74.0758 63.8153C73.7493 60.3044 72.6016 56.9958 70.6327 53.8895C68.6629 50.7847 66.0561 48.2868 62.8113 46.3971C59.0961 44.2335 55.208 43.2636 51.1447 43.4837C47.0837 43.7073 43.323 44.9111 39.8661 47.0931C36.4082 49.2766 33.6685 52.0894 31.6503 55.5291C29.4475 59.2834 28.5234 63.0136 28.8783 66.7155C29.233 70.4215 30.3335 73.6338 32.1792 76.3496C34.0229 79.0686 35.9299 80.9652 37.8966 82.0416L35.3071 86.0941Z" fill="#F8830D"/>
<g opacity="0.21">
<path opacity="0.21" d="M60.8301 66.2895C60.4489 64.4266 59.2404 62.898 57.1991 61.7092C55.923 60.966 54.6996 60.5506 53.5272 60.4535C53.8607 60.2999 54.206 60.1643 54.572 60.0599C56.3867 59.5423 58.3392 59.8913 60.432 61.1101C62.4733 62.2988 63.6819 63.8274 64.063 65.6904C64.4439 67.5575 64.2974 69.4836 63.6234 71.4685L72.7734 72.7796C72.6367 73.1147 72.4953 73.4489 72.3383 73.7797L60.3905 72.0678C61.0644 70.0827 61.211 68.1567 60.8301 66.2895Z" fill="#1C333D"/>
<path opacity="0.21" d="M39.8647 47.106C42.9204 45.1774 46.2143 44.016 49.7422 43.6172C47.4161 44.2202 45.1998 45.1799 43.0976 46.5068C39.6397 48.6903 36.9 51.5032 34.8818 54.9429C32.679 58.6972 31.7549 62.4274 32.1098 66.1293C32.4645 69.8353 33.565 73.0475 35.4106 75.7633C37.2544 78.4824 39.1614 80.379 41.1281 81.4553L38.5386 85.5078L49.6037 90.8169L48.6192 92.4949L35.3057 86.107L37.8952 82.0546C35.9285 80.9782 34.0215 79.0816 32.1777 76.3625C30.3321 73.6467 29.2316 70.4345 28.8769 66.7285C28.522 63.0265 29.4461 59.2964 31.6488 55.542C33.6671 52.1023 36.4068 49.2896 39.8647 47.106Z" fill="#1C333D"/>
</g>
<path d="M37.4878 110.389C40.0506 109.609 42.0048 108.072 43.3516 105.777C44.7284 103.431 45.0415 100.955 44.2885 98.3482C43.5362 95.7436 42.034 93.7834 39.7833 92.4728C37.6921 91.2549 35.4704 90.9409 33.1225 91.5312C30.7736 92.123 28.8806 93.6436 27.4435 96.093C26.0054 98.5439 25.528 101.063 26.0103 103.653C26.4927 106.242 27.8841 108.207 30.1864 109.548C32.4903 110.889 34.9234 111.167 37.4878 110.389Z" fill="#F8830D"/>
<path opacity="0.23" d="M33.1152 91.5282C33.5722 91.4134 34.0228 91.3433 34.4702 91.2969C33.3067 92.0952 32.2972 93.2071 31.4504 94.6505C30.0123 97.1015 29.5349 99.6209 30.0172 102.21C30.4995 104.8 31.8911 106.765 34.1933 108.105C36.0303 109.175 37.9508 109.557 39.9531 109.278C39.2026 109.739 38.3813 110.112 37.4805 110.386C34.9162 111.164 32.4831 110.887 30.1791 109.545C27.8768 108.204 26.4854 106.239 26.003 103.65C25.5207 101.06 25.9981 98.5411 27.4362 96.0901C28.8733 93.6407 30.7663 92.1201 33.1152 91.5282Z" fill="#1C333D"/>
<path d="M7.35546 11.0013C7.35546 9.61129 8.31832 8.44834 9.61485 8.12995C9.3905 7.62966 9.26313 7.07685 9.26313 6.49353C9.26313 4.27308 11.0699 2.47313 13.2986 2.47313C13.6748 2.47313 14.0375 2.52831 14.383 2.62423C14.5507 1.14781 15.8072 0 17.334 0C18.4341 0 19.3923 0.597018 19.906 1.4822C20.5733 0.995839 21.3934 0.705131 22.2836 0.705131C24.315 0.705131 25.991 2.20201 26.2727 4.14804C27.3384 4.40367 28.1328 5.3534 28.1328 6.49353C28.1328 7.82942 27.0458 8.9124 25.7049 8.9124C25.0925 8.9124 24.5396 8.67889 24.1124 8.30613C23.563 8.58523 22.9427 8.74592 22.2836 8.74592C22.0872 8.74592 21.8955 8.7272 21.7065 8.70016C21.7067 8.71559 21.7089 8.7305 21.7089 8.74592C21.7089 10.3809 20.3784 11.7064 18.7373 11.7064C18.1018 11.7064 17.5142 11.5059 17.0312 11.1675C17.2232 11.5593 17.334 11.9979 17.334 12.4632C17.334 14.0982 16.0037 15.4237 14.3625 15.4237C14.3625 17.0587 13.0321 18.3841 11.3909 18.3841C9.74981 18.3841 8.41941 17.0587 8.41941 15.4237C8.41941 14.759 8.64196 14.1477 9.01315 13.6536C8.03198 13.1701 7.35546 12.1657 7.35546 11.0013Z" fill="#380A17"/>
<g opacity="0.2">
<path opacity="0.2" d="M18.7451 11.7016C18.7192 11.7016 18.6947 11.6963 18.6689 11.6956C18.6422 11.6299 18.6169 11.5634 18.5858 11.5C18.6849 11.5694 18.791 11.6289 18.8984 11.6862C18.8466 11.6889 18.7976 11.7016 18.7451 11.7016Z" fill="#380A17"/>
<path opacity="0.2" d="M7.3563 11.0013C7.3563 9.61135 8.31916 8.44834 9.61569 8.13001C9.39135 7.62972 9.26398 7.07691 9.26398 6.49358C9.26398 4.27314 11.0707 2.47319 13.2994 2.47319C13.6757 2.47319 14.0383 2.52837 14.3838 2.62429C14.5516 1.14787 15.808 0 17.3349 0C17.8393 0 18.311 0.130302 18.7266 0.351612C17.2717 0.427539 16.0925 1.53617 15.9305 2.9614C15.585 2.86542 15.2223 2.81024 14.8461 2.81024C12.6174 2.81024 10.8107 4.61025 10.8107 6.83064C10.8107 7.41396 10.938 7.96677 11.1624 8.46706C9.86584 8.78545 8.90299 9.9484 8.90299 11.3384C8.90299 12.5028 9.5795 13.5072 10.5607 13.9907C10.1894 14.4848 9.96694 15.0961 9.96694 15.7608C9.96694 16.8964 10.616 17.8709 11.5579 18.3675C11.5017 18.3706 11.4487 18.3841 11.3918 18.3841C9.75066 18.3841 8.42026 17.0588 8.42026 15.4237C8.42026 14.7591 8.6428 14.1477 9.014 13.6536C8.03282 13.1702 7.3563 12.1657 7.3563 11.0013Z" fill="#380A17"/>
<path opacity="0.2" d="M25.6647 8.63281C25.7667 8.72176 25.8768 8.80158 25.9922 8.87344C25.8986 8.88435 25.807 8.90173 25.7104 8.90173C25.5284 8.90173 25.3539 8.87523 25.1841 8.83639C25.349 8.77757 25.5103 8.71125 25.6647 8.63281Z" fill="#380A17"/>
</g>
<path d="M32.008 51.5115C32.008 51.5115 33.0992 50.6417 35.3362 50.3156C37.5732 49.9895 34.1904 52.2725 34.1904 52.2725C34.1904 52.2725 36.5912 51.8376 37.4641 53.9032C38.3371 55.9688 35.7182 57.9256 32.008 56.6211C28.2979 55.3165 31.3533 54.5099 24.1513 53.663C16.9492 52.8161 11.8205 50.6417 10.4565 48.4675C9.09247 46.2932 8.11036 42.5968 8.11036 42.5968L12.9118 40.5312C12.9118 40.5312 14.8759 43.7927 15.0942 46.6193C15.0942 46.6193 25.2425 49.8807 27.8614 50.8592C30.4803 51.8376 32.008 51.5115 32.008 51.5115Z" fill="#FFC7AB"/>
<g opacity="0.21">
<path opacity="0.21" d="M35.3679 51.3546C35.1185 51.3623 34.9593 51.3905 34.9593 51.3905C34.9593 51.3905 35.5468 50.9937 36.0703 50.5547C35.999 50.7658 35.7051 51.0651 35.3679 51.3546Z" fill="#FFC7AB"/>
<path opacity="0.21" d="M9.02228 42.1953C9.3331 43.2567 10.1652 45.8888 11.2344 47.5931C12.5984 49.7674 17.7271 51.9417 24.9291 52.7886C32.1311 53.6356 29.0757 54.4421 32.7859 55.7467C34.766 56.4429 36.4283 56.2056 37.4219 55.5232C36.7839 56.7945 34.6825 57.5552 32.0043 56.6134C28.2942 55.3089 31.3495 54.5023 24.1475 53.6554C16.9455 52.8084 11.8168 50.6341 10.4528 48.4598C9.08874 46.2856 8.10663 42.5892 8.10663 42.5892L9.02228 42.1953Z" fill="#FFC7AB"/>
</g>
<path d="M10.299 32.8281C10.299 32.8281 12.4268 39.1879 14.5547 41.3078C14.5547 41.3078 8.66209 41.5253 7.89823 45.3303L6.37057 42.2863" fill="#F8830D"/>
<path d="M10.2919 32.8281C10.4867 33.602 10.7381 34.3588 10.9881 35.1171C11.2429 35.8739 11.5432 36.6144 11.8516 37.3533C12.1587 38.0928 12.4996 38.8212 12.8987 39.5247C13.2955 40.2291 13.7236 40.9251 14.3207 41.5339L14.5357 40.9884C13.8043 41.0242 13.1095 41.1352 12.4118 41.3041C11.7191 41.474 11.0297 41.6912 10.3869 42.0274C9.74919 42.3619 9.12256 42.7634 8.64372 43.3298C8.1658 43.8947 7.84866 44.5794 7.70778 45.2937L8.05844 45.2469C7.79095 44.746 7.50704 44.2533 7.22342 43.7604C6.94143 43.2668 6.65973 42.7729 6.36352 42.2863C6.5765 42.8144 6.80403 43.3352 7.03121 43.8562C7.25683 44.3779 7.4821 44.8999 7.7239 45.4136L7.93757 45.8677L8.07457 45.3668C8.24955 44.7272 8.57018 44.1466 9.02397 43.6759C9.48622 43.2129 10.0501 42.853 10.6522 42.5698C11.256 42.2875 11.901 42.078 12.5606 41.9281C13.2171 41.7816 13.9013 41.6704 14.5595 41.6273L15.2734 41.5805L14.7745 41.0818C14.2477 40.5551 13.8183 39.8918 13.4087 39.2297C13.0075 38.5582 12.6298 37.8651 12.2733 37.1594C11.5683 35.7438 10.9236 34.2915 10.2919 32.8281Z" fill="#F8830D"/>
</svg>
