<svg width="45" height="27" viewBox="0 0 45 27" fill="none" xmlns="http://www.w3.org/2000/svg">
<g filter="url(#filter0_i_1167_302)">
<path d="M43.4187 26.9963H0.761829C0.558709 26.9947 0.364549 26.9194 0.221799 26.787C0.079049 26.6545 -0.000690773 26.4757 2.92267e-05 26.2895V0.7105C-0.000850773 0.618 0.0181494 0.52624 0.0559594 0.440476C0.0937694 0.354709 0.149629 0.276604 0.220369 0.210628C0.291119 0.144652 0.375339 0.092098 0.468249 0.055957C0.561149 0.019817 0.660909 0.000802 0.761829 0H43.42C43.521 0.000802 43.6207 0.019817 43.7136 0.055957C43.8065 0.092098 43.8908 0.144652 43.9615 0.210628C44.0322 0.276604 44.0881 0.354709 44.1259 0.440476C44.1637 0.52624 44.1827 0.618 44.1818 0.7105V26.2895C44.1826 26.4759 44.1026 26.6549 43.9596 26.7874C43.8166 26.9199 43.6221 26.995 43.4187 26.9963Z" fill="#41479B"/>
<path d="M44.1818 0.7105C44.1827 0.618 44.1637 0.52624 44.1259 0.440476C44.0881 0.354709 44.0322 0.276604 43.9615 0.210628C43.8908 0.144652 43.8065 0.092098 43.7136 0.055957C43.6207 0.019817 43.521 0.000802 43.42 0H40.0114L25.8986 8.61919V0H18.2806V8.61919L4.16919 0H0.761829C0.660909 0.000802 0.561149 0.019817 0.468249 0.055957C0.375339 0.092098 0.291119 0.144652 0.220369 0.210628C0.149629 0.276604 0.0937694 0.354709 0.0559594 0.440476C0.0181494 0.52624 -0.000850773 0.618 2.92267e-05 0.7105V2.55115L12.1072 9.9494H2.92267e-05V17.0531H12.1072L2.92267e-05 24.4488V26.2895C-0.000850773 26.382 0.0181494 26.4738 0.0559594 26.5595C0.0937694 26.6453 0.149629 26.7234 0.220369 26.7894C0.291119 26.8553 0.375339 26.9079 0.468249 26.944C0.561149 26.9802 0.660909 26.9992 0.761829 27H4.17052L18.2819 18.3771V27H25.8999V18.3771L40.0114 27H43.42C43.521 26.9992 43.6207 26.9802 43.7136 26.944C43.8065 26.9079 43.8908 26.8553 43.9615 26.7894C44.0322 26.7234 44.0881 26.6453 44.1259 26.5595C44.1637 26.4738 44.1827 26.382 44.1818 26.2895V24.4488L32.0747 17.0506H44.1818V9.9457H32.0733L44.1818 2.54747V0.7105Z" fill="#F5F5F5"/>
<path d="M44.1818 11.3667H24.3763V0H19.8055V11.3667H0V15.6296H19.8055V26.9963H24.3763V15.6296H44.1818V11.3667Z" fill="#FF4B55"/>
<path d="M15.4429 17.2224L0.0234375 26.3962C0.0478075 26.56 0.135578 26.7103 0.270728 26.8197C0.405888 26.9292 0.579448 26.9905 0.759798 26.9925H1.80945L18.2384 17.2188H15.4402L15.4429 17.2224Z" fill="#FF4B55"/>
<path d="M29.8841 17.2266H27.0859L43.4908 26.987C43.677 26.9711 43.8502 26.8924 43.9766 26.7661C44.1031 26.6398 44.1737 26.4749 44.1749 26.3035V25.7292L29.8841 17.2266Z" fill="#FF4B55"/>
<path d="M0 1.47166L13.9601 9.7767H16.7583L0.44316 0.0703125C0.31147 0.125563 0.19977 0.214187 0.12125 0.325729C0.0427202 0.43727 0.00065 0.567071 0 0.699821V1.47166Z" fill="#FF4B55"/>
<path d="M28.6966 9.7739L44.1536 0.57797C44.1251 0.417633 44.0357 0.271674 43.9012 0.165905C43.7667 0.060137 43.5958 0.001372 43.4185 0H42.3274L25.8984 9.7739H28.6966Z" fill="#FF4B55"/>
</g>
<defs>
<filter id="filter0_i_1167_302" x="0" y="0" width="44.1797" height="31" filterUnits="userSpaceOnUse" color-interpolation-filters="sRGB">
<feFlood flood-opacity="0" result="BackgroundImageFix"/>
<feBlend mode="normal" in="SourceGraphic" in2="BackgroundImageFix" result="shape"/>
<feColorMatrix in="SourceAlpha" type="matrix" values="0 0 0 0 0 0 0 0 0 0 0 0 0 0 0 0 0 0 127 0" result="hardAlpha"/>
<feOffset dy="4"/>
<feGaussianBlur stdDeviation="2"/>
<feComposite in2="hardAlpha" operator="arithmetic" k2="-1" k3="1"/>
<feColorMatrix type="matrix" values="0 0 0 0 0 0 0 0 0 0 0 0 0 0 0 0 0 0 0.25 0"/>
<feBlend mode="normal" in2="shape" result="effect1_innerShadow_1167_302"/>
</filter>
</defs>
</svg>
