<svg width="188" height="183" viewBox="0 0 188 183" fill="none" xmlns="http://www.w3.org/2000/svg">
<path d="M3.72844 135.904C6.83524 128.886 12.8017 123.029 19.9686 120.146C27.4339 117.144 36.0055 118.237 43.8686 117.231C50.6978 116.357 55.6251 113.329 59.7027 107.946C63.6097 102.788 67.1128 97.0748 73.501 94.6889C78.5487 92.8035 84.2873 93.3261 89.3041 95.2907C98.5484 98.9109 105.53 106.608 111.411 114.277C116.78 121.278 121.159 128.945 131.089 129.195C141.026 129.445 150.486 123.815 160.491 125.307C173.714 127.279 184.727 138.212 187.034 151.228C189.197 163.427 183.77 175.258 174.447 182.21H14.1924C2.44444 169.831 -3.72029 152.732 3.72844 135.904Z" fill="#F0E7DE"/>
<path d="M152.751 94.7749C149.969 97.6465 148.721 102.484 150.256 106.945C151.741 111.263 154.998 114.841 158.91 117.14C162.058 118.991 166.164 120.012 169.26 118.074C171.574 116.626 172.774 113.785 172.84 111.037C172.907 108.289 171.992 105.611 170.861 103.111C169.267 99.5863 167.121 96.1686 163.925 94.0254C159.519 91.071 155.426 92.0147 152.751 94.7749Z" fill="#F0E7DE"/>
<path d="M88.1535 172.087H89.6816V148.156L66.4766 150.655L67.3515 182.999H88.1535V172.087Z" fill="#380A17"/>
<path d="M91.239 172.087H89.7109V148.156L112.916 150.655L112.041 182.999H91.239V172.087Z" fill="#380A17"/>
<path d="M89.711 63.7734L63.2969 73.85L66.506 150.67C66.506 150.67 76.1336 154.169 89.711 154.169C103.288 154.169 112.916 150.67 112.916 150.67L116.125 73.85L89.711 63.7734Z" fill="#F8830D"/>
<path d="M89.7199 63.7734L80.4922 67.2937V68.1974C80.4922 73.3052 84.5823 77.4458 89.6277 77.4458H89.8122C94.8576 77.4458 98.9477 73.3052 98.9477 68.1974V67.2937L89.7199 63.7734Z" fill="white"/>
<path d="M67.8656 86.7421C67.8656 86.7421 78.2955 116.673 90.5769 124.357C102.858 132.042 99.9772 122.108 86.0506 106.364C72.124 90.6192 65.4602 80.504 67.8656 86.7421Z" fill="#C86B0D"/>
<path d="M81.9607 33.9368C80.434 39.2015 81.2646 44.914 81.2646 44.914L82.9858 46.3139L89.694 33.0361L96.4022 46.3139L98.1234 44.914C98.1234 44.914 98.954 39.2015 97.4273 33.9368C95.159 26.1148 84.229 26.1148 81.9607 33.9368Z" fill="#380A17"/>
<path d="M84.9766 80.6562L98.3523 119.958L111.919 117.721L84.9766 80.6562Z" fill="#380A17"/>
<path d="M94.4208 29.5462C94.211 29.3945 93.9951 29.2539 93.7734 29.125V34.1107H94.4208V29.5462Z" fill="#EF7D6E"/>
<path d="M89.6499 73.8646H89.7931C93.7073 73.8646 96.8805 70.6523 96.8805 66.6896V53.4219H82.5625V66.6896C82.5625 70.6523 85.7357 73.8646 89.6499 73.8646Z" fill="#EBAE71"/>
<path d="M98.1255 49.7713C99.6273 49.7713 100.845 48.5388 100.845 47.0185C100.845 45.4981 99.6273 44.2656 98.1255 44.2656C96.6237 44.2656 95.4062 45.4981 95.4062 47.0185C95.4062 48.5388 96.6237 49.7713 98.1255 49.7713Z" fill="#F8C591"/>
<path d="M98.1054 44.2656L98.1041 44.2657C97.7888 44.7152 97.6016 45.2632 97.6016 45.8564C97.6016 47.3768 98.819 48.6093 100.321 48.6093L100.322 48.6092C100.637 48.1598 100.825 47.6118 100.825 47.0185C100.825 45.4981 99.6072 44.2656 98.1054 44.2656Z" fill="#F8C591"/>
<path d="M81.3442 49.7713C82.846 49.7713 84.0635 48.5388 84.0635 47.0185C84.0635 45.4981 82.846 44.2656 81.3442 44.2656C79.8424 44.2656 78.625 45.4981 78.625 47.0185C78.625 48.5388 79.8424 49.7713 81.3442 49.7713Z" fill="#F8C591"/>
<path d="M81.3442 44.2656C81.3447 44.2656 81.3451 44.2657 81.3455 44.2657C81.6609 44.7152 81.8481 45.2632 81.8481 45.8564C81.8481 47.3768 80.6306 48.6093 79.1288 48.6093C79.1284 48.6093 79.1279 48.6092 79.1275 48.6092C78.8122 48.1598 78.625 47.6118 78.625 47.0185C78.625 45.4981 79.8424 44.2656 81.3442 44.2656Z" fill="#F8C591"/>
<path d="M89.7931 30.9766H89.7215H89.6499C85.7356 30.9766 82.5625 34.1889 82.5625 38.1516V53.423C82.5625 55.7327 83.5596 57.9272 85.2921 59.4302L86.3448 60.3435C88.288 62.0293 91.155 62.0293 93.0981 60.3435L94.1509 59.4302C95.8833 57.9272 96.8805 55.7327 96.8805 53.423V38.1516C96.8805 34.189 93.7073 30.9766 89.7931 30.9766Z" fill="#F8C591"/>
<path d="M96.7568 44.0748C96.7568 46.6365 94.9632 49.8853 93.9118 49.8853C92.9484 47.4523 89.8835 47.5653 89.7215 47.573C89.5595 47.5653 86.4946 47.4523 85.5312 49.8853C84.4798 49.8853 82.6862 46.6365 82.6862 44.0748C82.6862 43.8061 82.6405 43.6564 82.5625 43.5938V53.3998C82.5625 55.7096 83.5617 57.904 85.2979 59.407L86.3529 60.3203C87.31 61.1488 88.4907 61.5657 89.6752 61.5798V61.5833C89.6906 61.5834 89.7061 61.5816 89.7215 61.5815C89.7369 61.5816 89.7524 61.5834 89.7678 61.5833V61.5798C90.9523 61.5657 92.133 61.1488 93.09 60.3203L94.145 59.407C95.8812 57.904 96.8805 55.7096 96.8805 53.3998V43.5938C96.8024 43.6564 96.7568 43.8061 96.7568 44.0748Z" fill="#380A17"/>
<path d="M89.6667 50.5392C90.57 50.5392 91.3022 50.2593 91.3022 49.9141C91.3022 49.5689 90.57 49.2891 89.6667 49.2891C88.7635 49.2891 88.0312 49.5689 88.0312 49.9141C88.0312 50.2593 88.7635 50.5392 89.6667 50.5392Z" fill="white"/>
<path d="M104.742 120.278C104.742 120.483 104.751 120.685 104.763 120.887C107.718 123.254 111.95 123.694 115.418 121.574L115.587 121.471C118.59 119.635 120.215 116.355 120.103 113.03C118.478 111.647 116.382 110.812 114.092 110.812C108.928 110.813 104.742 115.05 104.742 120.278Z" fill="#C65552"/>
<path d="M116.132 73.8594L100.836 113.045L118.889 118.049L125.038 91.5182C126.604 84.7596 123.56 77.6731 117.475 74.4715C117.029 74.2367 116.58 74.0303 116.132 73.8594Z" fill="#F8830D"/>
<path d="M106.602 98.2399L120.807 109.707L124.08 95.5873C119.572 92.0402 113.791 89.8678 110.294 88.7812L106.602 98.2399Z" fill="white"/>
<path d="M108.522 93.3594L100.836 113.049L118.889 118.053L122.981 100.395C119.03 96.7334 112.594 94.4906 108.522 93.3594Z" fill="#F8C591"/>
<path d="M63.3173 73.8594C63.3173 73.8594 57.8864 74.0556 55.1709 90.2504C52.4554 106.445 50.9297 119.184 50.9297 119.184L65.6734 130.258L63.3173 73.8594Z" fill="#F8C591"/>
<path d="M64.471 101.883L63.3003 73.8594C63.3003 73.8594 57.8693 74.0556 55.1539 90.2504C54.543 93.8936 53.9197 97.9225 53.3203 101.979L64.471 101.883Z" fill="#F8830D"/>
<path d="M50.9169 119.225L49.8813 127.448C49.1833 132.992 53.8963 137.683 59.3594 136.882L120.122 127.978C120.122 127.978 120.123 115.666 93.7782 118.089L50.9169 119.225Z" fill="#F8C591"/>
<path d="M96.7734 117.869C99.2529 121.828 105.624 128.554 120.117 127.976C120.117 127.976 120.114 116.621 96.7734 117.869Z" fill="#F8C591"/>
<path opacity="0.48" d="M51.779 127.555C51.1156 127.555 50.469 127.627 49.8451 127.761C49.3774 133.154 54.0051 137.639 59.3559 136.854L61.0451 136.607C60.8695 131.578 56.7895 127.555 51.779 127.555Z" fill="#F8C591"/>
<path d="M53.3203 101.977L64.471 101.881L64.2827 97.375L53.9502 97.7889C53.7384 99.1722 53.5279 100.572 53.3203 101.977Z" fill="white"/>
<path d="M63.734 83.9062L65.1918 118.802H63.125L63.734 83.9062Z" fill="#380A17"/>
<path d="M113.838 128.867L66.0675 139.94L65.8984 135.892L113.838 128.867Z" fill="#380A17"/>
<path d="M85.0186 32.6215C85.0186 32.6215 79.2427 31.7362 79.6974 25.4922H89.6938C91.9533 25.4922 93.7849 27.3465 93.7849 29.6339V32.6215H85.0186Z" fill="#380A17"/>
<path opacity="0.37" d="M82.6944 25.4922H79.6974C79.2428 31.7362 85.0186 32.6215 85.0186 32.6215H88.0156C88.0156 32.6215 82.2398 31.7362 82.6944 25.4922Z" fill="white"/>
<path d="M82.5693 70.3516L63.125 76.9086" stroke="#380A17" stroke-width="0.96313" stroke-miterlimit="10"/>
<path d="M98.4922 71.1172L115.098 76.5385" stroke="#380A17" stroke-width="0.96313" stroke-miterlimit="10"/>
<path d="M83.0284 52.2422C83.0284 52.2422 86.6717 56.555 88.9784 55.4882C91.285 54.4215 93.1099 52.9505 93.1099 52.9505L90.5618 60.5555L82.7891 55.0882L83.0284 52.2422Z" fill="#4F0F23"/>
<path d="M90.8339 56.3529L92.2487 53.7076C92.6615 52.9358 93.5931 52.618 94.3831 52.9796L94.4071 52.9906C94.9988 53.2614 95.3791 53.8579 95.3791 54.5153V66.9854L118.873 108.682C121.389 113.148 119.928 118.83 115.581 121.488L115.412 121.591C110.662 124.495 104.475 122.602 102.108 117.522L79.1476 68.2357C78.1294 66.0502 78.1501 63.5141 79.2035 61.3457L81.0141 57.6194L78.7588 53.6328C78.2853 52.7958 78.4659 51.7364 79.1891 51.1085L79.2152 51.0858C79.98 50.4218 81.1148 50.443 81.8548 51.1352L87.9505 56.8369C88.8374 57.6666 90.2589 57.4279 90.8339 56.3529Z" fill="#F8C591"/>
<path d="M53.758 41.081C53.758 40.0266 52.7586 39.4824 51.5264 39.4824C50.0938 39.4824 48.7614 40.3663 48.0622 41.795L42.1328 38.7676C43.8318 35.5025 47.1959 33.2578 52.5254 33.2578C57.7551 33.2578 61.6525 35.5025 61.6525 39.7541C61.6525 44.9583 56.3229 45.8761 56.3229 48.4951H49.4611C49.4611 44.3801 53.758 43.1551 53.758 41.081ZM48.495 53.8691C48.495 51.5905 50.2938 49.856 52.892 49.856C55.4899 49.856 57.2887 51.5905 57.2887 53.8691C57.2887 56.1138 55.4899 57.9509 52.892 57.9509C50.2938 57.9509 48.495 56.1138 48.495 53.8691Z" fill="#F8830D"/>
<path d="M140.671 69.2641C140.671 68.3451 139.789 67.8707 138.701 67.8707C137.436 67.8707 136.259 68.6411 135.642 69.8864L130.406 67.2477C131.906 64.4018 134.877 62.4453 139.583 62.4453C144.2 62.4453 147.642 64.4018 147.642 68.1076C147.642 72.6435 142.936 73.4435 142.936 75.7263H136.877C136.877 72.1396 140.671 71.0719 140.671 69.2641ZM136.024 80.4103C136.024 78.4242 137.612 76.9124 139.906 76.9124C142.2 76.9124 143.788 78.4242 143.788 80.4103C143.788 82.3668 142.2 83.9681 139.906 83.9681C137.612 83.9681 136.024 82.3668 136.024 80.4103Z" fill="#F8830D"/>
<path d="M125.537 11.8451C125.537 10.2771 124.031 9.46775 122.175 9.46775C120.017 9.46775 118.01 10.7822 116.956 12.907L108.023 8.40479C110.583 3.54911 115.651 0.210938 123.68 0.210938C131.559 0.210938 137.43 3.54911 137.43 9.87182C137.43 17.6111 129.401 18.976 129.401 22.8709H119.064C119.064 16.7513 125.537 14.9296 125.537 11.8451ZM117.608 30.8627C117.608 27.4741 120.318 24.8946 124.232 24.8946C128.146 24.8946 130.856 27.4741 130.856 30.8627C130.856 34.2009 128.146 36.9329 124.232 36.9329C120.318 36.9329 117.608 34.2009 117.608 30.8627Z" fill="#F8830D"/>
</svg>
