<svg width="26" height="28" viewBox="0 0 26 28" fill="none" xmlns="http://www.w3.org/2000/svg">
<g clip-path="url(#clip0_648_684)">
<path d="M20.8627 4.02038C23.4562 6.59408 24.9132 10.0847 24.9132 13.7244C24.9132 17.3641 23.4562 20.8548 20.8627 23.4285L1.30469 4.01781C3.89872 1.44475 7.41647 -0.000481716 11.0842 1.20444e-07C14.752 0.000481957 18.2693 1.44664 20.8627 4.02038Z" fill="#F8830D"/>
<path d="M20.2924 7.86406C22.8859 10.4378 24.3429 13.9284 24.3429 17.5681C24.3429 21.2078 22.8859 24.6984 20.2924 27.2721L0.734375 7.86235C3.32818 5.28896 6.84591 3.84343 10.5137 3.84375C14.1815 3.84407 17.699 5.29022 20.2924 7.86406V7.86406Z" stroke="#010101" stroke-width="1.7" stroke-linecap="round" stroke-linejoin="round"/>
</g>
<defs>
<clipPath id="clip0_648_684">
<rect width="25.0765" height="28" fill="white"/>
</clipPath>
</defs>
</svg>
