<svg width="216" height="128" viewBox="0 0 216 128" fill="none" xmlns="http://www.w3.org/2000/svg">
<g clip-path="url(#clip0_469_1037)">
<path d="M26.679 128C26.679 128 6.74045 122.349 15.8832 96.4714C25.0259 70.5941 42.4177 81.7575 37.3923 59.1263C30.7654 29.2834 58.8275 8.98901 89.6784 17.2549C120.529 25.5208 112.261 34.7077 148.516 25.4557C192.714 14.1766 196.443 61.1028 186.192 76.6902C175.941 92.2775 214.174 94.5251 198.382 128H26.679Z" fill="white"/>
<path d="M107.781 127.202H45.7524C44.4049 127.202 43.3125 126.11 43.3125 124.763V42.1651C43.3125 40.7825 44.4615 39.6764 45.8439 39.7283L110.22 42.6875V124.763C110.22 126.11 109.128 127.202 107.781 127.202Z" fill="#F99746"/>
<path d="M112.659 127.202H174.687C176.034 127.202 177.127 126.11 177.127 124.763V42.1651C177.127 40.7825 175.978 39.6764 174.595 39.7283L110.219 42.6875V124.763C110.219 126.11 111.311 127.202 112.659 127.202Z" fill="#F99746"/>
<path d="M48.0078 43.3125L45.9967 44.941C45.7125 45.1712 45.5469 45.521 45.5469 45.8911V125.969C45.5469 126.639 46.0795 127.182 46.7365 127.182H51.7438C52.4292 127.182 52.9728 126.593 52.9312 125.895L48.0078 43.3125Z" fill="#AEC3FF"/>
<path d="M172.551 43.3125L174.562 44.941C174.846 45.1712 175.012 45.521 175.012 45.8911V125.969C175.012 126.639 174.479 127.182 173.822 127.182H168.815C168.129 127.182 167.586 126.593 167.627 125.895L172.551 43.3125Z" fill="#AEC3FF"/>
<path d="M107.922 127.202H49.5612C48.2934 127.202 47.2656 126.147 47.2656 124.846V45.0435C47.2656 43.7077 48.3467 42.6391 49.6473 42.6892L100.588 44.6514C105.964 44.8584 110.218 49.391 110.218 54.9117V124.846C110.218 126.147 109.19 127.202 107.922 127.202Z" fill="#FFF7F0"/>
<path d="M112.326 127.201H171.064C172.227 127.201 173.171 126.233 173.171 125.039V44.8419C173.171 43.616 172.179 42.6353 170.985 42.6812L118.767 44.6927C113.995 44.8765 110.219 48.9001 110.219 53.8011V125.039C110.219 126.233 111.162 127.201 112.326 127.201Z" fill="#FFF7F0"/>
<path d="M110.379 58.5703H110.062V110.388H110.379V58.5703Z" fill="#F9DEC7"/>
<path d="M140.76 53.4013C140.877 53.537 140.891 53.6877 140.832 53.8483C140.832 53.8489 140.831 53.8498 140.831 53.8505C140.72 54.1472 140.361 54.4771 139.944 54.806C139.891 54.8482 139.843 54.8867 139.802 54.9223C139.791 54.9316 139.78 54.941 139.77 54.9504C139.762 54.9576 139.754 54.9652 139.746 54.9721C139.357 55.3246 139.502 55.4071 138.802 56.123C138.004 56.9387 137.459 56.9497 137.304 56.8738C137.173 56.8091 137.443 56.3753 137.742 55.8878C137.756 55.8643 137.771 55.8405 137.785 55.8167C137.825 55.7519 137.865 55.6861 137.904 55.6209C138.255 55.0341 138.168 54.757 138.092 53.8795C138.03 53.1664 137.008 49.8905 137.008 49.8905L138.527 49.6406C138.527 49.6406 138.966 52.2466 139.467 52.6509C139.735 52.8665 140.036 52.8713 140.294 53.0315C140.312 53.0426 140.33 53.054 140.347 53.0658C140.494 53.164 140.643 53.2653 140.76 53.4013Z" fill="#FFB27D"/>
<path d="M140.756 53.4011C140.873 53.5368 140.887 53.6875 140.827 53.8481C140.827 53.8487 140.827 53.8496 140.826 53.8503C140.692 54.1466 140.341 54.4748 139.938 54.8027C139.885 54.8457 139.839 54.8852 139.798 54.9221C139.787 54.9314 139.776 54.9408 139.766 54.9502C139.757 54.9574 139.749 54.965 139.741 54.9719C139.352 55.3244 139.497 55.4069 138.797 56.1228C137.999 56.9385 137.454 56.9495 137.299 56.8736C137.169 56.8088 137.438 56.3751 137.737 55.8876C137.892 55.8324 138.61 55.5475 139.156 54.8607C139.638 54.2575 139.961 53.4804 140.289 53.0312C140.307 53.0424 140.325 53.0538 140.343 53.0656C140.489 53.1638 140.638 53.2651 140.756 53.4011Z" fill="#233862"/>
<path d="M128.528 52.3715C128.431 52.8378 127.764 52.7552 127.019 52.5682C126.274 52.3813 126.45 52.5985 125.389 52.4739C124.328 52.3493 124.009 51.9524 123.978 51.7948C123.95 51.655 124.475 51.6094 125.038 51.5487C125.109 51.5413 125.18 51.5331 125.251 51.5249C125.887 51.4499 126.355 51.0445 126.935 50.713C127.484 50.3989 128.309 49.1094 128.309 49.1094L129.764 49.2346C129.764 49.2346 128.992 50.3861 128.693 50.887C128.517 51.1816 128.523 51.5728 128.543 51.8751C128.553 52.0394 128.562 52.2073 128.528 52.3715Z" fill="#FFB27D"/>
<path d="M127.019 52.5663C126.274 52.3794 126.45 52.5967 125.389 52.472C124.328 52.3474 124.009 51.9505 123.978 51.7929C123.95 51.6531 124.475 51.6075 125.038 51.5469L125.043 51.5577C125.043 51.5577 125.677 52.0122 126.56 52.0395C127.281 52.062 128.045 51.8617 128.543 51.8732C128.553 52.0375 128.562 52.2054 128.528 52.3696C128.431 52.8359 127.764 52.7533 127.019 52.5663Z" fill="#233862"/>
<path d="M139.112 51.0579C139.112 51.0579 139.01 51.1236 138.859 51.2069C138.679 51.3057 138.428 51.4293 138.196 51.4944C137.948 51.5636 137.694 51.5813 137.513 51.5831C137.355 51.5843 137.251 51.5737 137.251 51.5737L135.507 46.7936L135.192 45.9295L134.857 45.0098L134.74 44.6899L134.172 43.1331C134.172 43.1331 135.56 39.5863 136.975 41.2772C137.147 41.483 137.309 41.7829 137.46 42.1508C137.563 42.4015 137.661 42.6842 137.755 42.9906C137.825 43.2207 137.892 43.4638 137.958 43.7169C138.134 44.4054 138.29 45.1659 138.426 45.9295C138.882 48.4792 139.112 51.0579 139.112 51.0579Z" fill="#52202E"/>
<path d="M148.486 43.5265L141.415 43.823C139.866 43.5037 138.558 42.6866 137.67 42.2484C137.597 42.2117 137.528 42.1774 137.463 42.1461C137.16 41.9958 136.951 41.8935 136.866 41.8758C136.327 41.764 136.051 42.6376 135.595 43.7122C135.502 43.931 135.402 44.1576 135.291 44.3864C135.211 44.5497 135.062 44.7608 134.86 45.0051C134.823 45.05 134.784 45.0962 134.743 45.1435C133.178 46.9651 129.15 50.3576 129.15 50.3576C129.15 50.3576 129.102 50.3576 129.026 50.3559C128.779 50.3512 128.23 50.3287 127.967 50.2281C127.816 50.1702 127.704 50.1057 127.624 50.0507C127.508 49.9685 127.461 49.9046 127.461 49.9046C127.461 49.9046 132.282 40.5101 134.777 37.951V37.9504C134.814 37.9131 134.849 37.8776 134.885 37.8439C135.157 37.5784 135.399 37.4032 135.6 37.34C136.451 37.0733 141.952 37.3707 141.952 37.3707L142.128 37.0863L142.422 37.0655L142.472 37.062L142.717 37.0443H142.718L143.056 37.0206L143.558 36.9851L144.918 36.8887L145.136 36.8733L147.65 36.6953C147.65 36.6953 147.764 36.9532 147.919 37.3802C147.98 37.547 148.046 37.7392 148.114 37.9521C148.563 39.3509 149.144 41.8675 148.486 43.5265Z" fill="#380A17"/>
<path d="M150.093 27.3578C148.837 26.2891 147.941 26.0247 147.816 24.3326C147.749 23.4141 146.511 20.3758 144.419 20.6414C144.243 20.6639 144.067 20.6792 143.891 20.6721C143.647 20.6627 143.243 20.6952 142.828 20.9383C141.82 21.5262 139.965 26.9628 141.215 28.8731C141.44 29.2161 141.764 29.4456 142.213 29.5124C142.266 29.542 142.319 29.5722 142.374 29.6029H142.375C142.6 29.7289 142.847 29.8673 143.109 30.0152C144.588 30.8462 146.524 31.9451 147.515 32.5004H147.516C147.576 32.5341 147.632 32.5661 147.685 32.5957C147.8 32.6595 147.898 32.7133 147.974 32.7553C148.09 32.8186 148.157 32.8541 148.163 32.8541C148.163 32.8541 148.418 32.9523 148.776 33.0262C149.275 33.1297 149.973 33.1877 150.46 32.8707C150.652 32.7453 150.833 32.5903 150.993 32.4105C151.999 31.2885 152.264 29.2043 150.093 27.3578Z" fill="#233862"/>
<path d="M143.867 28.606C143.858 28.6115 144.832 28.9504 145.486 28.667C146.102 28.401 146.574 27.3979 146.565 27.3973C146.285 27.3824 145.981 27.137 145.756 25.5391L145.637 25.5807L143.633 26.2835C143.633 26.2835 143.773 26.9238 143.863 27.5331C143.938 28.0447 143.977 28.5345 143.867 28.606Z" fill="#FFB27D"/>
<path d="M143.633 26.281C143.633 26.281 143.718 26.7297 143.837 27.3709C144.986 27.1731 145.471 26.1957 145.637 25.5781L143.633 26.281Z" fill="#ED975D"/>
<path d="M143.334 26.9131C143.334 26.9131 146.071 26.5665 145.829 24.8707C145.586 23.1749 145.776 21.9881 144.018 22.1377C142.26 22.2873 142.013 22.9826 141.956 23.5683C141.899 24.1539 142.616 26.9595 143.334 26.9131Z" fill="#FFB27D"/>
<path d="M142.062 22.6438C142.062 22.6438 143.803 24.1599 144.993 24.2895C146.182 24.4191 146.636 24.0413 146.636 24.0413C146.636 24.0413 145.938 23.4555 145.522 22.5151C145.4 22.2379 145.138 22.0464 144.836 22.0183C143.986 21.9391 142.374 21.8944 142.062 22.6438Z" fill="#233862"/>
<path d="M143.154 22.5181C143.154 22.5181 142.564 23.0784 142.377 23.4957C142.196 23.8985 142.136 24.8643 142.275 25.249C142.275 25.249 141.375 23.4741 141.898 22.6185C142.452 21.7113 143.154 22.5181 143.154 22.5181Z" fill="#233862"/>
<path d="M141.539 32.6017C141.583 38.1199 141.531 36.9665 142.133 37.4944C142.278 37.6214 142.688 37.6995 143.227 37.7388C144.924 37.863 147.91 37.6053 148.025 37.2934C148.425 36.2143 148.151 35.8762 148.489 34.2221C148.524 34.0462 148.568 33.8559 148.619 33.6485C148.899 32.5128 149.167 32.1277 148.214 30.2932C147.349 28.6315 146.448 27.2815 146.366 27.3294C144.044 28.681 143.866 27.5299 143.866 27.5299C143.866 27.5299 141.518 29.91 141.539 32.6017Z" fill="#AEC3FF"/>
<path d="M139.113 51.0517C139.113 51.0517 139.011 51.1174 138.86 51.2007C138.68 51.2995 138.428 51.4231 138.196 51.4882C137.948 51.5574 137.695 51.5751 137.514 51.5769C137.356 51.5781 137.252 51.5674 137.252 51.5674L135.508 46.7874L136.019 45.9233L137.327 43.7107L137.756 42.9844C137.826 43.2145 137.893 43.4575 137.959 43.7107C138.135 44.3991 138.291 45.1597 138.427 45.9233C138.882 48.473 139.113 51.0517 139.113 51.0517Z" fill="#380A17"/>
<path d="M143.86 27.5312C143.86 27.5312 141.478 27.9165 141.192 28.9355C140.905 29.9544 139.219 35.9444 139.219 35.9444C139.219 35.9444 140.427 36.1695 140.989 35.6165C141.552 35.0636 142.97 30.4639 142.97 30.4639L143.86 27.5312Z" fill="#AEC3FF"/>
<path d="M143.227 37.7422C144.923 37.8664 147.909 37.6087 148.025 37.2968C148.424 36.2177 148.15 35.8796 148.488 34.2255L147.686 31.9219C147.686 31.9219 147.803 34.4817 147.041 35.1494C146.28 35.8172 143.932 36.4268 143.56 36.9866C143.381 37.2552 143.262 37.5251 143.227 37.7422Z" fill="#95B3EF"/>
<path d="M145.173 36.6767C145.173 36.6767 143.501 36.2933 143.23 36.4395C142.958 36.5858 142.294 37.1206 142.21 37.3077C142.126 37.4948 142.813 37.1694 143.036 37.1115C143.18 37.074 143.559 37.208 143.746 37.2718C144.535 37.5399 145.02 37.4083 145.02 37.4083L145.173 36.6767Z" fill="#FFB27D"/>
<path d="M146.368 27.3281C146.368 27.3281 148.615 27.482 149.386 28.5696C150.471 30.1006 152.599 36.6079 151.347 37.465C149.937 38.4301 144.96 37.6751 144.96 37.6751C144.96 37.6751 144.8 36.9015 145.033 36.5295C145.266 36.1575 149.019 35.5803 149.193 35.409C149.368 35.2378 147.055 32.0311 147.058 31.5138C147.062 30.9964 146.368 27.3281 146.368 27.3281Z" fill="#AEC3FF"/>
<path d="M143.151 36.9062C143.151 36.9062 142.797 37.3549 142.682 37.408C142.566 37.461 142.492 37.447 142.492 37.447L142.732 37.0245L143.151 36.9062Z" fill="#FFB27D"/>
<path d="M143.235 36.4453L142.211 36.9319C142.211 36.9319 142.254 37.003 142.38 36.9982C142.505 36.9933 142.823 36.8801 142.823 36.8801L143.235 36.4453Z" fill="#FFB27D"/>
<path d="M142.9 37.8877L134.83 37.8309L132.445 31.7969L140.503 31.8536L142.9 37.8877Z" fill="#F99746"/>
<path d="M134.734 37.5938L145.391 37.6687L145.389 37.9031L134.827 37.8288L134.734 37.5938Z" fill="#ED7D2B"/>
<path d="M136.89 34.8342C136.831 34.6222 136.954 34.4516 137.167 34.4531C137.379 34.4546 137.599 34.6276 137.658 34.8396C137.718 35.0515 137.594 35.2221 137.382 35.2206C137.169 35.2191 136.949 35.0461 136.89 34.8342Z" fill="white"/>
<path d="M55.5814 127.15H98.6581C101.654 127.15 104.083 124.729 104.083 121.742V121.517C104.083 118.53 101.654 116.109 98.6581 116.109H55.5814C52.5852 116.109 50.1562 118.53 50.1562 121.517V121.742C50.1562 124.729 52.5852 127.15 55.5814 127.15Z" fill="#2B478B"/>
<path d="M79.9923 120.163L79.9536 122.576C79.9194 124.71 81.6279 126.468 83.7692 126.502L112.399 126.958L112.407 126.478C110.801 125.645 109.716 123.959 109.747 122.032L109.761 121.184C109.792 119.257 110.929 117.607 112.562 116.826L112.562 116.816L83.9318 116.36C81.7905 116.326 80.0266 118.029 79.9923 120.163Z" fill="#F9DEC7"/>
<path d="M113.155 127.149H82.9927C81.0473 127.149 79.5234 124.723 79.5234 121.625C79.5234 118.528 81.0473 116.102 82.9927 116.102H113.155C113.405 116.102 113.608 116.304 113.608 116.554C113.608 116.803 113.405 117.006 113.155 117.006H82.9927C81.6038 117.006 80.4304 119.121 80.4304 121.625C80.4304 124.129 81.6038 126.245 82.9927 126.245H113.155C113.405 126.245 113.608 126.447 113.608 126.697C113.608 126.947 113.405 127.149 113.155 127.149Z" fill="#1B3770"/>
<path d="M110.274 119.039H84.3359V119.11H110.274V119.039Z" fill="#E8C2A3"/>
<path d="M109.902 120.055H100.055V120.12H109.902V120.055Z" fill="#E8C2A3"/>
<path d="M109.904 123.477H92.7266V123.542H109.904V123.477Z" fill="#E8C2A3"/>
<path d="M87.5596 119.078C87.5596 119.078 88.8906 119.633 89.0488 121.507C89.2069 123.381 89.0488 124.379 89.0488 124.379L87.4421 123.617L85.8201 124.379V121.45C85.8201 121.45 85.7608 119.078 83.5469 119.078H87.5596Z" fill="#F78248"/>
<path d="M52.1295 116.115H85.2726C87.234 116.115 88.824 114.53 88.824 112.575V111.344C88.824 109.389 87.234 107.805 85.2726 107.805H52.1295C50.1681 107.805 48.5781 109.389 48.5781 111.344V112.575C48.5781 114.53 50.1681 116.115 52.1295 116.115Z" fill="#699DEE"/>
<path d="M70.8495 110.851L70.8207 112.665C70.7951 114.269 72.0702 115.591 73.6683 115.616L95.0348 115.959L95.0406 115.598C93.8419 114.972 93.0325 113.705 93.0555 112.256L93.0657 111.619C93.0888 110.17 93.938 108.93 95.156 108.343L95.1561 108.335L73.7896 107.993C72.1915 107.967 70.8751 109.247 70.8495 110.851Z" fill="#F9DEC7"/>
<path d="M95.5913 116.101H73.0814C71.6295 116.101 70.4922 114.277 70.4922 111.949C70.4922 109.621 71.6295 107.797 73.0814 107.797H95.5913C95.7782 107.797 95.9297 107.949 95.9297 108.137C95.9297 108.324 95.7782 108.476 95.5913 108.476H73.0814C72.0448 108.476 71.1691 110.067 71.1691 111.949C71.1691 113.831 72.0448 115.422 73.0814 115.422H95.5913C95.7782 115.422 95.9297 115.574 95.9297 115.761C95.9297 115.949 95.7782 116.101 95.5913 116.101Z" fill="#4B87DD"/>
<path d="M93.441 110.008H77.1875V110.057H93.441V110.008Z" fill="#E8C2A3"/>
<path d="M93.169 110.766H85.8203V110.815H93.169V110.766Z" fill="#E8C2A3"/>
<path d="M93.1712 113.344H80.3516V113.393H93.1712V113.344Z" fill="#E8C2A3"/>
<path d="M165.723 100.912C165.723 100.912 166.137 102.183 166.102 102.474C166.066 102.764 165.806 103.758 165.62 104.012C165.435 104.266 165.343 102.976 165.196 102.782C165.049 102.588 165.166 103.268 165.062 103.331C164.959 103.394 164.743 102.831 164.65 102.632C164.557 102.434 164.877 101.701 164.878 101.191C164.879 100.68 165.723 100.912 165.723 100.912Z" fill="#FFB27D"/>
<path d="M155.982 90.8108C155.868 89.353 157.456 88.3536 158.711 89.1117C158.736 89.1273 158.762 89.1432 158.787 89.1593C160.665 90.3641 164.717 95.9861 164.996 96.5493C165.275 97.1125 166.098 101.593 166.098 101.593C166.098 101.593 165.081 101.964 164.605 101.579C164.605 101.579 162.956 97.33 162.712 97.1175C162.468 96.9051 156.113 93.3513 156.059 92.0189C156.045 91.6667 156.016 91.2431 155.982 90.8108Z" fill="#380A17"/>
<path d="M139.627 91.2311L140.18 92.8125L148.161 90.0429L147.608 88.4615L139.627 91.2311Z" fill="#F99746"/>
<path d="M138.047 92.6612L140.179 92.808L139.626 91.2266L138.047 92.6612Z" fill="#F9DDBF"/>
<path d="M148.72 88.662L148.895 89.162C149.003 89.4695 148.839 89.8056 148.531 89.9127L148.162 90.0408L147.609 88.4594L148.011 88.3201C148.302 88.2192 148.619 88.3723 148.72 88.662Z" fill="#F9DDBF"/>
<path d="M167.329 123.709C167.329 123.709 168.086 124.398 167.939 124.887C167.791 125.377 167.108 125.703 167.015 126.301C166.923 126.899 166.553 127.225 166.221 127.225C165.889 127.225 164.636 127.225 164.636 127.225C164.636 127.225 164.391 126.804 164.982 126.678C165.573 126.551 165.796 125.848 165.759 125.195C165.722 124.543 165.815 123.673 165.815 123.673L167.071 123.383L167.329 123.709Z" fill="#1F4075"/>
<path d="M158.037 125.489C158.037 125.489 158.173 127.057 157.84 127.22L153.586 127.211C153.586 127.211 153.586 126.722 154.269 126.613C154.953 126.504 156.153 126.106 156.356 125.218C156.559 124.329 158.037 125.489 158.037 125.489Z" fill="#1F4075"/>
<path d="M154.445 103.349C154.445 103.349 154.67 106.097 154.933 109.4C155.292 113.886 155.723 119.397 155.766 120.441C155.839 122.254 156.135 125.154 156.135 125.154C156.135 125.154 156.837 125.843 158.241 125.552C158.241 125.552 159.492 121.413 159.849 117.033C159.854 116.961 159.86 116.889 159.866 116.817C160.198 112.358 160.715 102.969 160.715 102.969L154.445 103.349Z" fill="#F99746"/>
<path d="M154.445 103.349C154.445 103.349 154.67 106.097 154.933 109.4L159.849 117.033C159.854 116.961 159.86 116.889 159.866 116.817C160.198 112.358 160.715 102.969 160.715 102.969L154.445 103.349Z" fill="#EF7E29"/>
<path d="M155.469 103.677C155.469 103.677 159.513 113.628 162.173 118.304C164.832 122.98 165.663 124.285 165.663 124.285C165.663 124.285 167.187 123.687 167.325 123.279C167.325 123.279 166.308 114.252 164.527 112.051C163.521 110.807 162.339 107.076 162.283 105.771C162.228 104.466 161.923 101.883 161.923 101.883L155.469 103.677Z" fill="#F99746"/>
<path d="M158.953 88.7537C158.953 88.7537 156.243 90.1237 154.656 89.6666C154.656 89.6666 155.035 89.1708 155.707 88.7941C155.646 88.4796 155.598 88.2066 155.569 87.9748C155.492 87.4403 155.486 87.1367 155.486 87.1367L156.525 86.2882L157.51 85.4766C157.476 87.7049 158.953 88.7537 158.953 88.7537Z" fill="#FFB27D"/>
<path d="M161.644 102.674C160.55 103.334 159.514 103.83 158.302 104.109C156.872 104.447 155.115 104.347 154.527 104.436C154.467 104.445 154.41 104.429 154.356 104.393C154.31 104.37 154.05 102.631 153.79 100.437C153.779 100.349 153.767 100.26 153.762 100.17L153.758 100.141C153.657 99.2832 153.568 98.3822 153.491 97.4791C153.429 96.7764 153.377 96.0813 153.341 95.4285C153.296 94.6118 153.278 93.8615 153.296 93.2443C153.304 92.9623 153.321 92.7086 153.346 92.4885C153.501 91.2068 154.114 90.2911 154.692 89.6092L155.171 89.0659C155.727 89.1009 156.294 88.9963 156.829 88.6442C157.414 88.2602 158.048 87.8051 158.167 87.8742C159.064 88.3633 159.792 89.6728 160.313 91.3465C160.612 92.3099 160.842 93.4031 160.989 94.561C161.036 94.9203 161.076 95.2888 161.107 95.6558C161.113 95.7237 161.118 95.7916 161.123 95.8584C161.194 96.8618 161.309 97.8022 161.436 98.6418C161.607 99.7745 161.803 100.723 161.94 101.391C162.01 101.731 162.062 101.994 162.094 102.183C162.122 102.347 161.792 102.582 161.644 102.674Z" fill="#380A17"/>
<path d="M157.544 86.3284C157.544 86.3284 156.877 87.5984 155.568 87.9756C155.49 87.4412 155.484 87.1375 155.484 87.1375L156.523 86.2891L157.544 86.3284Z" fill="#ED985F"/>
<path d="M155.001 87.1108C155.001 87.1108 157.62 87.4847 157.833 85.8806C158.046 84.2764 158.528 83.2443 156.865 82.9377C155.202 82.6312 154.795 83.2018 154.592 83.7203C154.388 84.2388 154.326 86.9721 155.001 87.1108Z" fill="#FFB27D"/>
<path d="M158.72 82.7086C158.743 82.681 158.797 82.6581 158.919 82.6491C158.919 82.6491 158.82 82.5904 158.69 82.5898C158.662 82.4217 158.566 82.1251 158.273 82.0584C158.273 82.0584 158.431 82.1384 158.455 82.3172C158.111 81.9787 157.384 81.7418 155.387 81.9387C152.755 82.1983 153.657 83.8634 154.002 84.0573C154.348 84.2511 155.196 83.6842 155.833 83.722C156.469 83.7597 156.609 84.6732 156.827 84.7946C157.045 84.916 156.956 84.6954 157.245 84.5582C157.534 84.4209 157.572 84.9024 157.494 85.2175C157.415 85.5326 157.825 85.938 157.825 85.938C157.825 85.938 157.825 85.938 158.221 85.495C158.618 85.052 158.963 83.2019 158.771 82.8128C158.754 82.7784 158.737 82.7435 158.72 82.7086Z" fill="#2C3A64"/>
<path d="M157.89 93.3851C157.89 93.3851 155.682 95.0594 153.341 95.4264C153.296 94.6097 153.278 93.8594 153.296 93.2422L157.89 93.3851Z" fill="#52202E"/>
<path d="M144.332 91.2227C144.297 91.1854 143.847 89.6853 143.068 89.7948C142.56 89.8661 141.73 90.1592 141.951 90.8263C142.037 91.0886 143.585 91.992 143.585 91.992L144.332 91.2227Z" fill="#380A17"/>
<path d="M158.161 90.1501C159.42 90.9007 159.318 92.7704 157.972 93.3509C157.944 93.3629 157.916 93.3744 157.888 93.3856C155.816 94.2143 149.648 94.3061 148.248 94.1534C146.73 93.9877 143.484 92.1291 143.484 92.1291C143.484 92.1291 143.77 91.0877 144.36 90.9239C144.36 90.9239 147.789 91.8927 149.106 91.9678C149.94 92.0155 156.007 88.7857 157.128 89.513C157.425 89.7053 157.788 89.9274 158.161 90.1501Z" fill="#380A17"/>
<path d="M128.008 119.868L113.977 120.555V106.57L128.008 105.883V119.868Z" fill="#F9DEC7"/>
<path d="M115.031 118.908L119.176 111.258L122.223 115.251L123.745 113.519L126.969 118.324L115.031 118.908Z" fill="#FFF7F0"/>
<path d="M121.148 110.092C121.148 109.501 121.629 108.999 122.221 108.97C122.813 108.941 123.293 109.396 123.293 109.987C123.293 110.577 122.813 111.079 122.221 111.108C121.629 111.137 121.148 110.682 121.148 110.092Z" fill="#FFF7F0"/>
<path d="M169.706 66.3902L149.492 67.3804V47.2324L169.706 46.2422V66.3902Z" fill="#F9DEC7"/>
<path d="M151.008 65.0062L156.979 53.9844L161.369 59.738L163.561 57.2422L168.207 64.1637L151.008 65.0062Z" fill="#FFF7F0"/>
<path d="M159.82 52.3052C159.82 51.4546 160.512 50.7312 161.365 50.6894C162.219 50.6476 162.911 51.3032 162.911 52.1538C162.911 53.0043 162.219 53.7277 161.365 53.7695C160.512 53.8113 159.82 53.1557 159.82 52.3052Z" fill="#FFF7F0"/>
<path d="M133.743 81.5929L113.977 82.5611V81.4136L133.743 80.4453V81.5929Z" fill="#F99746"/>
<path d="M124.574 84.3628L113.977 84.882V84.3081L124.574 83.7891V84.3628Z" fill="#F9DEC7"/>
<path d="M121.468 86.4253L113.977 86.7923V86.2185L121.468 85.8516V86.4253Z" fill="#F9DEC7"/>
<path d="M130.413 85.9878L122.922 86.3548V85.781L130.413 85.4141V85.9878Z" fill="#F9DEC7"/>
<path d="M140.604 85.4879L131.477 85.935V85.3612L140.604 84.9141V85.4879Z" fill="#F9DEC7"/>
<path d="M120.48 88.3472L113.977 88.6658V88.092L120.48 87.7734V88.3472Z" fill="#F9DEC7"/>
<path d="M128.246 87.9644L121.742 88.283V87.7092L128.246 87.3906V87.9644Z" fill="#F9DEC7"/>
<path d="M137.096 87.5269L129.172 87.9151V87.3413L137.096 86.9531V87.5269Z" fill="#F9DEC7"/>
<path d="M133.743 68.6397L113.977 69.608V68.4605L133.743 67.4922V68.6397Z" fill="#F99746"/>
<path d="M124.574 71.4097L113.977 71.9288V71.355L124.574 70.8359V71.4097Z" fill="#F9DEC7"/>
<path d="M137.23 70.7926L126.633 71.3117V70.7379L137.23 70.2188V70.7926Z" fill="#F9DEC7"/>
<path d="M121.468 73.4722L113.977 73.8392V73.2654L121.468 72.8984V73.4722Z" fill="#F9DEC7"/>
<path d="M130.413 73.0347L122.922 73.4017V72.8279L130.413 72.4609V73.0347Z" fill="#F9DEC7"/>
<path d="M140.604 72.5348L131.477 72.9819V72.4081L140.604 71.9609V72.5348Z" fill="#F9DEC7"/>
<path d="M120.48 75.3941L113.977 75.7127V75.1389L120.48 74.8203V75.3941Z" fill="#F9DEC7"/>
<path d="M128.246 75.0113L121.742 75.3299V74.7561L128.246 74.4375V75.0113Z" fill="#F9DEC7"/>
<path d="M137.096 74.5738L129.172 74.9619V74.3882L137.096 74V74.5738Z" fill="#F9DEC7"/>
<path d="M163.28 70.237L149.375 70.9181V70.1108L163.28 69.4297V70.237Z" fill="#F99746"/>
<path d="M156.83 72.1849L149.375 72.55V72.1464L156.83 71.7812V72.1849Z" fill="#F9DEC7"/>
<path d="M165.728 71.7473L158.273 72.1125V71.7089L165.728 71.3438V71.7473Z" fill="#F9DEC7"/>
<path d="M154.645 73.638L149.375 73.8961V73.4925L154.645 73.2344V73.638Z" fill="#F9DEC7"/>
<path d="M160.934 73.3255L155.664 73.5836V73.1801L160.934 72.9219V73.3255Z" fill="#F9DEC7"/>
<path d="M168.108 72.974L161.688 73.2885V72.8849L168.108 72.5703V72.974Z" fill="#F9DEC7"/>
<path d="M153.95 74.9896L149.375 75.2137V74.8101L153.95 74.5859V74.9896Z" fill="#F9DEC7"/>
<path d="M159.411 74.7161L154.836 74.9403V74.5366L159.411 74.3125V74.7161Z" fill="#F9DEC7"/>
<path d="M165.637 74.4115L160.062 74.6845V74.2809L165.637 74.0078V74.4115Z" fill="#F9DEC7"/>
<path d="M133.743 95.1007L113.977 96.069V94.9214L133.743 93.9531V95.1007Z" fill="#F99746"/>
<path d="M124.574 97.8707L113.977 98.3898V97.816L124.574 97.2969V97.8707Z" fill="#F9DEC7"/>
<path d="M137.23 97.2535L126.633 97.7726V97.1988L137.23 96.6797V97.2535Z" fill="#F9DEC7"/>
<path d="M121.468 99.9332L113.977 100.3V99.7263L121.468 99.3594V99.9332Z" fill="#F9DEC7"/>
<path d="M130.413 99.4956L122.922 99.8626V99.2888L130.413 98.9219V99.4956Z" fill="#F9DEC7"/>
<path d="M140.604 98.9957L131.477 99.4428V98.869L140.604 98.4219V98.9957Z" fill="#F9DEC7"/>
<path d="M120.48 101.855L113.977 102.174V101.6L120.48 101.281V101.855Z" fill="#F9DEC7"/>
<path d="M128.246 101.472L121.742 101.791V101.217L128.246 100.898V101.472Z" fill="#F9DEC7"/>
<path d="M137.096 101.035L129.172 101.423V100.849L137.096 100.461V101.035Z" fill="#F9DEC7"/>
<path d="M146.893 113.093L131.625 113.841V112.693L146.893 111.945V113.093Z" fill="#F99746"/>
<path d="M139.81 115.761L131.625 116.162V115.588L139.81 115.188V115.761Z" fill="#F9DEC7"/>
<path d="M149.583 115.285L141.398 115.686V115.112L149.583 114.711V115.285Z" fill="#F9DEC7"/>
<path d="M137.411 117.793L131.625 118.076V117.502L137.411 117.219V117.793Z" fill="#F9DEC7"/>
<path d="M144.317 117.449L138.531 117.732V117.158L144.317 116.875V117.449Z" fill="#F9DEC7"/>
<path d="M152.199 117.066L145.148 117.411V116.838L152.199 116.492V117.066Z" fill="#F9DEC7"/>
<path d="M136.648 119.699L131.625 119.945V119.371L136.648 119.125V119.699Z" fill="#F9DEC7"/>
<path d="M142.648 119.402L137.625 119.648V119.074L142.648 118.828V119.402Z" fill="#F9DEC7"/>
<path d="M149.48 119.066L143.359 119.366V118.792L149.48 118.492V119.066Z" fill="#F9DEC7"/>
<path d="M102.973 73.2759L80.9453 72.4788V50.5234L102.973 51.3205V73.2759Z" fill="#F9DEC7"/>
<path d="M82.6016 70.0345L89.1081 58.5781L93.8921 65.2553L96.281 62.739L101.343 70.7127L82.6016 70.0345Z" fill="#FFF7F0"/>
<path d="M92.2109 57.009C92.2109 56.0822 92.9648 55.3581 93.8947 55.3918C94.8246 55.4254 95.5784 56.204 95.5784 57.1309C95.5784 58.0577 94.8246 58.7818 93.8947 58.7482C92.9648 58.7145 92.2109 57.9359 92.2109 57.009Z" fill="#FFF7F0"/>
<path d="M100.345 81.9332L80.5781 81.2179V80.0703L100.345 80.7856V81.9332Z" fill="#F99746"/>
<path d="M91.1751 83.926L80.5781 83.5425V82.9688L91.1751 83.3522V83.926Z" fill="#F9DEC7"/>
<path d="M88.0691 85.7199L80.5781 85.4488V84.875L88.0691 85.1461V85.7199Z" fill="#F9DEC7"/>
<path d="M97.0144 86.048L89.5234 85.7769V85.2031L97.0144 85.4741V86.048Z" fill="#F9DEC7"/>
<path d="M107.206 86.4119L98.0781 86.0816V85.5078L107.206 85.8381V86.4119Z" fill="#F9DEC7"/>
<path d="M87.0815 87.5591L80.5781 87.3238V86.75L87.0815 86.9854V87.5591Z" fill="#F9DEC7"/>
<path d="M94.8471 87.8326L88.3438 87.5973V87.0234L94.8471 87.2588V87.8326Z" fill="#F9DEC7"/>
<path d="M103.698 88.1574L95.7734 87.8707V87.2969L103.698 87.5836V88.1574Z" fill="#F9DEC7"/>
<path d="M100.345 95.441L80.5781 94.7257V93.5781L100.345 94.2934V95.441Z" fill="#F99746"/>
<path d="M91.1751 97.4338L80.5781 97.0503V96.4766L91.1751 96.86V97.4338Z" fill="#F9DEC7"/>
<path d="M103.831 97.8869L93.2344 97.5035V96.9297L103.831 97.3131V97.8869Z" fill="#F9DEC7"/>
<path d="M88.0691 99.2277L80.5781 98.9566V98.3828L88.0691 98.6538V99.2277Z" fill="#F9DEC7"/>
<path d="M97.0144 99.5558L89.5234 99.2847V98.7109L97.0144 98.982V99.5558Z" fill="#F9DEC7"/>
<path d="M107.206 99.9197L98.0781 99.5894V99.0156L107.206 99.3459V99.9197Z" fill="#F9DEC7"/>
<path d="M87.0815 101.067L80.5781 100.832V100.258L87.0815 100.493V101.067Z" fill="#F9DEC7"/>
<path d="M94.8471 101.34L88.3438 101.105V100.531L94.8471 100.767V101.34Z" fill="#F9DEC7"/>
<path d="M103.698 101.665L95.7734 101.378V100.805L103.698 101.091V101.665Z" fill="#F9DEC7"/>
<path d="M72.2588 48.3941L52.4922 47.6788V46.5312L72.2588 47.2465V48.3941Z" fill="#F99746"/>
<path d="M63.0891 50.3869L52.4922 50.0035V49.4297L63.0891 49.8131V50.3869Z" fill="#F9DEC7"/>
<path d="M75.7454 50.8401L65.1484 50.4566V49.8828L75.7454 50.2663V50.8401Z" fill="#F9DEC7"/>
<path d="M59.9832 52.1808L52.4922 51.9097V51.3359L59.9832 51.607V52.1808Z" fill="#F9DEC7"/>
<path d="M68.9285 52.509L61.4375 52.2379V51.6641L68.9285 51.9351V52.509Z" fill="#F9DEC7"/>
<path d="M79.1198 52.8728L69.9922 52.5425V51.9688L79.1198 52.299V52.8728Z" fill="#F9DEC7"/>
<path d="M58.9955 54.0201L52.4922 53.7847V53.2109L58.9955 53.4463V54.0201Z" fill="#F9DEC7"/>
<path d="M66.7611 54.2935L60.2578 54.0582V53.4844L66.7611 53.7197V54.2935Z" fill="#F9DEC7"/>
<path d="M75.6117 54.6183L67.6875 54.3316V53.7578L75.6117 54.0446V54.6183Z" fill="#F9DEC7"/>
<path d="M22.5391 124.625C22.5391 124.731 22.5453 124.836 22.5586 124.938C22.5982 125.265 22.6999 125.573 22.851 125.851C22.9693 126.067 23.1184 126.264 23.2917 126.437C23.7575 126.901 24.3995 127.187 25.1096 127.187H61.263C62.6827 127.187 63.8343 126.04 63.8343 124.625C63.8343 123.918 63.5467 123.277 63.0809 122.813C62.6159 122.349 61.9732 122.062 61.263 122.062H25.1096C23.69 122.062 22.5391 123.21 22.5391 124.625Z" fill="#F78248"/>
<path d="M25.293 121.599H37.6887C37.9057 121.599 38.0832 121.422 38.0832 121.206C38.0832 120.989 37.9057 120.812 37.6887 120.812H25.293C25.076 120.812 24.8984 120.989 24.8984 121.206C24.8984 121.422 25.076 121.599 25.293 121.599Z" fill="#F78248"/>
<path d="M25.9845 122.062H27.3281V121.599H25.9845V122.062Z" fill="#EA642F"/>
<path d="M22.8516 125.852C22.9699 126.068 23.1189 126.265 23.2923 126.438C23.7581 126.902 24.4 127.188 25.1102 127.188H32.7683V125.852H22.8516Z" fill="#EA642F"/>
<path d="M68.6226 123.874V125.375C68.6226 125.54 68.6004 125.7 68.5593 125.851C68.3504 126.621 67.6444 127.187 66.8054 127.187H29.1453C28.3063 127.187 27.6003 126.621 27.3915 125.851C27.3504 125.7 27.3281 125.54 27.3281 125.375V123.874C27.3281 122.874 28.1413 122.062 29.1453 122.062H66.8054C67.8094 122.062 68.6226 122.874 68.6226 123.874Z" fill="#F99746"/>
<path d="M68.5584 125.852C68.3495 126.622 67.6435 127.188 66.8046 127.188H29.1445C28.3055 127.188 27.5995 126.622 27.3906 125.852H68.5584Z" fill="#EF873A"/>
<path d="M64.8828 124.634C64.8828 125.43 65.1731 126.142 65.6306 126.613C65.641 126.623 65.6508 126.634 65.6612 126.644C66.0149 126.995 66.4633 127.206 66.9514 127.206C67.7138 127.206 69.6034 126.059 70.7745 125.298C71.3579 124.918 71.7632 124.634 71.7632 124.634C71.7632 124.634 71.3579 124.351 70.7745 123.971C69.6034 123.209 67.7138 122.062 66.9514 122.062C66.7307 122.062 66.5183 122.106 66.3185 122.185C65.9822 122.319 65.6828 122.558 65.4468 122.87C65.1864 123.213 65.0012 123.645 64.9232 124.124C64.9225 124.13 64.9211 124.135 64.9211 124.141C64.8961 124.3 64.8828 124.465 64.8828 124.634Z" fill="#CDE0FB"/>
<path d="M64.8828 124.634C64.8828 125.43 65.1731 126.141 65.6306 126.613L71.4269 124.625L64.9211 124.141C64.8961 124.3 64.8828 124.465 64.8828 124.634Z" fill="#A6C7ED"/>
<path d="M65.4453 122.873L71.2276 124.447L66.317 122.188C65.9807 122.322 65.6813 122.561 65.4453 122.873Z" fill="#E3F0FF"/>
<path d="M70.3984 124.632C70.3984 124.938 70.5558 125.199 70.7758 125.296C71.3593 124.916 71.7645 124.632 71.7645 124.632C71.7645 124.632 71.3593 124.348 70.7758 123.969C70.5558 124.065 70.3984 124.325 70.3984 124.632Z" fill="#F99746"/>
<path d="M53.5925 127.356C53.8511 127.358 54.1226 127.17 54.1989 126.936L69.7806 79.2223C69.8568 78.9888 69.709 78.7984 69.4503 78.7969C69.1917 78.7953 68.9202 78.9834 68.8439 79.2169L53.2622 126.931C53.186 127.164 53.3338 127.355 53.5925 127.356Z" fill="#380A17"/>
<path d="M41.0378 127.286C41.2965 127.287 41.5679 127.099 41.6442 126.866L57.2259 79.1521C57.3021 78.9186 57.1543 78.7281 56.8956 78.7266C56.637 78.7251 56.3655 78.9132 56.2893 79.1466L40.7075 126.86C40.6313 127.094 40.7792 127.285 41.0378 127.286Z" fill="#380A17"/>
<path d="M54.557 85.7982L67.1674 85.8716C67.4106 85.873 67.6682 85.6946 67.7398 85.475C67.8115 85.2556 67.6712 85.0748 67.4281 85.0735L54.8177 85C54.5745 84.9986 54.317 85.177 54.2453 85.3965C54.1736 85.616 54.3139 85.7968 54.557 85.7982Z" fill="#380A17"/>
<path d="M51.8383 94.1341L64.4487 94.2075C64.6918 94.2089 64.9494 94.0305 65.0211 93.8111C65.0928 93.5915 64.9525 93.4107 64.7093 93.4094L52.099 93.3359C51.8558 93.3345 51.5982 93.513 51.5266 93.7325C51.4549 93.9519 51.5952 94.1327 51.8383 94.1341Z" fill="#380A17"/>
<path d="M49.2211 102.158L61.8315 102.231C62.0747 102.232 62.3322 102.054 62.4039 101.834C62.4756 101.615 62.3353 101.434 62.0921 101.433L49.4818 101.359C49.2386 101.358 48.981 101.536 48.9094 101.756C48.8377 101.975 48.978 102.156 49.2211 102.158Z" fill="#380A17"/>
<path d="M46.268 111.189L58.8784 111.262C59.1215 111.264 59.3791 111.085 59.4508 110.866C59.5224 110.646 59.3821 110.465 59.139 110.464L46.5286 110.391C46.2855 110.389 46.0279 110.568 45.9562 110.787C45.8846 111.007 46.0249 111.187 46.268 111.189Z" fill="#380A17"/>
<path d="M43.1821 120.642L55.7924 120.715C56.0356 120.717 56.2932 120.538 56.3648 120.319C56.4366 120.099 56.2962 119.919 56.0531 119.917L43.4427 119.844C43.1996 119.842 42.942 120.021 42.8703 120.24C42.7986 120.46 42.9389 120.64 43.1821 120.642Z" fill="#380A17"/>
<path d="M66.5078 68.4233C66.5078 68.4233 66.6569 68.089 66.7535 67.9307C66.85 67.7725 67.2626 67.3087 67.3329 67.4138C67.4031 67.5187 67.6839 68.2254 67.5347 68.4233C67.3855 68.6211 67.5444 68.9654 66.8022 69.1739L66.5078 68.4233Z" fill="#FFB27D"/>
<path d="M58.2578 66.3125C58.2578 66.3125 62.057 69.4734 63.5384 69.1809C64.6968 68.952 66.4747 68.3444 66.4747 68.3444L66.8302 69.2508C66.8302 69.2508 65.2358 71.4065 63.5736 71.4206C60.9753 71.4427 59.0556 70.2994 59.0556 70.2994L58.2578 66.3125Z" fill="#EF7E29"/>
<path d="M51.5938 99.6564C51.5938 99.6564 51.704 101.43 52.0482 101.455C52.094 101.459 53.7941 101.459 53.7941 101.459L55.9642 101.446C55.9642 101.446 55.95 100.925 55.3156 100.815C54.6813 100.704 53.6195 100.26 53.2353 99.4244C52.831 98.5453 51.5938 99.6564 51.5938 99.6564Z" fill="#52202E"/>
<path d="M51.4688 99.7755C51.4688 99.7755 52.1285 99.9955 52.6435 99.9955C53.218 99.9955 53.7402 99.8395 53.7402 99.8395C53.7402 99.8395 53.8644 98.6422 54.5479 96.0045C54.9063 94.6219 55.418 92.8442 56.146 90.6353C58.159 84.5303 58.7711 80.9589 58.827 80.6207C58.83 80.6029 58.8311 80.594 58.8311 80.594L58.8246 80.5911L52.636 77.8828C52.636 77.8828 53.4009 86.2967 52.425 89.5263C52.2883 89.9777 52.1712 90.5037 52.0708 91.0736C51.4545 94.5816 51.4688 99.7755 51.4688 99.7755Z" fill="#380A17"/>
<path d="M54.5507 96.0045C54.9091 94.6219 55.4208 92.8442 56.1488 90.6353C58.1618 84.5303 58.7739 80.9589 58.8298 80.6207C58.8292 80.6106 58.8286 80.6011 58.8274 80.5911L52.6388 77.8828C52.6388 77.8828 53.4037 86.2967 52.4278 89.5263C52.2911 89.9777 54.5507 96.0045 54.5507 96.0045Z" fill="#52202E"/>
<path d="M56.4297 99.6564C56.4297 99.6564 56.54 101.43 56.8842 101.455C56.93 101.459 58.63 101.459 58.63 101.459L60.8001 101.446C60.8001 101.446 60.7859 100.925 60.1516 100.815C59.5172 100.704 58.4555 100.26 58.0712 99.4244C57.6669 98.5453 56.4297 99.6564 56.4297 99.6564Z" fill="#52202E"/>
<path d="M59.9393 78.0859C59.9393 78.0859 60.0196 83.5383 59.0732 90.2328C58.1267 96.9273 58.4475 99.769 58.4475 99.769C58.4475 99.769 57.7973 99.979 57.5348 100C56.8663 100.055 56.1807 99.8441 56.1807 99.8441C56.1807 99.8441 54.826 93.1471 55.2144 89.7964C55.6029 86.4456 53.3594 78.2985 53.3594 78.2985L59.9393 78.0859Z" fill="#380A17"/>
<path d="M55.5469 65.328L56.7549 66.1176L57.8553 65.8075C58.0564 65.5215 58.1096 64.9702 58.1126 64.4925C58.1155 64.0185 58.0694 63.6169 58.0694 63.6169L56.4396 62.8999L55.8314 62.6328C55.8332 62.6422 55.8788 63.1305 55.8853 63.2018C55.9989 64.4678 55.5469 65.328 55.5469 65.328Z" fill="#FFB27D"/>
<path d="M59.9627 79.5996C58.4591 81.0466 52.7686 80.8032 52.4179 79.209C52.0678 77.6147 52.8004 65.6375 55.3688 64.8851C55.9018 64.7289 58.7513 65.6469 58.7513 65.6469C58.7513 65.6469 59.1984 66.8127 59.4916 68.297C59.5485 68.5859 59.7146 71.6466 59.839 74.51C59.897 75.8493 59.946 77.1457 59.9711 78.0948C59.994 78.9839 59.9951 79.5679 59.9627 79.5996Z" fill="#F99746"/>
<path d="M56.0073 63.223C56.338 63.7802 57.4981 64.2678 58.1128 64.4913C58.1157 64.0172 58.0696 63.6157 58.0696 63.6157L56.4398 62.8986C56.0795 62.8939 55.86 62.9741 56.0073 63.223Z" fill="#FCA56B"/>
<path d="M58.6857 63.5111C58.6857 63.5111 56.0596 64.3276 55.5746 62.6897C55.0897 61.0519 54.4241 60.0542 56.0803 59.4637C57.7364 58.8731 58.2487 59.4018 58.544 59.9093C58.8393 60.4167 59.3563 63.2565 58.6857 63.5111Z" fill="#FFB27D"/>
<path d="M58.4428 59.7551C58.4428 59.7551 58.2753 61.661 57.8798 61.5783C57.4844 61.4955 57.0491 61.3186 57.107 61.8931C57.1649 62.4676 56.7225 63.4525 56.1523 63.4501C54.9293 63.4451 53.6005 60.3172 53.9353 59.7241C54.9013 58.0127 59.839 57.6674 58.4428 59.7551Z" fill="#380A17"/>
<path d="M58.0514 64.9287C58.0176 64.9145 56.0965 64.0556 55.8719 64.1295C55.6472 64.2034 55.3672 64.8873 55.3672 64.8873L58.7498 65.6496C58.7498 65.6496 58.4836 65.1101 58.0514 64.9287Z" fill="#EF7E29"/>
<path d="M70.0103 74.1982L59.2417 84.3038C59.0306 84.5019 58.7644 84.5649 58.6502 84.444L58.2867 84.0592C58.1724 83.9383 58.2517 83.6772 58.4627 83.4791L69.2314 73.3736C69.4425 73.1755 69.7086 73.1124 69.8229 73.2334L70.1864 73.6182C70.3006 73.7391 70.2214 74.0001 70.0103 74.1982Z" fill="#380A17"/>
<path d="M63.9672 79.8714L59.2417 84.306C59.0306 84.5041 58.7644 84.5672 58.6502 84.4462L58.2867 84.0614C58.1724 83.9405 58.2517 83.6794 58.4627 83.4814L63.1882 79.0469L63.9672 79.8714Z" fill="#F78248"/>
<path d="M67.5379 70.383C67.9514 71.741 68.717 73.0128 69.8285 74.0553C73.2237 77.2388 78.5656 77.0761 81.7596 73.6927C84.9116 70.3529 84.7945 65.1251 81.5277 61.9287C81.4845 61.8856 81.4402 61.8432 81.3952 61.8013C78.0007 58.6178 72.6593 58.7794 69.4653 62.1633C67.3167 64.4394 66.6866 67.5934 67.5379 70.383ZM69.9504 62.6186C71.8092 60.6492 74.4577 59.8643 76.9447 60.2936C78.3941 60.5436 79.7879 61.2052 80.9391 62.2848C84.0662 65.2171 84.2159 70.1206 81.2739 73.2375C80.1907 74.3849 78.8402 75.1296 77.4097 75.4675C74.9529 76.0471 72.2611 75.4251 70.2852 73.5718C67.1581 70.6395 67.0079 65.736 69.9504 62.6186Z" fill="#380A17"/>
<g opacity="0.5">
<path d="M81.272 73.2373C80.1889 74.3848 78.8381 75.1296 77.4075 75.4676C74.951 76.0469 72.259 75.4246 70.2829 73.5716C67.1559 70.6393 67.0059 65.7356 69.9482 62.6185C71.807 60.6493 74.4556 59.8644 76.9426 60.2937C78.3919 60.5435 79.786 61.2052 80.937 62.2845C84.064 65.2168 84.214 70.1205 81.272 73.2373Z" fill="#B3CFF9"/>
</g>
<path d="M59.9737 78.0957C54.0401 73.8813 54.5335 68.2578 54.5335 68.2578C56.7022 69.477 58.8542 72.1726 59.8416 74.5109C59.8995 75.8501 59.9486 77.1465 59.9737 78.0957Z" fill="#EF7E29"/>
<path d="M65.8277 76.1776C66.2461 76.0814 66.5271 75.7661 66.5855 75.7109C66.5855 75.7109 66.764 75.7231 66.5562 76.1025C66.5388 76.1343 66.5003 76.2157 66.4712 76.2735C66.4593 76.297 66.4758 76.3244 66.5022 76.3264C66.7437 76.3447 66.9864 76.2494 67.4516 76.3462C67.5158 76.3595 67.5345 76.5127 67.532 76.578C67.5278 76.6885 67.5358 76.8125 67.4069 76.9819C67.332 77.0805 67.1229 77.1865 66.6572 77.3734C66.4798 77.4445 65.9725 77.3908 65.497 77.228L65.1172 77.0528L65.235 76.3491L65.3304 76.369C65.482 76.4007 65.6697 76.2163 65.8277 76.1776Z" fill="#F99746"/>
<path d="M56.3714 65.6484C56.3714 65.6484 51.04 66.6602 57.94 74.3555C59.0435 75.5862 65.0057 77.1888 65.0057 77.1888C65.0057 77.1888 65.6104 76.676 65.3056 76.2607C65.3056 76.2607 61.2005 73.2895 60.2972 72.8171C59.8909 72.6045 58.7202 68.0747 58.0578 66.9838C57.3955 65.8928 56.3714 65.6484 56.3714 65.6484Z" fill="#F99746"/>
<path d="M66.6484 68.5217C66.6484 68.5217 66.8228 68.1895 66.8569 68.0143C66.8909 67.8391 67.1105 67.328 67.201 67.2381C67.2372 67.2021 67.3566 67.2487 67.3707 67.4035C67.3768 67.4709 67.3436 67.5935 67.285 67.7396C67.1897 67.9774 67.2054 68.3 67.1722 68.4075C67.0896 68.6752 66.6484 68.5217 66.6484 68.5217Z" fill="#FFB27D"/>
<path d="M215.451 128.003L1.49261 127.93C1.33335 127.93 1.20309 127.8 1.20313 127.641L1.20324 127.414C1.20328 127.255 1.33362 127.125 1.49287 127.125L215.451 127.199C215.61 127.199 215.741 127.328 215.741 127.487V127.715C215.741 127.874 215.61 128.003 215.451 128.003Z" fill="#2E3552"/>
<path d="M123.89 5.37814L122.632 4.46968C122.492 4.84019 122.124 5.40219 121.914 5.70496C121.387 6.46849 120.304 8.09272 119.631 9.31986C117.631 12.9749 117.974 15.0399 119.225 15.9039C120.107 16.5132 121.437 16.3044 123.773 14.6121L123.59 13.1045C122.338 14.1845 120.773 15.1262 120.102 14.6624C119.167 14.0167 119.532 12.1099 120.84 9.76591C121.502 8.60962 122.317 7.40257 122.903 6.58232C123.139 6.24005 123.619 5.6577 123.89 5.37814ZM130.494 10.4847L129.222 10.1308C129.422 12.5441 128.347 15.7884 126.938 18.3348L128.291 18.6279C129.631 16.2668 130.611 12.8212 130.494 10.4847Z" fill="#FFB264"/>
</g>
<defs>
<clipPath id="clip0_469_1037">
<rect width="215.742" height="128" fill="white"/>
</clipPath>
</defs>
</svg>
