<svg width="29" height="30" viewBox="0 0 29 30" fill="none" xmlns="http://www.w3.org/2000/svg">
<g clip-path="url(#clip0_56_1745)">
<path d="M17.0034 29.499C23.6284 29.499 28.999 24.1284 28.999 17.5034C28.999 10.8784 23.6284 5.50781 17.0034 5.50781C10.3784 5.50781 5.00781 10.8784 5.00781 17.5034C5.00781 24.1284 10.3784 29.499 17.0034 29.499Z" fill="#F8830D"/>
<path d="M12.6909 25.4912C19.3159 25.4912 24.6865 20.1206 24.6865 13.4956C24.6865 6.87061 19.3159 1.5 12.6909 1.5C6.06593 1.5 0.695312 6.87061 0.695312 13.4956C0.695312 20.1206 6.06593 25.4912 12.6909 25.4912Z" stroke="#010101" stroke-width="1.7" stroke-linecap="round" stroke-linejoin="round"/>
<path d="M12.6932 18.9801C15.8892 18.9801 18.4801 16.3892 18.4801 13.1932C18.4801 9.99714 15.8892 7.40625 12.6932 7.40625C9.49714 7.40625 6.90625 9.99714 6.90625 13.1932C6.90625 16.3892 9.49714 18.9801 12.6932 18.9801Z" stroke="#010101" stroke-width="2" stroke-linecap="round" stroke-linejoin="round"/>
</g>
<defs>
<clipPath id="clip0_56_1745">
<rect width="29" height="29" fill="white" transform="translate(0 0.5)"/>
</clipPath>
</defs>
</svg>
