<svg width="45" height="45" viewBox="0 0 45 45" fill="none" xmlns="http://www.w3.org/2000/svg">
<g clip-path="url(#clip0_669_2226)">
<path d="M27.7553 42.0781H17.2422C17.0557 42.0781 16.8769 42.004 16.745 41.8722C16.6131 41.7403 16.5391 41.5615 16.5391 41.375C16.5391 41.1885 16.6131 41.0097 16.745 40.8778C16.8769 40.746 17.0557 40.6719 17.2422 40.6719H27.7553C27.9418 40.6719 28.1206 40.746 28.2525 40.8778C28.3844 41.0097 28.4584 41.1885 28.4584 41.375C28.4584 41.5615 28.3844 41.7403 28.2525 41.8722C28.1206 42.004 27.9418 42.0781 27.7553 42.0781ZM27.7553 44.9975H17.2422C17.0557 44.9975 16.8769 44.9234 16.745 44.7916C16.6131 44.6597 16.5391 44.4809 16.5391 44.2944C16.5391 44.1079 16.6131 43.9291 16.745 43.7972C16.8769 43.6653 17.0557 43.5912 17.2422 43.5912H27.7553C27.9418 43.5912 28.1206 43.6653 28.2525 43.7972C28.3844 43.9291 28.4584 44.1079 28.4584 44.2944C28.4584 44.4809 28.3844 44.6597 28.2525 44.7916C28.1206 44.9234 27.9418 44.9975 27.7553 44.9975Z" fill="#495670"/>
<path d="M34.8284 21.5595C34.838 23.9098 34.1786 26.2143 32.9273 28.2039C31.6761 30.1935 29.8846 31.786 27.762 32.7954V38.6314H17.2433L17.2362 32.7954C15.2171 31.8627 13.486 30.4039 12.2247 28.5719C10.9634 26.74 10.2183 24.6024 10.0676 22.3833C9.91681 20.1642 10.3659 17.9455 11.3679 15.9597C12.3698 13.974 13.8876 12.2944 15.7621 11.0972C17.6366 9.90001 19.7987 9.22925 22.0216 9.15529C24.2446 9.08133 26.4465 9.6069 28.3964 10.6769C30.3463 11.7469 31.9724 13.3218 33.1041 15.2366C34.2358 17.1513 34.8314 19.3353 34.8284 21.5595Z" fill="#E3790E"/>
<path d="M34.8277 21.5614C34.8383 18.5079 33.7196 15.5583 31.6867 13.2798C29.6538 11.0014 26.8503 9.55497 23.8154 9.21875C21.1412 9.53304 18.6406 10.7048 16.6878 12.5587C14.735 14.4125 13.4349 16.8489 12.9822 19.5032C12.5294 22.1575 12.9483 24.8871 14.1761 27.2835C15.4039 29.6799 17.3747 31.6143 19.7935 32.7973L19.8005 38.6333H27.7613V32.7973C29.8838 31.7879 31.6754 30.1954 32.9266 28.2058C34.1779 26.2162 34.8373 23.9117 34.8277 21.5614Z" fill="#F8830D"/>
<path d="M22.2445 25.5097V38.6301H20.8383V25.7699L17.632 22.0644C17.5715 21.9943 17.5255 21.9129 17.4964 21.8249C17.4674 21.7369 17.456 21.6441 17.4629 21.5517C17.4697 21.4593 17.4947 21.3692 17.5364 21.2864C17.5781 21.2037 17.6357 21.13 17.7058 21.0695C17.8476 20.9474 18.032 20.8865 18.2186 20.9004C18.311 20.9072 18.4011 20.9322 18.4838 20.9739C18.5666 21.0156 18.6403 21.0732 18.7008 21.1433L22.0758 25.0527C22.1864 25.1791 22.2465 25.3418 22.2445 25.5097ZM27.757 22.0644L24.5508 25.7699V38.6301H23.1445V25.5097C23.1458 25.3424 23.2055 25.1807 23.3133 25.0527L26.6883 21.1433C26.8104 21.0016 26.9838 20.9142 27.1704 20.9004C27.357 20.8865 27.5415 20.9474 27.6832 21.0695C27.8249 21.1917 27.9123 21.3651 27.9262 21.5517C27.94 21.7383 27.8792 21.9227 27.757 22.0644Z" fill="#EAEAE8"/>
<path d="M4.86414 11.3562L8.54219 13.5C8.62199 13.5486 8.71069 13.5808 8.80309 13.5948C8.89549 13.6087 8.98974 13.6041 9.08034 13.5812C9.17093 13.5583 9.25605 13.5175 9.33072 13.4613C9.40538 13.4051 9.4681 13.3346 9.51521 13.2539C9.56231 13.1732 9.59286 13.0839 9.60506 12.9913C9.61726 12.8987 9.61087 12.8045 9.58626 12.7144C9.56166 12.6242 9.51933 12.5399 9.46176 12.4663C9.40418 12.3927 9.33251 12.3313 9.25094 12.2857L5.57289 10.1412C5.41177 10.0472 5.21992 10.0211 5.03953 10.0685C4.85914 10.116 4.705 10.2332 4.61102 10.3943C4.51703 10.5554 4.4909 10.7473 4.53837 10.9277C4.58584 11.108 4.70302 11.2622 4.86414 11.3562ZM36.2355 13.5963C36.359 13.5959 36.4803 13.5629 36.587 13.5007L40.2665 11.3562C40.4276 11.2623 40.5448 11.1082 40.5924 10.9279C40.6399 10.7476 40.6139 10.5558 40.52 10.3946C40.4261 10.2335 40.272 10.1163 40.0917 10.0688C39.9114 10.0212 39.7196 10.0473 39.5584 10.1412L35.8783 12.2864C35.7453 12.3643 35.6415 12.4837 35.583 12.6262C35.5245 12.7688 35.5144 12.9266 35.5544 13.0755C35.5943 13.2243 35.6821 13.3559 35.8041 13.45C35.9262 13.5441 36.0757 13.5955 36.2298 13.5963H36.2355ZM22.5681 0C22.3816 0 22.2028 0.074079 22.0709 0.205941C21.9391 0.337802 21.865 0.516645 21.865 0.703125V4.9268C21.865 5.11328 21.9391 5.29212 22.0709 5.42398C22.2028 5.55584 22.3816 5.62992 22.5681 5.62992C22.7546 5.62992 22.9334 5.55584 23.0653 5.42398C23.1972 5.29212 23.2712 5.11328 23.2712 4.9268V0.703125C23.2712 0.516645 23.1972 0.337802 23.0653 0.205941C22.9334 0.074079 22.7546 0 22.5681 0V0ZM40.1744 30.3103L36.5884 28.2206C36.4273 28.1266 36.2355 28.1005 36.0551 28.148C35.8747 28.1954 35.7206 28.3126 35.6266 28.4737C35.5326 28.6349 35.5064 28.8267 35.5539 29.0071C35.6014 29.1875 35.7186 29.3416 35.8797 29.4356L39.4656 31.5246C39.5454 31.5732 39.6341 31.6054 39.7265 31.6194C39.8189 31.6333 39.9132 31.6287 40.0038 31.6058C40.0944 31.5829 40.1795 31.5421 40.2542 31.4859C40.3288 31.4298 40.3915 31.3592 40.4386 31.2785C40.4857 31.1978 40.5163 31.1086 40.5285 31.0159C40.5407 30.9233 40.5343 30.8291 40.5097 30.739C40.4851 30.6488 40.4428 30.5645 40.3852 30.4909C40.3276 30.4173 40.2559 30.3559 40.1744 30.3103ZM13.1849 3.01711C13.1404 2.93465 13.0797 2.86193 13.0067 2.80323C12.9336 2.74453 12.8495 2.70103 12.7594 2.6753C12.6692 2.64957 12.5749 2.64212 12.4818 2.65339C12.3888 2.66466 12.2989 2.69442 12.2175 2.74093C12.1361 2.78744 12.0649 2.84975 12.0079 2.92419C11.9509 2.99864 11.9095 3.08373 11.8859 3.17445C11.8623 3.26517 11.8571 3.35969 11.8705 3.45245C11.884 3.54521 11.9159 3.63435 11.9643 3.71461L14.0603 7.38281C14.1049 7.46569 14.1657 7.53878 14.2391 7.59773C14.3124 7.65668 14.3969 7.7003 14.4874 7.72601C14.578 7.75171 14.6728 7.75898 14.7662 7.74737C14.8596 7.73577 14.9497 7.70553 15.0312 7.65844C15.1127 7.61136 15.1839 7.5484 15.2406 7.47328C15.2973 7.39817 15.3384 7.31243 15.3614 7.22115C15.3843 7.12988 15.3887 7.03492 15.3743 6.94191C15.3599 6.8489 15.3269 6.75973 15.2774 6.67969L13.1849 3.01711ZM42.4729 20.1698H38.3498C38.1633 20.1698 37.9844 20.2439 37.8526 20.3758C37.7207 20.5076 37.6466 20.6865 37.6466 20.873C37.6466 21.0595 37.7207 21.2383 37.8526 21.3702C37.9844 21.502 38.1633 21.5761 38.3498 21.5761H42.4729C42.6594 21.5761 42.8382 21.502 42.9701 21.3702C43.1019 21.2383 43.176 21.0595 43.176 20.873C43.176 20.6865 43.1019 20.5076 42.9701 20.3758C42.8382 20.2439 42.6594 20.1698 42.4729 20.1698ZM32.8928 2.82656C32.8127 2.78062 32.7243 2.75091 32.6328 2.73912C32.5412 2.72733 32.4482 2.7337 32.359 2.75786C32.2699 2.78202 32.1864 2.82349 32.1133 2.87992C32.0402 2.93634 31.979 3.00662 31.933 3.08672L29.8553 6.71625C29.8094 6.7964 29.7798 6.8848 29.768 6.97641C29.7563 7.06802 29.7627 7.16104 29.787 7.25016C29.8359 7.43015 29.9543 7.58333 30.1162 7.67602C30.1963 7.72191 30.2847 7.75156 30.3763 7.76329C30.4679 7.77501 30.561 7.76858 30.6501 7.74436C30.8301 7.69544 30.9833 7.57702 31.0759 7.41516L33.1537 3.78562C33.2462 3.62383 33.2707 3.43194 33.2217 3.2521C33.1728 3.07227 33.0545 2.91921 32.8928 2.82656ZM8.54289 28.2206L4.95695 30.3103C4.82361 30.388 4.71954 30.5074 4.66078 30.6501C4.60203 30.7928 4.59186 30.9509 4.63185 31.1C4.67183 31.249 4.75975 31.3808 4.88203 31.475C5.00432 31.5691 5.15419 31.6204 5.30852 31.6209C5.43218 31.6207 5.55354 31.5874 5.66008 31.5246L9.24602 29.4356C9.40713 29.3416 9.52432 29.1875 9.57179 29.0071C9.61926 28.8267 9.59313 28.6349 9.49914 28.4737C9.40515 28.3126 9.25101 28.1954 9.07063 28.148C8.89024 28.1005 8.69838 28.1266 8.53727 28.2206H8.54289ZM7.4868 20.8695C7.4868 20.683 7.41272 20.5041 7.28086 20.3723C7.14899 20.2404 6.97015 20.1663 6.78367 20.1663H2.52344C2.33696 20.1663 2.15811 20.2404 2.02625 20.3723C1.89439 20.5041 1.82031 20.683 1.82031 20.8695C1.82031 21.0559 1.89439 21.2348 2.02625 21.3666C2.15811 21.4985 2.33696 21.5726 2.52344 21.5726H6.78367C6.97015 21.5726 7.14899 21.4985 7.28086 21.3666C7.41272 21.2348 7.4868 21.0559 7.4868 20.8695Z" fill="#F8830D"/>
</g>
<defs>
<clipPath id="clip0_669_2226">
<rect width="45" height="45" fill="white"/>
</clipPath>
</defs>
</svg>
