<svg width="46" height="79" viewBox="0 0 46 79" fill="none" xmlns="http://www.w3.org/2000/svg">
<path d="M3.23371 71.7656V72.7996C3.23371 72.7996 -0.244469 75.1629 0.0120354 76.64C0.268504 78.1171 2.93721 77.8955 4.27155 76.64C5.60592 75.3845 5.97656 73.9074 5.97656 73.9074L5.60592 71.7656H3.23371V71.7656Z" fill="#FF7F50"/>
<path opacity="0.23" d="M4.27155 76.0315C5.2989 75.0649 5.75371 73.9697 5.90919 73.5156L5.97656 73.9048C5.97656 73.9048 5.60592 75.3819 4.27155 76.6374C2.93721 77.8929 0.268505 78.1145 0.0120368 76.6374C-0.0146646 76.4838 0.00099802 76.3201 0.047029 76.1509C0.428896 77.49 2.97595 77.2507 4.27155 76.0315Z" fill="#FF7F50"/>
<path d="M15.0487 72.4799L15.3273 73.3621C15.3273 73.3621 18.8055 75.7254 18.549 77.2025C18.2925 78.6796 15.6238 78.458 14.2895 77.2025C12.9551 75.947 12.5845 74.4699 12.5845 74.4699L12.9551 72.3281L15.0487 72.4799Z" fill="#FF7F50"/>
<path opacity="0.23" d="M14.329 76.6019C13.3017 75.6352 12.8469 74.54 12.6914 74.0859L12.624 74.4751C12.624 74.4751 12.9947 75.9522 14.329 77.2077C15.6634 78.4632 18.3321 78.6848 18.5885 77.2077C18.6152 77.0541 18.5996 76.8904 18.5535 76.7212C18.1717 78.0603 15.6246 77.821 14.329 76.6019Z" fill="#FF7F50"/>
<path d="M18.9675 23.2939C18.9675 23.2939 19.158 26.2274 22.078 26.4258C24.4121 26.5843 24.0747 19.0115 23.8453 15.9666C23.7618 14.8569 23.451 13.7694 22.8733 12.817C22.7668 12.6414 22.6521 12.4717 22.5305 12.3174C21.8005 11.3918 20.6258 12.0738 20.5926 12.6688C20.5594 13.2639 21.2484 13.4671 21.2484 13.4671C21.2484 13.4671 19.9544 11.1531 19.2907 11.6159C18.6271 12.0787 20.8834 14.3266 20.8834 14.3266C20.8834 14.3266 19.7479 13.161 19.6729 14.0205C19.598 14.88 20.6982 14.9878 21.4876 16.1117C22.277 17.2357 21.4865 22.8555 21.4865 22.8555L20.6843 21.1365L18.9675 23.2939Z" fill="#FFC7AB"/>
<g opacity="0.21">
<path opacity="0.21" d="M19.5675 22.5391C19.6435 23.1017 20.1077 25.3716 22.6641 25.5453C22.9296 25.5633 23.159 25.477 23.3594 25.3131C23.067 26.0305 22.6544 26.4629 22.0788 26.4238C19.1588 26.2255 18.9683 23.2919 18.9683 23.2919L19.5675 22.5391Z" fill="#FFC7AB"/>
</g>
<path d="M17.6405 37.5461C17.6405 37.5461 17.6971 66.3096 15.1201 72.6934H12.8913C12.8913 72.6934 10.4536 50.91 10.2447 45.9834C10.2447 45.9834 6.79386 71.0975 5.6985 72.2771H3.21014C3.21014 72.2771 2.23506 45.0119 3.21014 37.1016L17.6405 37.5461Z" fill="#380A17"/>
<g opacity="0.23">
<path opacity="0.23" d="M10.7505 42.2734C10.9595 47.2001 14.4141 72.6868 14.4141 72.6868H12.8939C12.8939 72.6868 10.6758 51.9409 10.2472 45.9768C10.2472 43.5298 10.7505 42.2734 10.7505 42.2734Z" fill="#404969"/>
<path opacity="0.23" d="M3.21419 37.0938L4.72891 37.1404C3.76321 45.0694 4.73438 72.2693 4.73438 72.2693H3.21419C3.21419 72.2693 2.23911 45.0041 3.21419 37.0938Z" fill="#404969"/>
</g>
<path d="M18.5976 23.8137L21.4844 21.3344C21.4844 21.3344 19.6926 14.8881 15.1135 15.7807L8.34452 15.6959C8.34452 15.6959 3.96459 14.8881 2.47142 19.0534C0.978251 23.2187 3.86505 25.698 3.86505 25.698L2.57096 38.3922L17.8012 37.698C17.8012 37.698 18.0999 26.2931 18.5976 23.8137Z" fill="#BDE4F4"/>
<path d="M18.5976 23.8137L21.4844 21.3344C21.4844 21.3344 19.6926 14.8881 15.1135 15.7807L8.34452 15.6959C8.34452 15.6959 3.96459 14.8881 2.47142 19.0534C0.978251 23.2187 3.86505 25.698 3.86505 25.698L2.57096 38.3922L17.8012 37.698C17.8012 37.698 18.0999 26.2931 18.5976 23.8137Z" fill="#F8830D"/>
<path opacity="0.41" d="M17.8516 36.2476C17.8234 37.1429 17.8088 37.7018 17.8088 37.7018L2.57851 38.396L3.65504 27.8359C5.17184 30.0018 9.09347 34.1286 17.8516 36.2476Z" fill="#F8830D"/>
<path d="M8.91747 12.3555C8.91747 12.3555 9.19729 14.3922 8.58167 15.6321C7.96602 16.872 9.19729 18.2276 11.1562 18.1353C13.1151 18.0429 13.3669 15.7568 13.3669 15.7568C13.3669 15.7568 12.7792 15.4223 12.8352 14.7532C12.8352 14.7532 16.3052 15.5338 16.5851 13.1919C16.8649 10.85 16.5851 10.6827 16.5851 10.6827H17.6484C17.6484 10.6827 16.6574 7.16282 16.3052 5.7202C15.2978 1.59405 10.5416 0.200032 7.35037 4.10321C4.37511 7.74209 8.91747 12.3555 8.91747 12.3555Z" fill="#FFC7AB"/>
<g opacity="0.21">
<path opacity="0.21" d="M8.91831 12.3611C8.91831 12.3611 4.37598 7.7476 7.35124 4.10869C8.82028 2.31195 10.6205 1.64008 12.2344 1.83814C10.9325 1.99367 9.58704 2.70894 8.44258 4.10869C5.46736 7.7476 10.0097 12.3611 10.0097 12.3611C10.0097 12.3611 10.2895 14.3977 9.67385 15.6376C9.14187 16.709 9.99046 17.8648 11.4944 18.1001C11.3878 18.1209 11.2758 18.1352 11.157 18.1408C9.19813 18.2331 7.96686 16.8775 8.58251 15.6376C9.19813 14.3977 8.91831 12.3611 8.91831 12.3611Z" fill="#FFC7AB"/>
</g>
<path d="M21.4705 52.362L29.5672 56.2468L35.0918 46.8309C34.7949 46.8283 34.222 46.6754 33.3752 46.3734C32.5273 46.0709 31.8173 45.753 31.2441 45.4192C29.94 44.6597 29.018 43.6657 28.4797 42.4367C27.9408 41.2087 27.9957 40.0397 28.6469 38.9298C29.2608 37.8834 30.1204 37.2026 31.2224 36.8883C32.3259 36.5736 33.5134 36.7858 34.7862 37.527C36.0276 38.25 36.7625 39.1796 36.9943 40.3125C37.226 41.4481 37.1368 42.6194 36.727 43.8266L43.9931 44.8677C44.8951 42.9675 45.2462 40.9507 45.0479 38.813C44.8493 36.6779 44.1514 34.6657 42.954 32.7766C41.756 30.8884 40.1707 29.3693 38.1973 28.2201C35.9379 26.9043 33.5733 26.3144 31.1022 26.4483C28.6325 26.5842 26.3454 27.3164 24.2431 28.6434C22.1402 29.9713 20.474 31.6819 19.2466 33.7738C17.907 36.057 17.345 38.3255 17.5608 40.5768C17.7765 42.8307 18.4458 44.7842 19.5682 46.4358C20.6895 48.0894 21.8493 49.2428 23.0453 49.8975L21.4705 52.362Z" fill="#F8830D"/>
<g opacity="0.21">
<path opacity="0.21" d="M36.9944 40.3123C36.7626 39.1794 36.0276 38.2498 34.7862 37.5268C34.0101 37.0748 33.2661 36.8222 32.5531 36.7632C32.756 36.6698 32.9659 36.5872 33.1885 36.5237C34.2921 36.209 35.4796 36.4212 36.7523 37.1624C37.9937 37.8854 38.7287 38.815 38.9605 39.948C39.1922 41.0835 39.103 42.2548 38.6931 43.462L44.2578 44.2593C44.1746 44.4631 44.0887 44.6663 43.9932 44.8675L36.727 43.8264C37.1369 42.6192 37.2261 41.4479 36.9944 40.3123Z" fill="#1C333D"/>
<path opacity="0.21" d="M24.2429 28.6452C26.1013 27.4723 28.1045 26.7659 30.25 26.5234C28.8353 26.8901 27.4875 27.4738 26.209 28.2808C24.1061 29.6087 22.4399 31.3193 21.2126 33.4112C19.873 35.6944 19.3109 37.9629 19.5268 40.2143C19.7425 42.4681 20.4117 44.4216 21.5342 46.0733C22.6555 47.7269 23.8153 48.8803 25.0113 49.5349L23.4365 51.9994L30.1658 55.2282L29.567 56.2487L21.4703 52.3638L23.0452 49.8993C21.8491 49.2447 20.6894 48.0913 19.5681 46.4376C18.4456 44.786 17.7764 42.8325 17.5607 40.5787C17.3448 38.3273 17.9068 36.0588 19.2464 33.7756C20.4738 31.6837 22.14 29.9731 24.2429 28.6452Z" fill="#1C333D"/>
</g>
<path d="M22.7934 67.1362C24.3519 66.6621 25.5404 65.7276 26.3594 64.3317C27.1968 62.9046 27.3871 61.3993 26.9292 59.8138C26.4717 58.2298 25.5581 57.0377 24.1893 56.2406C22.9176 55.4999 21.5665 55.309 20.1386 55.6679C18.7101 56.0279 17.5588 56.9526 16.6849 58.4422C15.8103 59.9328 15.5199 61.465 15.8133 63.0398C16.1066 64.6146 16.9528 65.8094 18.353 66.6248C19.7541 67.4408 21.2338 67.6097 22.7934 67.1362Z" fill="#F8830D"/>
<path opacity="0.23" d="M20.1384 55.672C20.4163 55.6021 20.6903 55.5595 20.9624 55.5312C20.2548 56.0168 19.6409 56.693 19.1259 57.5708C18.2513 59.0613 17.961 60.5935 18.2543 62.1683C18.5476 63.7432 19.3939 64.938 20.794 65.7534C21.9112 66.4039 23.0792 66.6361 24.2969 66.4663C23.8404 66.7468 23.341 66.9736 22.7932 67.1402C21.2336 67.6137 19.7539 67.4448 18.3528 66.6289C16.9526 65.8135 16.1064 64.6187 15.8131 63.0439C15.5197 61.469 15.8101 59.9368 16.6846 58.4463C17.5586 56.9567 18.7099 56.0319 20.1384 55.672Z" fill="#1C333D"/>
<path d="M4.47353 6.69048C4.47353 5.84515 5.05909 5.1379 5.84758 4.94427C5.71115 4.64002 5.63369 4.30382 5.63369 3.94907C5.63369 2.5987 6.73247 1.50405 8.08786 1.50405C8.31667 1.50405 8.53724 1.53761 8.74736 1.59594C8.84937 0.698046 9.61347 0 10.542 0C11.2111 0 11.7938 0.36308 12.1062 0.901409C12.512 0.605625 13.0108 0.428829 13.5521 0.428829C14.7875 0.428829 15.8068 1.33916 15.9781 2.52265C16.6262 2.67812 17.1094 3.2557 17.1094 3.94907C17.1094 4.7615 16.4483 5.42012 15.6329 5.42012C15.2604 5.42012 14.9241 5.27811 14.6644 5.05142C14.3302 5.22115 13.953 5.31888 13.5521 5.31888C13.4327 5.31888 13.3161 5.30749 13.2012 5.29105C13.2013 5.30043 13.2026 5.3095 13.2026 5.31888C13.2026 6.3132 12.3935 7.11931 11.3955 7.11931C11.009 7.11931 10.6516 6.9974 10.3578 6.79154C10.4746 7.02984 10.542 7.29656 10.542 7.57955C10.542 8.57391 9.73299 9.37998 8.73487 9.37998C8.73487 10.3743 7.92582 11.1804 6.9277 11.1804C5.92966 11.1804 5.12057 10.3743 5.12057 9.37998C5.12057 8.97579 5.25591 8.60399 5.48166 8.3035C4.88495 8.00947 4.47353 7.39861 4.47353 6.69048Z" fill="#380A17"/>
<g opacity="0.2">
<path opacity="0.2" d="M11.3989 7.11494C11.3831 7.11494 11.3681 7.1117 11.3524 7.11128C11.3362 7.07126 11.3208 7.03077 11.3019 6.99219C11.3622 7.03446 11.4268 7.07069 11.4922 7.10555C11.4606 7.10717 11.4308 7.11494 11.3989 7.11494Z" fill="#380A17"/>
<path opacity="0.2" d="M4.46793 6.69048C4.46793 5.84519 5.0535 5.1379 5.84199 4.94431C5.70555 4.64005 5.62809 4.30386 5.62809 3.94911C5.62809 2.59873 6.72687 1.50408 8.08227 1.50408C8.31108 1.50408 8.53164 1.53764 8.74176 1.59598C8.84381 0.698081 9.60788 0 10.5364 0C10.8432 0 11.1301 0.0792436 11.3828 0.213835C10.498 0.26001 9.78087 0.934231 9.68235 1.80099C9.47223 1.74262 9.2517 1.70906 9.02289 1.70906C7.6675 1.70906 6.56872 2.80375 6.56872 4.15409C6.56872 4.50884 6.64618 4.84503 6.78261 5.14929C5.99412 5.34291 5.40856 6.05017 5.40856 6.89549C5.40856 7.60362 5.81998 8.21448 6.41669 8.50851C6.19091 8.809 6.0556 9.1808 6.0556 9.58499C6.0556 10.2756 6.45031 10.8683 7.02314 11.1703C6.98899 11.1722 6.95672 11.1804 6.92211 11.1804C5.92407 11.1804 5.11498 10.3744 5.11498 9.38001C5.11498 8.97582 5.25032 8.60402 5.47607 8.30353C4.87936 8.0095 4.46793 7.39864 4.46793 6.69048Z" fill="#380A17"/>
<path opacity="0.2" d="M15.6053 5.25C15.6674 5.30415 15.7344 5.35275 15.8047 5.3965C15.7477 5.40315 15.6919 5.41372 15.6332 5.41372C15.5223 5.41372 15.4161 5.39759 15.3127 5.37394C15.4131 5.33813 15.5113 5.29776 15.6053 5.25Z" fill="#380A17"/>
</g>
<path d="M19.4699 31.3183C19.4699 31.3183 20.1335 30.7894 21.4939 30.591C22.8544 30.3927 20.7971 31.7811 20.7971 31.7811C20.7971 31.7811 22.2571 31.5167 22.788 32.7729C23.3189 34.029 21.7262 35.2191 19.4699 34.4257C17.2136 33.6323 19.0717 33.1418 14.6918 32.6268C10.3118 32.1117 7.19273 30.7894 6.36321 29.4671C5.53367 28.1448 4.9364 25.8968 4.9364 25.8968L7.85639 24.6406C7.85639 24.6406 9.0509 26.6241 9.18363 28.3431C9.18363 28.3431 15.3554 30.3266 16.9481 30.9216C18.5408 31.5167 19.4699 31.3183 19.4699 31.3183Z" fill="#FFC7AB"/>
<g opacity="0.21">
<path opacity="0.21" d="M21.5103 31.2287C21.3587 31.2334 21.2618 31.2505 21.2618 31.2505C21.2618 31.2505 21.6191 31.0092 21.9375 30.7422C21.8941 30.8706 21.7154 31.0526 21.5103 31.2287Z" fill="#FFC7AB"/>
<path opacity="0.21" d="M5.48646 25.6562C5.67548 26.3018 6.18151 27.9024 6.83176 28.9389C7.66127 30.2612 10.7803 31.5836 15.1603 32.0986C19.5402 32.6137 17.6821 33.1042 19.9384 33.8976C21.1426 34.321 22.1536 34.1767 22.7578 33.7617C22.3698 34.5348 21.0918 34.9974 19.4631 34.4247C17.2068 33.6313 19.0649 33.1408 14.685 32.6257C10.305 32.1107 7.18597 30.7883 6.35642 29.4661C5.52687 28.1438 4.9296 25.8958 4.9296 25.8958L5.48646 25.6562Z" fill="#FFC7AB"/>
</g>
<path d="M6.2556 19.9531C6.2556 19.9531 7.54966 23.8209 8.84375 25.1101C8.84375 25.1101 5.26014 25.2423 4.79559 27.5564L3.86654 25.7052" fill="#F8830D"/>
<path d="M6.25171 19.9531C6.37015 20.4238 6.52306 20.884 6.67512 21.3452C6.83007 21.8054 7.01268 22.2558 7.20022 22.7051C7.38703 23.1549 7.59433 23.5978 7.83704 24.0257C8.07838 24.4541 8.33869 24.8774 8.70182 25.2476L8.83258 24.9158C8.38779 24.9376 7.96522 25.0051 7.54096 25.1079C7.11969 25.2112 6.70037 25.3432 6.30948 25.5477C5.92165 25.7511 5.54057 25.9953 5.24935 26.3398C4.95871 26.6833 4.76583 27.0997 4.68016 27.5342L4.89341 27.5057C4.73074 27.2011 4.55808 26.9014 4.38559 26.6016C4.2141 26.3014 4.04278 26.0011 3.86264 25.7052C3.99216 26.0263 4.13054 26.343 4.2687 26.6599C4.40591 26.9772 4.54291 27.2946 4.68996 27.607L4.81991 27.8832L4.90322 27.5786C5.00964 27.1896 5.20463 26.8365 5.4806 26.5502C5.76173 26.2687 6.10468 26.0498 6.47085 25.8776C6.83804 25.7059 7.23027 25.5785 7.63144 25.4873C8.03069 25.3982 8.44679 25.3306 8.84704 25.3044L9.28125 25.2759L8.97783 24.9726C8.65745 24.6523 8.39632 24.2489 8.14723 23.8463C7.90318 23.4379 7.67348 23.0164 7.45673 22.5872C7.02796 21.7263 6.63586 20.8431 6.25171 19.9531Z" fill="#F8830D"/>
</svg>
