<svg xmlns="http://www.w3.org/2000/svg" width="127.954" height="94.27" viewBox="0 0 127.954 94.27">
  <g id="Illustration" transform="translate(-105.285 -180.746)">
    <g id="Groupe_1466" data-name="Groupe 1466" transform="translate(105.285 180.746)">
      <g id="Groupe_1309" data-name="Groupe 1309" transform="translate(0 11.863)" opacity="0.43">
        <path id="Tracé_3682" data-name="Tracé 3682" d="M106.951,261.409c-4.416-11.148.245-25.146,10.463-31.422,6.176-3.792,13.634-4.815,20.276-7.712,10.221-4.458,17.956-13.065,27.11-19.431a53.955,53.955,0,0,1,22.727-9.464,36.971,36.971,0,0,1,23.992,4.258,36.208,36.208,0,0,1,15.671,20.469,49.154,49.154,0,0,1,.4,26.049,27.393,27.393,0,0,1-3.8,9.274,13.25,13.25,0,0,1-8.043,5.655" transform="translate(-105.285 -192.947)" fill="#ede6f5"/>
      </g>
      <path id="Tracé_3683" data-name="Tracé 3683" d="M222.135,259.612s-114.478,2.6-115.152,2.966c0,0,9.568,15.391,38.62,14.592S223.376,274.981,222.135,259.612Z" transform="translate(-105.332 -182.931)" fill="#ede6f5"/>
      <path id="Tracé_3684" data-name="Tracé 3684" d="M161.827,205.725c-3.225,1.172-2.093-2.509-2.208-4.074a13.451,13.451,0,0,0-.67-4.626c-.515-1.141-1.491-2.145-1.494-3.4a11.119,11.119,0,0,1,.81-2.717c.332-1.266.022-2.617.234-3.909a5.077,5.077,0,0,1,5.46-4.057c1.244.162,2.445.8,3.688.63,1.369-.189,2.4-1.3,3.588-2a5.875,5.875,0,0,1,5.544-.255,4.927,4.927,0,0,1,2.665,4.749,4.251,4.251,0,0,1-3.8,3.729,11.18,11.18,0,0,1-3.3-.645,4.051,4.051,0,0,0-3.267.254c-1.174.8-1.679,2.645-3.094,2.776a4.492,4.492,0,0,1-2.1-.708c-.686-.3-1.647-.361-2.037.281-.322.53-.054,1.2.018,1.818a2.514,2.514,0,0,1-1.153,2.749c-.411,3.109.528,6.091,1.454,9.088" transform="translate(-106.73 -180.746)" fill="#552e3b"/>
      <path id="Tracé_3685" data-name="Tracé 3685" d="M134.379,260.641l-8.709-48.714h28.01l10.368,47.792Z" transform="translate(-105.849 -181.61)" fill="#b8abd6"/>
      <path id="Tracé_3686" data-name="Tracé 3686" d="M136.581,260.574,127.4,211.927h28.01l10.368,47.792Z" transform="translate(-105.897 -181.61)" fill="#ddd2f3"/>
      <path id="Tracé_3687" data-name="Tracé 3687" d="M155.877,211.927s-9.685,4.271-12.4,8.859c-2.341,3.962-13.551,27.271-9.4,30.536s31.747,2.226,31.747,2.226l1.794-7.421-21.669-3.71,13.281-11.672Z" transform="translate(-106.057 -181.61)" fill="#b8abd6" opacity="0.44"/>
      <path id="Tracé_3688" data-name="Tracé 3688" d="M180.569,223.785c-.153-.473-1.226-10.78-12.091-10.526-10.186.238-15.854.827-19.4,8.752l3.784,14.976.785,23.171,29.375-.947Z" transform="translate(-106.498 -181.647)" fill="#6338a1"/>
      <path id="Tracé_3689" data-name="Tracé 3689" d="M153.1,216.365a19.624,19.624,0,0,0-6.868,6.791c-2.342,3.963-13.551,27.272-9.4,30.537s31.746,2.226,31.746,2.226l1.794-7.421-21.668-3.71,3.783-7.715Z" transform="translate(-106.133 -181.733)" fill="#6338a1"/>
      <path id="Tracé_3690" data-name="Tracé 3690" d="M175.946,215.04s10.376,6.958,21.2,25.062l-4.374,10.715-11.418-14.485Z" transform="translate(-107.242 -181.696)" fill="#6338a1"/>
      <path id="Tracé_3691" data-name="Tracé 3691" d="M164.542,262.773h23.777l1.176-2.03-24.953.716Z" transform="translate(-106.926 -182.962)" fill="#b8abd6"/>
      <path id="Tracé_3692" data-name="Tracé 3692" d="M170.818,252.148h9.74s5.959,5.311,4.929,5.568-4.671-3.335-4.671-3.335l2.774,6.165s-4.261-.579-5.644-1.74-2.674-2.062-2.674-2.062l-5.543.515Z" transform="translate(-107.07 -182.724)" fill="#f9c8c7"/>
      <g id="Groupe_1310" data-name="Groupe 1310" transform="translate(45.963 34.776)">
        <path id="Tracé_3693" data-name="Tracé 3693" d="M153.408,216.571a1.354,1.354,0,0,1,.258-.04,1.613,1.613,0,0,1,.316-.017,2.5,2.5,0,0,1,.432.027,4.4,4.4,0,0,1,2.439,1.209A5.734,5.734,0,0,1,158,219.27a6.07,6.07,0,0,1,.631,2.092,12.38,12.38,0,0,1-.572,4.939,40.424,40.424,0,0,1-3.5,8.334c-.568,1.01-1.067,1.8-1.427,2.342-.176.271-.324.474-.421.614a1.477,1.477,0,0,1-.158.207,1.5,1.5,0,0,1,.129-.227l.394-.631c.343-.547.825-1.35,1.378-2.364a42.689,42.689,0,0,0,3.437-8.323,12.4,12.4,0,0,0,.58-4.873,5.742,5.742,0,0,0-1.705-3.544,4.418,4.418,0,0,0-2.366-1.231A5.935,5.935,0,0,0,153.408,216.571Z" transform="translate(-152.558 -216.513)" fill="#452775"/>
      </g>
      <g id="Groupe_1311" data-name="Groupe 1311" transform="translate(72.622 40.945)">
        <path id="Tracé_3694" data-name="Tracé 3694" d="M179.979,222.858a.984.984,0,0,1,.045.206c.025.154.056.351.1.594.085.538.2,1.28.346,2.187.3,1.865.7,4.406,1.142,7.214s.793,5.38,1,7.24c.1.93.171,1.684.207,2.206.013.247.022.446.03.6a.994.994,0,0,1,0,.211.952.952,0,0,1-.033-.208l-.062-.6c-.056-.519-.141-1.27-.261-2.2-.236-1.854-.617-4.408-1.048-7.228s-.829-5.371-1.093-7.222c-.132-.926-.231-1.676-.294-2.2l-.064-.6A.989.989,0,0,1,179.979,222.858Z" transform="translate(-179.976 -222.858)" fill="#452775"/>
      </g>
      <g id="Groupe_1315" data-name="Groupe 1315" transform="translate(30.456 62.84)">
        <path id="Tracé_3695" data-name="Tracé 3695" d="M150.818,267.729c0,.522-2.431.946-5.429.946s-5.43-.424-5.43-.946,2.431-.946,5.43-.946S150.818,267.207,150.818,267.729Z" transform="translate(-136.701 -245.97)" fill="#b8abd6" opacity="0.14"/>
        <path id="Tracé_3696" data-name="Tracé 3696" d="M147.253,257.459s-4.688-1.773-9.061,0v1.014s-1.584-.126-1.584,1.394a4.427,4.427,0,0,0,2.535,4.371l.887,2.789s3.8.95,5.766,0c0,0,.445-1.46.824-2.978C146.892,262.954,147.253,257.459,147.253,257.459Zm-9.873,2.968c-.105-1.281.947-.863.947-.863l.557,3.621S137.575,262.8,137.38,260.427Z" transform="translate(-136.608 -245.69)" fill="#fac28c"/>
        <path id="Tracé_3697" data-name="Tracé 3697" d="M146.687,257.58a17.583,17.583,0,0,0-7.738.033A6.177,6.177,0,0,0,146.687,257.58Z" transform="translate(-136.673 -245.703)" fill="#db9d6a"/>
        <g id="Groupe_1312" data-name="Groupe 1312" transform="translate(2.093 16.076)">
          <path id="Tracé_3698" data-name="Tracé 3698" d="M147.095,261.914a1.261,1.261,0,0,1-.3.147,8.072,8.072,0,0,1-.861.306,11.745,11.745,0,0,1-5.979.2,8.324,8.324,0,0,1-.88-.248,1.292,1.292,0,0,1-.311-.126c.009-.028.464.112,1.216.257a13.316,13.316,0,0,0,5.921-.2C146.639,262.057,147.084,261.887,147.095,261.914Z" transform="translate(-138.761 -261.911)" fill="#b28560"/>
        </g>
        <g id="Groupe_1313" data-name="Groupe 1313" transform="translate(2.019 15.195)">
          <path id="Tracé_3699" data-name="Tracé 3699" d="M146.886,261.008a1.274,1.274,0,0,1-.289.166,7.231,7.231,0,0,1-.836.354,9.934,9.934,0,0,1-5.914.236,7.028,7.028,0,0,1-.861-.287,1.276,1.276,0,0,1-.3-.142c.011-.029.453.139,1.192.312a11,11,0,0,0,5.845-.233C146.446,261.184,146.873,260.98,146.886,261.008Z" transform="translate(-138.685 -261.005)" fill="#b28560"/>
        </g>
        <g id="Groupe_1314" data-name="Groupe 1314" transform="translate(2.204)" opacity="0.07">
          <path id="Tracé_3700" data-name="Tracé 3700" d="M139.1,257.284a1.08,1.08,0,0,1,.229-1.433,5.406,5.406,0,0,1,1.411-.755,1.73,1.73,0,0,0,1.06-1.127c.178-1.012-1.156-1.91-.818-2.88.318-.912,1.747-.847,2.3-1.64.6-.869-.218-2.116.157-3.106a1.665,1.665,0,0,1,1.785-.947,2.676,2.676,0,0,1,1.75,1.2,7.274,7.274,0,0,1,.858,2,3.568,3.568,0,0,1,.059,2.768c-.236.419-.657.855-.475,1.3.111.27.405.407.615.612a1.953,1.953,0,0,1,.219,2.035,5.228,5.228,0,0,1-9.37,1.023" transform="translate(-138.875 -245.377)" fill="#f9fafd"/>
        </g>
      </g>
      <g id="Groupe_1316" data-name="Groupe 1316" transform="translate(69.033 42.636)">
        <path id="Tracé_3701" data-name="Tracé 3701" d="M177.7,224.6a8.948,8.948,0,0,1-1.415,2.011A8.95,8.95,0,0,1,177.7,224.6Z" transform="translate(-176.284 -224.597)" fill="#a869c5"/>
      </g>
      <path id="Tracé_3702" data-name="Tracé 3702" d="M161.98,213.612s5.986,15.522,10.166,20.766c0,0,1.755-15.309,0-20.835C172.146,213.543,164.127,212.582,161.98,213.612Z" transform="translate(-106.855 -181.643)" fill="#f9fafd"/>
      <path id="Tracé_3703" data-name="Tracé 3703" d="M160.867,187.639l-.4,9.207s-2.828-.034-2.825,2.562a2.522,2.522,0,0,0,3.066,2.716s-.633,6.226,7.908,6.739c9.991.6,7.867-15.015,7.481-22.345Z" transform="translate(-106.735 -180.906)" fill="#f9c8c7"/>
      <path id="Tracé_3704" data-name="Tracé 3704" d="M172.171,202.116l-.5,11.228a4.35,4.35,0,0,1-6.294,3.7l-.109-.054a4.352,4.352,0,0,1-2.4-4.027c.12-3.945.162-10.745.162-10.745Z" transform="translate(-106.88 -181.338)" fill="#f9c8c7"/>
      <g id="Groupe_1317" data-name="Groupe 1317" transform="translate(54.33 32.09)">
        <path id="Tracé_3705" data-name="Tracé 3705" d="M172.124,234.4a1.547,1.547,0,0,1-.2-.169c-.129-.116-.315-.289-.552-.514-.474-.452-1.145-1.121-1.963-1.958s-1.784-1.841-2.9-2.911a21.279,21.279,0,0,1-1.709-1.735,5.076,5.076,0,0,1-1.176-2.34,3.117,3.117,0,0,1,.3-2.08l.128.1a1.207,1.207,0,0,1-1.153.19,1.717,1.717,0,0,1-.91-.671,3.978,3.978,0,0,1-.5-2.013c-.07-1.3-.132-2.46-.184-3.435-.047-.958-.084-1.731-.11-2.284-.009-.256-.017-.46-.021-.615a1.013,1.013,0,0,1,0-.215,1.21,1.21,0,0,1,.028.213l.051.614c.038.551.092,1.324.159,2.28.063.974.137,2.134.221,3.433a3.858,3.858,0,0,0,.49,1.932,1.554,1.554,0,0,0,.825.6,1.043,1.043,0,0,0,1-.158l.37-.325-.242.429a2.965,2.965,0,0,0-.276,1.969A4.952,4.952,0,0,0,164.927,227a21.627,21.627,0,0,0,1.69,1.728c1.112,1.08,2.067,2.1,2.876,2.94s1.464,1.528,1.924,2l.529.536A1.6,1.6,0,0,1,172.124,234.4Z" transform="translate(-161.163 -213.75)" fill="#452775"/>
      </g>
      <g id="Groupe_1318" data-name="Groupe 1318" transform="translate(65.291 31.9)">
        <path id="Tracé_3706" data-name="Tracé 3706" d="M172.436,213.555a.706.706,0,0,1,.129.1c.083.07.2.178.349.323a8.817,8.817,0,0,1,1.133,1.364,10.114,10.114,0,0,1,.631,1.073,5.33,5.33,0,0,1,.523,1.355,4.136,4.136,0,0,1,.051,1.632,3.033,3.033,0,0,1-.788,1.6l0-.112a2.569,2.569,0,0,1,.579,1.21,5,5,0,0,1,.052,1.391c-.072.777-.231,1.511-.357,2.227s-.271,1.4-.409,2.053c-.275,1.306-.553,2.475-.8,3.454s-.467,1.766-.625,2.307q-.117.385-.188.622a1.129,1.129,0,0,1-.077.214,1.115,1.115,0,0,1,.044-.223c.04-.161.092-.37.158-.631.138-.546.339-1.337.572-2.318s.5-2.152.765-3.457c.133-.652.267-1.339.4-2.052s.282-1.453.351-2.211a4.829,4.829,0,0,0-.048-1.344,2.4,2.4,0,0,0-.538-1.133l-.05-.057.053-.055a2.883,2.883,0,0,0,.752-1.51,4.037,4.037,0,0,0-.036-1.573,5.3,5.3,0,0,0-.5-1.33,10.617,10.617,0,0,0-.607-1.072,9.738,9.738,0,0,0-1.086-1.382l-.328-.341A.645.645,0,0,1,172.436,213.555Z" transform="translate(-172.436 -213.555)" fill="#452775"/>
      </g>
      <g id="Groupe_1319" data-name="Groupe 1319" transform="translate(65.144 52.796)">
        <path id="Tracé_3707" data-name="Tracé 3707" d="M173.43,251.674c-.048,0-.34-3.717-.654-8.308s-.532-8.316-.485-8.32.34,3.716.654,8.308S173.477,251.671,173.43,251.674Z" transform="translate(-172.285 -235.046)" fill="#452775"/>
      </g>
      <g id="Groupe_1320" data-name="Groupe 1320" transform="translate(66.882 57.095)">
        <path id="Tracé_3708" data-name="Tracé 3708" d="M174.974,239.616c0-.009.077-.039.226-.023a.888.888,0,0,1,.553.285.906.906,0,0,1,.169.905.922.922,0,0,1-.938.6,1,1,0,0,1-.861-.719,1,1,0,0,1,.146-.912.765.765,0,0,1,.553-.287c.151,0,.226.038.223.046s-.082,0-.216.019a.746.746,0,0,0-.465.295.888.888,0,0,0-.092.79.861.861,0,0,0,.723.6.773.773,0,0,0,.781-.488.792.792,0,0,0-.114-.774.894.894,0,0,0-.473-.3C175.055,239.624,174.975,239.63,174.974,239.616Z" transform="translate(-174.073 -239.468)" fill="#452775"/>
      </g>
      <g id="Groupe_1321" data-name="Groupe 1321" transform="translate(67.413 63.695)">
        <path id="Tracé_3709" data-name="Tracé 3709" d="M175.519,246.4c0-.009.078-.039.226-.023a.893.893,0,0,1,.553.285.906.906,0,0,1,.169.905.919.919,0,0,1-.938.6,1,1,0,0,1-.86-.72.992.992,0,0,1,.145-.912.769.769,0,0,1,.553-.287c.151,0,.226.038.223.047s-.082,0-.216.018a.744.744,0,0,0-.464.295.884.884,0,0,0-.092.79.859.859,0,0,0,.723.6.771.771,0,0,0,.78-.487.794.794,0,0,0-.114-.775.894.894,0,0,0-.473-.3C175.6,246.412,175.52,246.418,175.519,246.4Z" transform="translate(-174.618 -246.256)" fill="#452775"/>
      </g>
      <g id="Groupe_1322" data-name="Groupe 1322" transform="translate(67.477 57.748)">
        <path id="Tracé_3710" data-name="Tracé 3710" d="M174.846,240.166a.117.117,0,0,1,0,.119.115.115,0,0,1-.11.046c-.047-.006-.074-.075-.032-.139S174.824,240.126,174.846,240.166Z" transform="translate(-174.685 -240.139)" fill="#452775"/>
      </g>
      <g id="Groupe_1323" data-name="Groupe 1323" transform="translate(67.983 58.127)">
        <path id="Tracé_3711" data-name="Tracé 3711" d="M175.335,240.543a.085.085,0,0,1,.026.118.085.085,0,1,1-.144-.09A.085.085,0,0,1,175.335,240.543Z" transform="translate(-175.204 -240.53)" fill="#452775"/>
      </g>
      <g id="Groupe_1324" data-name="Groupe 1324" transform="translate(67.942 64.326)">
        <path id="Tracé_3712" data-name="Tracé 3712" d="M175.334,246.92a.1.1,0,0,1-.007.144.089.089,0,1,1,.007-.144Z" transform="translate(-175.162 -246.905)" fill="#452775"/>
      </g>
      <g id="Groupe_1325" data-name="Groupe 1325" transform="translate(68.427 64.832)">
        <path id="Tracé_3713" data-name="Tracé 3713" d="M175.877,247.444c.032.035.013.1-.043.154s-.126.063-.158.029-.013-.1.043-.155S175.846,247.409,175.877,247.444Z" transform="translate(-175.661 -247.425)" fill="#452775"/>
      </g>
      <g id="Groupe_1326" data-name="Groupe 1326" transform="translate(62.383 67.13)">
        <path id="Tracé_3714" data-name="Tracé 3714" d="M171.112,249.789c.046.009-.289,1.93-.749,4.29s-.868,4.267-.915,4.259.289-1.93.749-4.291S171.066,249.78,171.112,249.789Z" transform="translate(-169.445 -249.789)" fill="#452775"/>
      </g>
      <g id="Groupe_1327" data-name="Groupe 1327" transform="translate(58.649 66.614)">
        <path id="Tracé_3715" data-name="Tracé 3715" d="M167.4,249.258c.046.01-.318,1.893-.813,4.207s-.932,4.181-.978,4.171.318-1.893.813-4.207S167.354,249.248,167.4,249.258Z" transform="translate(-165.605 -249.258)" fill="#452775"/>
      </g>
      <g id="Groupe_1328" data-name="Groupe 1328" transform="translate(46.895 63.821)">
        <path id="Tracé_3716" data-name="Tracé 3716" d="M170.952,249.748c-.01.047-3.92-.669-8.734-1.6s-8.711-1.717-8.7-1.764,3.918.669,8.734,1.6S170.961,249.7,170.952,249.748Z" transform="translate(-153.516 -246.386)" fill="#452775"/>
      </g>
      <g id="Groupe_1329" data-name="Groupe 1329" transform="translate(47.19 74.32)">
        <path id="Tracé_3717" data-name="Tracé 3717" d="M169.016,258.4c0,.047-3.409-.186-7.6-.519s-7.6-.643-7.593-.689,3.409.186,7.606.52S169.02,258.352,169.016,258.4Z" transform="translate(-153.819 -257.184)" fill="#452775"/>
      </g>
      <g id="Groupe_1330" data-name="Groupe 1330" transform="translate(66.451 74.193)">
        <path id="Tracé_3718" data-name="Tracé 3718" d="M174,260.738a8.766,8.766,0,0,1-.284-3.685c.05,0,.035.83.115,1.844S174.048,260.728,174,260.738Z" transform="translate(-173.629 -257.053)" fill="#452775"/>
      </g>
      <g id="Groupe_1331" data-name="Groupe 1331" transform="translate(68.24 48.025)">
        <path id="Tracé_3719" data-name="Tracé 3719" d="M180.067,230.158a31.368,31.368,0,0,1-4.6.362,31.385,31.385,0,0,1,4.6-.362Z" transform="translate(-175.469 -230.14)" fill="#452775"/>
      </g>
      <g id="Groupe_1332" data-name="Groupe 1332" transform="translate(74.215 49.152)">
        <path id="Tracé_3720" data-name="Tracé 3720" d="M194.683,247.371c-.037.03-2.992-3.545-6.6-7.983s-6.5-8.06-6.469-8.089,2.991,3.544,6.6,7.983S194.719,247.342,194.683,247.371Z" transform="translate(-181.615 -231.299)" fill="#452775"/>
      </g>
      <g id="Groupe_1333" data-name="Groupe 1333" transform="translate(48.375 52.001)">
        <path id="Tracé_3721" data-name="Tracé 3721" d="M155.926,246.427c-.047,0-.281-2.725-.524-6.093s-.4-6.1-.356-6.105.282,2.724.525,6.093S155.972,246.424,155.926,246.427Z" transform="translate(-155.038 -234.229)" fill="#452775"/>
      </g>
      <g id="Groupe_1334" data-name="Groupe 1334" transform="translate(50.035 74.624)">
        <path id="Tracé_3722" data-name="Tracé 3722" d="M157.38,261.288a6.31,6.31,0,0,1-.537-3.792c.052,0-.011.867.142,1.914S157.429,261.27,157.38,261.288Z" transform="translate(-156.745 -257.496)" fill="#452775"/>
      </g>
      <g id="Groupe_1335" data-name="Groupe 1335" transform="translate(70.352 45.619)">
        <path id="Tracé_3723" data-name="Tracé 3723" d="M178.644,228.854c-.036.03-.289-.211-.565-.539s-.47-.617-.435-.648.289.211.565.539S178.679,228.823,178.644,228.854Z" transform="translate(-177.641 -227.665)" fill="#a869c5"/>
      </g>
      <g id="Groupe_1336" data-name="Groupe 1336" transform="translate(54.653 52.485)">
        <path id="Tracé_3724" data-name="Tracé 3724" d="M162.565,234.728a5.322,5.322,0,0,1-1.065,1.558,5.272,5.272,0,0,1,1.065-1.558Z" transform="translate(-161.495 -234.726)" fill="#a869c5"/>
      </g>
      <g id="Groupe_1337" data-name="Groupe 1337" transform="translate(49.995 54.244)">
        <path id="Tracé_3725" data-name="Tracé 3725" d="M158.338,238.088a7.439,7.439,0,0,1-1.632-1.55,7.561,7.561,0,0,1,1.632,1.55Z" transform="translate(-156.704 -236.535)" fill="#a869c5"/>
      </g>
      <g id="Groupe_1338" data-name="Groupe 1338" transform="translate(51.821 49.627)">
        <path id="Tracé_3726" data-name="Tracé 3726" d="M159.2,233.656a2.313,2.313,0,0,1-.576-1.869c.05,0,.084.439.243.948S159.239,233.629,159.2,233.656Z" transform="translate(-158.582 -231.787)" fill="#a869c5"/>
      </g>
      <g id="Groupe_1339" data-name="Groupe 1339" transform="translate(53.115 46.691)">
        <path id="Tracé_3727" data-name="Tracé 3727" d="M161.414,229.893a2.671,2.671,0,0,1-1.5-1.123,5.2,5.2,0,0,1,.75.561A5.347,5.347,0,0,1,161.414,229.893Z" transform="translate(-159.913 -228.767)" fill="#a869c5"/>
      </g>
      <g id="Groupe_1340" data-name="Groupe 1340" transform="translate(60.011 51.636)">
        <path id="Tracé_3728" data-name="Tracé 3728" d="M167.875,233.855a2.233,2.233,0,0,1-.359.777c-.238.405-.464.715-.5.69a4.315,4.315,0,0,1,.863-1.467Z" transform="translate(-167.006 -233.854)" fill="#a869c5"/>
      </g>
      <g id="Groupe_1341" data-name="Groupe 1341" transform="translate(58.204 48.191)">
        <path id="Tracé_3729" data-name="Tracé 3729" d="M165.366,232.495a4.144,4.144,0,0,1-.124-2.185,25.6,25.6,0,0,1,.124,2.185Z" transform="translate(-165.147 -230.31)" fill="#a869c5"/>
      </g>
      <g id="Groupe_1342" data-name="Groupe 1342" transform="translate(58.028 55.494)">
        <path id="Tracé_3730" data-name="Tracé 3730" d="M165.346,240.073a3.338,3.338,0,0,1-.3-2.252c.05,0,.036.513.119,1.13S165.393,240.056,165.346,240.073Z" transform="translate(-164.966 -237.821)" fill="#a869c5"/>
      </g>
      <g id="Groupe_1343" data-name="Groupe 1343" transform="translate(54.735 57.864)">
        <path id="Tracé_3731" data-name="Tracé 3731" d="M162.833,242.007a3.364,3.364,0,0,1-1.248-1.747,97.241,97.241,0,0,0,1.248,1.747Z" transform="translate(-161.579 -240.259)" fill="#a869c5"/>
      </g>
      <g id="Groupe_1344" data-name="Groupe 1344" transform="translate(51.251 60.678)">
        <path id="Tracé_3732" data-name="Tracé 3732" d="M159.308,243.158c.027.038-.244.279-.606.538a1.992,1.992,0,0,1-.7.4c-.027-.038.244-.279.606-.538A1.992,1.992,0,0,1,159.308,243.158Z" transform="translate(-157.996 -243.153)" fill="#a869c5"/>
      </g>
      <g id="Groupe_1345" data-name="Groupe 1345" transform="translate(49.806 57.923)">
        <path id="Tracé_3733" data-name="Tracé 3733" d="M157.182,241.281c-.027.036-.267-.11-.458-.391s-.243-.556-.2-.57.162.217.34.474S157.213,241.244,157.182,241.281Z" transform="translate(-156.509 -240.319)" fill="#a869c5"/>
      </g>
      <g id="Groupe_1346" data-name="Groupe 1346" transform="translate(55.34 63.351)">
        <path id="Tracé_3734" data-name="Tracé 3734" d="M162.7,245.9a4.589,4.589,0,0,1-.49,1.688,4.574,4.574,0,0,1,.49-1.688Z" transform="translate(-162.201 -245.903)" fill="#a869c5"/>
      </g>
      <g id="Groupe_1347" data-name="Groupe 1347" transform="translate(58.277 62.548)">
        <path id="Tracé_3735" data-name="Tracé 3735" d="M166.12,246.819a1.793,1.793,0,0,1-.618-.783,1.813,1.813,0,0,1-.266-.961,8.448,8.448,0,0,1,.418.884A8.624,8.624,0,0,1,166.12,246.819Z" transform="translate(-165.223 -245.076)" fill="#a869c5"/>
      </g>
      <g id="Groupe_1348" data-name="Groupe 1348" transform="translate(61.664 63.234)">
        <path id="Tracé_3736" data-name="Tracé 3736" d="M170.393,246.908a3.05,3.05,0,0,1-.891-.49,3.082,3.082,0,0,1-.8-.632,6.137,6.137,0,0,1,1.686,1.122Z" transform="translate(-168.706 -245.781)" fill="#a869c5"/>
      </g>
      <g id="Groupe_1349" data-name="Groupe 1349" transform="translate(62.312 59.51)">
        <path id="Tracé_3737" data-name="Tracé 3737" d="M170.872,241.955a5.662,5.662,0,0,1-1.5,1.248,5.664,5.664,0,0,1,1.5-1.248Z" transform="translate(-169.372 -241.951)" fill="#a869c5"/>
      </g>
      <g id="Groupe_1350" data-name="Groupe 1350" transform="translate(59.714 59.478)">
        <path id="Tracé_3738" data-name="Tracé 3738" d="M167.211,241.923c.038.028-.044.2-.183.393s-.281.32-.319.292.044-.2.182-.393S167.174,241.9,167.211,241.923Z" transform="translate(-166.7 -241.919)" fill="#a869c5"/>
      </g>
      <g id="Groupe_1351" data-name="Groupe 1351" transform="translate(61.285 55.314)">
        <path id="Tracé_3739" data-name="Tracé 3739" d="M169.948,239.063a1662.557,1662.557,0,0,1-1.632-1.422,3.545,3.545,0,0,1,1.632,1.422Z" transform="translate(-168.316 -237.636)" fill="#a869c5"/>
      </g>
      <g id="Groupe_1352" data-name="Groupe 1352" transform="translate(54.707 42.946)">
        <path id="Tracé_3740" data-name="Tracé 3740" d="M161.554,227.19c-.039-.031.3-.486.593-1.112s.439-1.173.487-1.162a3.581,3.581,0,0,1-1.08,2.274Z" transform="translate(-161.551 -224.916)" fill="#a869c5"/>
      </g>
      <g id="Groupe_1353" data-name="Groupe 1353" transform="translate(52.888 41.138)">
        <path id="Tracé_3741" data-name="Tracé 3741" d="M159.916,225.365a4.8,4.8,0,0,1-.159-2.309,5.95,5.95,0,0,1,.108,1.152A6.026,6.026,0,0,1,159.916,225.365Z" transform="translate(-159.68 -223.056)" fill="#a869c5"/>
      </g>
      <g id="Groupe_1354" data-name="Groupe 1354" transform="translate(51.925 35.771)">
        <path id="Tracé_3742" data-name="Tracé 3742" d="M159.945,218.47a1.131,1.131,0,0,1-.751-.3c-.369-.272-.539-.613-.5-.634s.26.247.6.5S159.96,218.423,159.945,218.47Z" transform="translate(-158.689 -217.536)" fill="#a869c5"/>
      </g>
      <g id="Groupe_1355" data-name="Groupe 1355" transform="translate(50.809 33.393)">
        <path id="Tracé_3743" data-name="Tracé 3743" d="M158.729,215.1c.019.043-.229.2-.557.357s-.61.246-.63.2.229-.2.557-.357S158.709,215.058,158.729,215.1Z" transform="translate(-157.541 -215.09)" fill="#a869c5"/>
      </g>
      <g id="Groupe_1356" data-name="Groupe 1356" transform="translate(56.07 36.956)">
        <path id="Tracé_3744" data-name="Tracé 3744" d="M162.985,220.315a3.664,3.664,0,0,1,.187-1.56,1.873,1.873,0,0,1-.01.789A1.907,1.907,0,0,1,162.985,220.315Z" transform="translate(-162.952 -218.755)" fill="#a869c5"/>
      </g>
      <g id="Groupe_1357" data-name="Groupe 1357" transform="translate(58.046 42.752)">
        <path id="Tracé_3745" data-name="Tracé 3745" d="M165.737,225.286c-.028.038-.218-.057-.425-.213s-.352-.311-.324-.349.219.058.426.214S165.765,225.249,165.737,225.286Z" transform="translate(-164.984 -224.716)" fill="#a869c5"/>
      </g>
      <g id="Groupe_1358" data-name="Groupe 1358" transform="translate(66.729 41.573)">
        <path id="Tracé_3746" data-name="Tracé 3746" d="M174.336,223.5a4.755,4.755,0,0,1-.4,1.74,4.742,4.742,0,0,1,.4-1.74Z" transform="translate(-173.915 -223.504)" fill="#a869c5"/>
      </g>
      <g id="Groupe_1359" data-name="Groupe 1359" transform="translate(66.647 36.456)">
        <path id="Tracé_3747" data-name="Tracé 3747" d="M174.532,219.116c-.021.04-.275-.069-.478-.331s-.252-.532-.208-.544.157.206.341.438S174.558,219.075,174.532,219.116Z" transform="translate(-173.831 -218.241)" fill="#a869c5"/>
      </g>
      <g id="Groupe_1360" data-name="Groupe 1360" transform="translate(68.839 38.328)">
        <path id="Tracé_3748" data-name="Tracé 3748" d="M176.9,220.168a1.825,1.825,0,0,1-.333.7c-.225.363-.439.636-.478.611a1.839,1.839,0,0,1,.334-.7C176.65,220.417,176.864,220.144,176.9,220.168Z" transform="translate(-176.085 -220.166)" fill="#a869c5"/>
      </g>
      <g id="Groupe_1361" data-name="Groupe 1361" transform="translate(71.403 38.515)">
        <path id="Tracé_3749" data-name="Tracé 3749" d="M178.767,222.295a2.854,2.854,0,0,1-.026-.973,2.813,2.813,0,0,1,.143-.963,5.59,5.59,0,0,1-.117,1.936Z" transform="translate(-178.722 -220.359)" fill="#a869c5"/>
      </g>
      <g id="Groupe_1362" data-name="Groupe 1362" transform="translate(68.703 34.096)">
        <path id="Tracé_3750" data-name="Tracé 3750" d="M177.323,217.5a3.529,3.529,0,0,1-.753-.789,3.573,3.573,0,0,1-.621-.9,7.045,7.045,0,0,1,1.374,1.685Z" transform="translate(-175.946 -215.813)" fill="#a869c5"/>
      </g>
      <g id="Groupe_1363" data-name="Groupe 1363" transform="translate(47.522 40.324)">
        <path id="Tracé_3751" data-name="Tracé 3751" d="M154.178,224.527a8.113,8.113,0,0,1,.377-2.308,8.114,8.114,0,0,1-.377,2.308Z" transform="translate(-154.16 -222.219)" fill="#a869c5"/>
      </g>
      <g id="Groupe_1364" data-name="Groupe 1364" transform="translate(44.008 38.671)">
        <path id="Tracé_3752" data-name="Tracé 3752" d="M152.291,220.55a4.268,4.268,0,0,1-.868.237,4.105,4.105,0,0,1-.876.208,1.788,1.788,0,0,1,.834-.372A1.764,1.764,0,0,1,152.291,220.55Z" transform="translate(-150.546 -220.519)" fill="#a869c5"/>
      </g>
      <g id="Groupe_1365" data-name="Groupe 1365" transform="translate(47.123 36.017)">
        <path id="Tracé_3753" data-name="Tracé 3753" d="M154.877,218.917c-.033.033-.311-.192-.621-.5s-.535-.589-.5-.622.311.192.621.5S154.91,218.884,154.877,218.917Z" transform="translate(-153.751 -217.79)" fill="#a869c5"/>
      </g>
      <g id="Groupe_1366" data-name="Groupe 1366" transform="translate(50.095 39.828)">
        <path id="Tracé_3754" data-name="Tracé 3754" d="M157.022,223.644a1.857,1.857,0,0,1-.213-.962,1.876,1.876,0,0,1,.15-.973,6.376,6.376,0,0,1,.02.967A6.509,6.509,0,0,1,157.022,223.644Z" transform="translate(-156.807 -221.709)" fill="#a869c5"/>
      </g>
      <g id="Groupe_1367" data-name="Groupe 1367" transform="translate(47.735 46.429)">
        <path id="Tracé_3755" data-name="Tracé 3755" d="M154.388,230.195a5.074,5.074,0,0,1,.725-1.7,5.049,5.049,0,0,1-.725,1.7Z" transform="translate(-154.379 -228.498)" fill="#a869c5"/>
      </g>
      <g id="Groupe_1368" data-name="Groupe 1368" transform="translate(45.43 44.068)">
        <path id="Tracé_3756" data-name="Tracé 3756" d="M152.021,227.385a1.269,1.269,0,0,1,.29-.754c.25-.378.555-.592.583-.557s-.207.295-.442.651S152.066,227.4,152.021,227.385Z" transform="translate(-152.009 -226.07)" fill="#a869c5"/>
      </g>
      <g id="Groupe_1369" data-name="Groupe 1369" transform="translate(42.384 42.702)">
        <path id="Tracé_3757" data-name="Tracé 3757" d="M148.884,226.662a3.523,3.523,0,0,1,.358-1.033,3.57,3.57,0,0,1,.514-.965,7.069,7.069,0,0,1-.872,2Z" transform="translate(-148.877 -224.664)" fill="#a869c5"/>
      </g>
      <g id="Groupe_1370" data-name="Groupe 1370" transform="translate(40.407 41.95)">
        <path id="Tracé_3758" data-name="Tracé 3758" d="M146.867,225.886a5.979,5.979,0,0,1,.263-2,5.98,5.98,0,0,1-.263,2Z" transform="translate(-146.843 -223.891)" fill="#a869c5"/>
      </g>
      <g id="Groupe_1371" data-name="Groupe 1371" transform="translate(38.18 47.637)">
        <path id="Tracé_3759" data-name="Tracé 3759" d="M145.437,231.237a2.314,2.314,0,0,1-.512-.7,2.29,2.29,0,0,1-.366-.79,2.313,2.313,0,0,1,.512.7A2.273,2.273,0,0,1,145.437,231.237Z" transform="translate(-144.553 -229.741)" fill="#a869c5"/>
      </g>
      <g id="Groupe_1372" data-name="Groupe 1372" transform="translate(40.924 45.76)">
        <path id="Tracé_3760" data-name="Tracé 3760" d="M147.9,229.554a4.886,4.886,0,0,1-.51-1.744,4.9,4.9,0,0,1,.51,1.744Z" transform="translate(-147.375 -227.81)" fill="#a869c5"/>
      </g>
      <g id="Groupe_1373" data-name="Groupe 1373" transform="translate(42.627 49.378)">
        <path id="Tracé_3761" data-name="Tracé 3761" d="M151.07,231.538a7.051,7.051,0,0,1-.966.593,7.256,7.256,0,0,1-.975.58,4.031,4.031,0,0,1,1.942-1.174Z" transform="translate(-149.126 -231.531)" fill="#a869c5"/>
      </g>
      <g id="Groupe_1374" data-name="Groupe 1374" transform="translate(45.316 52.31)">
        <path id="Tracé_3762" data-name="Tracé 3762" d="M151.9,236.423a6.748,6.748,0,0,1,.5-.938,6.672,6.672,0,0,1,.5-.937,3.393,3.393,0,0,1-.994,1.876Z" transform="translate(-151.892 -234.547)" fill="#a869c5"/>
      </g>
      <g id="Groupe_1375" data-name="Groupe 1375" transform="translate(43.019 52.56)">
        <path id="Tracé_3763" data-name="Tracé 3763" d="M149.571,237.112a7.926,7.926,0,0,1,.132-2.308,7.928,7.928,0,0,1-.132,2.308Z" transform="translate(-149.529 -234.804)" fill="#a869c5"/>
      </g>
      <g id="Groupe_1376" data-name="Groupe 1376" transform="translate(39.122 51.815)">
        <path id="Tracé_3764" data-name="Tracé 3764" d="M147.288,235.837a2.836,2.836,0,0,1-1.761-1.8c.046-.022.3.493.791.987S147.311,235.791,147.288,235.837Z" transform="translate(-145.522 -234.037)" fill="#a869c5"/>
      </g>
      <g id="Groupe_1377" data-name="Groupe 1377" transform="translate(37.076 51.251)">
        <path id="Tracé_3765" data-name="Tracé 3765" d="M143.435,235.394a5.779,5.779,0,0,1,.372-1.936,2.942,2.942,0,0,1-.1.984A2.9,2.9,0,0,1,143.435,235.394Z" transform="translate(-143.417 -233.458)" fill="#a869c5"/>
      </g>
      <g id="Groupe_1378" data-name="Groupe 1378" transform="translate(42.004 57.547)">
        <path id="Tracé_3766" data-name="Tracé 3766" d="M149.676,239.939c.026.041-.264.264-.585.571s-.561.58-.6.552.147-.358.484-.676A1.463,1.463,0,0,1,149.676,239.939Z" transform="translate(-148.485 -239.933)" fill="#a869c5"/>
      </g>
      <g id="Groupe_1379" data-name="Groupe 1379" transform="translate(38.664 56.93)">
        <path id="Tracé_3767" data-name="Tracé 3767" d="M145.152,241.482a3.612,3.612,0,0,1-.1-1.091,3.552,3.552,0,0,1,.069-1.093,7.092,7.092,0,0,1,.031,2.184Z" transform="translate(-145.05 -239.298)" fill="#a869c5"/>
      </g>
      <g id="Groupe_1380" data-name="Groupe 1380" transform="translate(34.756 59.567)">
        <path id="Tracé_3768" data-name="Tracé 3768" d="M142.977,242.814a3.781,3.781,0,0,1-1.945-.8,27.409,27.409,0,0,1,1.945.8Z" transform="translate(-141.031 -242.01)" fill="#a869c5"/>
      </g>
      <g id="Groupe_1381" data-name="Groupe 1381" transform="translate(35.244 55.182)">
        <path id="Tracé_3769" data-name="Tracé 3769" d="M141.821,239.433a5.646,5.646,0,0,1-.263-1.933,5.646,5.646,0,0,1,.263,1.933Z" transform="translate(-141.533 -237.5)" fill="#a869c5"/>
      </g>
      <g id="Groupe_1382" data-name="Groupe 1382" transform="translate(37.514 62.452)">
        <path id="Tracé_3770" data-name="Tracé 3770" d="M145.614,245a2.4,2.4,0,0,1-.859.243,2.376,2.376,0,0,1-.888.075,4.7,4.7,0,0,1,1.746-.318Z" transform="translate(-143.868 -244.978)" fill="#a869c5"/>
      </g>
      <g id="Groupe_1383" data-name="Groupe 1383" transform="translate(33.245 62.046)">
        <path id="Tracé_3771" data-name="Tracé 3771" d="M139.7,246.433a5.279,5.279,0,0,1-.188-1.873,5.279,5.279,0,0,1,.188,1.873Z" transform="translate(-139.477 -244.56)" fill="#a869c5"/>
      </g>
      <g id="Groupe_1384" data-name="Groupe 1384" transform="translate(31.072 65.355)">
        <path id="Tracé_3772" data-name="Tracé 3772" d="M137.688,249.9a5.824,5.824,0,0,1-.431-1.936,2.945,2.945,0,0,1,.3.949A2.981,2.981,0,0,1,137.688,249.9Z" transform="translate(-137.242 -247.963)" fill="#a869c5"/>
      </g>
      <g id="Groupe_1385" data-name="Groupe 1385" transform="translate(31.583 68.964)">
        <path id="Tracé_3773" data-name="Tracé 3773" d="M139.329,251.682a4.625,4.625,0,0,1-1.56.813,4.624,4.624,0,0,1,1.56-.813Z" transform="translate(-137.768 -251.675)" fill="#a869c5"/>
      </g>
      <g id="Groupe_1386" data-name="Groupe 1386" transform="translate(34.146 66.288)">
        <path id="Tracé_3774" data-name="Tracé 3774" d="M141.443,250.876a3.457,3.457,0,0,1-1.031-1.953,8.483,8.483,0,0,1,.5.982A8.314,8.314,0,0,1,141.443,250.876Z" transform="translate(-140.403 -248.923)" fill="#a869c5"/>
      </g>
      <g id="Groupe_1387" data-name="Groupe 1387" transform="translate(37.338 65.621)">
        <path id="Tracé_3775" data-name="Tracé 3775" d="M144.288,249.66a3.523,3.523,0,0,1-.591-1.422,1.839,1.839,0,0,1,.374.679A1.808,1.808,0,0,1,144.288,249.66Z" transform="translate(-143.686 -248.237)" fill="#a869c5"/>
      </g>
      <g id="Groupe_1388" data-name="Groupe 1388" transform="translate(34.891 69.97)">
        <path id="Tracé_3776" data-name="Tracé 3776" d="M142.857,252.713a7.485,7.485,0,0,1-1.685,1.5,7.542,7.542,0,0,1,1.685-1.5Z" transform="translate(-141.17 -252.71)" fill="#a869c5"/>
      </g>
      <g id="Groupe_1389" data-name="Groupe 1389" transform="translate(38.991 69.108)">
        <path id="Tracé_3777" data-name="Tracé 3777" d="M146.927,253.98a5.045,5.045,0,0,1-1.536-2.156,147.7,147.7,0,0,0,1.536,2.156Z" transform="translate(-145.386 -251.823)" fill="#a869c5"/>
      </g>
      <g id="Groupe_1390" data-name="Groupe 1390" transform="translate(37.764 72.739)">
        <path id="Tracé_3778" data-name="Tracé 3778" d="M145.872,255.6a2.325,2.325,0,0,1-.867.147,2.349,2.349,0,0,1-.88-.022,4.567,4.567,0,0,1,1.747-.124Z" transform="translate(-144.125 -255.558)" fill="#a869c5"/>
      </g>
      <g id="Groupe_1391" data-name="Groupe 1391" transform="translate(41.234 63.8)">
        <path id="Tracé_3779" data-name="Tracé 3779" d="M148.53,249.1a12.223,12.223,0,0,1-.828-2.741,12.046,12.046,0,0,1,.828,2.741Z" transform="translate(-147.694 -246.364)" fill="#a869c5"/>
      </g>
      <g id="Groupe_1392" data-name="Groupe 1392" transform="translate(43.821 65.044)">
        <path id="Tracé_3780" data-name="Tracé 3780" d="M152.54,247.665a3.724,3.724,0,0,1-1.081.236,3.667,3.667,0,0,1-1.1.068,7.211,7.211,0,0,1,2.186-.3Z" transform="translate(-150.354 -247.643)" fill="#a869c5"/>
      </g>
      <g id="Groupe_1393" data-name="Groupe 1393" transform="translate(42.568 69.142)">
        <path id="Tracé_3781" data-name="Tracé 3781" d="M150.441,251.878a26490.647,26490.647,0,0,1-1.373.624c-.029-.034.221-.289.616-.467A1.2,1.2,0,0,1,150.441,251.878Z" transform="translate(-149.066 -251.858)" fill="#a869c5"/>
      </g>
      <g id="Groupe_1394" data-name="Groupe 1394" transform="translate(43.992 71.106)">
        <path id="Tracé_3782" data-name="Tracé 3782" d="M152.166,255.554a8.062,8.062,0,0,1-1.633-1.674,4.1,4.1,0,0,1,.877.778A4.159,4.159,0,0,1,152.166,255.554Z" transform="translate(-150.531 -253.878)" fill="#a869c5"/>
      </g>
      <g id="Groupe_1395" data-name="Groupe 1395" transform="translate(47.548 67.788)">
        <path id="Tracé_3783" data-name="Tracé 3783" d="M154.2,252.464a4.849,4.849,0,0,1,.071-1,4.75,4.75,0,0,1,.117-1,3.5,3.5,0,0,1-.188,2Z" transform="translate(-154.187 -250.466)" fill="#a869c5"/>
      </g>
      <g id="Groupe_1396" data-name="Groupe 1396" transform="translate(48.008 71.99)">
        <path id="Tracé_3784" data-name="Tracé 3784" d="M156.786,254.794a7.921,7.921,0,0,1-2.125.929,3.967,3.967,0,0,1,1.029-.542A4.038,4.038,0,0,1,156.786,254.794Z" transform="translate(-154.66 -254.787)" fill="#a869c5"/>
      </g>
      <g id="Groupe_1397" data-name="Groupe 1397" transform="translate(50.377 65.224)">
        <path id="Tracé_3785" data-name="Tracé 3785" d="M158.349,250.076a9.747,9.747,0,0,1-1.247-2.247,9.743,9.743,0,0,1,1.247,2.247Z" transform="translate(-157.097 -247.828)" fill="#a869c5"/>
      </g>
      <g id="Groupe_1398" data-name="Groupe 1398" transform="translate(50.593 69.198)">
        <path id="Tracé_3786" data-name="Tracé 3786" d="M159.407,252.013a7.956,7.956,0,0,1-1.044.091,8.1,8.1,0,0,1-1.042.12,3.077,3.077,0,0,1,2.087-.211Z" transform="translate(-157.32 -251.915)" fill="#a869c5"/>
      </g>
      <g id="Groupe_1399" data-name="Groupe 1399" transform="translate(54.864 66.413)">
        <path id="Tracé_3787" data-name="Tracé 3787" d="M163.211,250.927c-.044.023-.316-.44-.728-.953s-.8-.882-.769-.92a3.756,3.756,0,0,1,1.5,1.873Z" transform="translate(-161.712 -249.051)" fill="#a869c5"/>
      </g>
      <g id="Groupe_1400" data-name="Groupe 1400" transform="translate(53.87 71.363)">
        <path id="Tracé_3788" data-name="Tracé 3788" d="M162.32,254.153a4.5,4.5,0,0,1-1.63.608,4.521,4.521,0,0,1,1.63-.608Z" transform="translate(-160.689 -254.142)" fill="#a869c5"/>
      </g>
      <g id="Groupe_1401" data-name="Groupe 1401" transform="translate(61.077 71.222)">
        <path id="Tracé_3789" data-name="Tracé 3789" d="M168.39,255.869a5.3,5.3,0,0,1-.263-1.871,2.692,2.692,0,0,1,.216.924A2.742,2.742,0,0,1,168.39,255.869Z" transform="translate(-168.102 -253.998)" fill="#a869c5"/>
      </g>
      <g id="Groupe_1402" data-name="Groupe 1402" transform="translate(62.152 67.228)">
        <path id="Tracé_3790" data-name="Tracé 3790" d="M169.228,252.074a7.249,7.249,0,0,1,.313-2.184,7.249,7.249,0,0,1-.313,2.184Z" transform="translate(-169.207 -249.89)" fill="#a869c5"/>
      </g>
      <g id="Groupe_1403" data-name="Groupe 1403" transform="translate(56.987 70.349)">
        <path id="Tracé_3791" data-name="Tracé 3791" d="M165.147,253.1a7.757,7.757,0,0,1-.545,1.53,7.856,7.856,0,0,1-.7,1.465,15.483,15.483,0,0,1,1.246-3Z" transform="translate(-163.896 -253.1)" fill="#a869c5"/>
      </g>
      <g id="Groupe_1404" data-name="Groupe 1404" transform="translate(47.405 56.993)">
        <path id="Tracé_3792" data-name="Tracé 3792" d="M154.377,241.61a7.617,7.617,0,0,1-.316-2.247,3.86,3.86,0,0,1,.242,1.111A3.926,3.926,0,0,1,154.377,241.61Z" transform="translate(-154.04 -239.363)" fill="#a869c5"/>
      </g>
      <g id="Groupe_1405" data-name="Groupe 1405" transform="translate(47.786 61.735)">
        <path id="Tracé_3793" data-name="Tracé 3793" d="M154.707,245.552c-.041.019-.2-.252-.257-.633a.966.966,0,0,1,.072-.679c.049.006.045.3.1.655S154.752,245.532,154.707,245.552Z" transform="translate(-154.432 -244.24)" fill="#a869c5"/>
      </g>
      <g id="Groupe_1406" data-name="Groupe 1406" transform="translate(48.42 75.964)">
        <path id="Tracé_3794" data-name="Tracé 3794" d="M155.476,260.436a3.809,3.809,0,0,1-.374-1.561,3.861,3.861,0,0,1,.374,1.561Z" transform="translate(-155.084 -258.875)" fill="#a869c5"/>
      </g>
      <g id="Groupe_1407" data-name="Groupe 1407" transform="translate(51.123 76.134)">
        <path id="Tracé_3795" data-name="Tracé 3795" d="M159.987,259.745a7.367,7.367,0,0,1-2.122-.686,7.367,7.367,0,0,1,2.122.686Z" transform="translate(-157.865 -259.049)" fill="#a869c5"/>
      </g>
      <g id="Groupe_1408" data-name="Groupe 1408" transform="translate(55.737 76.086)">
        <path id="Tracé_3796" data-name="Tracé 3796" d="M163.923,259c.03.036-.24.3-.6.6a2.138,2.138,0,0,1-.709.465c-.029-.036.24-.3.6-.6A2.155,2.155,0,0,1,163.923,259Z" transform="translate(-162.61 -259)" fill="#a869c5"/>
      </g>
      <g id="Groupe_1409" data-name="Groupe 1409" transform="translate(58.985 76.319)">
        <path id="Tracé_3797" data-name="Tracé 3797" d="M167.761,259.882a5.674,5.674,0,0,1-.905-.313,5.607,5.607,0,0,1-.906-.307,2.74,2.74,0,0,1,1.811.62Z" transform="translate(-165.95 -259.24)" fill="#a869c5"/>
      </g>
      <g id="Groupe_1410" data-name="Groupe 1410" transform="translate(64.403 75.4)">
        <path id="Tracé_3798" data-name="Tracé 3798" d="M172.283,258.3c.035.034-.158.28-.36.6s-.343.6-.389.583a1.12,1.12,0,0,1,.245-.674C171.994,258.469,172.252,258.265,172.283,258.3Z" transform="translate(-171.523 -258.294)" fill="#a869c5"/>
      </g>
      <g id="Groupe_1411" data-name="Groupe 1411" transform="translate(64.941 64.546)">
        <path id="Tracé_3799" data-name="Tracé 3799" d="M172.408,249.19a3.316,3.316,0,0,1-.239-1.017,3.256,3.256,0,0,1-.071-1.042,3.316,3.316,0,0,1,.239,1.017A3.257,3.257,0,0,1,172.408,249.19Z" transform="translate(-172.076 -247.131)" fill="#a869c5"/>
      </g>
      <g id="Groupe_1412" data-name="Groupe 1412" transform="translate(67.412 67.469)">
        <path id="Tracé_3800" data-name="Tracé 3800" d="M176.114,251.207a5.022,5.022,0,0,1-1.5-1.065,2.581,2.581,0,0,1,.8.463A2.535,2.535,0,0,1,176.114,251.207Z" transform="translate(-174.617 -250.137)" fill="#a869c5"/>
      </g>
      <g id="Groupe_1413" data-name="Groupe 1413" transform="translate(72.778 60.371)">
        <path id="Tracé_3801" data-name="Tracé 3801" d="M180.144,245.327a10.1,10.1,0,0,1,.835-2.489,10.216,10.216,0,0,1-.835,2.489Z" transform="translate(-180.136 -242.838)" fill="#a869c5"/>
      </g>
      <g id="Groupe_1414" data-name="Groupe 1414" transform="translate(69.062 61.319)">
        <path id="Tracé_3802" data-name="Tracé 3802" d="M177.778,244.984a2.665,2.665,0,0,1-.785-.517c-.4-.323-.707-.614-.678-.65a2.678,2.678,0,0,1,.784.517C177.5,244.656,177.807,244.947,177.778,244.984Z" transform="translate(-176.314 -243.812)" fill="#a869c5"/>
      </g>
      <g id="Groupe_1415" data-name="Groupe 1415" transform="translate(70.906 58.056)">
        <path id="Tracé_3803" data-name="Tracé 3803" d="M178.968,240.457a4.738,4.738,0,0,1-.75,1.623,4.738,4.738,0,0,1,.75-1.623Z" transform="translate(-178.211 -240.456)" fill="#a869c5"/>
      </g>
      <g id="Groupe_1416" data-name="Groupe 1416" transform="translate(66.648 60.486)">
        <path id="Tracé_3804" data-name="Tracé 3804" d="M174.532,244.579a2.775,2.775,0,0,1-.686-1.623,14.72,14.72,0,0,1,.686,1.623Z" transform="translate(-173.832 -242.956)" fill="#a869c5"/>
      </g>
      <g id="Groupe_1417" data-name="Groupe 1417" transform="translate(69.469 53.807)">
        <path id="Tracé_3805" data-name="Tracé 3805" d="M177.982,236.088a2.157,2.157,0,0,1-1.248,1.185c-.024-.043.293-.262.631-.585S177.942,236.061,177.982,236.088Z" transform="translate(-176.733 -236.086)" fill="#a869c5"/>
      </g>
      <g id="Groupe_1418" data-name="Groupe 1418" transform="translate(66.157 52.995)">
        <path id="Tracé_3806" data-name="Tracé 3806" d="M174.268,236.626c-.039.027-.28-.26-.539-.639a2.1,2.1,0,0,1-.4-.734c.039-.026.28.26.539.639A2.1,2.1,0,0,1,174.268,236.626Z" transform="translate(-173.326 -235.251)" fill="#a869c5"/>
      </g>
      <g id="Groupe_1419" data-name="Groupe 1419" transform="translate(69.155 50.184)">
        <path id="Tracé_3807" data-name="Tracé 3807" d="M177.848,233.24a2.166,2.166,0,0,1-.762-.365c-.4-.241-.7-.47-.674-.51a2.159,2.159,0,0,1,.762.365C177.571,232.972,177.872,233.2,177.848,233.24Z" transform="translate(-176.411 -232.36)" fill="#a869c5"/>
      </g>
      <g id="Groupe_1420" data-name="Groupe 1420" transform="translate(72.95 51.499)">
        <path id="Tracé_3808" data-name="Tracé 3808" d="M180.351,236.335a10.17,10.17,0,0,1,.155-2.623,10.172,10.172,0,0,1-.155,2.623Z" transform="translate(-180.313 -233.712)" fill="#a869c5"/>
      </g>
      <g id="Groupe_1421" data-name="Groupe 1421" transform="translate(71.121 65.535)">
        <path id="Tracé_3809" data-name="Tracé 3809" d="M178.44,250.33a8.067,8.067,0,0,1,.822-2.181,4.041,4.041,0,0,1-.331,1.121A4.084,4.084,0,0,1,178.44,250.33Z" transform="translate(-178.432 -248.149)" fill="#a869c5"/>
      </g>
      <g id="Groupe_1422" data-name="Groupe 1422" transform="translate(74.45 65.983)">
        <path id="Tracé_3810" data-name="Tracé 3810" d="M181.869,250.727a7.017,7.017,0,0,1,.515-2.118,7.016,7.016,0,0,1-.515,2.118Z" transform="translate(-181.856 -248.609)" fill="#a869c5"/>
      </g>
      <g id="Groupe_1423" data-name="Groupe 1423" transform="translate(68.795 75.154)">
        <path id="Tracé_3811" data-name="Tracé 3811" d="M176.655,259.724a1.969,1.969,0,0,1-.579-1.682c.05,0,.089.4.249.855S176.7,259.695,176.655,259.724Z" transform="translate(-176.04 -258.042)" fill="#a869c5"/>
      </g>
      <g id="Groupe_1424" data-name="Groupe 1424" transform="translate(79.181 48.254)">
        <path id="Tracé_3812" data-name="Tracé 3812" d="M186.856,232.623a3.77,3.77,0,0,1,.081-2.248,7.849,7.849,0,0,1-.043,1.124A7.7,7.7,0,0,1,186.856,232.623Z" transform="translate(-186.721 -230.375)" fill="#a869c5"/>
      </g>
      <g id="Groupe_1425" data-name="Groupe 1425" transform="translate(75.71 47.808)">
        <path id="Tracé_3813" data-name="Tracé 3813" d="M184.775,230.366a2.129,2.129,0,0,1-.833-.135,2.168,2.168,0,0,1-.789-.3,2.15,2.15,0,0,1,.833.135A2.177,2.177,0,0,1,184.775,230.366Z" transform="translate(-183.152 -229.916)" fill="#a869c5"/>
      </g>
      <g id="Groupe_1426" data-name="Groupe 1426" transform="translate(77.63 42.886)">
        <path id="Tracé_3814" data-name="Tracé 3814" d="M185.194,227.225a4.233,4.233,0,0,1-.065-1.187,4.159,4.159,0,0,1,.105-1.184,8.4,8.4,0,0,1-.04,2.371Z" transform="translate(-185.127 -224.854)" fill="#a869c5"/>
      </g>
      <g id="Groupe_1427" data-name="Groupe 1427" transform="translate(74.153 43.57)">
        <path id="Tracé_3815" data-name="Tracé 3815" d="M183.415,225.751a5.194,5.194,0,0,1-1.864-.158,5.193,5.193,0,0,1,1.864.158Z" transform="translate(-181.551 -225.557)" fill="#a869c5"/>
      </g>
      <g id="Groupe_1428" data-name="Groupe 1428" transform="translate(74.48 38.892)">
        <path id="Tracé_3816" data-name="Tracé 3816" d="M182.055,222.431a4.273,4.273,0,0,1-.125-1.685,4.226,4.226,0,0,1,.125,1.685Z" transform="translate(-181.887 -220.746)" fill="#a869c5"/>
      </g>
      <g id="Groupe_1429" data-name="Groupe 1429" transform="translate(75.97 54.109)">
        <path id="Tracé_3817" data-name="Tracé 3817" d="M184.607,237.96a5.667,5.667,0,0,1-1.184-1.562,5.718,5.718,0,0,1,1.184,1.562Z" transform="translate(-183.419 -236.397)" fill="#a869c5"/>
      </g>
      <g id="Groupe_1430" data-name="Groupe 1430" transform="translate(78.664 56.053)">
        <path id="Tracé_3818" data-name="Tracé 3818" d="M186.226,240.333a2.87,2.87,0,0,1,0-.976,2.84,2.84,0,0,1,.166-.961,5.609,5.609,0,0,1-.163,1.937Z" transform="translate(-186.19 -238.396)" fill="#a869c5"/>
      </g>
      <g id="Groupe_1431" data-name="Groupe 1431" transform="translate(79.769 59.462)">
        <path id="Tracé_3819" data-name="Tracé 3819" d="M188.887,241.934a3.665,3.665,0,0,1-1.56.189,3.66,3.66,0,0,1,1.56-.189Z" transform="translate(-187.327 -241.902)" fill="#a869c5"/>
      </g>
      <g id="Groupe_1432" data-name="Groupe 1432" transform="translate(82.058 61.357)">
        <path id="Tracé_3820" data-name="Tracé 3820" d="M190.191,243.852a3.708,3.708,0,0,1-.5,1.5,3.708,3.708,0,0,1,.5-1.5Z" transform="translate(-189.681 -243.852)" fill="#a869c5"/>
      </g>
      <g id="Groupe_1433" data-name="Groupe 1433" transform="translate(84.194 64.168)">
        <path id="Tracé_3821" data-name="Tracé 3821" d="M192.259,246.745c.04.03-.123.287-.191.643s-.019.655-.067.668a.811.811,0,0,1-.1-.7C191.98,246.953,192.228,246.713,192.259,246.745Z" transform="translate(-191.878 -246.742)" fill="#a869c5"/>
      </g>
      <g id="Groupe_1434" data-name="Groupe 1434" transform="translate(83.263 59.45)">
        <path id="Tracé_3822" data-name="Tracé 3822" d="M192.98,241.99a7.069,7.069,0,0,1-1.031.086,7.194,7.194,0,0,1-1.03.1,3.092,3.092,0,0,1,2.06-.188Z" transform="translate(-190.92 -241.89)" fill="#a869c5"/>
      </g>
      <g id="Groupe_1435" data-name="Groupe 1435" transform="translate(87.208 58.739)">
        <path id="Tracé_3823" data-name="Tracé 3823" d="M195.283,241.159a7.117,7.117,0,0,1-.116,1.028,6.88,6.88,0,0,1-.1,1.029,3.093,3.093,0,0,1,.214-2.056Z" transform="translate(-194.978 -241.159)" fill="#a869c5"/>
      </g>
      <g id="Groupe_1436" data-name="Groupe 1436" transform="translate(82.218 52.495)">
        <path id="Tracé_3824" data-name="Tracé 3824" d="M189.872,237.3a9.713,9.713,0,0,1,.242-2.56,9.821,9.821,0,0,1-.242,2.56Z" transform="translate(-189.846 -234.737)" fill="#a869c5"/>
      </g>
      <g id="Groupe_1437" data-name="Groupe 1437" transform="translate(79.328 52.371)">
        <path id="Tracé_3825" data-name="Tracé 3825" d="M188.554,234.959a4.375,4.375,0,0,1-1.681-.33,4.375,4.375,0,0,1,1.681.33Z" transform="translate(-186.873 -234.61)" fill="#a869c5"/>
      </g>
      <g id="Groupe_1438" data-name="Groupe 1438" transform="translate(81.807 47.066)">
        <path id="Tracé_3826" data-name="Tracé 3826" d="M189.7,231.339a3.152,3.152,0,0,1-.141-2.186,22.373,22.373,0,0,0,.141,2.186Z" transform="translate(-189.422 -229.153)" fill="#a869c5"/>
      </g>
      <g id="Groupe_1439" data-name="Groupe 1439" transform="translate(79.58 45.659)">
        <path id="Tracé_3827" data-name="Tracé 3827" d="M188.131,227.874c-.006.047-.234.056-.509.021s-.495-.1-.489-.148.234-.055.51-.02S188.136,227.828,188.131,227.874Z" transform="translate(-187.132 -227.706)" fill="#a869c5"/>
      </g>
      <g id="Groupe_1440" data-name="Groupe 1440" transform="translate(83.759 51.37)">
        <path id="Tracé_3828" data-name="Tracé 3828" d="M192.745,234.333a1.175,1.175,0,0,1-.743-.222c-.379-.215-.6-.5-.568-.527s.3.178.652.38S192.757,234.286,192.745,234.333Z" transform="translate(-191.431 -233.58)" fill="#a869c5"/>
      </g>
      <g id="Groupe_1441" data-name="Groupe 1441" transform="translate(85.096 55.633)">
        <path id="Tracé_3829" data-name="Tracé 3829" d="M194.416,237.971a2.467,2.467,0,0,1-.766.493,2.5,2.5,0,0,1-.844.342,4.892,4.892,0,0,1,1.61-.835Z" transform="translate(-192.805 -237.964)" fill="#a869c5"/>
      </g>
      <path id="Tracé_3830" data-name="Tracé 3830" d="M162.411,213.387l.248-2.762,5.5,4.292,1.373,2.217,2.459-5.734.6.8v3.474l-2.657,3.234-5.013-.437Z" transform="translate(-106.867 -181.574)" fill="#f9fafd"/>
      <g id="Groupe_1442" data-name="Groupe 1442" transform="translate(55.346 31.726)">
        <path id="Tracé_3831" data-name="Tracé 3831" d="M167.916,215.333a1.68,1.68,0,0,1,0,.336c-.017.245-.038.556-.063.931-.069.827-.162,1.936-.269,3.216l-.017.2-.126-.153-1.22-1.479c-1.126-1.368-2.137-2.613-2.862-3.519-.344-.438-.631-.8-.852-1.078a2.746,2.746,0,0,1-.294-.41,3.008,3.008,0,0,1,.345.369l.895,1.044c.749.887,1.773,2.119,2.9,3.486l1.213,1.483-.142.045.33-3.21.111-.928A1.5,1.5,0,0,1,167.916,215.333Z" transform="translate(-162.207 -213.376)" fill="#c7cddd"/>
      </g>
      <g id="Groupe_1443" data-name="Groupe 1443" transform="translate(64.562 31.984)">
        <path id="Tracé_3832" data-name="Tracé 3832" d="M172.774,215.606a2.248,2.248,0,0,1-.028.555c-.035.347-.093.837-.167,1.408l-.047.357-.109-.345c-.1-.3-.191-.632-.279-.981a16.764,16.764,0,0,1-.394-2.082,3.717,3.717,0,0,1-.053-.877,5.629,5.629,0,0,1,.172.859c.094.531.237,1.261.439,2.057.087.346.18.677.267.977l-.156.012c.087-.57.165-1.056.228-1.4A2.322,2.322,0,0,1,172.774,215.606Z" transform="translate(-171.686 -213.641)" fill="#c7cddd"/>
      </g>
      <g id="Groupe_1444" data-name="Groupe 1444" transform="translate(62.673 35.419)">
        <path id="Tracé_3833" data-name="Tracé 3833" d="M172.361,234.491a.706.706,0,0,1-.043-.174l-.089-.5c-.073-.462-.173-1.089-.295-1.853-.235-1.59-.556-3.743-.909-6.124s-.675-4.535-.912-6.124c-.116-.765-.212-1.393-.282-1.855-.029-.2-.053-.37-.072-.5a.707.707,0,0,1-.014-.179.746.746,0,0,1,.048.172l.1.5c.086.435.2,1.066.335,1.846.27,1.562.61,3.726.961,6.119s.65,4.561.861,6.131c.1.768.181,1.4.241,1.862.023.2.042.372.057.507A.7.7,0,0,1,172.361,234.491Z" transform="translate(-169.743 -217.174)" fill="#c7cddd"/>
      </g>
      <g id="Groupe_1445" data-name="Groupe 1445" transform="translate(59.992 36.268)">
        <path id="Tracé_3834" data-name="Tracé 3834" d="M167.28,218.06c.029.038-.032.132-.092.245s-.109.213-.157.21-.074-.144.007-.292S167.253,218.022,167.28,218.06Z" transform="translate(-166.986 -218.048)" fill="#c7cddd"/>
      </g>
      <g id="Groupe_1446" data-name="Groupe 1446" transform="translate(65.261 33.879)">
        <path id="Tracé_3835" data-name="Tracé 3835" d="M172.483,216.153c-.048,0-.082-.128-.077-.284s.047-.281.094-.279.081.128.076.284S172.529,216.155,172.483,216.153Z" transform="translate(-172.406 -215.59)" fill="#c7cddd"/>
      </g>
      <g id="Groupe_1447" data-name="Groupe 1447" transform="translate(62.669 32.172)">
        <path id="Tracé_3836" data-name="Tracé 3836" d="M171.66,213.835a7.963,7.963,0,0,1-1.918,3.273c-.04-.032.484-.7,1.01-1.606S171.614,213.816,171.66,213.835Z" transform="translate(-169.74 -213.835)" fill="#c7cddd"/>
      </g>
      <g id="Groupe_1448" data-name="Groupe 1448" transform="translate(61.026 33.823)">
        <path id="Tracé_3837" data-name="Tracé 3837" d="M169.8,217.366a7.1,7.1,0,0,1-1.749-1.832,5.689,5.689,0,0,1,.915.877A5.812,5.812,0,0,1,169.8,217.366Z" transform="translate(-168.049 -215.532)" fill="#c7cddd"/>
      </g>
      <g id="Groupe_1449" data-name="Groupe 1449" transform="translate(64.048 40.227)">
        <path id="Tracé_3838" data-name="Tracé 3838" d="M171.324,222.575c-.04.031-.136-.073-.155-.209s-.016-.216.021-.242.129.083.146.211S171.361,222.546,171.324,222.575Z" transform="translate(-171.158 -222.119)" fill="#c7cddd"/>
      </g>
      <g id="Groupe_1450" data-name="Groupe 1450" transform="translate(64.613 43.513)">
        <path id="Tracé_3839" data-name="Tracé 3839" d="M171.84,225.952c-.048,0-.082-.1-.1-.217s.014-.233.06-.236.092.091.109.217S171.886,225.954,171.84,225.952Z" transform="translate(-171.739 -225.499)" fill="#c7cddd"/>
      </g>
      <g id="Groupe_1454" data-name="Groupe 1454" transform="translate(56.166 25.921)">
        <path id="Tracé_3843" data-name="Tracé 3843" d="M172.342,208.716a1.567,1.567,0,0,1-.337.208,6.822,6.822,0,0,1-1,.423,7.695,7.695,0,0,1-6.849-.965,6.745,6.745,0,0,1-.841-.682,1.59,1.59,0,0,1-.267-.294c.022-.024.416.384,1.175.875a8.026,8.026,0,0,0,6.747.951C171.837,208.969,172.328,208.687,172.342,208.716Z" transform="translate(-163.051 -207.406)" fill="#e08f8d"/>
      </g>
      <path id="Tracé_3847" data-name="Tracé 3847" d="M160.656,196.814a2.5,2.5,0,0,0-.141,1.732c.231.546,1.093.811,1.415.312a1.244,1.244,0,0,0,.133-.673q.02-2.389.04-4.779a6.277,6.277,0,0,0,4.861-4.492,4.227,4.227,0,0,0,4.081.136,2.894,2.894,0,0,1,1.623-.59c.7.094,1.109.815,1.683,1.223a2.166,2.166,0,0,0,3.1-.85,2.726,2.726,0,0,0-1.264-3.238c-1.364-.826-3.084-.666-4.668-.479l-8.777,1.037a3.086,3.086,0,0,0-1.595.5,2.888,2.888,0,0,0-.83,1.5,21.676,21.676,0,0,0-.892,6.79,2.1,2.1,0,0,0,.755,1.867" transform="translate(-106.784 -180.863)" fill="#552e3b"/>
      <g id="Groupe_1463" data-name="Groupe 1463" transform="translate(72.211 71.819)">
        <path id="Tracé_3853" data-name="Tracé 3853" d="M183.44,260.646a5.883,5.883,0,0,1-.673-.812c-.394-.518-.916-1.251-1.454-2.087s-.99-1.614-1.3-2.187a5.774,5.774,0,0,1-.46-.949,7.48,7.48,0,0,1,.564.89c.335.556.8,1.321,1.338,2.155s1.04,1.573,1.408,2.108A7.344,7.344,0,0,1,183.44,260.646Z" transform="translate(-179.553 -254.612)" fill="#e08f8d"/>
      </g>
      <g id="Groupe_1464" data-name="Groupe 1464" transform="translate(71.138 73.605)">
        <path id="Tracé_3854" data-name="Tracé 3854" d="M182.88,260.657a.618.618,0,0,1-.246-.025,2.509,2.509,0,0,1-.632-.242,5.811,5.811,0,0,1-1.641-1.483c-.547-.664-1.032-1.271-1.378-1.716a4.94,4.94,0,0,1-.532-.742,4.9,4.9,0,0,1,.625.666c.369.425.869,1.021,1.415,1.683a6.578,6.578,0,0,0,1.57,1.488A6.054,6.054,0,0,0,182.88,260.657Z" transform="translate(-178.45 -256.448)" fill="#e08f8d"/>
      </g>
      <path id="Tracé_3855" data-name="Tracé 3855" d="M189,262.221l8.514-21.405,28.54.522-8.027,20.289L189,262.221" transform="translate(-107.604 -182.41)" fill="#b8abd6"/>
      <path id="Tracé_3856" data-name="Tracé 3856" d="M198.858,240.841l-8.721,21.381,27.918-.595,8.027-20.289Z" transform="translate(-107.635 -182.411)" fill="#968abc"/>
      <ellipse id="Ellipse_58" data-name="Ellipse 58" cx="1.944" cy="1.577" rx="1.944" ry="1.577" transform="matrix(0.707, -0.707, 0.707, 0.707, 99.007, 69.298)" fill="#d7d1e8"/>
      <path id="Tracé_3857" data-name="Tracé 3857" d="M207.916,249.994a2.53,2.53,0,1,1-.407,3.909A2.809,2.809,0,0,1,207.916,249.994Z" transform="translate(-108.1 -182.636)" fill="#d7d1e8" opacity="0.19"/>
      <g id="Groupe_1465" data-name="Groupe 1465" transform="translate(23.455 3.541)" opacity="0.43">
        <path id="Tracé_3858" data-name="Tracé 3858" d="M135.47,185a9.726,9.726,0,1,1-1.256.6" transform="translate(-129.407 -184.387)" fill="#ede6f5"/>
      </g>
    </g>
    <path id="Tracé_3859" data-name="Tracé 3859" d="M206.4,228.449a3.149,3.149,0,0,1,3.978-4.107c.769.269,1.416.829,2.2,1.06a2.787,2.787,0,0,0,3.035-4.322" transform="translate(-2.796 -1.118)" fill="none" stroke="#6e3281" stroke-miterlimit="10" stroke-width="1.15"/>
    <path id="Tracé_3860" data-name="Tracé 3860" d="M212.029,194.347a29.487,29.487,0,0,0,1.962,2.794c.159.2.363.418.617.4a.809.809,0,0,0,.392-.183l3.268-2.326-2.408-3.707-2.871,2.032" transform="translate(-2.958 -0.293)" fill="none" stroke="#edc483" stroke-miterlimit="10" stroke-width="1.15"/>
    <path id="Tracé_3861" data-name="Tracé 3861" d="M200.228,206.553a2.868,2.868,0,1,0,4.622,1.206c-.568-1.651-2.571-2.443-4.3-2.2" transform="translate(-2.605 -0.686)" fill="none" stroke="#8aa9fc" stroke-miterlimit="10" stroke-width="1.15"/>
    <path id="Tracé_3862" data-name="Tracé 3862" d="M230.311,218.012q-.458,3.433-.915,6.866l6.389-1.018a20.784,20.784,0,0,0-4.771-5.9" transform="translate(-3.439 -1.031)" fill="none" stroke="#e3707f" stroke-miterlimit="10" stroke-width="1.15"/>
    <path id="Tracé_3863" data-name="Tracé 3863" d="M223.844,212.525l.77-6.751" transform="translate(-3.285 -0.693)" fill="none" stroke="#e8947e" stroke-miterlimit="10" stroke-width="1.15"/>
    <path id="Tracé_3864" data-name="Tracé 3864" d="M231.61,203.547l-.109-.109" transform="translate(-3.497 -0.629)" fill="none" stroke="#e8947e" stroke-miterlimit="10" stroke-width="1.15"/>
  </g>
</svg>
