<svg width="78" height="19" viewBox="0 0 78 19" fill="none" xmlns="http://www.w3.org/2000/svg">
<path d="M5.62877 14.27C4.66877 14.27 3.80177 14.102 3.02777 13.766C2.25977 13.424 1.62677 12.938 1.12877 12.308C0.636775 11.672 0.324775 10.916 0.192775 10.04L2.74877 9.662C2.92877 10.406 3.30077 10.979 3.86477 11.381C4.42877 11.783 5.07077 11.984 5.79077 11.984C6.19277 11.984 6.58277 11.921 6.96077 11.795C7.33877 11.669 7.64777 11.483 7.88778 11.237C8.13378 10.991 8.25678 10.688 8.25678 10.328C8.25678 10.196 8.23578 10.07 8.19377 9.95C8.15777 9.824 8.09478 9.707 8.00478 9.599C7.91477 9.491 7.78577 9.389 7.61777 9.293C7.45577 9.197 7.24877 9.11 6.99677 9.032L3.63077 8.042C3.37877 7.97 3.08477 7.868 2.74877 7.736C2.41877 7.604 2.09777 7.415 1.78577 7.169C1.47377 6.923 1.21277 6.599 1.00277 6.197C0.798775 5.789 0.696775 5.276 0.696775 4.658C0.696775 3.788 0.915775 3.065 1.35377 2.489C1.79177 1.913 2.37677 1.484 3.10877 1.202C3.84077 0.919999 4.65077 0.781999 5.53877 0.788C6.43277 0.799999 7.23077 0.952999 7.93278 1.247C8.63477 1.541 9.22277 1.97 9.69677 2.534C10.1708 3.092 10.5128 3.776 10.7228 4.586L8.07677 5.036C7.98077 4.616 7.80377 4.262 7.54577 3.974C7.28777 3.686 6.97877 3.467 6.61877 3.317C6.26477 3.167 5.89277 3.086 5.50277 3.074C5.11877 3.062 4.75577 3.116 4.41377 3.236C4.07777 3.35 3.80177 3.518 3.58577 3.74C3.37577 3.962 3.27077 4.226 3.27077 4.532C3.27077 4.814 3.35777 5.045 3.53177 5.225C3.70577 5.399 3.92477 5.54 4.18877 5.648C4.45277 5.756 4.72277 5.846 4.99877 5.918L7.24877 6.53C7.58477 6.62 7.95677 6.74 8.36477 6.89C8.77277 7.034 9.16277 7.238 9.53477 7.502C9.91278 7.76 10.2218 8.102 10.4618 8.528C10.7078 8.954 10.8308 9.494 10.8308 10.148C10.8308 10.844 10.6838 11.453 10.3898 11.975C10.1018 12.491 9.71178 12.92 9.21978 13.262C8.72777 13.598 8.16977 13.85 7.54577 14.018C6.92777 14.186 6.28877 14.27 5.62877 14.27ZM12.0709 14L12.0889 1.04H14.5729V8.96L17.8669 4.28H20.8909L17.3809 9.14L21.1249 14H17.9389L14.5729 9.32V14H12.0709ZM25.6428 14.27C24.6468 14.27 23.7678 14.057 23.0058 13.631C22.2498 13.199 21.6558 12.608 21.2238 11.858C20.7978 11.102 20.5848 10.238 20.5848 9.266C20.5848 8.204 20.7948 7.28 21.2148 6.494C21.6348 5.708 22.2138 5.099 22.9518 4.667C23.6898 4.229 24.5388 4.01 25.4988 4.01C26.5188 4.01 27.3858 4.25 28.0998 4.73C28.8138 5.21 29.3418 5.885 29.6838 6.755C30.0258 7.625 30.1458 8.648 30.0438 9.824H27.6228V8.924C27.6228 7.934 27.4638 7.223 27.1458 6.791C26.8338 6.353 26.3208 6.134 25.6068 6.134C24.7728 6.134 24.1578 6.389 23.7618 6.899C23.3718 7.403 23.1768 8.15 23.1768 9.14C23.1768 10.046 23.3718 10.748 23.7618 11.246C24.1578 11.738 24.7368 11.984 25.4988 11.984C25.9788 11.984 26.3898 11.879 26.7318 11.669C27.0738 11.459 27.3348 11.156 27.5148 10.76L29.9628 11.462C29.5968 12.35 29.0178 13.04 28.2258 13.532C27.4398 14.024 26.5788 14.27 25.6428 14.27ZM22.4208 9.824V8.006H28.8648V9.824H22.4208ZM31.356 14V4.28H33.516V6.656L33.282 6.35C33.408 6.014 33.576 5.708 33.786 5.432C33.996 5.156 34.254 4.928 34.56 4.748C34.794 4.604 35.049 4.493 35.325 4.415C35.601 4.331 35.886 4.28 36.18 4.262C36.474 4.238 36.768 4.244 37.062 4.28V6.566C36.792 6.482 36.477 6.455 36.117 6.485C35.763 6.509 35.442 6.59 35.154 6.728C34.866 6.86 34.623 7.037 34.425 7.259C34.227 7.475 34.077 7.733 33.975 8.033C33.873 8.327 33.822 8.66 33.822 9.032V14H31.356ZM38.2339 14V0.77H40.6819V14H38.2339ZM42.8401 2.93V0.77H45.2881V2.93H42.8401ZM42.8401 14V4.28H45.2881V14H42.8401ZM53.8903 14V9.41C53.8903 9.188 53.8783 8.906 53.8543 8.564C53.8303 8.216 53.7553 7.868 53.6293 7.52C53.5033 7.172 53.2963 6.881 53.0083 6.647C52.7263 6.413 52.3243 6.296 51.8023 6.296C51.5923 6.296 51.3673 6.329 51.1273 6.395C50.8873 6.461 50.6623 6.59 50.4523 6.782C50.2423 6.968 50.0683 7.244 49.9303 7.61C49.7983 7.976 49.7323 8.462 49.7323 9.068L48.3283 8.402C48.3283 7.634 48.4843 6.914 48.7963 6.242C49.1083 5.57 49.5763 5.027 50.2003 4.613C50.8303 4.199 51.6223 3.992 52.5763 3.992C53.3383 3.992 53.9593 4.121 54.4393 4.379C54.9193 4.637 55.2913 4.964 55.5553 5.36C55.8253 5.756 56.0173 6.17 56.1313 6.602C56.2453 7.028 56.3143 7.418 56.3383 7.772C56.3623 8.126 56.3743 8.384 56.3743 8.546V14H53.8903ZM47.2483 14V4.28H49.4263V7.502H49.7323V14H47.2483ZM62.1476 18.59C61.5956 18.59 61.0706 18.5 60.5726 18.32C60.0746 18.146 59.6276 17.9 59.2316 17.582C58.8416 17.27 58.5236 16.904 58.2776 16.484L60.5456 15.386C60.7016 15.674 60.9236 15.893 61.2116 16.043C61.5056 16.193 61.8236 16.268 62.1656 16.268C62.5316 16.268 62.8766 16.205 63.2006 16.079C63.5246 15.959 63.7826 15.776 63.9746 15.53C64.1726 15.29 64.2656 14.99 64.2536 14.63V11.804H64.5596V4.28H66.7016V14.666C66.7016 14.906 66.6896 15.131 66.6656 15.341C66.6476 15.557 66.6116 15.77 66.5576 15.98C66.4016 16.574 66.1106 17.063 65.6846 17.447C65.2646 17.831 64.7486 18.116 64.1366 18.302C63.5246 18.494 62.8616 18.59 62.1476 18.59ZM61.9316 14.27C61.0376 14.27 60.2546 14.045 59.5826 13.595C58.9106 13.145 58.3856 12.533 58.0076 11.759C57.6356 10.985 57.4496 10.112 57.4496 9.14C57.4496 8.15 57.6386 7.271 58.0166 6.503C58.4006 5.729 58.9376 5.12 59.6276 4.676C60.3176 4.232 61.1276 4.01 62.0576 4.01C62.9816 4.01 63.7586 4.235 64.3886 4.685C65.0186 5.135 65.4956 5.747 65.8196 6.521C66.1436 7.295 66.3056 8.168 66.3056 9.14C66.3056 10.112 66.1406 10.985 65.8106 11.759C65.4866 12.533 65.0006 13.145 64.3526 13.595C63.7046 14.045 62.8976 14.27 61.9316 14.27ZM62.3276 12.092C62.8736 12.092 63.3086 11.969 63.6326 11.723C63.9626 11.477 64.1996 11.132 64.3436 10.688C64.4876 10.244 64.5596 9.728 64.5596 9.14C64.5596 8.552 64.4876 8.036 64.3436 7.592C64.1996 7.148 63.9686 6.803 63.6506 6.557C63.3386 6.311 62.9276 6.188 62.4176 6.188C61.8716 6.188 61.4216 6.323 61.0676 6.593C60.7196 6.857 60.4616 7.214 60.2936 7.664C60.1256 8.108 60.0416 8.6 60.0416 9.14C60.0416 9.686 60.1226 10.184 60.2846 10.634C60.4466 11.078 60.6956 11.432 61.0316 11.696C61.3676 11.96 61.7996 12.092 62.3276 12.092ZM72.8761 14.27C71.8981 14.27 71.0401 14.051 70.3021 13.613C69.5641 13.175 68.9881 12.572 68.5741 11.804C68.1661 11.03 67.9621 10.142 67.9621 9.14C67.9621 8.126 68.1721 7.235 68.5921 6.467C69.0121 5.693 69.5911 5.09 70.3291 4.658C71.0671 4.226 71.9161 4.01 72.8761 4.01C73.8541 4.01 74.7121 4.229 75.4501 4.667C76.1941 5.105 76.7731 5.711 77.1871 6.485C77.6011 7.253 77.8081 8.138 77.8081 9.14C77.8081 10.148 77.5981 11.039 77.1781 11.813C76.7641 12.581 76.1851 13.184 75.4411 13.622C74.7031 14.054 73.8481 14.27 72.8761 14.27ZM72.8761 11.984C73.6621 11.984 74.2471 11.72 74.6311 11.192C75.0211 10.658 75.2161 9.974 75.2161 9.14C75.2161 8.276 75.0181 7.586 74.6221 7.07C74.2321 6.554 73.6501 6.296 72.8761 6.296C72.3421 6.296 71.9041 6.416 71.5621 6.656C71.2201 6.896 70.9651 7.229 70.7971 7.655C70.6351 8.081 70.5541 8.576 70.5541 9.14C70.5541 10.01 70.7491 10.703 71.1391 11.219C71.5351 11.729 72.1141 11.984 72.8761 11.984Z" fill="#F8830D"/>
</svg>
